<?xml version="1.0" encoding="utf-8"?>
<!-- Generator: Adobe Illustrator 27.1.1, SVG Export Plug-In . SVG Version: 6.00 Build 0)  -->
<svg version="1.1" id="Layer_1" xmlns="http://www.w3.org/2000/svg" xmlns:xlink="http://www.w3.org/1999/xlink" x="0px" y="0px"
	 viewBox="0 0 200 200" style="enable-background:new 0 0 200 200;" xml:space="preserve">
<style type="text/css">
	.st0{fill:#E22026;}
</style>
<g>
	<path class="st0" d="M159.99,119.48c-0.71,3-2.73,5.05-4.92,7.06c-8.35,7.7-16.67,15.43-24.94,23.22
		c-3.36,3.16-7.22,4.7-11.84,4.68c-11.48-0.07-22.95-0.02-34.43-0.02c-0.43,0-0.86,0.02-1.28-0.05c-1.23-0.19-2.04-1.14-2.03-2.34
		c0.01-1.2,0.82-2.14,2.05-2.32c0.46-0.07,0.93-0.04,1.4-0.04c11.4,0,22.8-0.02,34.2,0.01c3.33,0.01,6.14-1.04,8.58-3.33
		c8.86-8.3,17.76-16.56,26.64-24.83c1.89-1.76,2.33-3.77,1.28-5.65c-1.37-2.44-4.51-2.92-6.72-0.94c-2.61,2.35-5.16,4.77-7.73,7.17
		c-3.94,3.67-7.91,7.32-11.82,11.03c-3.25,3.08-7.08,4.6-11.54,4.58c-5.93-0.02-11.87-0.01-17.8-0.03
		c-2.09-0.01-3.25-0.88-3.25-2.39c0-1.52,1.18-2.42,3.24-2.42c5.93-0.01,11.87,0.02,17.8-0.02c2.73-0.02,4.48-2.33,3.71-4.82
		c-0.46-1.49-1.57-2.26-3.03-2.63c-4.99-1.26-9.97-2.52-14.96-3.78c-2.87-0.72-5.74-1.44-8.62-2.14c-3.19-0.78-6.37-0.62-9.47,0.35
		c-5.8,1.82-11.57,3.73-17.35,5.61c-0.11,0.04-0.2,0.12-0.47,0.29c0,0.39,0,0.89,0,1.38c0,9.84-0.01,19.68,0.01,29.51
		c0,1.41-0.27,2.62-1.57,3.39c-7.81,0-15.62,0-23.42,0c-1.26-0.64-1.7-1.66-1.69-3.06c0.03-13.43,0.02-26.85,0.02-40.28
		c0-2.29,0.8-3.1,3.1-3.1c6.83-0.01,13.66-0.01,20.49,0c2.21,0,3.02,0.81,3.06,3.03c0.02,1.24,0,2.48,0,3.9
		c0.66-0.19,1.14-0.32,1.61-0.47c5.38-1.7,10.75-3.48,16.16-5.1c3.91-1.17,7.88-0.87,11.79,0.11c7.1,1.78,14.18,3.68,21.31,5.37
		c4.64,1.1,7.6,3.59,8.08,8.71c0.5-0.44,0.87-0.76,1.23-1.09c5.86-5.45,11.7-10.91,17.57-16.36c3.51-3.26,7.93-3.7,11.67-1.17
		c2.19,1.48,3.33,3.64,3.9,6.16C159.99,117.6,159.99,118.54,159.99,119.48z M61.81,118.43c-5.74,0-11.36,0-16.94,0
		c0,12.33,0,24.55,0,36.76c5.69,0,11.29,0,16.94,0C61.81,142.91,61.81,130.72,61.81,118.43z"/>
	<path class="st0" d="M108.71,106.16c-1.46,2.98-3.95,3.95-7.07,3.76c-1.36-0.08-2.73,0.01-4.1-0.03c-3.37-0.1-5.98-2.78-5.98-6.11
		c0-3.33,2.61-6.01,5.98-6.11c1.37-0.04,2.74,0.06,4.1-0.03c3.12-0.19,5.6,0.78,7.08,3.76c3.62,0,7.2,0,10.79,0
		c2.03,0,4.06,0.01,6.09-0.01c1.37-0.01,1.85-0.47,1.85-1.82c0-13.08,0.09-26.16-0.04-39.23c-0.08-8.52-6.81-15.18-15.33-15.53
		c-1.01-0.04-2.03,0.01-3.04-0.04c-1.43-0.06-2.43-1.04-2.45-2.33c-0.02-1.29,0.97-2.32,2.38-2.4c7.14-0.42,13.34,1.61,18.17,7.08
		c3.6,4.08,5.17,8.91,5.15,14.3c-0.01,1.71,0,3.43,0,5.26c4.73,0.73,8.47,2.95,10.98,7.02c1.72,2.79,2.29,5.83,2.03,9.09
		c-0.51,6.35-4.84,10.78-13.01,13.06c0,1.16,0.03,2.4,0,3.63c-0.08,3.45-1.88,5.84-4.92,6.51c-0.6,0.13-1.24,0.14-1.86,0.14
		c-5.15,0.01-10.31,0.01-15.46,0.01C109.6,106.16,109.17,106.16,108.71,106.16z M132.35,90.78c4.67-0.36,8.39-4.96,8.18-10.04
		c-0.19-4.55-4.21-8.99-8.18-8.94C132.35,78.12,132.35,84.45,132.35,90.78z M100.46,102.42c-0.86,0-1.72-0.02-2.57,0
		c-0.9,0.02-1.55,0.44-1.53,1.39c0.01,0.88,0.64,1.31,1.48,1.32c1.68,0.03,3.35,0.02,5.03,0c0.85-0.01,1.47-0.46,1.48-1.33
		c0.01-0.94-0.64-1.37-1.54-1.39C102.02,102.4,101.24,102.42,100.46,102.42z"/>
	<path class="st0" d="M118.51,78.1c-0.39,0.93-0.75,1.78-1.26,2.97c0.49,0.38,1.12,0.74,1.58,1.25c0.97,1.07,1.02,2.33,0.04,3.37
		c-1.68,1.79-3.42,3.53-5.22,5.21c-1.08,1.01-2.25,0.96-3.36-0.03c-0.49-0.43-0.85-1.02-1.29-1.56c-1.08,0.44-1.93,0.78-2.88,1.17
		c0,0.64,0.02,1.26,0,1.87c-0.08,1.7-0.91,2.64-2.6,2.7c-2.3,0.08-4.61,0.08-6.91,0c-1.76-0.05-2.6-0.99-2.67-2.75
		c-0.02-0.58,0-1.17,0-1.82c-0.89-0.37-1.74-0.72-2.92-1.21c-0.38,0.5-0.72,1.1-1.2,1.54c-1.17,1.08-2.39,1.09-3.54-0.01
		c-1.7-1.61-3.35-3.27-4.97-4.97c-1.12-1.17-1.09-2.45,0-3.64c0.42-0.46,0.93-0.83,1.41-1.26c-0.21-0.56-0.37-0.99-0.54-1.42
		c-0.18-0.43-0.37-0.85-0.62-1.42c-0.59,0-1.21,0.02-1.82,0c-1.79-0.06-2.67-0.92-2.69-2.68c-0.03-2.26-0.03-4.53,0-6.79
		c0.02-1.69,0.92-2.57,2.61-2.63c0.58-0.02,1.17,0,1.9,0c0.36-0.86,0.74-1.75,1.23-2.93c-0.5-0.4-1.12-0.78-1.58-1.29
		c-0.96-1.07-1.01-2.33-0.03-3.37c1.68-1.79,3.42-3.53,5.22-5.21c1.07-1,2.26-0.94,3.37,0.03c0.49,0.43,0.88,0.98,1.33,1.49
		c0.61-0.23,1.04-0.38,1.46-0.55c0.43-0.17,0.86-0.36,1.38-0.59c0-0.62-0.02-1.24,0-1.85c0.08-1.67,0.86-2.59,2.5-2.65
		c2.38-0.09,4.76-0.09,7.14,0c1.64,0.06,2.44,0.97,2.53,2.62c0.03,0.62,0.01,1.24,0.01,1.87c0.47,0.2,0.86,0.37,1.25,0.54
		c0.43,0.18,0.86,0.35,1.71,0.87c0.34-0.53,0.59-1.14,1.03-1.57c1.28-1.25,2.5-1.24,3.8,0.01c1.58,1.51,3.11,3.07,4.64,4.63
		c1.38,1.41,1.37,2.65,0,4.07c-0.35,0.36-0.75,0.68-1.2,1.08c0.4,0.96,0.76,1.84,1.17,2.81c0.7,0,1.35-0.03,2.01,0.01
		c1.51,0.07,2.45,0.93,2.48,2.4c0.05,2.42,0.05,4.84,0,7.26c-0.03,1.49-0.94,2.34-2.46,2.42C119.88,78.13,119.22,78.1,118.51,78.1z
		 M113.74,83.98c-0.14-0.16-0.29-0.34-0.45-0.5c-1.54-1.59-1.61-2.18-0.63-4.14c0.44-0.87,0.95-1.73,1.16-2.66
		c0.52-2.29,1.66-3.65,4.19-3.41c0.05,0.01,0.12-0.08,0.17-0.12c0-0.77,0-1.53,0-2.32c-0.31-0.02-0.54-0.05-0.77-0.05
		c-2.04-0.06-2.59-0.46-3.23-2.37c-0.3-0.88-0.52-1.83-0.99-2.61c-1.27-2.08-1.89-4.02,0.57-5.58c-0.66-0.66-1.24-1.23-1.85-1.83
		c-0.21,0.19-0.44,0.39-0.66,0.6c-1.3,1.23-2.05,1.31-3.68,0.56c-1.45-0.66-2.93-1.25-4.42-1.82c-1.16-0.44-1.77-1.21-1.81-2.45
		c-0.01-0.45-0.05-0.89-0.08-1.33c-0.92,0-1.68,0-2.49,0c-0.03,0.31-0.06,0.54-0.07,0.76c-0.08,2.12-0.44,2.53-2.49,3.24
		c-1.17,0.41-2.33,0.89-3.44,1.43c-1.99,0.98-2.58,0.92-4.16-0.57c-0.19-0.18-0.41-0.31-0.61-0.47c-0.62,0.59-1.18,1.13-1.76,1.69
		c0.2,0.23,0.34,0.4,0.5,0.57c1.57,1.64,1.63,2.18,0.6,4.24c-0.45,0.9-0.88,1.82-1.2,2.78c-0.95,2.87-1.03,2.96-4.08,3.18
		c-0.07,0-0.13,0.07-0.21,0.13c0,0.75,0,1.51,0,2.32c0.29,0.03,0.51,0.06,0.74,0.06c2.15,0.07,2.68,0.49,3.36,2.53
		c0.32,0.96,0.65,1.92,1.1,2.82c1.43,2.83,1.44,2.9-0.66,5.2c-0.04,0.04-0.03,0.13,0-0.04c0.63,0.7,1.16,1.29,1.71,1.91
		c0.21-0.19,0.38-0.34,0.55-0.5c1.51-1.44,2.16-1.52,4.06-0.57c0.8,0.4,1.59,0.9,2.44,1.09c2.32,0.52,3.89,1.56,3.63,4.24
		c0,0.03,0.04,0.06,0.1,0.15c0.75,0,1.54,0,2.37,0c0.03-0.32,0.06-0.55,0.07-0.78c0.09-2.12,0.44-2.56,2.5-3.23
		c0.81-0.26,1.67-0.48,2.39-0.91c2.06-1.23,4.01-1.95,5.65,0.6C112.57,85.15,113.14,84.58,113.74,83.98z"/>
	<path class="st0" d="M67.88,66.64c0-2.44-0.09-4.9,0.02-7.34c0.4-9.41,8.17-17.83,17.51-18.99c1.7-0.21,3.42-0.22,5.13-0.25
		c1.77-0.03,2.87,0.95,2.84,2.41c-0.03,1.41-1.1,2.35-2.8,2.33c-2.63-0.03-5.22,0.12-7.72,1.06c-5.94,2.23-10.15,7.9-10.22,14.24
		c-0.11,10.69-0.04,21.39-0.05,32.09c0,2.99-0.79,3.75-3.77,3.65c-7.29-0.24-13.51-6.03-14.05-13.06
		c-0.6-7.85,4.31-14.38,11.88-15.82C66.98,66.88,67.32,66.78,67.88,66.64z M67.69,71.74c-4.43,0.34-8.09,4.59-8.19,9.32
		c-0.1,4.88,3.51,9.21,8.19,9.74C67.69,84.47,67.69,78.14,67.69,71.74z"/>
	<path class="st0" d="M102.46,42.38c0.02,1.32-1.01,2.38-2.35,2.41c-1.31,0.02-2.42-1.04-2.45-2.33c-0.02-1.28,1.06-2.38,2.37-2.41
		C101.36,40.03,102.44,41.06,102.46,42.38z"/>
	<path class="st0" d="M75.76,152.07c-0.02,1.32-1.1,2.37-2.4,2.32c-1.24-0.04-2.28-1.1-2.29-2.34c-0.01-1.27,1.09-2.39,2.37-2.39
		C74.74,149.67,75.78,150.75,75.76,152.07z"/>
	<path class="st0" d="M50.99,132.88c0-2.65-0.01-5.3,0.01-7.95c0.01-1.08,0.51-1.86,1.53-2.26c0.89-0.35,1.77-0.21,2.37,0.48
		c0.43,0.49,0.81,1.22,0.82,1.85c0.06,5.3,0.07,10.6,0.02,15.9c-0.01,1.5-1.11,2.51-2.42,2.49c-1.34-0.02-2.3-1.02-2.32-2.56
		C50.95,138.18,50.98,135.53,50.99,132.88C50.99,132.88,50.99,132.88,50.99,132.88z"/>
	<path class="st0" d="M51.01,149.56c0.02-1.33,1.08-2.33,2.42-2.28c1.25,0.04,2.29,1.09,2.3,2.32c0,1.24-1.16,2.4-2.4,2.38
		C52.05,151.97,50.98,150.86,51.01,149.56z"/>
	<path class="st0" d="M108.95,72.1c-0.02,4.88-4.13,8.95-8.97,8.9c-4.91-0.06-8.91-4.1-8.89-8.98c0.02-4.9,4.09-8.92,8.97-8.88
		C104.98,63.18,108.98,67.21,108.95,72.1z M99.96,76.18c2.32,0.03,4.21-1.79,4.23-4.09c0.02-2.24-1.8-4.11-4.05-4.15
		c-2.34-0.05-4.23,1.72-4.29,4.03C95.79,74.24,97.65,76.15,99.96,76.18z"/>
</g>
</svg>
