<?xml version="1.0" encoding="utf-8"?>
<!-- Generator: Adobe Illustrator 26.1.0, SVG Export Plug-In . SVG Version: 6.00 Build 0)  -->
<svg version="1.1" id="Layer_1" xmlns="http://www.w3.org/2000/svg" xmlns:xlink="http://www.w3.org/1999/xlink" x="0px" y="0px"
	 viewBox="0 0 200 200" style="enable-background:new 0 0 200 200;" xml:space="preserve">
<style type="text/css">
	.st0{fill:#DC1518;}
	.st1{fill:#FFFFFF;}
</style>
<g>
	<circle class="st0" cx="100" cy="100" r="87"/>
</g>
<g>
	<path class="st1" d="M33.44,131.42c0.33-1.47,0.61-2.95,1.01-4.39c3.3-11.74,13.99-19.98,26.13-19.95
		c8.58,0.03,15.68,3.44,21.24,10c0.2,0.23,0.39,0.46,0.59,0.69c0.03,0.03,0.07,0.04,0.2,0.1c0.46-0.29,0.96-0.62,1.47-0.94
		c4.33-2.79,8.65-5.6,12.99-8.36c0.65-0.42,0.96-0.85,0.95-1.65c-0.04-4.29-0.04-8.58,0-12.87c0.01-0.9-0.19-1.29-1.18-1.38
		C85.47,91.61,75.31,82.24,73.24,71c-1.45-7.85,0.09-15.04,4.75-21.52c0.36-0.5,0.93-1.11,1.45-1.15c0.67-0.06,1.56,0.22,2.04,0.69
		C82.2,49.72,82,50.7,81.4,51.5c-1.79,2.38-3.13,4.98-3.88,7.86c-1.88,7.26-0.64,13.97,3.73,20.08c0.19,0.27,0.44,0.51,0.72,0.84
		c2.34-4.29,5.47-7.76,9.41-10.49c-4.41-6.23-2.21-12.47,1.52-15.59c4.15-3.47,10.27-3.42,14.32,0.08c3.68,3.18,5.82,9.34,1.43,15.5
		c3.95,2.72,7.08,6.19,9.43,10.51c2.2-2.59,3.63-5.47,4.48-8.63c3.59-13.28-5.07-26.82-18.66-29.11
		c-5.81-0.98-11.27,0.14-16.29,3.27c-0.18,0.11-0.37,0.23-0.55,0.34c-1.29,0.78-2.42,0.66-3.09-0.34c-0.69-1.02-0.37-2.12,0.89-2.96
		c2.87-1.92,5.98-3.3,9.37-3.97c15.46-3.1,29.84,6.45,32.66,21.98c2.77,15.27-7.65,28.9-21.84,31.53c-0.97,0.18-1.95,0.31-3.02,0.47
		c0,3.44-0.01,6.82,0,10.19c0,1.6-0.47,3.48,0.2,4.73c0.67,1.24,2.49,1.88,3.83,2.75c3.74,2.42,7.49,4.83,11.36,7.33
		c0.33-0.39,0.65-0.77,0.98-1.14c7.7-8.52,17.13-11.41,28.28-8.68c1.87,0.46,2.68,1.43,2.36,2.65c-0.35,1.35-1.46,1.74-3.41,1.2
		c-13.68-3.76-27.39,5.03-29.47,19.03c-0.95,6.36,0.58,12.19,4.42,17.39c0.17,0.24,0.38,0.45,0.62,0.72
		c2.32-4.28,5.45-7.75,9.38-10.47c-3.54-6.53-3-11.78,1.56-15.61c4.07-3.42,9.93-3.45,14.11-0.09c4.63,3.72,5.21,9,1.68,15.69
		c3.91,2.73,7.05,6.19,9.38,10.5c2.49-3,4.12-6.32,4.78-10.03c1.68-9.5-1.32-17.29-8.83-23.34c-0.86-0.69-1.58-1.4-1.17-2.62
		c0.47-1.36,1.98-1.72,3.29-0.75c4.98,3.67,8.38,8.48,10.07,14.42c4.45,15.68-5.26,31.34-21.31,34.48
		c-14.4,2.82-29.08-7.24-31.7-21.67c-1.11-6.13-0.32-11.96,2.44-17.53c0.11-0.23,0.21-0.46,0.37-0.8c-0.86-0.56-1.68-1.1-2.5-1.63
		c-3.96-2.56-7.92-5.13-11.9-7.66c-0.36-0.23-1.04-0.39-1.33-0.2c-4.93,3.12-9.83,6.3-14.62,9.39c0.84,2.5,1.83,4.85,2.42,7.29
		c3.66,15.04-6.9,30.63-22.21,32.9c-0.6,0.09-1.2,0.21-1.8,0.23c-1.29,0.05-2.18-0.69-2.27-1.81c-0.08-1.03,0.68-1.78,1.87-2.1
		c2.7-0.72,5.44-1.35,8.04-2.36c1.77-0.69,3.31-1.97,5-3.01c-2.28-4.93-5.62-8.55-10.02-11.23c-0.44-0.27-0.92-0.52-1.27-0.88
		c-0.9-0.93-0.71-2.07,0.5-3.12c2.46-2.11,3.26-4.74,2.33-7.82c-0.82-2.74-3.41-4.73-6.13-4.85c-3.18-0.15-5.81,1.37-7.07,4.09
		c-1.23,2.66-0.69,5.83,1.36,7.94c0.21,0.22,0.44,0.42,0.67,0.62c1.59,1.42,1.47,2.73-0.38,3.82c-4.57,2.69-8.03,6.39-10.33,11.3
		c2.6,2.3,5.6,3.82,8.93,4.76c0.5,0.14,1.02,0.23,1.48,0.45c0.95,0.45,1.3,1.25,1.06,2.26c-0.23,0.96-0.91,1.55-1.89,1.42
		c-1.1-0.15-2.22-0.4-3.26-0.79c-10.32-3.87-16.46-11.22-18.27-22.12c-0.04-0.25-0.16-0.48-0.25-0.72
		C33.44,135.4,33.44,133.41,33.44,131.42z M78.8,148.99c7.09-8.22,7.56-22.43-2.06-31.57c-9.42-8.96-24.47-8.4-33.28,1.27
		c-8.74,9.6-7.23,23.19-0.74,30.35c2.29-4.27,5.45-7.76,9.42-10.5c-4.27-6.03-2.31-12.13,1.17-15.27c3.92-3.54,9.75-3.87,13.98-0.77
		c2.18,1.6,3.59,3.72,4.25,6.33c0.9,3.55-0.04,6.74-2.15,9.69C73.36,141.3,76.48,144.72,78.8,148.99z M154.34,152.02
		c-2.19-4.72-5.56-8.36-10.02-11.04c-2.15-1.29-2.3-2.48-0.46-4.11c1.85-1.64,2.64-3.67,2.46-6.13c-0.27-3.62-3.41-6.42-7.22-6.38
		c-3.66,0.04-6.74,2.99-6.92,6.57c-0.13,2.58,0.86,4.59,2.81,6.24c1.36,1.15,1.21,2.55-0.28,3.52c-0.25,0.16-0.53,0.3-0.78,0.46
		c-4.33,2.68-7.63,6.27-9.75,10.91C132.92,159.76,146.33,159.31,154.34,152.02z M115.07,83.35c-1.75-4.32-5.49-8.45-10.03-11.14
		c-2.12-1.26-2.23-2.45-0.4-4.1c2.2-1.98,2.94-4.45,2.21-7.28c-0.79-3.07-3.46-5.12-6.64-5.26c-2.88-0.13-5.69,1.74-6.8,4.51
		c-1.14,2.87-0.33,6.07,2.07,8.1c1.72,1.47,1.58,2.75-0.36,3.98c-1.38,0.88-2.75,1.8-4,2.86c-2.7,2.29-4.75,5.08-6.19,8.28
		C93.18,90.72,106.83,90.73,115.07,83.35z"/>
	<path class="st1" d="M139.31,162.5c-5.53,0-11.1-1.71-15.85-4.95c-6.21-4.24-10.51-10.74-11.8-17.84
		c-1.14-6.29-0.3-12.35,2.51-18.03c0.02-0.05,0.05-0.1,0.07-0.15l-4.22-2.74c-3.19-2.06-6.38-4.13-9.59-6.16
		c-0.15-0.09-0.41-0.16-0.53-0.16c-4.04,2.56-8.09,5.18-12.01,7.71l-2,1.3c0.2,0.59,0.41,1.17,0.62,1.74
		c0.59,1.63,1.2,3.32,1.62,5.03c1.79,7.37,0.3,15.33-4.08,21.85c-4.4,6.54-11.25,10.93-18.79,12.04l-0.45,0.07
		c-0.46,0.08-0.94,0.15-1.44,0.17c-1.7,0.06-2.98-0.99-3.11-2.55c-0.11-1.38,0.83-2.51,2.47-2.95c0.55-0.15,1.11-0.29,1.67-0.44
		c2.1-0.55,4.27-1.11,6.28-1.9c1.14-0.44,2.19-1.16,3.3-1.91c0.32-0.21,0.64-0.43,0.96-0.64c-2.14-4.34-5.22-7.69-9.4-10.24
		l-0.24-0.14c-0.39-0.23-0.83-0.49-1.19-0.86c-0.55-0.56-0.82-1.23-0.79-1.93c0.04-0.82,0.5-1.64,1.35-2.37
		c2.23-1.92,2.92-4.2,2.08-6.97c-0.71-2.36-2.98-4.16-5.39-4.28c-2.83-0.14-5.18,1.22-6.29,3.62c-1.09,2.35-0.6,5.17,1.21,7.03
		c0.17,0.18,0.36,0.34,0.54,0.51l0.08,0.08c1,0.89,1.45,1.81,1.36,2.72c-0.09,0.91-0.72,1.72-1.87,2.39
		c-4.36,2.57-7.55,5.97-9.74,10.39c2.31,1.92,4.98,3.3,8.15,4.19c0.13,0.04,0.26,0.07,0.39,0.1c0.4,0.1,0.81,0.2,1.21,0.39
		c1.28,0.6,1.84,1.79,1.5,3.18c-0.34,1.41-1.43,2.21-2.78,2.03c-1.25-0.17-2.4-0.45-3.43-0.83c-10.62-3.98-16.94-11.63-18.79-22.75
		c-0.01-0.08-0.06-0.2-0.11-0.32c-0.04-0.09-0.07-0.17-0.1-0.26l-0.05-0.13l0.02-6.3c0.1-0.46,0.2-0.92,0.3-1.39
		c0.21-1,0.44-2.03,0.72-3.04c3.4-12.1,14.42-20.54,26.83-20.54c0.03,0,0.06,0,0.09,0c8.74,0.03,16.09,3.49,21.85,10.29l0.12,0.15
		c0.04,0.05,0.09,0.1,0.13,0.15l4.23-2.73c3.23-2.09,6.47-4.18,9.71-6.25c0.47-0.3,0.58-0.49,0.58-0.96
		c-0.04-4.29-0.04-8.62,0-12.88c0-0.37-0.04-0.47-0.05-0.49c0,0-0.08-0.05-0.4-0.08c-11.72-1.09-22.18-10.69-24.32-22.33
		c-1.49-8.1,0.15-15.56,4.89-22.14c0.46-0.64,1.19-1.42,2.04-1.49c0.93-0.08,2.05,0.31,2.67,0.92c0.94,0.92,0.94,2.31,0,3.55
		c-1.8,2.4-3.06,4.94-3.74,7.57c-1.8,6.96-0.61,13.46,3.53,19.31c2.17-3.67,5-6.78,8.43-9.28c-4.06-6.37-1.82-12.71,2.12-16.01
		c4.42-3.7,11.03-3.66,15.37,0.09c3.85,3.33,6.02,9.65,2.01,15.91c3.46,2.51,6.23,5.56,8.43,9.28c1.66-2.18,2.83-4.61,3.59-7.4
		c1.65-6.12,0.63-12.69-2.79-18.04c-3.43-5.34-8.97-9.01-15.21-10.06c-5.57-0.94-10.86,0.12-15.72,3.15l-0.56,0.35
		c-1.66,1.01-3.26,0.78-4.18-0.58c-0.43-0.63-0.58-1.32-0.45-2c0.16-0.79,0.69-1.51,1.55-2.08c3.07-2.05,6.32-3.43,9.66-4.1
		c7.77-1.56,15.52-0.06,21.83,4.23c6.22,4.22,10.4,10.76,11.79,18.41c2.73,15.1-7.35,29.67-22.48,32.48
		c-0.67,0.12-1.34,0.22-2.04,0.33l-0.32,0.05l0,2.36c0,2.39,0,4.76,0,7.13c0,0.51-0.04,1.03-0.08,1.53
		c-0.09,1.05-0.17,2.14,0.19,2.81c0.36,0.67,1.33,1.2,2.27,1.71c0.43,0.23,0.88,0.48,1.28,0.74c2.68,1.74,5.37,3.47,8.11,5.23
		l2.65,1.71c0.18-0.21,0.35-0.42,0.54-0.62c7.87-8.72,17.65-11.72,29.07-8.93c1.32,0.32,2.23,0.89,2.7,1.68
		c0.35,0.58,0.43,1.26,0.25,1.96c-0.2,0.77-0.6,1.33-1.19,1.67c-0.78,0.45-1.83,0.49-3.22,0.11c-6.35-1.75-13.1-0.72-18.53,2.82
		c-5.44,3.54-8.96,9.06-9.93,15.55c-0.89,6,0.49,11.57,4.11,16.58c2.17-3.68,5.02-6.81,8.47-9.3c-3.32-6.53-2.6-12.05,2.08-15.98
		c4.4-3.69,10.63-3.73,15.14-0.1c4.83,3.89,5.57,9.29,2.21,16.07c3.46,2.52,6.29,5.65,8.46,9.31c2.04-2.71,3.31-5.58,3.87-8.73
		c1.61-9.11-1.26-16.7-8.54-22.57c-0.72-0.58-2.06-1.66-1.43-3.51c0.29-0.84,0.91-1.47,1.72-1.72c0.91-0.28,1.94-0.07,2.82,0.58
		c5.17,3.81,8.65,8.81,10.37,14.85c2.2,7.76,1.13,15.76-3.01,22.51c-4.18,6.8-10.9,11.42-18.92,12.99
		C142.67,162.34,140.99,162.5,139.31,162.5z M99.89,110.85c0.52,0,1.07,0.19,1.4,0.41c3.21,2.04,6.41,4.1,9.6,6.17l5.39,3.5
		l-0.43,0.95c-0.09,0.2-0.16,0.36-0.24,0.52c-2.69,5.44-3.46,11.01-2.37,17.03c1.21,6.68,5.27,12.8,11.12,16.79
		c5.84,3.98,12.99,5.52,19.63,4.22c7.58-1.48,13.92-5.83,17.85-12.25c3.9-6.36,4.91-13.89,2.83-21.22
		c-1.61-5.69-4.9-10.4-9.77-13.99c-0.47-0.34-0.97-0.47-1.38-0.34c-0.31,0.1-0.54,0.34-0.67,0.7c-0.21,0.62-0.02,0.97,0.91,1.72
		c7.77,6.27,10.84,14.38,9.12,24.12c-0.66,3.74-2.33,7.24-4.96,10.41l-0.77,0.92l-0.57-1.06c-2.25-4.16-5.24-7.5-9.13-10.22
		l-0.59-0.41l0.33-0.63c3.36-6.38,2.88-11.18-1.47-14.68c-3.9-3.14-9.28-3.11-13.08,0.08c-4.23,3.55-4.69,8.46-1.36,14.6l0.35,0.64
		l-0.6,0.41c-3.83,2.64-6.9,6.07-9.13,10.19l-0.56,1.03l-0.99-1.13c-0.17-0.18-0.31-0.35-0.45-0.53c-4-5.42-5.54-11.47-4.57-17.99
		c1.02-6.85,4.9-12.92,10.65-16.66c5.82-3.79,13.05-4.89,19.84-3.02c1.16,0.32,1.71,0.2,1.98,0.05c0.13-0.08,0.32-0.23,0.44-0.68
		c0.07-0.28,0.05-0.51-0.07-0.72c-0.24-0.39-0.84-0.72-1.7-0.93c-10.79-2.64-20.04,0.2-27.49,8.44c-0.22,0.25-0.44,0.5-0.65,0.76
		l-0.77,0.91l-3.84-2.47c-2.74-1.76-5.43-3.5-8.11-5.24c-0.36-0.23-0.75-0.45-1.18-0.68c-1.15-0.62-2.33-1.27-2.93-2.37
		c-0.59-1.09-0.48-2.42-0.37-3.71c0.04-0.49,0.08-0.96,0.08-1.39c-0.01-2.37,0-4.74,0-7.13l0-3.75l1.7-0.26
		c0.68-0.1,1.33-0.2,1.98-0.32c14.26-2.65,23.76-16.37,21.19-30.59c-1.31-7.22-5.25-13.38-11.1-17.36
		c-5.94-4.04-13.26-5.45-20.6-3.98c-3.13,0.63-6.19,1.92-9.08,3.85c-0.49,0.33-0.79,0.7-0.86,1.05c-0.05,0.25,0.02,0.51,0.2,0.78
		c0.42,0.62,1.09,0.65,2,0.1l0.49-0.3c5.27-3.28,10.94-4.42,16.91-3.41c6.69,1.13,12.64,5.06,16.31,10.79
		c3.67,5.73,4.76,12.78,2.99,19.33c-0.92,3.42-2.44,6.35-4.65,8.94l-0.76,0.9l-0.56-1.04c-2.3-4.22-5.3-7.56-9.18-10.23l-0.68-0.47
		l0.48-0.67c4.05-5.69,2.27-11.34-1.3-14.42c-3.74-3.23-9.45-3.27-13.27-0.07c-3.52,2.95-5.46,8.74-1.38,14.5l0.47,0.67l-0.67,0.47
		c-3.89,2.69-6.88,6.03-9.16,10.21l-0.56,1.03l-0.77-0.88c-0.09-0.11-0.18-0.2-0.26-0.29c-0.19-0.21-0.36-0.4-0.51-0.61
		c-4.49-6.28-5.79-13.26-3.85-20.75c0.73-2.84,2.08-5.58,4.01-8.14c0.25-0.34,0.61-0.98,0.16-1.43c-0.29-0.28-0.94-0.5-1.4-0.46
		c-0.09,0.02-0.45,0.25-0.86,0.82c-4.47,6.22-6.02,13.25-4.61,20.9c2.02,10.95,11.85,19.98,22.88,21.01
		c1.72,0.16,1.93,1.26,1.92,2.2c-0.04,4.25-0.04,8.57,0,12.85c0.01,1.04-0.39,1.74-1.33,2.34c-3.24,2.07-6.47,4.15-9.71,6.24
		l-5.12,3.3l-0.49-0.23c-0.09-0.04-0.25-0.1-0.39-0.27c-0.16-0.18-0.31-0.36-0.47-0.55l-0.12-0.14c-5.45-6.42-12.38-9.69-20.62-9.72
		c-0.03,0-0.05,0-0.08,0c-11.69,0-22.07,7.95-25.27,19.36c-0.27,0.96-0.49,1.97-0.69,2.95c-0.09,0.44-0.19,0.88-0.29,1.32v5.74
		c0.01,0.02,0.02,0.05,0.03,0.07c0.08,0.19,0.16,0.41,0.21,0.66c1.75,10.5,7.72,17.74,17.76,21.5c0.92,0.34,1.95,0.6,3.08,0.75
		c0.19,0.03,0.77,0.1,0.99-0.81c0.16-0.65-0.03-1.06-0.61-1.33c-0.26-0.12-0.58-0.2-0.92-0.29c-0.15-0.04-0.29-0.07-0.44-0.11
		c-3.62-1.03-6.65-2.64-9.25-4.94l-0.45-0.4l0.26-0.55c2.33-5,5.82-8.81,10.65-11.66c0.66-0.39,1.04-0.8,1.08-1.16
		c0.04-0.36-0.26-0.84-0.83-1.36l-0.08-0.07c-0.21-0.19-0.42-0.38-0.62-0.58c-2.27-2.34-2.88-5.89-1.52-8.84
		c1.4-3.02,4.31-4.72,7.84-4.55c3.13,0.15,5.95,2.38,6.87,5.43c1.01,3.35,0.11,6.35-2.58,8.66c-0.49,0.42-0.77,0.85-0.78,1.21
		c-0.01,0.25,0.1,0.48,0.33,0.72c0.21,0.22,0.53,0.4,0.86,0.6l0.26,0.15c4.67,2.84,8.05,6.63,10.33,11.58l0.3,0.65l-0.61,0.38
		c-0.51,0.32-1.02,0.66-1.51,0.99c-1.14,0.77-2.31,1.57-3.62,2.08c-2.11,0.82-4.32,1.4-6.47,1.95c-0.55,0.14-1.1,0.29-1.65,0.43
		c-0.41,0.11-1.34,0.45-1.28,1.25c0.06,0.7,0.6,1.08,1.44,1.06c0.39-0.01,0.8-0.08,1.23-0.15l0.48-0.08
		c7.09-1.05,13.54-5.19,17.68-11.35c4.13-6.14,5.54-13.63,3.85-20.56c-0.39-1.62-0.96-3.19-1.57-4.86
		c-0.28-0.78-0.57-1.57-0.84-2.37l-0.2-0.6l3.06-1.98c3.94-2.55,8.02-5.19,12.09-7.76C99.33,110.9,99.61,110.85,99.89,110.85z
		 M139.32,158.43c-5.65,0-11.32-1.92-15.68-5.76l-0.45-0.4l0.25-0.55c2.13-4.65,5.51-8.44,10.06-11.26c0.13-0.08,0.27-0.16,0.4-0.23
		c0.13-0.07,0.25-0.14,0.37-0.22c0.52-0.33,0.82-0.72,0.84-1.09c0.03-0.45-0.34-0.86-0.65-1.12c-2.22-1.88-3.23-4.14-3.09-6.9
		c0.2-4.01,3.66-7.3,7.72-7.34c0.03,0,0.05,0,0.08,0c4.17,0,7.66,3.12,7.95,7.13c0.2,2.72-0.72,5-2.73,6.79
		c-0.69,0.61-1.03,1.12-1,1.47c0.02,0.26,0.28,0.7,1.34,1.33c4.65,2.79,8.13,6.62,10.34,11.39l0.25,0.54l-0.44,0.4
		C150.63,156.49,144.99,158.43,139.32,158.43z M125.17,151.85c8.01,6.64,20.39,6.63,28.17-0.02c-2.08-4.22-5.26-7.63-9.44-10.14
		c-0.85-0.51-2-1.33-2.12-2.57c-0.11-1.22,0.82-2.2,1.54-2.84c1.64-1.45,2.35-3.24,2.19-5.46c-0.24-3.19-3.06-5.65-6.4-5.63
		c-3.21,0.03-5.96,2.63-6.12,5.8c-0.11,2.26,0.69,4.03,2.52,5.58c1.08,0.91,1.26,1.85,1.22,2.47c-0.06,0.89-0.62,1.73-1.58,2.35
		c-0.15,0.1-0.3,0.18-0.46,0.27c-0.11,0.06-0.23,0.13-0.33,0.19C130.26,144.38,127.17,147.74,125.17,151.85z M42.9,150.44
		l-0.77-0.85c-6.7-7.38-8.32-21.49,0.74-31.44c4.42-4.85,10.47-7.66,17.03-7.89c6.51-0.24,12.7,2.1,17.41,6.58
		c4.65,4.42,7.32,10.35,7.54,16.69c0.2,5.92-1.78,11.75-5.43,16l-0.77,0.89l-0.56-1.03c-2.22-4.1-5.21-7.43-9.16-10.19l-0.67-0.47
		l0.48-0.67c2.14-2.99,2.8-5.94,2.03-9.02c-0.61-2.42-1.94-4.4-3.95-5.87c-3.89-2.86-9.34-2.55-12.96,0.72
		c-3.26,2.95-4.98,8.65-1.05,14.2l0.47,0.67l-0.67,0.47c-3.89,2.69-6.98,6.12-9.16,10.21L42.9,150.44z M60.79,111.86
		c-0.28,0-0.55,0-0.83,0.02c-6.12,0.22-11.77,2.83-15.89,7.36c-8.1,8.89-7.06,21.34-1.47,28.39c2.13-3.64,4.96-6.76,8.44-9.29
		c-3.91-6.15-1.91-12.38,1.74-15.67c4.19-3.78,10.5-4.13,15-0.82c2.32,1.7,3.85,3.98,4.56,6.78c0.84,3.34,0.25,6.52-1.82,9.69
		c3.5,2.57,6.27,5.61,8.41,9.23c5.84-7.7,6.48-20.78-2.73-29.55C72,114.02,66.56,111.86,60.79,111.86z M100.03,89.72
		c-5.66,0-11.33-1.94-15.64-5.81l-0.44-0.4l0.24-0.54c1.51-3.36,3.66-6.24,6.4-8.57c1.32-1.12,2.75-2.07,4.09-2.93
		c0.75-0.48,1.16-0.93,1.18-1.32c0.03-0.46-0.48-1-0.91-1.37c-2.67-2.27-3.57-5.81-2.29-9.02c1.24-3.11,4.35-5.17,7.59-5.02
		c3.56,0.16,6.53,2.52,7.39,5.87c0.8,3.12-0.05,5.92-2.45,8.09c-0.89,0.8-1.04,1.27-1.02,1.52c0.04,0.36,0.48,0.8,1.29,1.28
		c4.68,2.78,8.56,7.09,10.36,11.53l0.21,0.53l-0.42,0.38C111.31,87.8,105.67,89.72,100.03,89.72z M85.92,83.1
		c7.77,6.55,20.39,6.57,28.17,0.03c-1.76-3.94-5.26-7.73-9.46-10.22c-0.83-0.49-1.95-1.29-2.07-2.51c-0.12-1.23,0.82-2.23,1.55-2.88
		c1.96-1.76,2.62-3.94,1.97-6.48c-0.69-2.69-3-4.52-5.89-4.65c-2.54-0.11-5.03,1.53-6.01,4c-1.02,2.55-0.29,5.37,1.84,7.19
		c1.06,0.9,1.54,1.79,1.48,2.71c-0.06,0.94-0.69,1.79-1.93,2.57c-1.29,0.83-2.66,1.74-3.91,2.8C89.24,77.69,87.32,80.2,85.92,83.1z"
		/>
</g>
</svg>
