<?xml version="1.0" encoding="UTF-8"?>
<svg id="Layer_1" data-name="Layer 1" xmlns="http://www.w3.org/2000/svg" viewBox="0 0 25 25">
  <defs>
    <style>
      .cls-1 {
        fill: #dc1518;
        stroke-width: 0px;
      }

      .cls-2 {
        fill: none;
        stroke: #dc1518;
        stroke-miterlimit: 10;
        stroke-width: .5px;
      }
    </style>
  </defs>
  <path class="cls-1" d="m12.17,2c-2,.18-3.48,1.96-3.3,3.96.16,1.75,1.55,3.14,3.3,3.3h.66c2-.18,3.48-1.96,3.3-3.96s-1.96-3.48-3.96-3.3Zm1.99,6.11c-1,.67-2.31.67-3.31,0v-.49c0-.52.25-1.02.67-1.33.58.45,1.39.45,1.98,0,.42.31.67.81.67,1.33v.49Zm-2.65-3.14c0-.55.44-.99.99-.99s.99.44.99.99-.44.99-.99.99-.99-.44-.99-.99Zm3.3,2.54c-.03-.67-.35-1.3-.88-1.72.15-.25.23-.53.23-.83,0-.91-.74-1.66-1.66-1.66s-1.66.74-1.66,1.66c0,.29.08.58.23.83-.53.42-.85,1.04-.88,1.72-.43-.53-.67-1.19-.67-1.88,0-1.65,1.33-2.98,2.98-2.98,1.65,0,2.98,1.33,2.98,2.98,0,.69-.24,1.35-.67,1.89Z"/>
  <path class="cls-1" d="m7.15,13.62c-2,.18-3.48,1.96-3.3,3.96.18,2,1.96,3.48,3.96,3.3,1.75-.16,3.14-1.55,3.3-3.3v-.66c-.18-2-1.96-3.48-3.96-3.3Zm1.99,6.1c-1,.67-2.31.67-3.31,0v-.49c0-.52.25-1.02.67-1.33.58.45,1.39.45,1.98,0,.42.31.67.81.67,1.33v.49Zm-2.65-3.14c0-.55.44-.99.99-.99s.99.44.99.99-.44.99-.99.99-.99-.44-.99-.99Zm3.3,2.54c-.03-.67-.35-1.3-.88-1.72.15-.25.23-.53.23-.83,0-.91-.74-1.66-1.66-1.66s-1.66.74-1.66,1.66c0,.29.08.58.23.83-.53.42-.85,1.04-.88,1.72-1.04-1.28-.85-3.15.43-4.19,1.28-1.04,3.15-.85,4.19.43.89,1.1.89,2.67,0,3.76Z"/>
  <path class="cls-1" d="m17.61,13.61c-1.88,0-3.45,1.44-3.63,3.31v.66c.18,2,1.95,3.48,3.96,3.3,2-.18,3.48-1.96,3.3-3.96-.17-1.88-1.75-3.31-3.63-3.31Zm1.66,6.12c-1,.67-2.31.67-3.31,0v-.49c0-.52.25-1.02.67-1.33.58.45,1.39.45,1.98,0,.42.31.67.81.67,1.33v.49Zm-2.65-3.14c0-.55.44-.99.99-.99s.99.44.99.99-.44.99-.99.99-.99-.44-.99-.99Zm3.3,2.54c-.03-.67-.35-1.3-.88-1.72.15-.25.23-.53.23-.83,0-.91-.74-1.66-1.66-1.66s-1.66.74-1.66,1.66c0,.29.08.58.23.83-.53.42-.85,1.04-.88,1.72-1.04-1.28-.85-3.15.43-4.19,1.28-1.04,3.15-.85,4.19.43.89,1.1.89,2.67,0,3.76Z"/>
  <line class="cls-2" x1="12.5" y1="12.74" x2="12.5" y2="9.25"/>
  <g>
    <line class="cls-2" x1="10.13" y1="15.04" x2="12.6" y2="12.57"/>
    <line class="cls-2" x1="12.4" y1="12.57" x2="14.87" y2="15.04"/>
  </g>
</svg>