<?xml version="1.0" encoding="utf-8"?>
<!-- Generator: Adobe Illustrator 26.1.0, SVG Export Plug-In . SVG Version: 6.00 Build 0)  -->
<svg version="1.1" id="Layer_1" xmlns="http://www.w3.org/2000/svg" xmlns:xlink="http://www.w3.org/1999/xlink" x="0px" y="0px"
	 viewBox="0 0 200 200" style="enable-background:new 0 0 200 200;" xml:space="preserve">
<style type="text/css">
	.st0{fill:#DC1518;}
	.st1{fill:#FFFFFF;}
</style>
<g>
	<g>
		<path class="st0" d="M18.73,138.36c0.41-1.79,0.74-3.6,1.23-5.37c4.02-14.34,17.08-24.4,31.91-24.36
			c10.48,0.03,19.14,4.21,25.93,12.21c0.24,0.28,0.48,0.56,0.72,0.84c0.03,0.04,0.09,0.05,0.25,0.12c0.56-0.36,1.17-0.75,1.79-1.15
			c5.28-3.41,10.56-6.83,15.86-10.21c0.8-0.51,1.17-1.03,1.16-2.02c-0.05-5.24-0.05-10.48,0-15.71c0.01-1.1-0.23-1.58-1.45-1.69
			c-13.89-1.29-26.29-12.73-28.82-26.46c-1.76-9.59,0.11-18.36,5.8-26.28c0.44-0.61,1.14-1.36,1.77-1.41
			c0.82-0.07,1.91,0.27,2.49,0.84c0.88,0.87,0.65,2.06-0.09,3.04c-2.18,2.9-3.82,6.08-4.73,9.6c-2.29,8.87-0.78,17.05,4.55,24.51
			c0.24,0.33,0.53,0.62,0.88,1.03c2.85-5.24,6.68-9.48,11.49-12.81c-5.38-7.6-2.7-15.22,1.86-19.03c5.07-4.24,12.54-4.18,17.48,0.1
			c4.49,3.88,7.11,11.4,1.74,18.93c4.82,3.32,8.64,7.56,11.51,12.84c2.69-3.16,4.44-6.68,5.48-10.53
			c4.38-16.22-6.19-32.75-22.78-35.55c-7.09-1.2-13.76,0.17-19.89,3.99c-0.22,0.14-0.45,0.28-0.67,0.42
			c-1.57,0.96-2.95,0.8-3.77-0.42c-0.84-1.24-0.46-2.59,1.08-3.61c3.51-2.34,7.31-4.03,11.44-4.85
			c18.87-3.78,36.44,7.88,39.88,26.84c3.38,18.65-9.35,35.29-26.66,38.51c-1.18,0.22-2.38,0.38-3.69,0.58c0,4.21-0.01,8.32,0,12.44
			c0.01,1.96-0.58,4.24,0.24,5.77c0.82,1.52,3.04,2.3,4.68,3.36c4.56,2.96,9.14,5.9,13.87,8.95c0.4-0.47,0.79-0.94,1.2-1.4
			c9.4-10.41,20.92-13.93,34.53-10.6c2.29,0.56,3.27,1.74,2.88,3.23c-0.43,1.64-1.78,2.12-4.17,1.46
			c-16.71-4.59-33.44,6.15-35.99,23.23c-1.16,7.77,0.71,14.89,5.39,21.24c0.21,0.29,0.47,0.55,0.76,0.88
			c2.83-5.22,6.65-9.47,11.46-12.78c-4.32-7.97-3.67-14.39,1.9-19.06c4.97-4.17,12.13-4.22,17.23-0.11
			c5.65,4.55,6.36,10.99,2.05,19.16c4.78,3.33,8.61,7.56,11.46,12.82c3.04-3.66,5.04-7.72,5.84-12.25
			c2.06-11.6-1.62-21.12-10.78-28.5c-1.05-0.85-1.93-1.71-1.43-3.2c0.57-1.66,2.42-2.1,4.02-0.91c6.07,4.48,10.24,10.36,12.29,17.61
			c5.43,19.14-6.43,38.27-26.02,42.1c-17.59,3.44-35.51-8.84-38.71-26.46c-1.36-7.49-0.39-14.6,2.98-21.41
			c0.14-0.28,0.26-0.56,0.45-0.98c-1.05-0.68-2.05-1.34-3.06-1.99c-4.84-3.13-9.67-6.27-14.53-9.35c-0.44-0.28-1.27-0.47-1.63-0.24
			c-6.02,3.81-12,7.69-17.85,11.47c1.03,3.05,2.23,5.92,2.96,8.91c4.46,18.37-8.43,37.4-27.11,40.17c-0.73,0.11-1.46,0.26-2.2,0.29
			c-1.57,0.06-2.66-0.84-2.77-2.21c-0.1-1.25,0.83-2.18,2.29-2.57c3.29-0.88,6.65-1.65,9.81-2.88c2.16-0.84,4.05-2.4,6.11-3.67
			c-2.78-6.02-6.86-10.44-12.24-13.71c-0.54-0.33-1.12-0.63-1.55-1.07c-1.1-1.14-0.87-2.53,0.61-3.81c3-2.58,3.98-5.78,2.85-9.55
			c-1.01-3.35-4.17-5.77-7.48-5.93c-3.88-0.18-7.09,1.68-8.63,4.99c-1.51,3.25-0.85,7.12,1.66,9.69c0.26,0.26,0.54,0.51,0.81,0.76
			c1.94,1.74,1.79,3.33-0.46,4.66c-5.58,3.28-9.81,7.8-12.61,13.8c3.17,2.8,6.84,4.67,10.9,5.82c0.61,0.17,1.24,0.28,1.81,0.55
			c1.16,0.55,1.59,1.53,1.29,2.76c-0.29,1.17-1.11,1.89-2.3,1.73c-1.35-0.18-2.71-0.49-3.98-0.97c-12.6-4.72-20.1-13.7-22.31-27.02
			c-0.05-0.3-0.2-0.59-0.3-0.88C18.73,143.23,18.73,140.8,18.73,138.36z M74.11,159.83c8.66-10.04,9.23-27.38-2.51-38.56
			c-11.5-10.94-29.88-10.26-40.64,1.56c-10.68,11.73-8.83,28.32-0.9,37.06c2.79-5.22,6.66-9.47,11.5-12.82
			c-5.22-7.36-2.82-14.81,1.42-18.65c4.78-4.32,11.91-4.73,17.07-0.94c2.66,1.95,4.39,4.54,5.19,7.72c1.1,4.34-0.05,8.24-2.63,11.83
			C67.47,150.43,71.28,154.6,74.11,159.83z M166.35,163.53c-2.67-5.76-6.79-10.21-12.24-13.48c-2.63-1.58-2.8-3.03-0.56-5.02
			c2.25-2,3.23-4.48,3-7.48c-0.33-4.42-4.16-7.84-8.81-7.79c-4.47,0.04-8.23,3.66-8.45,8.02c-0.16,3.15,1.05,5.61,3.43,7.62
			c1.66,1.41,1.48,3.12-0.34,4.29c-0.31,0.2-0.64,0.36-0.96,0.56c-5.29,3.28-9.32,7.66-11.91,13.32
			C140.19,172.97,156.57,172.43,166.35,163.53z M118.4,79.67c-2.14-5.27-6.7-10.32-12.24-13.61c-2.59-1.54-2.72-2.99-0.49-5
			c2.68-2.42,3.59-5.44,2.7-8.89c-0.96-3.75-4.22-6.25-8.11-6.43c-3.52-0.16-6.95,2.12-8.31,5.51c-1.4,3.51-0.4,7.41,2.52,9.89
			c2.11,1.79,1.92,3.35-0.44,4.86c-1.69,1.08-3.36,2.2-4.89,3.5c-3.29,2.79-5.8,6.2-7.56,10.11
			C91.67,88.67,108.33,88.67,118.4,79.67z"/>
		<path class="st0" d="M148,176.32c-6.75,0-13.56-2.09-19.36-6.05c-7.58-5.17-12.83-13.11-14.41-21.79
			c-1.4-7.68-0.37-15.09,3.06-22.02c0.03-0.06,0.06-0.12,0.09-0.18l-5.15-3.34c-3.9-2.52-7.79-5.04-11.71-7.53
			c-0.18-0.11-0.5-0.19-0.65-0.19c-4.93,3.12-9.88,6.32-14.66,9.41l-2.45,1.58c0.25,0.72,0.51,1.42,0.76,2.13
			c0.72,1.99,1.47,4.05,1.97,6.14c2.19,9,0.37,18.72-4.99,26.68c-5.37,7.98-13.74,13.34-22.95,14.71l-0.55,0.09
			c-0.56,0.09-1.14,0.19-1.75,0.21c-2.08,0.07-3.64-1.21-3.8-3.11c-0.14-1.69,1.02-3.07,3.02-3.6c0.68-0.18,1.36-0.36,2.03-0.53
			c2.56-0.67,5.21-1.35,7.67-2.31c1.39-0.54,2.67-1.41,4.03-2.33c0.39-0.26,0.78-0.53,1.17-0.78c-2.61-5.3-6.37-9.39-11.48-12.5
			l-0.29-0.17c-0.48-0.28-1.01-0.6-1.46-1.06c-0.67-0.69-1-1.5-0.97-2.35c0.05-1.01,0.61-2.01,1.65-2.89
			c2.73-2.34,3.56-5.13,2.55-8.51c-0.87-2.89-3.63-5.08-6.58-5.22c-3.45-0.17-6.33,1.49-7.68,4.42c-1.33,2.87-0.73,6.32,1.47,8.59
			c0.21,0.22,0.44,0.42,0.66,0.62l0.1,0.09c1.22,1.09,1.78,2.21,1.66,3.32c-0.11,1.11-0.88,2.1-2.28,2.92
			c-5.33,3.14-9.22,7.29-11.89,12.69c2.82,2.35,6.08,4.03,9.95,5.12c0.16,0.04,0.32,0.09,0.48,0.13c0.48,0.12,0.99,0.25,1.48,0.48
			c1.56,0.74,2.24,2.19,1.83,3.89c-0.42,1.72-1.75,2.69-3.39,2.47c-1.52-0.2-2.94-0.55-4.19-1.02
			c-12.96-4.86-20.68-14.21-22.94-27.78c-0.02-0.1-0.07-0.24-0.14-0.39c-0.04-0.11-0.09-0.21-0.12-0.32l-0.06-0.16l0.03-7.69
			c0.13-0.56,0.25-1.13,0.37-1.69c0.26-1.22,0.53-2.48,0.88-3.72c4.15-14.78,17.61-25.08,32.76-25.08c0.03,0,0.07,0,0.1,0
			c10.67,0.03,19.64,4.26,26.69,12.56l0.15,0.18c0.05,0.06,0.1,0.12,0.16,0.19l5.16-3.33c3.95-2.55,7.9-5.1,11.86-7.63
			c0.57-0.36,0.71-0.59,0.7-1.17c-0.05-5.24-0.05-10.53,0-15.73c0-0.45-0.05-0.58-0.06-0.6c0,0-0.1-0.06-0.49-0.1
			c-14.32-1.33-27.09-13.05-29.7-27.26c-1.82-9.9,0.19-18.99,5.97-27.04c0.56-0.78,1.45-1.73,2.49-1.82
			c1.13-0.09,2.5,0.38,3.26,1.12c1.14,1.12,1.14,2.83,0,4.34c-2.2,2.93-3.74,6.04-4.57,9.25c-2.2,8.5-0.74,16.43,4.31,23.58
			c2.65-4.48,6.11-8.28,10.29-11.33c-4.96-7.78-2.22-15.53,2.59-19.54c5.4-4.52,13.47-4.47,18.77,0.11
			c4.7,4.06,7.35,11.78,2.45,19.43c4.22,3.06,7.61,6.79,10.29,11.33c2.02-2.66,3.46-5.63,4.38-9.04c2.02-7.47,0.77-15.5-3.41-22.02
			c-4.18-6.52-10.95-11-18.58-12.29c-6.8-1.15-13.26,0.15-19.2,3.85l-0.69,0.42c-2.03,1.23-3.98,0.96-5.11-0.71
			c-0.52-0.77-0.71-1.62-0.55-2.44c0.19-0.96,0.85-1.84,1.9-2.55c3.75-2.5,7.72-4.18,11.8-5c9.49-1.9,18.96-0.07,26.65,5.16
			c7.59,5.16,12.7,13.14,14.39,22.48c3.34,18.44-8.98,36.22-27.46,39.66c-0.81,0.15-1.63,0.27-2.49,0.4l-0.39,0.06l0,2.88
			c0,2.92,0,5.81,0,8.71c0,0.62-0.05,1.26-0.1,1.87c-0.11,1.29-0.21,2.62,0.23,3.44c0.44,0.82,1.63,1.47,2.77,2.09
			c0.53,0.29,1.07,0.58,1.57,0.91c3.28,2.13,6.56,4.24,9.9,6.39l3.24,2.08c0.22-0.26,0.43-0.51,0.66-0.76
			c9.61-10.64,21.56-14.31,35.5-10.9c1.61,0.39,2.72,1.08,3.3,2.05c0.42,0.71,0.53,1.54,0.31,2.39c-0.24,0.93-0.73,1.62-1.46,2.04
			c-0.95,0.55-2.24,0.59-3.93,0.13c-7.76-2.13-16-0.88-22.62,3.44c-6.64,4.33-10.94,11.07-12.12,18.98
			c-1.09,7.32,0.6,14.13,5.02,20.24c2.65-4.5,6.13-8.31,10.34-11.36c-4.05-7.98-3.18-14.71,2.54-19.51
			c5.37-4.51,12.98-4.56,18.49-0.12c5.9,4.75,6.81,11.35,2.7,19.62c4.22,3.08,7.68,6.9,10.33,11.36c2.5-3.31,4.05-6.81,4.73-10.66
			c1.97-11.12-1.54-20.39-10.43-27.56c-0.88-0.71-2.51-2.03-1.74-4.28c0.35-1.03,1.12-1.8,2.1-2.1c1.11-0.35,2.36-0.09,3.45,0.71
			c6.31,4.66,10.56,10.76,12.66,18.13c2.69,9.48,1.38,19.24-3.68,27.48c-5.1,8.31-13.31,13.94-23.11,15.86
			C152.1,176.12,150.05,176.32,148,176.32z M99.87,113.24c0.63,0,1.3,0.24,1.71,0.5c3.92,2.49,7.82,5.01,11.73,7.54l6.59,4.27
			l-0.53,1.16c-0.11,0.24-0.2,0.44-0.29,0.63c-3.28,6.64-4.22,13.44-2.89,20.79c1.48,8.16,6.43,15.63,13.58,20.51
			c7.13,4.86,15.87,6.74,23.97,5.15c9.25-1.81,16.99-7.12,21.8-14.95c4.77-7.76,5.99-16.96,3.46-25.91
			c-1.97-6.95-5.98-12.69-11.93-17.08c-0.57-0.42-1.18-0.57-1.68-0.42c-0.38,0.12-0.66,0.42-0.81,0.86
			c-0.26,0.75-0.03,1.19,1.11,2.11c9.49,7.66,13.24,17.56,11.13,29.45c-0.81,4.57-2.85,8.84-6.05,12.71l-0.94,1.13l-0.7-1.29
			c-2.74-5.08-6.39-9.16-11.15-12.48l-0.72-0.5l0.41-0.77c4.1-7.79,3.51-13.66-1.8-17.93c-4.77-3.84-11.34-3.79-15.98,0.1
			c-5.17,4.34-5.73,10.33-1.67,17.83l0.42,0.78l-0.73,0.5c-4.67,3.22-8.42,7.41-11.15,12.44l-0.68,1.26l-1.2-1.38
			c-0.2-0.23-0.38-0.43-0.54-0.65c-4.88-6.61-6.76-14-5.57-21.97c1.24-8.36,5.98-15.78,13-20.35c7.1-4.63,15.94-5.97,24.23-3.69
			c1.42,0.39,2.09,0.25,2.41,0.06c0.16-0.09,0.39-0.28,0.53-0.83c0.09-0.35,0.06-0.63-0.09-0.88c-0.29-0.48-1.02-0.88-2.07-1.14
			c-13.18-3.22-24.47,0.24-33.56,10.3c-0.27,0.3-0.53,0.61-0.8,0.92l-0.94,1.11l-4.69-3.02c-3.34-2.15-6.63-4.27-9.91-6.4
			c-0.44-0.28-0.92-0.55-1.44-0.83c-1.4-0.76-2.85-1.55-3.57-2.89c-0.72-1.33-0.58-2.96-0.46-4.53c0.05-0.6,0.1-1.17,0.09-1.7
			c-0.01-2.89-0.01-5.79,0-8.71l0-4.58l2.08-0.32c0.83-0.12,1.63-0.24,2.42-0.39c17.41-3.23,29.02-19.99,25.87-37.36
			c-1.6-8.81-6.41-16.34-13.56-21.19c-7.25-4.93-16.19-6.65-25.15-4.86c-3.83,0.77-7.56,2.35-11.09,4.71
			c-0.6,0.4-0.97,0.85-1.06,1.28c-0.06,0.31,0.02,0.62,0.25,0.96c0.51,0.76,1.33,0.8,2.44,0.12l0.59-0.37
			c6.43-4.01,13.36-5.4,20.65-4.17c8.17,1.38,15.43,6.18,19.92,13.17c4.49,7,5.82,15.6,3.66,23.61c-1.13,4.18-2.99,7.75-5.68,10.92
			l-0.93,1.1l-0.69-1.27c-2.8-5.15-6.47-9.24-11.21-12.5l-0.83-0.57l0.58-0.82c4.95-6.94,2.77-13.85-1.58-17.61
			c-4.57-3.95-11.53-3.99-16.2-0.09c-4.3,3.6-6.66,10.67-1.69,17.7l0.58,0.82l-0.82,0.57c-4.75,3.28-8.41,7.36-11.19,12.47
			l-0.68,1.25l-0.93-1.08c-0.11-0.13-0.22-0.25-0.32-0.36c-0.23-0.26-0.44-0.49-0.62-0.74c-5.48-7.67-7.06-16.2-4.7-25.34
			c0.89-3.47,2.54-6.81,4.9-9.94c0.31-0.41,0.75-1.19,0.19-1.74c-0.35-0.35-1.15-0.61-1.71-0.56c-0.11,0.02-0.55,0.3-1.05,1
			c-5.46,7.59-7.35,16.18-5.63,25.53c2.46,13.37,14.47,24.4,27.94,25.65c2.1,0.2,2.35,1.54,2.34,2.68c-0.05,5.19-0.05,10.47,0,15.7
			c0.01,1.28-0.47,2.13-1.62,2.86c-3.96,2.52-7.91,5.07-11.85,7.62l-6.26,4.03l-0.59-0.28c-0.11-0.04-0.3-0.12-0.48-0.32
			c-0.19-0.22-0.38-0.45-0.57-0.67l-0.15-0.18c-6.65-7.84-15.12-11.83-25.18-11.86c-0.03,0-0.07,0-0.1,0
			c-14.27,0-26.95,9.71-30.86,23.63c-0.33,1.17-0.59,2.41-0.85,3.6c-0.11,0.54-0.23,1.08-0.35,1.61v7.01
			c0.01,0.03,0.02,0.06,0.03,0.09c0.09,0.23,0.2,0.5,0.25,0.81c2.13,12.83,9.43,21.66,21.68,26.25c1.12,0.42,2.38,0.73,3.76,0.91
			c0.24,0.03,0.94,0.12,1.21-0.98c0.19-0.79-0.04-1.29-0.75-1.63c-0.32-0.15-0.71-0.25-1.12-0.35c-0.18-0.05-0.36-0.09-0.54-0.14
			c-4.42-1.25-8.12-3.22-11.29-6.03l-0.55-0.49l0.31-0.67c2.85-6.11,7.1-10.76,13.01-14.24c0.81-0.47,1.27-0.98,1.32-1.42
			c0.04-0.44-0.32-1.03-1.02-1.66l-0.1-0.09c-0.26-0.23-0.52-0.46-0.76-0.71c-2.78-2.85-3.52-7.19-1.85-10.8
			c1.7-3.68,5.26-5.76,9.57-5.56c3.82,0.18,7.26,2.91,8.38,6.63c1.23,4.09,0.14,7.75-3.15,10.58c-0.6,0.51-0.94,1.04-0.96,1.48
			c-0.01,0.3,0.12,0.59,0.41,0.88c0.26,0.27,0.64,0.49,1.05,0.73l0.31,0.19c5.7,3.47,9.83,8.1,12.62,14.14l0.37,0.8l-0.75,0.46
			c-0.63,0.39-1.24,0.8-1.85,1.21c-1.39,0.94-2.83,1.91-4.42,2.54c-2.57,1-5.28,1.71-7.89,2.39c-0.67,0.18-1.35,0.35-2.02,0.53
			c-0.49,0.13-1.64,0.55-1.56,1.53c0.07,0.85,0.73,1.32,1.75,1.3c0.48-0.02,0.98-0.1,1.5-0.18l0.58-0.09
			c8.66-1.28,16.53-6.33,21.59-13.85c5.05-7.49,6.76-16.64,4.7-25.1c-0.48-1.98-1.18-3.9-1.91-5.93c-0.34-0.95-0.69-1.92-1.02-2.9
			l-0.25-0.73l3.74-2.42c4.82-3.11,9.8-6.33,14.76-9.48C99.18,113.31,99.52,113.24,99.87,113.24z M148.01,171.34
			c-6.89,0-13.82-2.34-19.15-7.03l-0.55-0.49l0.31-0.67c2.6-5.68,6.73-10.3,12.29-13.75c0.16-0.1,0.33-0.19,0.49-0.29
			c0.15-0.09,0.31-0.17,0.45-0.26c0.63-0.41,1-0.88,1.03-1.33c0.04-0.55-0.41-1.05-0.79-1.37c-2.71-2.3-3.95-5.05-3.78-8.43
			c0.25-4.89,4.48-8.91,9.43-8.96c0.03,0,0.07,0,0.1,0c5.09,0,9.35,3.81,9.71,8.71c0.25,3.32-0.88,6.11-3.33,8.29
			c-0.84,0.74-1.26,1.37-1.22,1.8c0.03,0.31,0.34,0.85,1.63,1.63c5.68,3.4,9.92,8.08,12.63,13.91l0.31,0.66l-0.54,0.49
			C161.82,168.98,154.94,171.34,148.01,171.34z M130.74,163.31c9.78,8.11,24.9,8.1,34.4-0.03c-2.54-5.15-6.42-9.32-11.53-12.38
			c-1.04-0.62-2.45-1.63-2.59-3.14c-0.14-1.49,1.01-2.69,1.88-3.46c2-1.77,2.87-3.96,2.67-6.67c-0.29-3.9-3.74-6.9-7.81-6.88
			c-3.92,0.04-7.28,3.21-7.47,7.08c-0.14,2.75,0.84,4.92,3.08,6.82c1.32,1.12,1.54,2.25,1.49,3.01c-0.07,1.09-0.76,2.11-1.93,2.87
			c-0.18,0.12-0.37,0.22-0.56,0.33c-0.14,0.08-0.28,0.15-0.41,0.24C136.95,154.19,133.18,158.3,130.74,163.31z M30.28,161.59
			l-0.94-1.04c-8.18-9.01-10.16-26.24,0.9-38.39c5.4-5.93,12.78-9.35,20.79-9.64c7.95-0.29,15.51,2.57,21.26,8.03
			c5.67,5.4,8.94,12.64,9.21,20.38c0.25,7.23-2.17,14.35-6.63,19.53l-0.94,1.09l-0.68-1.26c-2.71-5-6.37-9.07-11.18-12.45
			l-0.82-0.57l0.58-0.81c2.62-3.65,3.43-7.25,2.47-11.02c-0.75-2.96-2.37-5.37-4.82-7.17c-4.75-3.49-11.4-3.12-15.82,0.88
			c-3.99,3.6-6.09,10.56-1.28,17.34l0.58,0.82l-0.82,0.57c-4.75,3.28-8.52,7.48-11.19,12.47L30.28,161.59z M52.12,114.48
			c-0.34,0-0.68,0.01-1.02,0.02c-7.48,0.27-14.37,3.46-19.4,8.99c-9.89,10.86-8.62,26.06-1.8,34.66c2.6-4.45,6.06-8.25,10.31-11.34
			c-4.78-7.51-2.33-15.11,2.12-19.13c5.11-4.62,12.82-5.04,18.32-1c2.83,2.08,4.7,4.86,5.57,8.28c1.03,4.08,0.3,7.96-2.23,11.84
			c4.28,3.14,7.65,6.85,10.27,11.27c7.13-9.4,7.92-25.38-3.34-36.09C65.81,117.13,59.17,114.48,52.12,114.48z M100.03,87.45
			c-6.92,0-13.83-2.36-19.09-7.09l-0.54-0.48l0.3-0.66c1.84-4.1,4.48-7.62,7.82-10.46c1.61-1.37,3.35-2.53,4.99-3.57
			c0.91-0.58,1.41-1.14,1.44-1.61c0.04-0.56-0.58-1.22-1.11-1.67c-3.26-2.77-4.36-7.1-2.8-11.01c1.51-3.79,5.31-6.31,9.27-6.13
			c4.35,0.2,7.97,3.08,9.02,7.17c0.98,3.81-0.06,7.23-3,9.87c-1.08,0.98-1.27,1.55-1.24,1.85c0.04,0.44,0.59,0.98,1.57,1.56
			c5.72,3.39,10.45,8.66,12.65,14.08l0.26,0.65l-0.52,0.46C113.81,85.1,106.92,87.45,100.03,87.45z M82.81,79.37
			c9.48,8,24.9,8.02,34.39,0.03c-2.15-4.81-6.42-9.44-11.55-12.48c-1.02-0.6-2.38-1.58-2.53-3.07c-0.15-1.5,1.01-2.73,1.89-3.52
			c2.39-2.15,3.2-4.81,2.4-7.91c-0.84-3.29-3.67-5.52-7.19-5.68c-3.11-0.13-6.14,1.87-7.34,4.89c-1.24,3.12-0.36,6.56,2.25,8.78
			c1.29,1.1,1.88,2.18,1.81,3.31c-0.08,1.15-0.85,2.18-2.35,3.14c-1.58,1.01-3.25,2.12-4.78,3.42
			C86.86,72.76,84.51,75.82,82.81,79.37z"/>
	</g>
	<path class="st1" d="M73.68,160.97c-2.86-5.28-6.72-9.5-11.61-12.92c2.61-3.64,3.77-7.58,2.66-11.96
		c-0.81-3.21-2.56-5.83-5.25-7.81c-5.22-3.83-12.42-3.42-17.26,0.95c-4.29,3.88-6.71,11.41-1.44,18.85
		c-4.9,3.38-8.8,7.68-11.62,12.95c-8.02-8.83-9.88-25.6,0.91-37.46c10.88-11.95,29.45-12.63,41.07-1.57
		C83.01,133.3,82.43,150.82,73.68,160.97z"/>
</g>
</svg>
