<?xml version="1.0" encoding="utf-8"?>
<!-- Generator: Adobe Illustrator 27.1.1, SVG Export Plug-In . SVG Version: 6.00 Build 0)  -->
<svg version="1.1" id="Layer_1" xmlns="http://www.w3.org/2000/svg" xmlns:xlink="http://www.w3.org/1999/xlink" x="0px" y="0px"
	 viewBox="0 0 200 200" style="enable-background:new 0 0 200 200;" xml:space="preserve">
<style type="text/css">
	.st0{fill:#DC1518;}
</style>
<g>
	<path class="st0" d="M134.25,158.05c-1.84-1.32-2.01-2.37-0.66-4.27c5.31-7.48,10.58-15,15.95-22.43
		c2.71-3.76,3.99-7.86,3.97-12.48c-0.06-10.99-0.02-21.98-0.03-32.98c0-0.56-0.02-1.14-0.16-1.68c-0.36-1.38-1.53-2.19-2.95-2.15
		c-1.36,0.04-2.46,0.9-2.77,2.24c-0.12,0.54-0.16,1.12-0.16,1.68c-0.01,8.73-0.06,17.45,0.01,26.18c0.04,4.79-1.58,8.83-4.87,12.28
		c-3.32,3.47-6.57,6.99-9.88,10.47c-0.41,0.43-0.89,0.85-1.41,1.1c-0.87,0.4-1.94,0.04-2.54-0.71c-0.58-0.72-0.68-1.73-0.18-2.54
		c0.25-0.41,0.58-0.79,0.92-1.14c3.33-3.56,6.67-7.1,10-10.66c1.3-1.39,1.54-3.19,0.65-4.68c-0.96-1.6-2.97-2.32-4.5-1.29
		c-4.73,3.16-9.78,5.9-13.66,10.2c-3.66,4.06-5.85,8.83-6.95,14.15c-1.13,5.47-2.29,10.92-3.41,16.39
		c-0.21,1.04-0.74,1.79-1.61,2.33c-0.45,0-0.91,0-1.36,0c-1.51-0.83-1.93-1.58-1.58-3.22c1.39-6.53,2.65-13.09,4.28-19.56
		c1.77-6.99,5.73-12.71,11.44-17.1c3.17-2.44,6.54-4.62,9.88-6.82c3.2-2.1,6.63-1.88,9.68,0.46c0.11,0.08,0.24,0.15,0.5,0.31
		c0-0.54,0-0.94,0-1.34c0-8.5-0.01-17,0.01-25.5c0.01-3.5,1.9-6.28,4.95-7.4c4.06-1.49,8.45,0.61,9.86,4.73
		c0.12,0.35,0.26,0.7,0.4,1.05c0,13,0,26,0,39c-0.05,0.1-0.14,0.19-0.15,0.29c-0.48,4.04-2.12,7.57-4.47,10.85
		c-5.34,7.45-10.62,14.95-15.95,22.41c-0.47,0.66-1.1,1.21-1.65,1.81C135.31,158.05,134.78,158.05,134.25,158.05z"/>
	<path class="st0" d="M90.04,158.05c-1.01-0.6-1.44-1.52-1.68-2.66c-1.21-5.87-2.41-11.75-3.75-17.6
		c-1.73-7.53-6.01-13.33-12.39-17.62c-2.35-1.58-4.69-3.17-7.05-4.74c-1.84-1.23-3.68-1.1-4.9,0.32c-1.29,1.51-1.19,3.66,0.28,5.23
		c3.38,3.62,6.79,7.2,10.15,10.84c0.46,0.5,0.84,1.17,1.01,1.83c0.23,0.93-0.22,1.71-1.05,2.18c-0.82,0.47-1.66,0.47-2.44-0.1
		c-0.33-0.24-0.64-0.53-0.92-0.83c-3.32-3.52-6.62-7.05-9.95-10.56c-3.19-3.36-4.8-7.31-4.77-11.98c0.05-8.77,0.02-17.53,0.01-26.3
		c0-0.53-0.02-1.06-0.12-1.57c-0.31-1.52-1.47-2.44-2.97-2.41c-1.47,0.02-2.64,1.03-2.89,2.53c-0.07,0.41-0.06,0.83-0.06,1.24
		c0,11.18,0.01,22.37-0.01,33.55c-0.01,4.26,1.17,8.1,3.68,11.55c1.13,1.56,2.24,3.14,3.35,4.71c0.51,0.73,0.87,1.49,0.52,2.43
		c-0.6,1.63-2.7,2.22-3.73,0.86c-3.45-4.57-7.2-9.01-8.08-14.97c-0.18-1.23-0.31-2.48-0.31-3.72c-0.02-11.6-0.02-23.2-0.01-34.8
		c0-3.68,1.92-6.46,5.16-7.6c4.73-1.66,9.84,1.74,10.04,6.76c0.11,2.64,0.03,5.29,0.04,7.93c0,6.08,0,12.17,0,18.25
		c0,0.4,0,0.8,0,1.19c1.1-0.56,2.08-1.2,3.15-1.59c2.04-0.76,4.21-0.74,6.01,0.44c4.2,2.74,8.46,5.45,12.34,8.61
		c5.49,4.48,8.86,10.45,10.44,17.35c1.37,5.99,2.59,12.02,3.85,18.04c0.34,1.64-0.07,2.39-1.58,3.22
		C90.95,158.05,90.49,158.05,90.04,158.05z"/>
	<path class="st0" d="M64.19,158.05c-1.53-2.03-3.14-4.01-4.57-6.1c-0.64-0.93-0.22-2.17,0.65-2.81c0.9-0.67,2.22-0.64,2.96,0.29
		c1.35,1.71,2.63,3.49,3.78,5.33c0.74,1.19,0.26,2.21-1.23,3.28C65.25,158.05,64.72,158.05,64.19,158.05z"/>
	<path class="st0" d="M106.3,92.5c-1.29,2.93-2.52,5.73-3.75,8.52c-0.15,0.35-0.3,0.69-0.47,1.03c-0.42,0.81-1.11,1.24-2.01,1.26
		c-0.95,0.02-1.69-0.42-2.1-1.28c-0.57-1.19-1.08-2.41-1.62-3.62c-0.85-1.93-1.7-3.86-2.62-5.95c-2.61,0.71-5.27,1.18-7.72,2.16
		c-3.3,1.32-5.21,3.97-5.49,7.55c-0.17,2.2-0.03,4.43-0.03,6.73c1.39,0,2.77,0,4.31,0c0-0.79,0-1.57,0-2.34c0-0.64-0.01-1.28,0-1.93
		c0.04-1.55,0.94-2.57,2.27-2.59c1.33-0.02,2.29,1.01,2.31,2.54c0.03,1.4,0.01,2.79,0.01,4.4c0.71,0,1.37-0.02,2.03,0
		c1.59,0.06,2.55,0.93,2.55,2.29c0,1.35-0.95,2.3-2.54,2.31c-4.34,0.04-8.69,0.04-13.03,0c-1.74-0.02-2.61-0.96-2.63-2.73
		c-0.03-2.79-0.01-5.58-0.01-8.54c-0.47,0-0.86,0-1.26,0c-2.83,0-5.67,0.01-8.5,0c-1.98-0.01-2.9-0.85-2.89-2.79
		c0.02-2-0.08-4.04,0.32-5.97c0.94-4.51,3.93-7.16,8.34-8.27c1.13-0.29,2.27-0.54,3.65-0.87c-0.22-0.41-0.32-0.8-0.58-1.01
		c-2.79-2.32-3.98-5.32-3.86-8.9c0.07-1.89-0.04-3.79,0.19-5.65c0.93-7.56,9.59-11.34,15.85-6.95c0.21,0.15,0.44,0.29,0.72,0.47
		c2.54-5.12,6.55-8.14,12.33-8.13c5.72,0.01,9.74,2.96,12.22,7.98c1.2-0.58,2.32-1.3,3.55-1.67c6.28-1.92,12.43,2.04,13.11,8.57
		c0.28,2.65,0.15,5.36-0.07,8.02c-0.21,2.5-1.59,4.52-3.5,6.14c-0.29,0.25-0.48,0.62-0.83,1.08c1.67,0.42,3.07,0.71,4.44,1.12
		c4.99,1.5,7.9,5.34,8,10.55c0.02,1.17,0.02,2.34,0,3.51c-0.04,1.89-0.92,2.77-2.8,2.77c-2.83,0.01-5.67,0-8.5,0
		c-0.41,0-0.82,0-1.31,0c-0.03,0.41-0.07,0.73-0.07,1.06c-0.01,2.46,0.01,4.91-0.01,7.37c-0.02,1.93-0.91,2.84-2.86,2.85
		c-4.27,0.02-8.54,0.02-12.81,0c-1.61-0.01-2.58-0.75-2.74-1.98c-0.17-1.33,0.61-2.43,1.95-2.56c0.89-0.09,1.79-0.02,2.82-0.02
		c0-1.64-0.02-3.1,0.01-4.56c0.03-1.23,0.69-2.08,1.74-2.36c1.42-0.37,2.74,0.68,2.83,2.28c0.04,0.75,0.01,1.51,0.01,2.27
		c0,0.72,0,1.43,0,2.23c1.48,0,2.89,0,4.43,0c-0.08-2.92,0.38-5.82-0.49-8.6c-0.9-2.91-2.85-4.99-5.77-5.93
		C111.12,93.62,108.75,93.13,106.3,92.5z M107.73,85.72c1.77-0.45,3.54-0.89,5.31-1.34c0.05-0.11,0.09-0.21,0.14-0.32
		c-0.65-0.65-1.31-1.3-1.92-1.91c-1.22,1.25-2.37,2.42-3.51,3.59c-0.06,0.04-0.11,0.07-0.17,0.11
		C107.63,85.81,107.68,85.77,107.73,85.72z M108.4,65.77l0.06,0.03l-0.08-0.01c-0.1-0.51-0.11-1.06-0.31-1.52
		c-1.37-3.18-3.77-5.07-7.22-5.4c-3.25-0.31-5.92,0.94-7.84,3.59c-1.12,1.55-1.71,3.3-1.55,5.24c4.1,0.43,7.69-0.24,10.51-3.41
		c0.9-1.01,1.83-1.04,3.07-0.37C106.17,64.52,107.28,65.15,108.4,65.77z M91.47,72.34c0,1.28-0.1,2.41,0.02,3.52
		c0.39,3.58,3.24,6.65,6.73,7.35c3.69,0.74,7.33-0.88,9.24-4.01c1.43-2.35,1.23-4.92,1.19-7.47c0-0.2-0.24-0.46-0.44-0.58
		c-1.35-0.82-2.72-1.61-4.15-2.45C100.48,71.96,96.16,72.72,91.47,72.34z M123.16,97.63c3.11,0,6.11,0,9.09,0
		c0.56-4.2-1.24-6.91-5.19-7.9c-1.64-0.41-3.29-0.81-4.94-1.2c-0.91-0.22-1.58-0.72-1.86-1.63c-0.13-0.41-0.13-0.87-0.19-1.31
		c-0.81,0-1.55,0-2.35,0c0.08,3.42-2.86,2.81-4.91,3.71C117.65,90.46,121.13,93.16,123.16,97.63z M80.01,85.59
		c-0.33,2.31-0.62,2.6-2.85,3.14c-1.76,0.42-3.53,0.79-5.25,1.33c-3.16,0.99-4.96,4.51-3.95,7.6c2.95,0,5.92,0,8.92,0
		c2.01-4.5,5.5-7.19,10.39-8.36c-2.14-0.85-5.06-0.34-4.95-3.72C81.48,85.59,80.78,85.59,80.01,85.59z M124.45,74.49
		c-1.94-0.1-3.79-0.08-5.6-0.32c-1.81-0.24-3.59-0.75-5.44-1.15c-0.21,2.59-0.23,5.18,2.28,6.92c1.86,1.28,3.87,1.43,5.86,0.32
		C123.78,79.04,124.57,77.03,124.45,74.49z M75.66,74.38c-0.24,2.82,0.92,4.98,3.12,6.05c2.03,0.98,4.5,0.6,6.19-0.97
		c1.94-1.81,1.84-4.13,1.7-6.64C83.08,74.28,79.43,74.51,75.66,74.38z M113.9,67.9c2.64,1.66,7.72,2.22,10.44,1.71
		c-0.24-2.53-2.08-4.54-4.52-4.92C117.27,64.29,114.94,65.54,113.9,67.9z M86.19,67.92c-1.23-2.6-3.85-3.82-6.44-3.1
		c-2.42,0.67-4.12,2.77-3.91,4.92C79.4,69.89,82.9,69.7,86.19,67.92z M100.04,94.99c0.84-2.41,2.71-4.41,2.61-7.07
		c-1.81,0-3.46,0-5.29,0C97.4,90.56,99.12,92.61,100.04,94.99z M91.83,85.63c-0.81-0.81-2.01-1.99-3.2-3.16
		c-0.26,0.47-1.5,0.67-1.58,1.93C88.92,84.87,90.7,85.33,91.83,85.63z"/>
	<path class="st0" d="M102.29,45.98c0,0.6,0.05,1.21-0.01,1.81c-0.12,1.23-1.1,2.12-2.26,2.12c-1.15,0.01-2.19-0.89-2.26-2.11
		c-0.08-1.24-0.08-2.49,0-3.74c0.08-1.23,1.09-2.12,2.25-2.12c1.16,0,2.15,0.88,2.27,2.1C102.34,44.69,102.29,45.34,102.29,45.98z"
		/>
	<path class="st0" d="M92.35,50.81c-0.04,0.99-0.4,1.66-1.14,2.1c-0.78,0.47-1.65,0.53-2.33-0.05c-1.1-0.95-2.16-1.99-3.1-3.1
		c-0.65-0.77-0.45-1.96,0.22-2.7c0.64-0.71,1.84-1.1,2.55-0.52c1.29,1.06,2.41,2.33,3.57,3.55C92.31,50.28,92.3,50.65,92.35,50.81z"
		/>
	<path class="st0" d="M107.68,51.05c-0.02-1.52,3.19-4.72,4.69-4.68c1.69,0.05,2.87,2,1.87,3.34c-0.91,1.23-2.03,2.36-3.27,3.25
		C109.6,53.95,107.7,52.75,107.68,51.05z"/>
	<path class="st0" d="M56.9,142.11c1.28,0,2.32,1.02,2.31,2.28c-0.01,1.24-1.1,2.31-2.33,2.29c-1.19-0.02-2.2-1.04-2.23-2.27
		C54.62,143.11,55.6,142.11,56.9,142.11z"/>
	<path class="st0" d="M100.04,113.56c-1.23,0.02-2.33-1.08-2.31-2.32c0.02-1.21,1.03-2.21,2.26-2.23c1.23-0.01,2.26,0.96,2.31,2.18
		C102.35,112.42,101.28,113.54,100.04,113.56z"/>
</g>
</svg>
