<?xml version="1.0" encoding="utf-8"?>
<!-- Generator: Adobe Illustrator 26.1.0, SVG Export Plug-In . SVG Version: 6.00 Build 0)  -->
<svg version="1.1" id="Layer_1" xmlns="http://www.w3.org/2000/svg" xmlns:xlink="http://www.w3.org/1999/xlink" x="0px" y="0px"
	 viewBox="0 0 200 200" style="enable-background:new 0 0 200 200;" xml:space="preserve">
<style type="text/css">
	.st0{fill:#DC1518;}
	.st1{fill:#FFFFFF;}
</style>
<g>
	<g>
		<circle class="st0" cx="100" cy="100" r="87"/>
	</g>
	<g>
		<path class="st1" d="M131.54,38.5c1.62,0.73,2.17,2,2.17,3.75c-0.03,21.78-0.02,43.56-0.02,65.34c0,0.51,0,1.02,0,1.54
			c0.64,0.06,1.16,0.09,1.67,0.17c1.72,0.29,2.56,1.26,2.66,3.01c0.16,2.83,1.56,4.39,4.34,4.83c2.58,0.41,3.32,1.37,3.12,4.1
			c-0.68,9.57-3.55,18.38-9.08,26.27c-3.84,5.49-8.71,9.89-14.34,13.47c-1.18,0.75-2.33,0.66-3.48-0.08
			c-6.23-3.97-11.47-8.95-15.41-15.23c-0.52-0.84-1.1-1.06-2.03-1.06c-14.17,0.03-28.35,0.02-42.52,0.01c-0.59,0-1.2-0.06-1.78-0.17
			c-1.23-0.23-1.97-0.99-2.18-2.22c-0.09-0.51-0.15-1.03-0.15-1.55c-0.01-32.75,0-65.5-0.02-98.24c0-1.74,0.46-3.12,2.09-3.94
			C81.56,38.5,106.55,38.5,131.54,38.5z M99.15,138.77c-1.04-3.8-2.15-7.46-3.01-11.18c-0.29-1.28-0.76-1.53-1.95-1.52
			c-7.61,0.05-15.21,0.03-22.82,0.02c-0.6,0-1.32,0.09-1.75-0.21c-0.56-0.37-1.09-1.03-1.26-1.67c-0.22-0.84,0.31-1.57,1.17-1.83
			c0.56-0.17,1.18-0.2,1.77-0.2c7.49-0.01,14.97-0.01,22.46-0.01c0.47,0,0.94,0,1.48,0c0-0.81-0.02-1.48,0-2.15
			c0.06-1.45,0.96-2.49,2.36-2.74c0.47-0.09,0.96-0.1,1.42-0.21c1.09-0.25,2.05-0.7,2.73-1.89c-0.61,0-1.04,0-1.47,0
			c-9.69,0-19.38,0-29.07,0c-2.08,0-2.96-0.58-2.93-1.95c0.03-1.35,0.92-1.91,3.02-1.91c1.44,0,2.88,0,4.32,0
			c8.73,0,17.46,0,26.19-0.01c0.39,0,0.99-0.08,1.13-0.33c0.85-1.54,2.24-1.77,3.78-1.77c6.57,0.01,13.13,0,19.7,0
			c0.46,0,0.93,0,1.44,0c0-21.71,0-43.27,0-64.86c-22.53,0-45.01,0-67.45,0c0,31.52,0,62.96,0,94.43
			C73.44,138.77,86.35,138.77,99.15,138.77z M120.33,155.13c2.91-1.67,6.97-5.35,9.91-9.04c5.24-6.58,8.08-14.15,9.22-22.41
			c0.08-0.6,0.23-1.16-0.66-1.5c-2.97-1.14-4.94-3.33-5.97-6.31c-0.24-0.68-0.57-0.83-1.21-0.83c-7.48,0.01-14.96,0.02-22.45,0
			c-0.72,0-1.02,0.23-1.26,0.93c-1.03,2.88-2.93,5.02-5.81,6.17c-0.74,0.3-0.95,0.67-0.84,1.42c0.61,4.32,1.66,8.53,3.36,12.56
			C107.97,144.01,113.25,150.32,120.33,155.13z"/>
		<path class="st1" d="M94.1,78.71c7.6,0,15.21,0,22.81,0c2.04,0,3.02,0.63,3.05,1.93c0.03,1.33-1,2-3.1,2
			c-15.17,0-30.33,0-45.5-0.01c-0.59,0-1.21-0.04-1.78-0.19c-0.88-0.23-1.29-0.91-1.29-1.8c0.01-0.89,0.45-1.54,1.33-1.77
			c0.53-0.14,1.11-0.17,1.66-0.17C78.9,78.7,86.5,78.71,94.1,78.71z"/>
		<path class="st1" d="M94.07,104.32c-7.8,0-15.61,0-23.41,0c-1.45,0-2.22-0.58-2.33-1.69c-0.11-1.1,0.56-1.97,1.65-2.12
			c0.35-0.05,0.72-0.03,1.08-0.03c15.37,0,30.73,0,46.1,0c0.2,0,0.4,0,0.6,0c1.31,0.04,2.19,0.78,2.22,1.87
			c0.03,1.14-0.87,1.96-2.25,1.96C109.83,104.32,101.95,104.32,94.07,104.32z"/>
		<path class="st1" d="M94.11,60.84c-7.64,0-15.29,0-22.93,0c-0.36,0-0.72,0.02-1.08-0.01c-1.06-0.1-1.69-0.67-1.78-1.75
			c-0.09-1.04,0.57-1.87,1.62-2.03c0.39-0.06,0.8-0.04,1.2-0.04c15.33,0,30.65,0,45.98,0c0.24,0,0.48-0.01,0.72,0
			c1.27,0.05,2.17,0.88,2.14,1.96c-0.03,1.11-0.89,1.86-2.21,1.86C109.87,60.84,101.99,60.84,94.11,60.84z"/>
		<path class="st1" d="M94.05,89.63c7.68,0,15.37,0,23.05,0c1.94,0,2.89,0.65,2.86,1.94c-0.03,1.27-1.01,1.92-2.93,1.92
			c-15.29,0-30.57,0-45.86-0.01c-0.51,0-1.05-0.01-1.54-0.15c-0.98-0.28-1.42-1-1.31-2.01c0.1-1.01,0.71-1.57,1.72-1.66
			c0.44-0.04,0.88-0.03,1.32-0.03C78.93,89.63,86.49,89.63,94.05,89.63z"/>
		<path class="st1" d="M94.06,71.72c-7.56,0-15.13,0-22.69,0c-0.52,0-1.05,0.01-1.55-0.08c-0.89-0.15-1.4-0.71-1.5-1.62
			c-0.09-0.89,0.23-1.6,1.08-1.93c0.47-0.18,1.01-0.24,1.52-0.24c15.45-0.01,30.89-0.01,46.34,0c0.51,0,1.19-0.04,1.49,0.26
			c0.52,0.5,1.06,1.22,1.12,1.9c0.08,0.81-0.54,1.49-1.46,1.63c-0.51,0.08-1.04,0.08-1.55,0.08
			C109.27,71.73,101.67,71.72,94.06,71.72z"/>
		<path class="st1" d="M132.53,131.24c0,6.65-5.48,12.18-12.1,12.2c-6.65,0.02-12.2-5.55-12.19-12.24
			c0.01-6.62,5.58-12.18,12.17-12.15C127.05,119.08,132.53,124.59,132.53,131.24z M118.86,132.19c-0.61-0.75-0.95-1.27-1.38-1.67
			c-0.95-0.9-1.97-0.93-2.77-0.15c-0.75,0.73-0.72,1.88,0.12,2.78c0.74,0.79,1.51,1.53,2.28,2.29c1.27,1.25,2.23,1.27,3.49,0.04
			c1.71-1.68,3.39-3.38,5.08-5.08c0.14-0.14,0.28-0.28,0.41-0.44c0.67-0.86,0.66-1.93-0.01-2.61c-0.67-0.68-1.83-0.75-2.59,0
			C121.99,128.83,120.57,130.4,118.86,132.19z"/>
	</g>
</g>
</svg>
