<?xml version="1.0" encoding="utf-8"?>
<!-- Generator: Adobe Illustrator 26.1.0, SVG Export Plug-In . SVG Version: 6.00 Build 0)  -->
<svg version="1.1" id="Layer_1" xmlns="http://www.w3.org/2000/svg" xmlns:xlink="http://www.w3.org/1999/xlink" x="0px" y="0px"
	 viewBox="0 0 200 200" style="enable-background:new 0 0 200 200;" xml:space="preserve">
<style type="text/css">
	.st0{fill:#DC1518;}
	.st1{fill:#FFFFFF;}
</style>
<g>
	<g>
		<path class="st0" d="M138.65,24.63c1.99,0.9,2.67,2.46,2.66,4.6c-0.04,26.69-0.02,53.38-0.02,80.07c0,0.63,0,1.26,0,1.89
			c0.78,0.08,1.42,0.1,2.04,0.21c2.1,0.36,3.14,1.54,3.26,3.69c0.19,3.47,1.91,5.38,5.32,5.92c3.16,0.5,4.06,1.68,3.83,5.03
			c-0.84,11.73-4.35,22.53-11.12,32.2c-4.71,6.72-10.67,12.12-17.58,16.51c-1.44,0.92-2.85,0.81-4.27-0.1
			c-7.63-4.87-14.06-10.97-18.88-18.66c-0.64-1.02-1.35-1.3-2.49-1.3c-17.37,0.03-34.74,0.02-52.11,0.01
			c-0.73,0-1.47-0.08-2.18-0.21c-1.51-0.28-2.41-1.21-2.68-2.72c-0.11-0.62-0.18-1.26-0.18-1.89c-0.01-40.13,0-80.27-0.03-120.4
			c0-2.14,0.57-3.82,2.56-4.83C77.41,24.63,108.03,24.63,138.65,24.63z M98.95,147.51c-1.28-4.66-2.64-9.14-3.68-13.7
			c-0.36-1.57-0.93-1.88-2.39-1.87c-9.32,0.06-18.65,0.04-27.97,0.02c-0.73,0-1.61,0.1-2.15-0.25c-0.68-0.46-1.33-1.27-1.54-2.05
			c-0.27-1.03,0.38-1.93,1.43-2.25c0.69-0.21,1.45-0.25,2.17-0.25c9.18-0.02,18.35-0.01,27.53-0.01c0.57,0,1.15,0,1.81,0
			c0-0.99-0.03-1.81,0.01-2.63c0.08-1.77,1.18-3.05,2.9-3.36c0.58-0.11,1.17-0.13,1.75-0.26c1.34-0.31,2.52-0.86,3.35-2.32
			c-0.74,0-1.27,0-1.8,0c-11.87,0-23.75,0-35.62,0c-2.55,0-3.63-0.72-3.59-2.39c0.04-1.65,1.13-2.34,3.7-2.34c1.77,0,3.53,0,5.3,0
			c10.7,0,21.39,0.01,32.09-0.02c0.48,0,1.22-0.1,1.39-0.4c1.04-1.89,2.74-2.17,4.64-2.17c8.05,0.01,16.09,0,24.14,0
			c0.57,0,1.14,0,1.76,0c0-26.61,0-53.03,0-79.49c-27.61,0-55.16,0-82.67,0c0,38.63,0,77.16,0,115.73
			C67.46,147.51,83.28,147.51,98.95,147.51z M124.92,167.56c3.57-2.05,8.54-6.56,12.15-11.08c6.43-8.06,9.9-17.34,11.3-27.47
			c0.1-0.74,0.29-1.42-0.81-1.84c-3.64-1.4-6.05-4.08-7.32-7.74c-0.29-0.84-0.7-1.02-1.48-1.02c-9.17,0.02-18.34,0.02-27.51-0.01
			c-0.88,0-1.24,0.28-1.55,1.13c-1.26,3.53-3.6,6.15-7.12,7.56c-0.91,0.36-1.16,0.83-1.03,1.74c0.75,5.3,2.04,10.46,4.12,15.39
			C109.76,153.93,116.24,161.67,124.92,167.56z"/>
		<path class="st0" d="M92.77,73.9c9.32,0,18.64,0,27.95,0c2.49,0,3.7,0.77,3.74,2.36c0.04,1.63-1.23,2.45-3.8,2.45
			c-18.59,0-37.17,0-55.76-0.01c-0.73,0-1.48-0.05-2.18-0.23c-1.08-0.28-1.59-1.11-1.58-2.2c0.01-1.09,0.55-1.89,1.63-2.17
			c0.65-0.17,1.36-0.2,2.04-0.2C74.14,73.9,83.46,73.9,92.77,73.9z"/>
		<path class="st0" d="M92.73,105.29c-9.56,0-19.13,0-28.69,0c-1.78,0-2.73-0.71-2.86-2.07c-0.13-1.34,0.68-2.41,2.02-2.59
			c0.43-0.06,0.88-0.03,1.32-0.03c18.83,0,37.66,0,56.49,0c0.25,0,0.49,0,0.74,0c1.6,0.04,2.68,0.95,2.72,2.3
			c0.04,1.4-1.06,2.4-2.76,2.4C112.05,105.3,102.39,105.29,92.73,105.29z"/>
		<path class="st0" d="M92.78,52.01c-9.37,0-18.73,0-28.1,0c-0.44,0-0.89,0.03-1.32-0.01c-1.3-0.12-2.07-0.82-2.19-2.14
			c-0.11-1.27,0.7-2.29,1.98-2.49c0.48-0.08,0.98-0.05,1.47-0.05c18.78,0,37.56,0,56.34,0c0.29,0,0.59-0.01,0.88,0
			c1.56,0.07,2.65,1.08,2.62,2.4c-0.03,1.36-1.09,2.28-2.71,2.28C112.1,52.01,102.44,52.01,92.78,52.01z"/>
		<path class="st0" d="M92.71,87.29c9.42,0,18.83,0,28.25,0c2.38,0,3.54,0.79,3.51,2.38c-0.04,1.56-1.24,2.36-3.59,2.36
			c-18.73,0-37.47,0-56.2-0.01c-0.63,0-1.29-0.02-1.89-0.19c-1.2-0.34-1.74-1.23-1.61-2.46c0.13-1.24,0.87-1.93,2.11-2.04
			c0.54-0.05,1.08-0.04,1.62-0.04C74.18,87.29,83.44,87.29,92.71,87.29z"/>
		<path class="st0" d="M92.73,65.35c-9.27,0-18.54,0-27.81,0c-0.64,0-1.28,0.01-1.91-0.1c-1.09-0.19-1.72-0.87-1.83-1.98
			c-0.11-1.09,0.29-1.96,1.33-2.36c0.58-0.22,1.24-0.3,1.86-0.3c18.93-0.01,37.86-0.01,56.79,0c0.63,0,1.46-0.04,1.83,0.31
			c0.64,0.62,1.3,1.5,1.38,2.33c0.1,0.99-0.67,1.82-1.79,2c-0.62,0.1-1.27,0.1-1.91,0.1C111.36,65.35,102.04,65.35,92.73,65.35z"/>
		<path class="st0" d="M139.86,138.29c0,8.15-6.71,14.93-14.83,14.96c-8.15,0.03-14.95-6.8-14.94-15
			c0.01-8.11,6.84-14.92,14.92-14.89C133.15,123.38,139.86,130.14,139.86,138.29z M123.11,139.45c-0.75-0.93-1.16-1.55-1.69-2.05
			c-1.16-1.1-2.42-1.14-3.39-0.19c-0.91,0.89-0.88,2.31,0.14,3.41c0.9,0.96,1.86,1.88,2.8,2.81c1.56,1.53,2.73,1.56,4.27,0.04
			c2.09-2.06,4.16-4.15,6.23-6.22c0.17-0.17,0.35-0.35,0.5-0.54c0.82-1.05,0.81-2.36-0.02-3.2c-0.83-0.83-2.25-0.92-3.17,0
			C126.94,135.33,125.2,137.25,123.11,139.45z"/>
	</g>
</g>
</svg>
