<?xml version="1.0" encoding="utf-8"?>
<!-- Generator: Adobe Illustrator 26.1.0, SVG Export Plug-In . SVG Version: 6.00 Build 0)  -->
<svg version="1.1" id="Layer_1" xmlns="http://www.w3.org/2000/svg" xmlns:xlink="http://www.w3.org/1999/xlink" x="0px" y="0px"
	 viewBox="0 0 25 25" style="enable-background:new 0 0 25 25;" xml:space="preserve">
<style type="text/css">
	.st0{fill:#DC1518;}
</style>
<g>
	<path class="st0" d="M17.61,2.2c0.12,0.06,0.25,0.11,0.37,0.19c0.3,0.22,0.42,0.52,0.42,0.89c0,0.11,0,0.23,0,0.37
		c0.09,0,0.17,0,0.24,0c0.48,0.01,0.97-0.02,1.44,0.04c0.84,0.12,1.37,0.92,1.21,1.76c-0.46,2.36-1.72,4.15-3.79,5.37
		c-0.08,0.05-0.15,0.14-0.18,0.22c-0.5,1.11-1.12,2.14-2.06,2.93c-0.34,0.28-0.73,0.5-1.1,0.73c-0.09,0.06-0.13,0.1-0.14,0.21
		c-0.03,1,0.61,1.89,1.58,2.17c0.39,0.11,0.48,0.23,0.48,0.64c0,0.6,0,1.21,0,1.81c0,0.07,0,0.13,0,0.22c0.27,0,0.51,0,0.76,0
		c0.96,0,1.56,0.6,1.56,1.55c0,0.31,0,0.62,0,0.93c-0.01,0.39-0.18,0.57-0.57,0.57c-3.54,0-7.08,0-10.62,0
		c-0.38,0-0.55-0.17-0.56-0.55c0-0.34-0.01-0.68,0-1.03c0.02-0.86,0.61-1.45,1.48-1.47c0.27-0.01,0.54,0,0.83,0
		c0-0.08,0-0.15,0-0.22c0-0.62,0-1.23,0-1.85c0-0.35,0.11-0.5,0.45-0.59c0.98-0.28,1.63-1.13,1.61-2.12c0-0.08-0.05-0.2-0.11-0.22
		c-1.12-0.52-1.92-1.38-2.55-2.41c-0.25-0.41-0.45-0.85-0.68-1.27c-0.05-0.1-0.13-0.2-0.23-0.26C5.41,9.57,4.15,7.78,3.7,5.43
		C3.52,4.5,4.22,3.66,5.17,3.65c0.47-0.01,0.94,0,1.44,0C6.53,2.98,6.7,2.44,7.39,2.2C10.8,2.2,14.2,2.2,17.61,2.2z M7.58,3.17
		c0,0.09-0.01,0.15-0.01,0.22c0,0.68,0,1.37,0,2.05c0,1.65,0.23,3.27,0.83,4.82c0.45,1.16,1.04,2.22,2.01,3.03
		c0.97,0.81,2.06,1.09,3.27,0.58c0.82-0.35,1.42-0.97,1.92-1.69c1.21-1.76,1.69-3.75,1.81-5.85c0.05-0.97,0.02-1.94,0.03-2.92
		c0-0.08-0.01-0.15-0.02-0.24C14.13,3.17,10.87,3.17,7.58,3.17z M17.44,21.83c0-0.17,0-0.33,0-0.48c0-0.47-0.16-0.63-0.63-0.63
		c-2.86,0-5.71,0-8.57,0c-0.09,0-0.19,0-0.28,0.02c-0.19,0.04-0.32,0.17-0.33,0.36c-0.02,0.24,0,0.48,0,0.73
		C10.9,21.83,14.15,21.83,17.44,21.83z M9.92,19.74c1.74,0,3.46,0,5.18,0c0-0.57,0-1.12,0-1.67c-1.73,0-3.45,0-5.18,0
		c0,0.51,0,1,0,1.5C9.92,19.62,9.92,19.67,9.92,19.74z M6.6,4.61c-0.47,0-0.92,0-1.36,0c-0.43,0-0.66,0.28-0.58,0.71
		c0.29,1.53,1.02,2.82,2.18,3.85C6.91,9.24,6.99,9.3,7.06,9.36C6.67,7.8,6.57,6.22,6.6,4.61z M18.4,4.62
		c0.03,1.61-0.07,3.19-0.51,4.79c0.77-0.62,1.34-1.32,1.77-2.13c0.33-0.62,0.55-1.27,0.68-1.96c0.07-0.37-0.11-0.67-0.46-0.69
		C19.4,4.6,18.91,4.62,18.4,4.62z M13.85,17.08c-0.51-0.61-0.77-1.27-0.8-2.01c-0.36,0-0.71,0-1.06,0c-0.01,0.77-0.3,1.42-0.78,2.01
		C12.1,17.08,12.95,17.08,13.85,17.08z"/>
	<path class="st0" d="M10.51,10.06c0.06-0.36,0.13-0.77,0.2-1.18c0.04-0.19,0.02-0.33-0.14-0.47c-0.28-0.25-0.54-0.52-0.81-0.78
		C9.61,7.48,9.53,7.31,9.6,7.09c0.07-0.22,0.24-0.31,0.46-0.34c0.4-0.06,0.81-0.11,1.21-0.18c0.08-0.01,0.18-0.09,0.22-0.16
		c0.19-0.36,0.37-0.73,0.55-1.1c0.1-0.2,0.24-0.33,0.46-0.33c0.22,0,0.37,0.13,0.46,0.33c0.18,0.37,0.35,0.74,0.55,1.1
		c0.04,0.08,0.15,0.15,0.24,0.17c0.4,0.07,0.81,0.12,1.21,0.18c0.21,0.03,0.37,0.13,0.44,0.34c0.07,0.21,0,0.38-0.15,0.53
		c-0.3,0.3-0.61,0.59-0.9,0.89c-0.05,0.05-0.08,0.15-0.07,0.22c0.06,0.42,0.13,0.85,0.2,1.27c0.04,0.21-0.02,0.39-0.2,0.51
		c-0.18,0.12-0.36,0.1-0.55,0c-0.35-0.19-0.71-0.37-1.06-0.57c-0.12-0.07-0.21-0.06-0.33,0c-0.36,0.2-0.73,0.39-1.1,0.58
		C10.88,10.7,10.52,10.48,10.51,10.06z M13.36,9.22c-0.04-0.25-0.06-0.46-0.11-0.66c-0.05-0.21,0.01-0.37,0.16-0.51
		c0.15-0.15,0.31-0.29,0.49-0.47c-0.26-0.04-0.47-0.08-0.68-0.11c-0.22-0.02-0.35-0.14-0.44-0.33c-0.09-0.18-0.18-0.37-0.29-0.59
		c-0.12,0.23-0.22,0.42-0.31,0.62c-0.08,0.17-0.21,0.27-0.4,0.29c-0.22,0.03-0.43,0.07-0.7,0.11c0.19,0.18,0.34,0.32,0.49,0.47
		c0.15,0.14,0.21,0.3,0.16,0.51c-0.04,0.21-0.07,0.42-0.1,0.66c0.22-0.11,0.4-0.2,0.58-0.31c0.19-0.1,0.37-0.11,0.55,0
		C12.95,9.02,13.14,9.11,13.36,9.22z"/>
</g>
</svg>
