<?xml version="1.0" encoding="utf-8"?>
<!-- Generator: Adobe Illustrator 26.1.0, SVG Export Plug-In . SVG Version: 6.00 Build 0)  -->
<svg version="1.1" id="Layer_1" xmlns="http://www.w3.org/2000/svg" xmlns:xlink="http://www.w3.org/1999/xlink" x="0px" y="0px"
	 viewBox="0 0 200 200" style="enable-background:new 0 0 200 200;" xml:space="preserve">
<style type="text/css">
	.st0{fill:#DC1518;}
	.st1{fill:#FFFFFF;}
</style>
<g>
	<path class="st0" d="M18.82,148.84c2.01-9.57,7.88-17.3,12.44-25.61c15.68-28.58,31.6-57.02,47.41-85.53
		c2.94-5.31,6.94-9.47,12.71-11.55c12.01-4.34,23.61,0.14,29.91,11.46c11.87,21.34,23.71,42.7,35.57,64.05
		c6.96,12.54,13.92,25.09,20.9,37.62c3.09,5.56,4.21,11.36,2.85,17.68c-2.15,9.99-11.38,17.95-21.69,18.47
		c-0.74,0.04-1.48,0.04-2.22,0.04c-37.78,0-75.57-0.01-113.35,0.01c-7.62,0-13.99-2.71-18.95-8.55c-2.72-3.2-4.4-6.91-5.22-11.03
		c-0.09-0.46-0.24-0.9-0.36-1.35C18.82,152.65,18.82,150.75,18.82,148.84z M99.85,165.94c18.82,0,37.63,0,56.45,0
		c3.06,0,5.97-0.55,8.62-2.19c5.74-3.56,9.03-11.74,4.45-19.9c-14.89-26.55-29.59-53.21-44.36-79.82
		c-4.1-7.38-8.18-14.77-12.3-22.13c-3.27-5.84-8.55-8.52-15.06-7.55c-4.99,0.74-8.28,3.78-10.67,8.09
		C72.32,68.93,57.6,95.4,42.91,121.87c-4.12,7.43-8.23,14.86-12.37,22.28c-1.9,3.41-2.69,6.96-1.73,10.81
		c1.69,6.81,7.26,10.97,14.76,10.98C62.33,165.95,81.09,165.94,99.85,165.94z"/>
	<path class="st0" d="M114.28,85.25c0,6.13,0.02,12.26,0,18.39c-0.03,10.47-9.39,17.16-19.29,13.81c-5.12-1.74-9.15-7.02-9.19-12.69
		c-0.11-13.11-0.16-26.22,0.01-39.32c0.1-7.62,6.68-13.69,14.28-13.64c7.68,0.05,14.04,6.22,14.17,13.95
		C114.36,72.25,114.27,78.75,114.28,85.25C114.28,85.25,114.28,85.25,114.28,85.25z M95.25,84.93c0,6.13-0.08,12.26,0.06,18.38
		c0.03,1.37,0.6,2.9,1.38,4.04c1.05,1.53,3.29,1.87,5.04,1.14c2.01-0.84,3-2.46,3.03-4.6c0.05-3.54,0.02-7.08,0.02-10.62
		c0-8.82,0.01-17.64,0-26.47c0-2.69-1.2-4.54-3.3-5.2c-3.24-1.01-6.18,1.28-6.2,4.93C95.22,72.67,95.25,78.8,95.25,84.93z"/>
	<path class="st0" d="M100.06,127.91c7.86,0.02,14.27,6.48,14.22,14.34c-0.05,7.78-6.46,14.17-14.23,14.19
		c-7.83,0.02-14.3-6.44-14.3-14.28C85.75,134.3,92.19,127.9,100.06,127.91z M99.95,137.43c-2.54,0.05-4.75,2.33-4.67,4.84
		c0.07,2.49,2.25,4.62,4.72,4.63c2.53,0.01,4.78-2.24,4.75-4.76C104.73,139.6,102.47,137.39,99.95,137.43z"/>
</g>
</svg>
