<?xml version="1.0" encoding="utf-8"?>
<!-- Generator: Adobe Illustrator 26.1.0, SVG Export Plug-In . SVG Version: 6.00 Build 0)  -->
<svg version="1.1" id="Layer_1" xmlns="http://www.w3.org/2000/svg" xmlns:xlink="http://www.w3.org/1999/xlink" x="0px" y="0px"
	 viewBox="0 0 200 200" style="enable-background:new 0 0 200 200;" xml:space="preserve">
<style type="text/css">
	.st0{fill:#DC1518;}
	.st1{fill:#FFFFFF;}
</style>
<g>
	<g>
		<circle class="st0" cx="100" cy="100" r="87"/>
	</g>
	<g>
		<path class="st1" d="M37.63,137.53c1.54-7.35,6.05-13.29,9.56-19.68c12.04-21.96,24.28-43.81,36.43-65.72
			c2.26-4.08,5.33-7.27,9.77-8.88c9.23-3.33,18.14,0.11,22.98,8.81c9.12,16.4,18.22,32.81,27.33,49.21
			c5.35,9.64,10.7,19.28,16.06,28.91c2.38,4.27,3.23,8.73,2.19,13.58c-1.65,7.68-8.74,13.79-16.66,14.19
			c-0.57,0.03-1.14,0.03-1.7,0.03c-29.03,0-58.06-0.01-87.1,0.01c-5.86,0-10.75-2.08-14.56-6.57c-2.09-2.46-3.38-5.31-4.01-8.47
			c-0.07-0.35-0.18-0.69-0.27-1.04C37.63,140.45,37.63,138.99,37.63,137.53z M99.89,150.67c14.46,0,28.92,0,43.38,0
			c2.35,0,4.59-0.42,6.62-1.69c4.41-2.74,6.94-9.02,3.42-15.29c-11.44-20.4-22.74-40.88-34.09-61.34
			c-3.15-5.67-6.28-11.35-9.45-17.01c-2.52-4.49-6.57-6.55-11.57-5.8c-3.83,0.57-6.37,2.9-8.2,6.22
			c-11.27,20.36-22.57,40.7-33.86,61.04c-3.17,5.71-6.32,11.42-9.51,17.12c-1.46,2.62-2.07,5.35-1.33,8.31
			c1.3,5.23,5.58,8.43,11.34,8.44C71.05,150.68,85.47,150.67,99.89,150.67z"/>
		<path class="st1" d="M110.97,88.67c0,4.71,0.01,9.42,0,14.13c-0.03,8.05-7.21,13.19-14.82,10.61c-3.93-1.33-7.03-5.39-7.06-9.75
			C89,93.59,88.97,83.52,89.1,73.45c0.07-5.86,5.13-10.52,10.97-10.48c5.9,0.04,10.79,4.78,10.89,10.72
			C111.04,78.68,110.97,83.67,110.97,88.67C110.97,88.67,110.97,88.67,110.97,88.67z M96.35,88.42c0,4.71-0.06,9.42,0.05,14.12
			c0.02,1.05,0.46,2.23,1.06,3.1c0.8,1.17,2.53,1.44,3.87,0.88c1.55-0.65,2.3-1.89,2.32-3.53c0.04-2.72,0.01-5.44,0.01-8.16
			c0-6.78,0-13.56,0-20.34c0-2.07-0.92-3.49-2.54-3.99c-2.49-0.78-4.75,0.98-4.76,3.79C96.33,79,96.35,83.71,96.35,88.42z"/>
		<path class="st1" d="M100.05,121.45c6.04,0.01,10.96,4.98,10.92,11.02c-0.04,5.98-4.96,10.89-10.93,10.9
			c-6.02,0.01-10.99-4.95-10.99-10.97C89.05,126.36,94,121.43,100.05,121.45z M99.96,128.76c-1.95,0.03-3.65,1.79-3.59,3.72
			c0.06,1.91,1.73,3.55,3.63,3.56c1.95,0.01,3.67-1.72,3.65-3.66C103.63,130.43,101.9,128.73,99.96,128.76z"/>
	</g>
</g>
</svg>
