<?xml version="1.0" encoding="utf-8"?>
<!-- Generator: Adobe Illustrator 27.1.1, SVG Export Plug-In . SVG Version: 6.00 Build 0)  -->
<svg version="1.1" id="Layer_1" xmlns="http://www.w3.org/2000/svg" xmlns:xlink="http://www.w3.org/1999/xlink" x="0px" y="0px"
	 viewBox="0 0 200 200" style="enable-background:new 0 0 200 200;" xml:space="preserve">
<style type="text/css">
	.st0{fill:#DC1518;}
</style>
<path class="st0" d="M46.12,131.53c-4.06-0.18-7.08-1.82-8.93-5.23c-1.86-3.42-1.42-6.85,0.49-10.26c-1.21-0.92-2.34-1.77-3.63-2.75
	c-0.47,0.73-0.85,1.34-1.25,1.95c-1.12,1.67-2.21,2.02-3.93,1.07c-4.47-2.47-8.93-4.97-13.37-7.5c-1.41-0.8-1.73-1.73-1.33-3.54
	c0.69-3.07,1.41-6.14,2.11-9.21c3.63-15.79,7.26-31.59,10.89-47.38c0.32-1.39,0.61-2.8,0.98-4.18c0.68-2.56,2.36-3.18,4.47-1.58
	c4.26,3.23,8.47,6.52,12.7,9.79c5,3.87,9.98,7.76,14.99,11.61c1.28,0.99,2.19,2.05,1.51,3.85c2.14,0,4.2,0.11,6.25-0.02
	c3.49-0.23,6.98-0.56,10.46-0.93c4.05-0.43,8.1-0.83,12.11-1.5c2.57-0.43,4.88,0.15,7.23,0.92c0.49,0.16,0.95,0.37,1.51,0.6
	c0.85-0.45,1.71-0.9,2.56-1.36c3.2-1.72,6.53-2,9.98-0.87c3.87,1.26,7.74,2.49,11.6,3.77c5.08,1.68,9.93,1.14,14.71-1.41
	c-0.73-1.78,0.17-2.88,1.51-3.92c9.15-7.05,18.27-14.14,27.41-21.2c2.4-1.85,4.21-1.15,4.92,1.93c1.67,7.26,3.29,14.52,4.95,21.78
	c2.9,12.67,5.81,25.34,8.72,38.02c0.57,2.49,0.31,3.16-1.84,4.37c-4.05,2.29-8.1,4.57-12.16,6.83c-2.33,1.3-3.38,1.01-4.81-1.29
	c-0.88-1.41-1.76-2.83-2.64-4.24c-0.05-0.09-0.18-0.13-0.21-0.15c-3.26,3.26-6.5,6.51-9.8,9.82c0.08,5.56-2.79,10.16-9.86,11.17
	c0.05,3.12-0.78,5.95-3.15,8.18c-2.31,2.18-5.15,2.85-8.3,2.79c-0.22,3.45-1.63,6.16-4.5,7.98c-2.82,1.79-5.82,1.9-9,0.73
	c-0.14,0.37-0.33,0.72-0.41,1.09c-1.49,6.23-8.04,9.34-13.75,6.4c-3.21-1.66-6.29-3.57-9.43-5.36c-0.69-0.4-1.39-0.79-2.24-1.28
	c-1.5,1.3-3,2.62-4.52,3.91c-2.7,2.28-5.78,3-9.17,2.03c-2.93-0.83-5-2.73-6.22-5.53c-0.23-0.52-0.41-1.05-0.67-1.72
	c-3.18,1.38-6.35,1.66-9.44-0.02c-3.04-1.65-4.68-4.3-5.18-7.78c-3.24,0.6-6.16-0.07-8.65-2.23
	C47.36,137.57,46.17,134.86,46.12,131.53z M109.92,86.22c-0.59,0.28-1.06,0.51-1.52,0.73c-5.64,2.67-11.49,4.24-17.81,3.44
	c-3.64-0.46-7.04-1.62-10.12-3.61c-2.01-1.31-2.9-3.26-2.54-5.63c0.31-2.02,1.58-3.37,3.37-4.31c3.36-1.76,6.7-3.54,10.04-5.32
	c0.36-0.19,0.68-0.45,1.02-0.67c-11.33,1.46-22.62,2.46-33.95,2.69c-7.27,11.83-14.48,23.56-21.76,35.4
	c1.63,1.24,3.16,2.4,4.71,3.57c2.06-1.79,3.93-3.5,5.88-5.1c5.14-4.21,12.6-2.34,15.22,3.78c0.22,0.51,0.43,1.02,0.7,1.64
	c3.51-1.67,6.93-1.89,10.24,0.19c3.26,2.04,4.74,5.17,4.99,8.95c2.97,0.02,5.41,0.99,7.4,3.01c1.99,2.02,2.74,4.56,2.94,7.27
	c7.08,0.18,12.57,6.92,8.64,15.12c3.47,1.98,6.95,3.97,10.44,5.94c0.19,0.11,0.44,0.14,0.66,0.21c2.62,0.8,5.37-0.99,5.7-3.69
	c0.24-1.96-0.45-3.45-2.1-4.57c-5.21-3.57-10.39-7.18-15.57-10.79c-0.71-0.49-1.43-0.98-2.04-1.57c-0.9-0.86-0.97-2.19-0.29-3.15
	c0.76-1.07,2-1.41,3.18-0.8c0.66,0.34,1.28,0.77,1.89,1.19c3.5,2.41,6.99,4.83,10.47,7.26c3.49,2.43,6.98,4.85,10.45,7.3
	c1.44,1.02,2.97,1.51,4.69,0.91c1.74-0.6,2.75-1.88,3-3.66c0.28-1.95-0.6-3.43-2.19-4.55c-5.16-3.64-10.31-7.3-15.46-10.95
	c-2.39-1.69-4.79-3.37-7.15-5.1c-1.15-0.85-1.44-2.44-0.75-3.51c0.77-1.19,2.29-1.48,3.64-0.67c0.34,0.2,0.66,0.45,0.99,0.69
	c7.86,5.59,15.71,11.19,23.57,16.78c0.51,0.37,1.03,0.75,1.58,1.04c1.78,0.92,4,0.63,5.47-0.67c1.53-1.36,2.15-3.62,1.22-5.48
	c-0.46-0.93-1.27-1.78-2.12-2.4c-6.53-4.78-13.12-9.49-19.68-14.23c-2.33-1.68-4.66-3.35-6.96-5.07c-1.52-1.14-1.81-2.45-0.92-3.69
	c0.9-1.26,2.27-1.41,3.79-0.4c0.86,0.57,1.71,1.17,2.54,1.77c8.61,6.21,17.25,12.4,25.82,18.67c1.92,1.4,5.18,1.48,6.93-0.83
	c1.49-1.96,1.11-4.86-0.9-6.65c-0.47-0.42-0.97-0.81-1.46-1.21c-7.88-6.43-15.77-12.85-23.66-19.28
	C118.13,92.89,114.08,89.59,109.92,86.22z M161.3,104.7c-6.74-10.97-13.47-21.91-20.23-32.91c-1.03,0.4-1.93,0.74-2.82,1.12
	c-5.34,2.3-10.75,2.54-16.27,0.63c-3.74-1.29-7.54-2.38-11.27-3.68c-2.33-0.81-4.46-0.61-6.62,0.55c-6.62,3.56-13.27,7.07-19.9,10.6
	c-0.48,0.26-0.92,0.58-1.4,0.89c0.19,0.31,0.24,0.49,0.36,0.59c0.32,0.24,0.66,0.46,1.01,0.66c4.18,2.38,8.69,2.81,13.34,2.14
	c3.85-0.55,7.42-1.99,10.76-3.94c1.58-0.92,2.82-0.7,4.2,0.44c12.58,10.3,25.2,20.56,37.8,30.84c0.61,0.49,1.2,1,1.7,1.41
	C155.11,110.89,158.15,107.85,161.3,104.7z M29.53,110.94c8.95-14.57,17.81-28.98,26.69-43.43c-8.05-6.23-15.94-12.34-23.97-18.56
	c-4.33,18.91-8.61,37.58-12.89,56.28C22.79,107.16,26.09,109.01,29.53,110.94z M170.53,110.08c3.5-1.97,6.83-3.85,10.15-5.73
	c-4.31-18.79-8.58-37.42-12.9-56.25c-8.14,6.31-16.02,12.41-23.97,18.56C152.74,81.17,161.58,95.52,170.53,110.08z M68.16,116.59
	c-1.35-0.1-2.45,0.61-3.46,1.5c-3.96,3.49-7.94,6.97-11.85,10.52c-0.64,0.58-1.16,1.45-1.4,2.29c-0.61,2.08,0.31,4.18,2.14,5.36
	c1.72,1.11,3.92,1.02,5.61-0.31c1.04-0.82,1.98-1.74,2.97-2.62c3.15-2.77,6.32-5.5,9.43-8.31c1.56-1.4,1.97-3.52,1.19-5.34
	C71.99,117.77,70.24,116.58,68.16,116.59z M83.47,131.91c0.06-2.1-0.9-3.5-2.62-4.39c-1.75-0.9-3.49-0.71-4.96,0.57
	c-3.65,3.14-7.25,6.34-10.84,9.55c-0.46,0.41-0.86,0.94-1.13,1.49c-0.95,1.96-0.33,4.32,1.43,5.7c1.81,1.41,4.12,1.4,5.99-0.21
	c3.61-3.1,7.16-6.27,10.71-9.43C83.05,134.29,83.54,133.15,83.47,131.91z M41.06,121.51c0.01,2.03,0.93,3.52,2.73,4.41
	c1.91,0.95,3.69,0.55,5.26-0.8c2.51-2.18,5-4.39,7.46-6.63c0.54-0.49,1.03-1.1,1.33-1.76c0.88-1.91,0.22-4.25-1.46-5.55
	c-1.74-1.34-4.12-1.41-5.88,0.07c-2.77,2.32-5.45,4.75-8.12,7.17C41.49,119.23,41.06,120.3,41.06,121.51z M77.98,147.91
	c0.12,1.6,0.93,3.03,2.6,3.9c1.91,0.99,3.7,0.6,5.26-0.72c2.15-1.81,4.26-3.66,6.32-5.57c2.03-1.89,2.12-4.66,0.35-6.61
	c-1.74-1.91-4.42-2.13-6.48-0.41c-2.24,1.87-4.4,3.84-6.58,5.79C78.46,145.18,78,146.33,77.98,147.91z"/>
</svg>
