<?xml version="1.0" encoding="utf-8"?>
<!-- Generator: Adobe Illustrator 27.1.1, SVG Export Plug-In . SVG Version: 6.00 Build 0)  -->
<svg version="1.1" id="Layer_1" xmlns="http://www.w3.org/2000/svg" xmlns:xlink="http://www.w3.org/1999/xlink" x="0px" y="0px"
	 viewBox="0 0 800 800" style="enable-background:new 0 0 800 800;" xml:space="preserve">
<style type="text/css">
	.st0{fill:#DB171A;}
</style>
<g>
	<path class="st0" d="M389.79,159.9c0.03,2.49-0.22,5.7,1.16,7.3c2.29,2.68,5.53,5.3,8.83,6.16c4.4,1.15,7.86-1.79,9.39-6.03
		c0.84-2.31,1.03-4.94,1.05-7.43c0.11-10.5-0.12-21.01,0.11-31.51c0.13-6.09-1.48-11.04-6.82-14.39c-2.33,0-4.67,0-7,0
		c-5.35,3.34-6.96,8.3-6.82,14.39C389.9,138.88,389.68,149.39,389.79,159.9z"/>
	<path class="st0" d="M220.64,352.85c-0.12-5.84-4.48-9.76-11.39-9.93c-6.02-0.15-12.05-0.03-18.08-0.03
		c-6.22,0-12.44-0.11-18.66,0.03c-6.92,0.15-11.41,4.03-11.68,9.77c-0.26,5.6,4.13,10.23,10.92,10.4
		c12.63,0.31,25.27,0.31,37.9,0.02C216.65,362.96,220.76,358.71,220.64,352.85z"/>
	<path class="st0" d="M627.86,342.93c-6.22-0.18-12.44-0.04-18.66-0.04c-6.22,0-12.45-0.14-18.66,0.04
		c-6.86,0.2-11.17,4.25-11.16,10.14c0,5.71,3.88,9.83,10.61,10c12.82,0.32,25.66,0.31,38.48,0c6.54-0.16,10.73-4.55,10.72-10.01
		C639.17,347.34,634.63,343.13,627.86,342.93z"/>
	<path class="st0" d="M288.14,179.6c2.92,5.03,5.71,10.15,8.91,14.99c2.58,3.9,6.45,5.57,11.13,4.13c4.62-1.42,6.88-4.79,7.21-10.4
		c-0.45-1.23-0.91-3.36-1.93-5.17c-6.11-10.8-12.25-21.58-18.59-32.25c-3.76-6.32-9.41-7.99-14.67-4.78
		c-4.87,2.97-6.06,8.77-2.76,14.81C280.88,167.22,284.54,173.39,288.14,179.6z"/>
	<path class="st0" d="M496.49,199.18c1.25-0.87,4.75-2.09,6.26-4.54c7.23-11.69,14.11-23.61,20.7-35.68
		c2.66-4.86,0.49-10.55-3.97-13.06c-4.53-2.54-9.9-1.79-12.83,2.95c-7.32,11.87-14.46,23.88-20.97,36.2
		C482.23,191.59,487.37,199.01,496.49,199.18z"/>
	<path class="st0" d="M197.6,247.87c10.69,6.26,21.43,12.46,32.21,18.57c1.8,1.02,3.94,1.46,4.8,1.77
		c6.13,0.16,9.54-2.16,10.93-6.72c1.53-5.06-0.29-9.26-4.82-11.93c-11.17-6.59-22.34-13.22-33.74-19.39
		c-2.42-1.31-6.52-1.91-8.69-0.72c-2.83,1.54-5.58,4.89-6.45,8C190.56,242,193.66,245.57,197.6,247.87z"/>
	<path class="st0" d="M569.71,266.69c10.98-6.14,21.97-12.3,32.64-18.95c2.97-1.86,4.83-5.5,6.12-7.03
		c0.1-9.71-7.86-14.64-14.94-10.83c-11.59,6.23-22.96,12.9-34.22,19.72c-5.53,3.35-6.81,9.12-3.9,14.06
		C558.2,268.39,564.1,269.83,569.71,266.69z"/>
	<path class="st0" d="M230.75,439.26c-11.4,6.2-22.61,12.78-33.73,19.48c-5.57,3.36-6.96,9.1-4.06,13.98
		c2.86,4.81,8.62,6.35,14.24,3.23c11.18-6.2,22.33-12.5,33.18-19.25c2.78-1.73,4.43-5.28,5.51-6.63
		C246.08,439.86,238.26,435.17,230.75,439.26z"/>
	<path class="st0" d="M602.84,458.62c-10.99-6.52-22.04-12.96-33.26-19.09c-2.33-1.27-6.07-2.23-8.12-1.22
		c-2.94,1.45-5.98,4.46-7.07,7.49c-1.69,4.69,1.05,8.64,5.28,11.12c10.87,6.36,21.77,12.65,32.73,18.85
		c1.81,1.02,3.96,1.42,5.38,1.91c5.35-0.49,8.76-2.52,10.13-7.28C609.46,465.07,607.22,461.21,602.84,458.62z"/>
	<path class="st0" d="M522.53,471.69c36.04-40.52,49.16-88.45,38.99-142.46c-7.65-40.61-30.81-76.55-65.23-101.19
		c-34.35-24.59-75.93-35.11-117.09-29.62c-37.07,4.94-71.76,22.52-97.68,49.5c-25.96,27.01-42.12,62.42-45.52,99.69
		c-4,43.99,8.82,84.7,38.13,121c9.68,11.99,17.39,23.24,23.57,34.38c8.71,15.71,10.55,33.71,11.19,47.64
		c0.24,5.16-0.18,9.61-2.97,14.53c-5.21,9.19-5.77,20.18-1.53,30.17c4.37,10.3,12.98,17.77,23.62,20.52c1.6,0.41,3.21,0.71,4.78,1
		c0.15,0.03,0.3,0.05,0.45,0.08c-0.26,23.54,9.83,39.14,18.45,48.13c12.42,12.96,30.13,20.79,47.35,20.96c0.19,0,0.38,0,0.56,0
		c17.1,0,34.75-7.6,47.33-20.4c8.83-8.99,19.18-24.68,18.97-48.7c0.84-0.23,1.7-0.46,2.54-0.64c11.62-2.46,21.02-9.84,25.81-20.24
		c4.65-10.11,4.19-21.66-1.27-31.68c-2.34-4.3-3.18-8.4-2.88-14.13C491.65,520.17,502.26,494.48,522.53,471.69z M427.82,654.78
		c-13.89,11.47-33.99,13.26-50.02,4.44c-15.29-8.41-23.91-24.35-22.79-41.92h89.2C445.04,632.5,439.53,645.1,427.82,654.78z
		 M460.16,595.94c-14.17,0.03-28.35,0.02-42.53,0.01l-17.55,0l-16.97,0c-14.37,0-28.74,0.01-43.12-0.01
		c-9.53-0.02-16.32-5.92-16.51-14.35c-0.09-3.96,1.33-7.65,4-10.38c3-3.08,7.35-4.78,12.24-4.79c21.23-0.05,41.42-0.07,60.83-0.07
		c20.74,0,40.6,0.03,59.87,0.08c4.77,0.01,9.01,1.68,11.95,4.69c2.81,2.88,4.31,6.88,4.22,11.25
		C476.43,590.59,469.97,595.92,460.16,595.94z M468.88,545.98H329.67c-0.29-2.03-0.55-4.06-0.82-6.04
		c-0.73-5.57-1.48-11.32-2.72-16.9c-5.09-22.96-15.6-43.64-31.24-61.45c-19.68-22.41-31.58-45.38-36.38-70.22
		c-9.94-51.51,4.22-95.97,42.11-132.15c20.16-19.26,42.48-31.82,66.32-37.34c23.89-5.53,49.38-4,75.74,4.55
		c25.92,8.41,47.3,21.74,63.52,39.62c16.33,17.99,27.51,40.67,33.25,67.4c10.07,46.94-1.41,89.4-34.11,126.21
		C482.64,485.2,472.99,507.95,468.88,545.98z"/>
	<path class="st0" d="M513.41,417.79c1.5-9.19,4.4-17.33,9.12-25.61c5.65-9.91,4.48-21.06-3.39-32.31
		c9.45-17.99,5.15-34.84-11.91-46.36c-0.71-0.48-1.45-2.06-1.38-2.69c2.13-19.59-8.83-34.56-27.92-38.13
		c-1.94-0.36-2.56-1.03-3.84-3.29c-0.41-0.72-0.82-1.47-1.23-2.23c-2.53-4.63-5.4-9.87-9.82-12.54
		c-11.33-6.83-21.45-12.02-30.93-15.89c-10.35-4.22-21.3-1.7-31.76,7.3c-6.8-5.78-15.06-8.87-23.46-8.72
		c-8.51,0.15-16.59,3.68-22.19,9.68c-0.55,0.59-2.34,0.95-3.19,1.12c-12.4,2.48-20.68,9.29-24.61,20.23
		c-1.21,3.38-2.44,4.45-5.24,4.56c-1.44,0.06-2.81,0.5-4.01,0.9l-0.18,0.06c-16.14,5.24-24.63,20.07-22.35,38.87
		c-0.05,0.03-0.1,0.06-0.16,0.09c-17.57,10.03-23.02,27.65-14.23,45.96c0.23,0.47-0.07,2.29-0.87,3.63
		c-7.6,12.78-6.16,27.87,3.68,38.43c1.98,2.13,2.59,4,2.32,7.13c-0.86,10.02,2.69,18.79,10.26,25.36c3.14,2.73,6.7,4.72,10.48,6.83
		c1.31,0.73,2.66,1.49,3.99,2.28c0.18,7.67,3.39,14.76,9.11,20.07c6.87,6.37,16.54,9.48,27.36,8.81
		c4.78,10.16,12.65,16.53,23.41,18.94c10.58,2.37,20.36-0.23,29.13-7.72c7.72,5.97,15.42,8.97,22.95,8.97
		c1.53,0,3.06-0.12,4.58-0.37c9.49-1.56,18.24-8.18,25.37-19.18c0.13-0.01,0.26-0.01,0.39-0.01c21,0.33,32.03-8.19,36.92-28.62
		c0.16-0.67,1.55-1.98,2.89-2.5C504.53,436.28,511.69,428.32,513.41,417.79z M390.93,354.91c-1.39,0.09-2.79,0.16-4.16,0.23
		c-4.75,0.23-9.66,0.47-14.35,1.7c-5.12,1.34-9.79,4.71-14.08,8.14c-2.29,1.84-3.64,4.16-3.89,6.71c-0.26,2.6,0.67,5.31,2.62,7.64
		c3.98,4.74,9.93,5.22,14.8,1.17c5.58-4.62,10.52-5.81,16.02-3.83c2.36,0.85,3.05,1.77,2.97,3.93c-0.2,5.41-0.16,10.84-0.12,16.08
		c0.01,1.27,0.02,2.54,0.02,3.79c-0.99-0.21-1.98-0.43-2.95-0.64c-4.07-0.89-7.91-1.73-11.91-2.1c-6.26-0.57-10.5,2.9-11.06,9.05
		c-0.6,6.56,2.79,10.76,9.54,11.83c0.69,0.11,1.39,0.18,2.09,0.25c1.24,0.12,2.4,0.24,3.4,0.58c6.76,2.36,10.37,7.04,10.71,13.92
		c0.41,8.33,0.42,16.65,0.03,24.72c-0.34,6.94-4.7,11.09-11.65,11.09c-7.01,0-11.37-4.21-11.94-11.55
		c-0.45-5.8-2.13-9.45-5.13-11.14c-1.18-0.67-2.52-1-4.02-1c-2.3,0-4.99,0.79-8.13,2.36c-4.66,2.35-9.21,2.62-12.8,0.77
		c-3.09-1.59-5.27-4.69-6.23-8.81c0.01,0,0.02-0.01,0.03-0.01c1.09-0.51,2.23-1.03,3.35-1.61c9.87-5.11,15.35-13.09,16.3-23.72
		c0.56-6.34-3.13-11.04-9.19-11.68c-3.34-0.35-6.21,0.38-8.29,2.11c-2.03,1.69-3.24,4.29-3.49,7.5c-0.32,4.15-2.34,6.37-6.75,7.44
		c-6.12,1.47-11.38,0.1-15.63-4.07c-3.16-3.1-2.66-6.6-0.64-11.98c2.51-6.68,1.19-10.68-4.87-14.76c-2.62-1.77-4.37-3.77-5.23-5.97
		c0.34,0.17,0.67,0.35,1.01,0.52c4.03,2.07,8.2,4.21,12.44,6.16c2.01,0.92,4.31,0.94,6.34,0.96l0.31,0c0.06,0,0.11,0,0.17,0
		c6.38,0,10.63-3.65,11.12-9.55c0.46-5.61-3.04-9.9-9.37-11.48c-0.42-0.11-0.87-0.21-1.33-0.32c-2.16-0.51-6.18-1.47-6.72-2.63
		c-1.71-3.67-3.74-7.19-5.7-10.61c-2.54-4.42-4.95-8.6-6.73-13.08c-1.13-2.84-0.63-6.08,1.38-8.9c2.35-3.3,6.24-5.32,9.97-5.17
		c4.72,0.21,7.57,2.81,8.24,7.51c1.03,7.24,5.33,11.23,11.5,10.68c3.05-0.27,5.58-1.55,7.31-3.69c1.94-2.4,2.71-5.67,2.25-9.46
		c-1.35-10.89-7.36-19.05-17.39-23.59c-0.63-0.29-1.31-0.54-1.99-0.8c-3.33-1.27-4.2-1.87-3.97-3.73c0.33-2.63,1.26-7.5,3.84-10.62
		c1.78-2.15,3.62-3.2,5.33-3.18c2.43,0.05,4.57,2.22,5.93,4.03c7.63,10.1,19.33,14.26,31.3,11.12c6.65-1.74,9.72-6.35,8.42-12.64
		c-0.53-2.56-1.92-4.64-4.03-6c-2.51-1.62-5.86-2.09-9.44-1.3c-6.37,1.4-8.08,0.09-9.71-3.6c-2.06-4.64-0.69-10.87,2.87-13.07
		c1.7-1.05,3.86-1.67,5.47-1.61c6.69,0.29,11.35-1.93,15.03-7.21c3.5-5.02,8.93-4.32,11.85-3.46c3.61,1.07,7.96,3.43,8.14,8.63
		c0.59,16.68,0.5,33.22,0.36,45.79c-0.29,0.56-1.78,1.79-2.96,2.17c-5.52,1.76-10.47,0.73-14.7-3.07c-4.06-3.64-8.31-4.35-12.65-2.1
		c-3.14,1.63-5.19,4.37-5.63,7.52c-0.47,3.4,0.94,6.94,3.87,9.7c8.99,8.47,19.62,11.45,32.45,9.07V354.91z M500.12,390.04
		c-7.96,6.04-8.58,8.12-5.12,17.05c2.24,5.78,0.71,10.2-4.56,13.12c-6.09,3.38-14.53,2.79-17.37-1.22c-0.78-1.1-1.14-2.81-1.49-4.46
		c-0.1-0.47-0.2-0.94-0.3-1.39c-1.47-6.28-6.02-9.67-11.83-8.88c-5.72,0.79-9.03,4.99-8.86,11.25c0.32,11.3,6.29,19.87,17.26,24.76
		c1.3,0.58,2.09,1.17,2.29,1.72c0.26,0.72-0.33,2.09-0.8,3.05c-1.46,3.01-3.87,5.18-6.79,6.11c-2.93,0.93-6.17,0.56-9.12-1.06
		c-5.4-2.96-9.52-3.6-12.58-1.96c-3.16,1.7-4.88,5.51-5.42,12c-0.55,6.57-5.02,10.95-11.4,11.15c-6.87,0.21-11.66-4.1-12-10.74
		c-0.46-8.95-0.47-17.62-0.02-25.77c0.44-8.07,5.79-13.4,14.66-14.63c8.27-1.14,11.84-5.09,10.9-12.06
		c-0.56-4.12-2.95-8.76-10.92-8.76c-0.81,0-1.68,0.05-2.62,0.15c-2.69,0.3-5.04,0.72-7.19,1.3c-1.61,0.44-3.13,1.03-4.9,1.72
		c-0.01,0-0.03,0.01-0.04,0.02c-0.01-1.24-0.02-2.48-0.03-3.72c-0.05-6.49-0.1-12.63,0.29-18.81c0.54-0.6,2.62-1.74,4.38-2.11
		c4.66-0.99,8.89,0.13,12.94,3.43c3.22,2.62,6.35,3.79,9.32,3.47c2.56-0.27,4.82-1.62,6.72-4c4.13-5.17,3-10.95-3.11-15.85
		c-8.63-6.92-18.52-9.57-29.4-7.88c-0.54,0.08-1.08,0.15-1.65,0.21v-18.86c1.17-0.02,2.36-0.01,3.51-0.01
		c4.19,0.02,8.51,0.04,12.55-1.13c5.03-1.46,10.28-4.28,16.54-8.88c2.33-1.71,3.73-3.95,4.04-6.45c0.33-2.65-0.6-5.45-2.62-7.88
		c-4.07-4.92-9.71-5.43-14.73-1.32c-5.57,4.56-10.52,5.76-16.05,3.88c-2.29-0.78-2.94-1.67-2.92-3.96
		c0.06-7.71,0.04-15.54,0.02-23.11c-0.02-6.63-0.04-13.49,0-20.24c0.03-5.33,2.59-9.26,7.03-10.78c4.84-1.66,9.43-0.17,12.6,4.1
		c3.51,4.72,8.21,5.84,12.33,6.52c3.49,0.57,6.88,2,9.05,3.82c2.82,2.36,3.55,5.99,1.9,9.46c-1.96,4.15-6.3,6.4-10.79,5.6
		c-5.81-1.04-9.71,0.43-11.58,4.35c-1.36,2.84-1.56,6.98-0.47,10.07c1.05,2.98,4.89,4.88,7,5.54c11.25,3.5,23.29-0.63,31.43-10.77
		c2.1-2.62,4.21-3.95,6.28-3.95c0.01,0,0.02,0,0.03,0c2.69,0.02,5.07,2.35,6.6,4.31c2.23,2.85,3.07,5.64,2.45,8.07
		c-0.59,2.27-2.47,4.14-5.45,5.42c-10.87,4.63-17.86,14.74-17.82,25.74c0.03,6.58,3.67,10.71,9.76,11.05
		c5.91,0.33,9.99-3.1,10.91-9.19l0.13-0.88c0.67-4.61,1.2-7.04,5.06-7.73c4.67-0.84,11.86,3.21,14.5,8.18
		c1.55,2.92,2.52,7.17-1.67,10.84c-4.53,3.96-6.8,8.34-7.36,14.19c-0.61,6.32-7.27,7.91-10.1,8.29
		c-7.63,1.04-11.04,5.14-10.14,12.18c0.77,6.07,5.92,9.47,13.13,8.64c6.69-0.77,12.47-3.28,17.88-7.82
		C503.75,386.59,502.37,388.32,500.12,390.04z"/>
</g>
</svg>
