<?xml version="1.0" encoding="utf-8"?>
<!-- Generator: Adobe Illustrator 27.1.1, SVG Export Plug-In . SVG Version: 6.00 Build 0)  -->
<svg version="1.1" id="Layer_1" xmlns="http://www.w3.org/2000/svg" xmlns:xlink="http://www.w3.org/1999/xlink" x="0px" y="0px"
	 viewBox="0 0 800 800" style="enable-background:new 0 0 800 800;" xml:space="preserve">
<style type="text/css">
	.st0{display:none;fill:#DC1518;}
	.st1{fill:#DB1519;}
</style>
<g>
	<g>
		<path class="st0" d="M239.39,156.79c3.31-25.48,18.75-39.89,41.72-39.5c20.35,0.35,36.04,16.34,38.03,39.11
			c52.31,0,104.65,0,157.41,0c0.69-12.18,5.27-22.61,14.89-30.39c7.99-6.46,17.19-9.17,27.52-8.75
			c19.67,0.79,34.25,15.84,37.4,39.53c12.61,0,25.32-0.02,38.02,0c32.72,0.06,58.86,21.13,65.55,53.19
			c1.16,5.58,1.35,11.44,1.35,17.17c0.07,124.24-0.21,248.48,0.21,372.71c0.14,40.26-26.3,62.96-50.05,68.38
			c-4.96,1.13-10.13,1.91-15.21,1.92c-132.24,0.1-264.49,0.02-396.73,0.13c-30.73,0.03-65.48-25.09-65.22-69.2
			c0.42-71.78,0.11-143.57,0.11-215.36c0-53.07,0.08-106.14-0.03-159.21c-0.06-26.35,10.18-47,32.94-60.82
			c9.83-5.97,20.63-8.97,32.22-8.93C212.83,156.83,226.15,156.79,239.39,156.79z M160.89,295.17c0,2.74,0,11.78,0,13.83
			c0,97.06-0.01,201.13,0,298.19c0,27.27,16,43.53,43.13,43.54c129.13,0.05,258.26,0.03,387.39-0.03c4.49,0,9.13-1.17,13.44-2.25
			c18.63-4.66,29.95-19.17,29.96-39.75c0.03-97.89,0.01-202.77,0.01-300.66c0-1.83,0-10.66,0-12.87
			C476.79,295.17,319.18,295.17,160.89,295.17z M161.97,274.9c157.3,0,314.87,0,472.7,0c0-18.65,0.77-36.96-0.22-55.17
			c-0.98-17.92-14.08-33.43-30.84-35.27c-15.59-1.71-31.51-0.37-47.31-0.37c-2.74,27.77-23.53,38.42-39.47,38.62
			c-21.14,0.27-35.29-13.18-40.68-38.98c-52.29,0-104.6,0-156.84,0c-2.88,22.93-16.69,37.18-37.25,38.77
			c-9.37,0.72-17.93-1.67-25.55-7.12c-10.84-7.76-16.03-18.73-17.03-31.73c-14.69,0-28.88-0.57-43.01,0.15
			c-17.09,0.86-32.72,14.05-34.11,31.01C160.73,234.56,161.97,254.55,161.97,274.9z M266.71,169.71c0.01,0,0.02,0,0.02,0
			c0,5.11-0.39,10.27,0.1,15.33c0.61,6.41,6.39,11.19,12.58,11.16c6.26-0.03,12.17-4.77,12.48-11.24c0.49-10,0.51-20.06-0.01-30.06
			c-0.34-6.65-5.94-10.95-12.56-10.94c-6.62,0.02-11.89,4.34-12.53,11.01C266.33,159.85,266.71,164.8,266.71,169.71z M503.69,169.63
			c0,5.11-0.38,10.26,0.1,15.34c0.6,6.43,6.31,11.22,12.52,11.24c6.24,0.02,12.23-4.72,12.55-11.16c0.5-10,0.52-20.06,0.02-30.06
			c-0.33-6.67-5.88-10.99-12.49-11.01c-6.63-0.02-11.94,4.28-12.6,10.94C503.3,159.77,503.69,164.72,503.69,169.63z"/>
	</g>
	<g>
		<path class="st1" d="M284.53,355.84c-6.74-0.09-13.48-0.02-20.22-0.02c-6.33,0-12.66-0.02-18.99,0
			c-14.66,0.07-25.83,9.54-26.59,24.01c-0.76,14.45-0.73,29.01-0.01,43.47c0.68,13.76,11.58,23.88,25.3,24.26
			c13.47,0.37,26.96,0.36,40.43,0.01c13.55-0.35,24.58-10.21,25.26-23.58c0.77-15.06,0.75-30.23-0.07-45.28
			C308.92,365.62,297.57,356,284.53,355.84z M293.2,420.35c0,5.91-4.79,10.7-10.7,10.7h-36.3c-5.91,0-10.7-4.79-10.7-10.7v-35.24
			c0-5.91,4.79-10.7,10.7-10.7h36.3c5.91,0,10.7,4.79,10.7,10.7V420.35z"/>
		<path class="st1" d="M428.61,355.84c-6.74-0.09-13.48-0.02-20.22-0.02c-6.33,0-12.66-0.02-18.99,0
			c-14.66,0.07-25.83,9.54-26.59,24.01c-0.76,14.45-0.73,29.01-0.01,43.47c0.68,13.76,11.58,23.88,25.3,24.26
			c13.47,0.37,26.96,0.36,40.43,0.01c13.55-0.35,24.58-10.21,25.26-23.58c0.77-15.06,0.75-30.23-0.07-45.28
			C453,365.62,441.65,356,428.61,355.84z M437.28,420.35c0,5.91-4.79,10.7-10.7,10.7h-36.3c-5.91,0-10.7-4.79-10.7-10.7v-35.24
			c0-5.91,4.79-10.7,10.7-10.7h36.3c5.91,0,10.7,4.79,10.7,10.7V420.35z"/>
		<path class="st1" d="M572.69,355.84c-6.74-0.09-13.48-0.02-20.22-0.02c-6.33,0-12.66-0.02-18.99,0
			c-14.66,0.07-25.83,9.54-26.59,24.01c-0.76,14.45-0.73,29.01-0.01,43.47c0.68,13.76,11.58,23.88,25.3,24.26
			c13.47,0.37,26.96,0.36,40.43,0.01c13.55-0.35,24.58-10.21,25.26-23.58c0.77-15.06,0.75-30.23-0.07-45.28
			C597.08,365.62,585.73,356,572.69,355.84z M581.35,420.35c0,5.91-4.79,10.7-10.7,10.7h-36.3c-5.91,0-10.7-4.79-10.7-10.7v-35.24
			c0-5.91,4.79-10.7,10.7-10.7h36.3c5.91,0,10.7,4.79,10.7,10.7V420.35z"/>
		<path class="st1" d="M284.53,482.03c-6.74-0.09-13.48-0.02-20.22-0.02c-6.33,0-12.66-0.02-18.99,0
			c-14.66,0.07-25.83,9.54-26.59,24.01c-0.76,14.45-0.73,29.01-0.01,43.47c0.68,13.76,11.58,23.88,25.3,24.26
			c13.47,0.37,26.96,0.36,40.43,0.01c13.55-0.35,24.58-10.21,25.26-23.58c0.77-15.06,0.75-30.23-0.07-45.28
			C308.92,491.82,297.57,482.19,284.53,482.03z M293.2,546.55c0,5.91-4.79,10.7-10.7,10.7h-36.3c-5.91,0-10.7-4.79-10.7-10.7V511.3
			c0-5.91,4.79-10.7,10.7-10.7h36.3c5.91,0,10.7,4.79,10.7,10.7V546.55z"/>
		<path class="st1" d="M428.61,482.03c-6.74-0.09-13.48-0.02-20.22-0.02c-6.33,0-12.66-0.02-18.99,0
			c-14.66,0.07-25.83,9.54-26.59,24.01c-0.76,14.45-0.73,29.01-0.01,43.47c0.68,13.76,11.58,23.88,25.3,24.26
			c13.47,0.37,26.96,0.36,40.43,0.01c13.55-0.35,24.58-10.21,25.26-23.58c0.77-15.06,0.75-30.23-0.07-45.28
			C453,491.82,441.65,482.19,428.61,482.03z M437.28,546.55c0,5.91-4.79,10.7-10.7,10.7h-36.3c-5.91,0-10.7-4.79-10.7-10.7V511.3
			c0-5.91,4.79-10.7,10.7-10.7h36.3c5.91,0,10.7,4.79,10.7,10.7V546.55z"/>
		<path class="st1" d="M572.69,482.03c-6.74-0.09-13.48-0.02-20.22-0.02c-6.33,0-12.66-0.02-18.99,0
			c-14.66,0.07-25.83,9.54-26.59,24.01c-0.76,14.45-0.73,29.01-0.01,43.47c0.68,13.76,11.58,23.88,25.3,24.26
			c13.47,0.37,26.96,0.36,40.43,0.01c13.55-0.35,24.58-10.21,25.26-23.58c0.77-15.06,0.75-30.23-0.07-45.28
			C597.08,491.82,585.73,482.19,572.69,482.03z M581.35,546.55c0,5.91-4.79,10.7-10.7,10.7h-36.3c-5.91,0-10.7-4.79-10.7-10.7V511.3
			c0-5.91,4.79-10.7,10.7-10.7h36.3c5.91,0,10.7,4.79,10.7,10.7V546.55z"/>
		<path class="st1" d="M635.39,164.19h-65.65v-10.96c0-20.53-16.7-37.23-37.23-37.23s-37.23,16.7-37.23,37.23v10.96H321.33v-10.96
			c0-20.53-16.7-37.23-37.23-37.23c-20.53,0-37.23,16.7-37.23,37.23v10.96h-70.62c-16.72,0-30.33,13.61-30.33,30.33v459.15
			c0,16.72,13.61,30.33,30.33,30.33h459.15c16.72,0,30.33-13.61,30.33-30.33V194.52C665.72,177.8,652.11,164.19,635.39,164.19z
			 M516.27,153.23c0-8.95,7.28-16.23,16.23-16.23s16.23,7.28,16.23,16.23v10.96v40.9c0,8.95-7.28,16.23-16.23,16.23
			s-16.23-7.28-16.23-16.23v-40.9V153.23z M267.86,153.23c0-8.95,7.28-16.23,16.23-16.23s16.23,7.28,16.23,16.23v10.96v40.9
			c0,8.95-7.28,16.23-16.23,16.23c-8.39,0-15.32-6.4-16.15-14.58c-0.06-0.55-0.08-1.1-0.08-1.66v-40.9V153.23z M176.24,185.19h70.62
			v19.9c0,20.53,16.7,37.23,37.23,37.23c20.53,0,37.23-16.7,37.23-37.23v-19.9h173.94v19.9c0,20.53,16.7,37.23,37.23,37.23
			s37.23-16.7,37.23-37.23v-19.9h65.65c5.14,0,9.33,4.19,9.33,9.33v63.57H166.91v-63.57C166.91,189.38,171.1,185.19,176.24,185.19z
			 M635.39,663H176.24c-5.14,0-9.33-4.19-9.33-9.33V279.09h477.81v374.58C644.72,658.81,640.54,663,635.39,663z"/>
	</g>
</g>
</svg>
