<?xml version="1.0" encoding="utf-8"?>
<!-- Generator: Adobe Illustrator 27.1.1, SVG Export Plug-In . SVG Version: 6.00 Build 0)  -->
<svg version="1.1" id="Layer_1" xmlns="http://www.w3.org/2000/svg" xmlns:xlink="http://www.w3.org/1999/xlink" x="0px" y="0px"
	 viewBox="0 0 800 800" style="enable-background:new 0 0 800 800;" xml:space="preserve">
<style type="text/css">
	.st0{fill:#DC1518;}
</style>
<g>
	<path class="st0" d="M722.1,281.79c-0.45-1.31-0.86-2.63-1.28-3.96c-0.95-3.03-1.93-6.17-3.35-9.18
		c-11.05-23.35-30.34-35.19-57.33-35.19H462.45c-14.79,0-29.58-0.01-44.37-0.02c-34.77-0.02-70.72-0.04-106.08,0.05
		c-32.6,0.08-56.46,20.02-60.78,50.8c-1.18,8.38-0.97,16.93-0.78,25.2c0.07,3.12,0.15,6.35,0.15,9.49l-0.02,30.69
		c-0.03,54.53-0.06,110.92,0.05,166.38c0.06,29.71,22.95,54.73,52.12,56.97c12.51,0.96,25.22,0.88,37.53,0.82
		c3.53-0.02,7.06-0.04,10.6-0.04c78.95,0.08,143.34,0.06,202.67-0.05c5.02-0.06,7.89,1.31,10.57,4.87
		c7.22,9.58,14.81,19.11,22.16,28.31c3.01,3.77,6.01,7.54,9,11.32l14.16,17.92c10.69,13.53,21.37,27.06,32.09,40.57
		c4.33,5.46,9.68,8.25,15.71,8.25c1.96,0,3.99-0.3,6.08-0.89c8.56-2.44,13.77-8.99,14.69-18.45c0.21-2.2,0.21-4.35,0.21-6.44v-0.77
		c0-6.47,0.01-12.94,0.02-19.41c0.03-20.54,0.06-41.78-0.13-62.68c-0.04-4.15,0.35-4.74,3.81-5.79
		c17.49-5.28,29.96-17.23,37.07-35.51c0.86-2.2,1.56-4.44,2.23-6.6c0.3-0.97,0.6-1.93,0.92-2.89l0.2-0.6V282.42L722.1,281.79z
		 M695.72,445.54c0.02,22.19,0.04,44.39,0.03,66.58c-0.01,20.1-10.99,32.37-30.94,34.58c-9.05,1-13.65,6.45-13.66,16.21
		c-0.03,20.76-0.03,41.51-0.02,62.27l0,20.44l-5.57-7.04c-9.01-11.39-18.02-22.77-27.03-34.17c-3.02-3.82-6.04-7.64-9.07-11.45
		c-8.28-10.44-16.84-21.23-25.1-31.96c-7.45-9.67-17.23-14.37-29.91-14.37c-0.02,0-0.04,0-0.07,0c-26.95,0.03-54.36,0.01-80.87-0.01
		c-52.75-0.05-107.29-0.1-160.94,0.34c-10.11,0.07-19.26-3.43-25.73-9.88c-6.44-6.42-9.81-15.29-9.75-25.64
		c0.39-69.11,0.39-141.69,0.01-215.72c-0.05-10.23,3.3-19.03,9.71-25.44c6.35-6.35,15.29-9.84,25.2-9.84c0.06,0,0.12,0,0.18,0
		c115.58,0.49,232.91,0.49,348.72,0.01c0.06,0,0.12,0,0.17,0c9.84,0,18.71,3.46,25,9.76c6.39,6.4,9.88,15.49,9.82,25.59
		C695.63,345.71,695.67,396.46,695.72,445.54z"/>
	<path class="st0" d="M225.9,388.88c-3.08-1.39-6.5-1.46-9.64-0.18c-7.07,2.88-12.37,6.18-16.21,10.09
		c-4.64,4.72-8.64,10.03-12.5,15.17c-1.6,2.13-3.26,4.33-4.91,6.42l-39.79,50.33l0-16.92c0.01-16.82,0.01-34.21-0.03-51.32
		c-0.02-9-4.51-14.05-13.34-15.01c-16-1.73-25.18-11.68-25.2-27.29c-0.07-64.71-0.07-128.93,0-190.87
		c0.02-16.75,10.91-27.58,27.74-27.59c97.29-0.05,200-0.05,305.28,0c16.81,0.01,27.35,10.58,27.51,27.59
		c0.04,4.64,0.03,9.37,0.01,13.94c-0.02,6.24-0.04,12.69,0.09,19.06c0.17,8.61,5.94,14.78,13.73,14.61
		c7.62-0.14,13.23-6.42,13.34-14.91l0.07-5.09c0.14-10.01,0.28-20.35-0.16-30.56c-1.27-29.74-23.82-51.33-53.62-51.33
		c-90.25-0.03-197.4-0.05-307.77,0.01c-29.56,0.01-52.74,23.2-52.76,52.79c-0.04,57.13-0.04,118.77,0,193.99
		c0.01,23.17,14.13,42.71,35.98,49.77c2.5,0.81,2.65,1.04,2.63,4.09c-0.14,24.45-0.15,49.98-0.03,75.89
		c0.03,6.68,2.95,12.62,8,16.28c3.1,2.25,6.76,3.41,10.53,3.41c1.94,0,3.91-0.31,5.85-0.93c5.38-1.73,9.9-6.32,12.75-9.87
		c11.78-14.7,23.66-29.72,35.14-44.25c9.74-12.32,19.81-25.06,29.77-37.54c1.38-1.73,3.69-3.42,6.86-5.03
		c7.05-3.58,10.11-10.23,7.79-16.94C231.78,393.23,229.2,390.38,225.9,388.88z"/>
	<path class="st0" d="M337.97,413.39c1.19,0.14,2.34,0.18,3.47,0.18c0.56,0,1.12-0.01,1.67-0.02c0.51-0.01,1.02-0.02,1.53-0.02
		c40.47,0,80.95,0,121.42,0l45.09,0c39.35,0,78.7,0,118.05-0.03c2.72,0,5.91-0.11,8.96-0.9c5.94-1.54,9.41-6.06,9.53-12.41
		c0.12-6.4-3.19-11.05-9.07-12.77c-3.18-0.93-6.51-1.05-9.05-1.05c-88.4-0.04-176.8-0.03-265.2-0.03l-21.22,0
		c-0.36,0-0.72-0.01-1.08-0.01c-1.17-0.02-2.38-0.03-3.67,0.1c-7.88,0.8-13.06,6-13.2,13.25
		C325.07,406.95,330.2,412.46,337.97,413.39z"/>
	<path class="st0" d="M631.93,315.24c-36.04-0.01-72.08-0.01-108.11-0.01l-151.16,0c-3.22,0-6.43-0.01-9.65-0.02
		c-7.86-0.02-15.98-0.04-23.99,0.07c-4.06,0.06-7.69,1.52-10.21,4.12c-2.39,2.47-3.67,5.84-3.61,9.49
		c0.13,7.34,5.53,12.55,13.45,12.98c0.79,0.04,1.57,0.05,2.33,0.05c0.39,0,0.77,0,1.15-0.01l1.09-0.01c95.55,0,191.09,0,286.63,0
		l1.1,0.01c1.58,0.01,3.22,0.02,4.92-0.17c3.8-0.42,7.1-2.25,9.28-5.14c2.2-2.91,3.05-6.61,2.41-10.41
		C645.9,316.31,636.08,315.24,631.93,315.24z"/>
	<path class="st0" d="M635.33,458.07c-1.7-0.16-3.34-0.15-4.93-0.14l-1.03,0c-95.25,0-190.5-0.01-285.75,0l-0.94,0
		c-1.85-0.01-3.76-0.02-5.74,0.23c-6.81,0.84-11.17,5.4-11.66,12.21c-0.5,6.91,3.44,12.13,10.53,13.97c1.36,0.35,2.7,0.43,3.97,0.43
		c0.6,0,1.18-0.02,1.73-0.04c0.49-0.02,0.98-0.03,1.47-0.03c41,0.01,82,0.01,123,0.01l163.38,0c0.5,0,1.01,0.01,1.51,0.02
		c1.43,0.03,2.92,0.05,4.48-0.11c7.37-0.76,12.34-6.11,12.36-13.32C647.73,464.09,642.75,458.77,635.33,458.07z"/>
</g>
</svg>
