<?xml version="1.0" encoding="utf-8"?>
<!-- Generator: Adobe Illustrator 26.1.0, SVG Export Plug-In . SVG Version: 6.00 Build 0)  -->
<svg version="1.1" id="Layer_1" xmlns="http://www.w3.org/2000/svg" xmlns:xlink="http://www.w3.org/1999/xlink" x="0px" y="0px"
	 viewBox="0 0 800 800" style="enable-background:new 0 0 800 800;" xml:space="preserve">
<style type="text/css">
	.st0{fill:#DB171A;}
</style>
<g>
	<g>
		<path class="st0" d="M238.58,638.67c-23.08,0-43.25-0.04-61.64-0.11c-43.33-0.18-81.38-38.26-81.44-81.49
			c-0.16-120.54-0.16-241.09,0-358.3c0.06-43.3,38.16-81.31,81.54-81.35c76.22-0.07,151.6-0.1,224.05-0.1
			c75.32,0,150.07,0.04,222.18,0.11c43.24,0.04,81.21,38.19,81.27,81.63c0.12,93.92,0.09,189.41,0.06,281.76l-0.02,72.41
			c0,11.39-7.62,19.34-18.52,19.34c-10.88-0.03-18.44-8.09-18.44-19.59c-0.02-63.85-0.02-127.69-0.01-191.54l0-74.72H132.43l0,83.04
			c0,60.06-0.01,120.12,0.01,180.17c0,15.49,4.82,28.52,13.92,37.66c9.1,9.15,22.07,13.99,37.5,14c14.71,0.01,29.42,0.01,44.13,0.01
			l49.38,0c18.8,0,37.59,0,56.38,0.02c9.35,0.01,17.56,6.83,18.67,15.52c1.22,9.48-4.13,18-13.01,20.7
			c-2.1,0.64-4.53,0.72-6.42,0.72c-11.43,0.01-22.85,0.03-34.28,0.04C278.67,638.65,258.62,638.67,238.58,638.67z M182.56,154.36
			c-0.9,0-1.8,0.01-2.71,0.03c-24.52,0.74-43.49,17.24-46.13,40.13c-1.34,11.61-1.01,23.56-0.69,35.12
			c0.14,5.17,0.29,10.51,0.29,15.79v3.5H667.6l0-15.21c0-8.96,0-17.75,0-26.54c-0.01-16.6-4.71-29.69-13.97-38.92
			c-9.26-9.22-22.4-13.9-39.06-13.9l-429.11,0L182.56,154.36z"/>
		<path class="st0" d="M401.28,120.82c75.3,0,149.99,0.04,221.99,0.11c19.61,0.02,39.4,8.61,54.29,23.57
			c14.9,14.97,23.46,34.85,23.48,54.56c0.12,93.79,0.09,189.15,0.06,281.38c-0.01,24.26-0.02,48.53-0.02,72.79
			c0,9.33-6.18,15.85-15.02,15.85l-0.06,0c-8.76-0.03-14.88-6.64-14.88-16.09c-0.02-63.62-0.02-127.25-0.01-190.87l0-62.9v-8.99v-7
			h-7H135.93h-7v7v7.32l0,71.17c0,60.41-0.01,120.82,0.01,181.23c0.01,33.49,21.57,55.14,54.92,55.16
			c14.75,0.01,29.51,0.01,44.26,0.01l24.61,0l24.61,0c18.8,0,37.6,0,56.41,0.02c7.63,0.01,14.31,5.48,15.21,12.47
			c1,7.76-3.34,14.71-10.55,16.9c-1.67,0.51-3.88,0.57-5.4,0.57c-11.46,0.01-22.92,0.02-34.38,0.04
			c-19.66,0.03-39.98,0.05-59.97,0.05c-23.11,0-43.29-0.04-61.7-0.11c-19.66-0.08-39.5-8.68-54.42-23.61
			c-14.93-14.93-23.5-34.75-23.53-54.39c-0.16-120.45-0.16-240.99,0-358.29c0.03-19.64,8.61-39.45,23.56-54.36
			c14.95-14.91,34.81-23.47,54.49-23.49C253.35,120.86,328.8,120.82,401.28,120.82 M129.83,252.44h7H664.1h7v-7l0-12.17
			c0-8.8,0-17.44,0-26.08c-0.02-35.26-21.15-56.31-56.54-56.31c-63.79,0-127.6,0-191.4,0l-163.41,0l-74.3,0c-0.47,0-0.95,0-1.42,0
			c-0.49,0-0.99,0-1.48,0c-1.11,0-1.98,0.01-2.81,0.04c-26.3,0.79-46.66,18.57-49.5,43.22c-1.37,11.86-1.03,23.94-0.71,35.62
			c0.14,5.14,0.29,10.46,0.29,15.7V252.44 M401.28,113.82c-74.75,0-149.5,0.04-224.25,0.1c-45.14,0.04-84.98,39.78-85.04,84.84
			c-0.16,119.44-0.16,238.87,0,358.31c0.06,45.08,39.85,84.8,84.93,84.99c20.58,0.08,41.15,0.11,61.73,0.11
			c31.45,0,62.9-0.06,94.35-0.09c2.48,0,5.08-0.16,7.43-0.88c10.6-3.23,16.89-13.36,15.46-24.5c-1.34-10.43-10.88-18.56-22.14-18.57
			c-18.81-0.02-37.61-0.02-56.41-0.02c-16.41,0-32.82,0-49.23,0c-14.75,0-29.5,0-44.25-0.01c-29.51-0.02-47.91-18.51-47.92-48.16
			c-0.02-84.13-0.01-168.26-0.01-252.39c0-2.42,0-4.83,0-7.32c176.45,0,351.94,0,528.18,0c0,3.52,0,6.26,0,8.99
			c0,84.59-0.01,169.18,0.01,253.77c0,13.39,9.23,23.05,21.86,23.08c0.03,0,0.05,0,0.08,0c12.72,0,22.02-9.52,22.02-22.84
			c0.03-118.06,0.12-236.12-0.04-354.18c-0.06-45.18-39.74-85.08-84.77-85.12C549.27,113.86,475.28,113.82,401.28,113.82
			L401.28,113.82z M136.83,245.44c0-17.19-1.52-34.05,0.38-50.52c2.53-21.96,20.62-36.36,42.76-37.03c0.87-0.03,1.73-0.03,2.6-0.03
			c0.97,0,1.93,0.01,2.9,0.01c79.24,0,158.47,0,237.71,0c63.79,0,127.6,0,191.4,0c31.55,0,49.52,17.9,49.54,49.32
			c0.01,12.59,0,25.17,0,38.25C488.09,245.44,312.43,245.44,136.83,245.44L136.83,245.44z"/>
	</g>
	<g>
		<path class="st0" d="M498.8,682.68c-25.94,0-52.01-0.02-77.49-0.07c-21.88-0.04-39.72-17.9-39.76-39.82
			c-0.03-16.5,0.03-33.29,0.08-49.52c0.11-33.37,0.23-67.87-0.4-101.82c-0.39-20.91,13.63-42.83,41.17-44.3l3.58-0.19l-0.28-3.57
			c-2.05-26.72,5.51-47.71,23.14-64.16c13.87-12.94,30.44-19.58,49.25-19.74l0.74,0c22.09,0,40.77,8.4,55.53,24.97
			c13.83,15.54,19.93,35.02,18.12,57.9l-0.22,2.83l2.73,0.8c2.3,0.67,4.55,1.23,6.72,1.77c4.38,1.08,8.53,2.1,12.09,3.88
			c15,7.47,22.64,19.53,22.71,35.86c0.22,53.98,0.14,108.51,0.04,155.39c-0.04,21.86-17.93,39.68-39.86,39.72
			C550.59,682.66,524.39,682.68,498.8,682.68z M418.93,645.15h160.34V484.9H418.93V645.15z M498.95,396.39
			c-6.93,0-13.76,2.24-20.28,6.66c-16.82,11.39-17.04,28.87-15.73,41.03l0.34,3.13h71.65l0.3-3.17c1.2-12.7,0.72-30.86-17.25-41.91
			C511.77,398.32,505.37,396.39,498.95,396.39z"/>
		<path class="st0" d="M498.82,362.99c21.05,0,38.85,8.01,52.91,23.8c13.17,14.8,18.98,33.4,17.25,55.3l-0.45,5.67l5.46,1.6
			c2.37,0.69,4.66,1.26,6.87,1.8c4.19,1.03,8.15,2.01,11.37,3.61c13.72,6.83,20.7,17.85,20.77,32.74
			c0.22,53.84,0.14,108.43,0.04,155.37c-0.04,19.94-16.35,36.19-36.37,36.23c-26.13,0.05-52.35,0.07-77.94,0.07
			c-25.93,0-51.97-0.02-77.41-0.07c-19.96-0.04-36.23-16.33-36.27-36.32c-0.03-16.49,0.03-33.27,0.08-49.49
			c0.11-33.39,0.23-67.92-0.4-101.9c-0.35-19.23,12.53-39.39,37.85-40.74l7.16-0.38l-0.55-7.15c-1.97-25.59,5.24-45.66,22.04-61.33
			c13.21-12.32,28.98-18.65,46.89-18.8C498.35,362.99,498.59,362.99,498.82,362.99L498.82,362.99 M460.12,450.71h6.29h65.32h6.37
			l0.6-6.34c1.29-13.63,0.73-33.15-18.9-45.22c-6.76-4.15-13.77-6.26-20.85-6.26c-7.64,0-15.13,2.44-22.24,7.26
			c-13.8,9.35-19.44,23.84-17.25,44.3L460.12,450.71 M415.43,648.65h7h153.34h7v-7V488.4v-7h-7H422.43h-7v7v153.25V648.65
			 M498.82,355.99c-0.25,0-0.51,0-0.76,0c-19.9,0.16-37.15,7.19-51.6,20.68c-19.24,17.96-26.27,40.68-24.24,66.99
			c-29.37,1.56-44.9,25.05-44.48,47.86c0.93,50.41,0.23,100.85,0.32,151.28c0.04,23.86,19.41,43.27,43.26,43.31
			c25.81,0.05,51.61,0.07,77.42,0.07c25.98,0,51.97-0.02,77.95-0.07c23.9-0.04,43.3-19.36,43.35-43.22
			c0.11-51.8,0.17-103.61-0.04-155.41c-0.07-17.88-8.78-31.07-24.64-38.98c-5.75-2.86-12.44-3.83-19.39-5.87
			c1.76-22.26-3.52-43.12-19-60.5C541.52,364.79,522.07,355.99,498.82,355.99L498.82,355.99z M466.41,443.71
			c-1.64-15.25,0.89-28.74,14.21-37.76c5.95-4.03,12.11-6.06,18.32-6.06c5.73,0,11.51,1.73,17.19,5.22
			c14.34,8.82,17.11,22.65,15.6,38.6C509.58,443.71,488.14,443.71,466.41,443.71L466.41,443.71z M422.43,641.65
			c0-50.97,0-101.93,0-153.25c50.98,0,101.76,0,153.34,0c0,51.17,0,101.97,0,153.25C524.76,641.65,473.81,641.65,422.43,641.65
			L422.43,641.65z"/>
	</g>
	<g>
		<path class="st0" d="M179.99,220.47c-5.15,0-9.88-1.91-13.32-5.36c-3.39-3.41-5.24-8.05-5.22-13.06
			c0.05-10.66,7.98-18.7,18.43-18.72c10.61,0,18.6,7.95,18.63,18.48c0.03,10.6-7.91,18.63-18.45,18.66H179.99z"/>
		<path class="st0" d="M179.92,179.83v7h0c8.72,0,15.07,6.3,15.09,14.99c0.02,8.75-6.27,15.13-14.96,15.16l-0.06,0
			c-4.21,0-8.06-1.54-10.84-4.33c-2.73-2.74-4.22-6.5-4.2-10.58c0.05-8.82,6.33-15.22,14.94-15.24L179.92,179.83 M179.92,179.83
			c-0.01,0-0.03,0-0.04,0c-12.42,0.02-21.86,9.58-21.93,22.2c-0.06,12.39,9.54,21.95,22.04,21.95c0.03,0,0.06,0,0.08,0
			c12.49-0.04,21.97-9.62,21.94-22.17C201.99,189.29,192.46,179.83,179.92,179.83L179.92,179.83z"/>
	</g>
	<g>
		<path class="st0" d="M245.89,220.44c-5.13-0.01-9.83-1.92-13.24-5.38c-3.39-3.44-5.23-8.13-5.17-13.21
			c0.12-10.56,8.09-18.53,18.53-18.53c10.59,0.04,18.51,8.05,18.49,18.65c-0.02,10.53-8.01,18.46-18.57,18.46H245.89z"/>
		<path class="st0" d="M246.01,186.83L246.01,186.83l0.06,0c8.67,0.03,14.95,6.4,14.93,15.15c-0.02,8.67-6.36,14.97-15.1,14.97
			c-4.19-0.01-8.01-1.55-10.76-4.33c-2.73-2.77-4.21-6.57-4.17-10.71C231.08,193.16,237.4,186.83,246.01,186.83 M246.01,179.83
			c-12.43,0-21.89,9.43-22.03,21.99c-0.14,12.48,9.39,22.1,21.91,22.13c0.02,0,0.03,0,0.05,0c12.53,0,22.04-9.46,22.06-21.95
			c0.03-12.58-9.4-22.12-21.9-22.16C246.07,179.83,246.04,179.83,246.01,179.83L246.01,179.83z"/>
	</g>
</g>
</svg>
