<?xml version="1.0" encoding="utf-8"?>
<!-- Generator: Adobe Illustrator 27.1.1, SVG Export Plug-In . SVG Version: 6.00 Build 0)  -->
<svg version="1.1" id="Layer_1" xmlns="http://www.w3.org/2000/svg" xmlns:xlink="http://www.w3.org/1999/xlink" x="0px" y="0px"
	 viewBox="0 0 800 800" style="enable-background:new 0 0 800 800;" xml:space="preserve">
<style type="text/css">
	.st0{fill:#DC1518;}
	.st1{fill:#B71713;}
</style>
<path class="st0" d="M372.84,529.51c-3.41,5.69-6.19,10.29-8.93,14.92c-9.71,16.4-19.11,33-29.2,49.17
	c-12.14,19.46-29.84,29.98-53.02,30.18c-24.03,0.22-48.06,0.03-72.09,0.07c-23.93,0.03-41.81-11.04-54.28-30.75
	c-13.51-21.33-26.23-43.16-39.31-64.76c-17.82-29.44-35.54-58.94-53.55-88.26c-6.78-11.04-10.95-22.92-11.43-35.68
	c-0.53-14.13,3.68-27.29,11.08-39.47c30.98-51,61.65-102.18,92.84-153.04c12.35-20.15,30.54-31.29,54.74-31.32
	c22.54-0.03,45.1,0.34,67.63-0.11c27.97-0.57,47.54,12.27,61.09,36.01c10.06,17.63,20.53,35.03,30.87,52.5
	c0.97,1.64,2.3,3.06,4.15,5.48c4.03-6.73,7.7-12.76,11.29-18.85c18.23-30.92,36.62-61.76,54.6-92.82
	c13.26-22.9,32.96-34.09,59.21-34.15c20.81-0.05,41.63,0.33,62.43-0.09c28.15-0.57,48.31,12.16,62.02,36.03
	c35.75,62.26,71.39,124.57,107.09,186.86c2.71,4.72,5.51,9.4,8.24,14.11c13.85,23.84,14.47,48.02,0.73,71.94
	c-21.2,36.92-42.91,73.56-64.4,110.32c-17.86,30.57-35.57,61.22-53.59,91.69c-12.31,20.82-30.62,31.81-55.03,31.9
	c-23.53,0.09-47.07-0.15-70.6,0.07c-24.04,0.23-41.92-10.76-54.43-30.41c-13.96-21.92-26.98-44.44-40.44-66.68
	c-8.08-13.34-16.21-26.65-24.34-39.97C375.46,533.18,374.57,532.02,372.84,529.51z M529.54,263.2c-2.81,4.58-4.78,7.66-6.62,10.8
	c-23.94,40.76-47.79,81.57-71.91,122.22c-2.66,4.48-2.59,7.6,0.04,12.04c21.21,35.76,42.12,71.69,63.17,107.55
	c4.72,8.04,9.61,15.98,14.99,24.92c2.01-2.86,3.52-4.7,4.71-6.75c23.81-41.12,47.47-82.33,71.48-123.33
	c3.59-6.12,3.53-10.87-0.04-16.96c-20.66-35.22-40.94-70.66-61.38-106.01C539.54,280.01,534.97,272.4,529.54,263.2z M244.62,491.85
	c1.22-1.96,1.63-2.57,2.01-3.21c15.81-27.16,31.59-54.34,47.47-81.46c2.15-3.68,1.82-6.83-0.27-10.39
	c-12.52-21.34-24.91-42.76-37.37-64.14c-3.68-6.32-7.44-12.59-11.59-19.6c-1.96,2.69-3.37,4.37-4.5,6.22
	c-15.58,25.58-31.03,51.22-46.74,76.72c-2.87,4.65-2.56,8.36,0.25,12.9c12,19.35,23.69,38.89,35.53,58.33
	C234.15,474.99,238.97,482.71,244.62,491.85z"/>
<polygon class="st1" points="373.42,274.46 295.55,402.45 372.84,529.51 449.05,402.45 "/>
</svg>
