<?xml version="1.0" encoding="utf-8"?>
<!-- Generator: Adobe Illustrator 27.1.1, SVG Export Plug-In . SVG Version: 6.00 Build 0)  -->
<svg version="1.1" id="Layer_1" xmlns="http://www.w3.org/2000/svg" xmlns:xlink="http://www.w3.org/1999/xlink" x="0px" y="0px"
	 viewBox="0 0 800 800" style="enable-background:new 0 0 800 800;" xml:space="preserve">
<style type="text/css">
	.st0{clip-path:url(#SVGID_00000054986337007330148050000015407937990199638947_);}
	.st1{fill:#B71713;}
	.st2{fill:#C91615;}
	.st3{fill:#DC1518;}
</style>
<g>
	<defs>
		<path id="SVGID_1_" d="M715.22,496.16c1.92-20.43-2.52-41.47-13.26-59.89L534.41,148.88c-0.08-0.14-0.16-0.28-0.25-0.42
			C521.88,127.63,499.56,115,475.6,115H324.4c-23.96,0-46.28,12.63-58.56,33.46c-0.08,0.14-0.16,0.28-0.25,0.42L98.04,436.27
			c-10.74,18.43-15.18,39.46-13.26,59.89l83.81,152.72c9.7,17.68,26.51,30.33,46.11,34.24c6.22,1.24,12.61,1.88,19.09,1.88h329.45
			c8.31,0,16.47-1.06,24.3-3.07c17.96-4.62,33.2-16.62,42.33-32.95L715.22,496.16z M279.61,496.16L400,289.65l120.39,206.51H279.61z
			"/>
	</defs>
	<clipPath id="SVGID_00000128466746382084811610000010022146383157218718_">
		<use xlink:href="#SVGID_1_"  style="overflow:visible;"/>
	</clipPath>
	<g style="clip-path:url(#SVGID_00000128466746382084811610000010022146383157218718_);">
		<path class="st1" d="M565.86,686.97H230.84c-35.08,0-67.48-18.25-84.97-47.87L62.18,497.43h54.35h619.68l-85.8,142.39
			C632.8,669.03,600.63,686.97,565.86,686.97z"/>
		<path class="st2" d="M536.55,148.86l170.37,288.45c17.84,30.2,18.6,67.39,2,97.51L629.5,678.93L309.41,136.99l-22.69-38.42
			l166.24,1.46C487.06,100.34,518.87,118.91,536.55,148.86z"/>
		<path class="st3" d="M263.18,148.86L92.81,437.31c-17.84,30.2-18.6,67.39-2,97.51l79.43,144.11L513.02,98.57l-166.24,1.46
			C312.68,100.34,280.87,118.91,263.18,148.86z"/>
	</g>
</g>
</svg>
