<?xml version="1.0" encoding="UTF-8"?>
<svg id="Layer_1" data-name="Layer 1" xmlns="http://www.w3.org/2000/svg" viewBox="0 0 25 25">
  <defs>
    <style>
      .cls-1 {
        fill: #dc1518;
        stroke-width: 0px;
      }
    </style>
  </defs>
  <path class="cls-1" d="m12.21,1.83v2.23c-.17.01-.32.03-.46.03-2.2,0-4.41,0-6.61,0-.11,0-.21,0-.32,0-.43.02-.61.18-.68.61-.02.12-.01.23-.01.35,0,5.03,0,10.06,0,15.08,0,.11,0,.21.01.32.04.29.21.46.5.5.13.02.26.01.38.01,5.01,0,10.01,0,15.02,0,.11,0,.21,0,.32,0,.32-.03.48-.19.51-.51,0-.1,0-.19,0-.29,0-5.11,0-10.23,0-15.34,0-.09,0-.17,0-.26-.02-.29-.19-.47-.49-.48-.34-.01-.68,0-1.02,0-.11,0-.23-.02-.37-.03V1.73c.43,0,.83-.02,1.23,0,.7.04,1.37.16,1.93.65.68.59,1.02,1.32,1.02,2.21,0,3.76,0,7.52,0,11.28,0,1.49,0,2.98,0,4.47,0,1.72-1.2,2.91-2.92,2.91-5.19,0-10.37-.01-15.56,0-1.19,0-2.36-.82-2.69-1.93-.11-.36-.16-.75-.16-1.13-.01-5.12-.01-10.25,0-15.37,0-.7.13-1.37.58-1.95.51-.66,1.18-1.08,2.01-1.09,2.49-.03,4.98-.01,7.48,0,.09,0,.18.02.31.04Z"/>
  <path class="cls-1" d="m17.77,1.78v2.26c-.13.02-.24.04-.35.04-.17,0-.34,0-.51,0-.4.03-.57.21-.58.61,0,.11,0,.21,0,.32,0,3.96,0,7.93,0,11.89,0,.16-.01.31-.02.5h-2.22c-.03-.17-.06-.32-.09-.48-.33.16-.62.36-.95.46-1.65.51-3.19.32-4.52-.83-.51-.44-.85-1.03-1.07-1.68-.52-1.58-.54-3.16.08-4.72.74-1.87,2.49-3.04,4.49-2.98.54.02,1.08.2,1.62.32.1.02.2.07.34.11.02-.16.05-.28.05-.4,0-.86,0-1.73,0-2.59.01-1.2.94-2.42,2.07-2.76.41-.12,1.22-.17,1.66-.07Zm-3.74,10.65c0-.78,0-1.55,0-2.33,0-.26-.09-.41-.3-.55-.91-.58-1.84-.51-2.77-.1-.48.21-.82.59-1.08,1.05-.36.64-.42,1.33-.42,2.04,0,.55.06,1.1.27,1.63.62,1.54,2.83,1.95,4,1.15.2-.14.3-.31.29-.56,0-.78,0-1.55,0-2.33Z"/>
</svg>