<?xml version="1.0" encoding="utf-8"?>
<!-- Generator: Adobe Illustrator 27.1.1, SVG Export Plug-In . SVG Version: 6.00 Build 0)  -->
<svg version="1.1" id="Layer_1" xmlns="http://www.w3.org/2000/svg" xmlns:xlink="http://www.w3.org/1999/xlink" x="0px" y="0px"
	 viewBox="0 0 800 800" style="enable-background:new 0 0 800 800;" xml:space="preserve">
<style type="text/css">
	.st0{fill:#DC1518;}
	.st1{fill:#FFFFFF;}
</style>
<g>
	<path class="st0" d="M115,626c0-150.66,0-301.33,0-451.99c0.48-1.95,0.94-3.9,1.43-5.85c7.12-28.25,24.83-45.64,53.3-52.01
		c1.44-0.32,2.85-0.76,4.27-1.15c150.66,0,301.33,0,451.99,0c1.42,0.39,2.83,0.83,4.27,1.15c28.47,6.37,46.18,23.76,53.3,52.01
		c0.49,1.95,0.96,3.9,1.43,5.85c0,150.66,0,301.33,0,451.99c-0.48,1.95-0.94,3.9-1.43,5.85c-7.12,28.25-24.83,45.64-53.3,52.01
		c-1.44,0.32-2.85,0.76-4.27,1.15c-150.66,0-301.33,0-451.99,0c-1.24-0.36-2.46-0.82-3.72-1.07c-28.04-5.44-48.09-25.15-54.07-53.18
		C115.88,629.15,115.41,627.58,115,626z M394.15,211.51c-2.32-0.25-3.94-0.57-5.56-0.57c-42.3-0.02-84.6-0.15-126.9,0.07
		c-14.2,0.07-26.36,5.55-35.97,16.21c-9.01,10-12.79,21.82-12.78,35.2c0.08,77.55,0.04,155.11,0.04,232.66
		c0,14.47-0.15,28.95,0.07,43.41c0.34,22.49,16.24,42.02,38.21,46.73c5.39,1.15,11.05,1.41,16.59,1.41
		c87.57,0.08,175.14,0.07,262.72,0.04c3.52,0,7.05-0.21,10.55-0.54c14.97-1.41,26.63-8.59,35.31-20.7
		c6.75-9.43,8.81-20.14,8.8-31.59c-0.1-90.17-0.05-180.34-0.06-270.51c0-2.23-0.05-4.45-0.17-6.68
		c-1.37-25.31-21.88-45.3-47.15-45.85c-7.23-0.16-14.47-0.07-21.71-0.03c-1.6,0.01-3.21,0.33-5.62,0.59
		c-0.18,13.56-0.25,26.74,0.04,40.66c7.33,0,13.6-0.01,19.88,0c12.02,0.02,13.85,1.79,13.85,13.93c0.02,88.5,0.02,177,0,265.5
		c0,11.86-1.64,13.44-13.55,13.44c-87.76,0-175.52,0-263.27,0c-1.86,0-3.72,0.06-5.56-0.09c-4.78-0.39-7.35-2.97-7.76-7.79
		c-0.15-1.84-0.08-3.71-0.08-5.56c0-87.94-0.01-175.89,0-263.83c0-13,1.71-14.68,14.78-14.69c38.59-0.02,77.18-0.02,115.77-0.08
		c3.07,0,6.14-0.39,9.53-0.63C394.15,238.38,394.15,225.28,394.15,211.51z M424.36,312.52c-2.62-0.9-4.19-1.37-5.7-1.98
		c-13.8-5.51-28.16-6.68-42.66-4.53c-30.55,4.52-51.32,22.35-63.44,49.95c-11.16,25.42-11.1,52.03-3.75,78.47
		c13.46,48.38,69.3,69.91,112.3,43.63c0.85-0.52,1.87-0.77,3.1-1.26c0.41,2.78,0.76,5.12,1.08,7.27c5.44,1.91,35.8,1.81,41.21-0.35
		c0-2.56,0-5.48,0-8.4c0-69.17,0-138.35,0-207.52c0-2.23-0.07-4.46,0.07-6.67c0.31-5.13,2.8-7.86,7.9-8.28
		c3.69-0.3,7.42-0.06,11.12-0.21c1.96-0.08,3.91-0.48,5.65-0.71c1.75-7.72,1.24-36.76-0.84-41.17c-5.27,0-10.81,0.04-16.35-0.01
		c-10.23-0.09-19.36,3.14-27.35,9.39c-14.73,11.53-21.58,27.02-21.92,45.46c-0.24,13.16-0.05,26.33-0.08,39.5
		C424.7,307.27,424.51,309.44,424.36,312.52z"/>
	<path class="st1" d="M174,115c-1.42,0.39-2.83,0.83-4.27,1.15c-28.47,6.37-46.18,23.76-53.3,52.01c-0.49,1.95-0.95,3.9-1.43,5.85
		c0-19.58,0-39.15,0-59C134.67,115,154.34,115,174,115z"/>
	<path class="st1" d="M685,174c-0.48-1.95-0.94-3.9-1.43-5.85c-7.12-28.25-24.83-45.64-53.3-52.01c-1.44-0.32-2.85-0.76-4.27-1.15
		c19.67,0,39.34,0,59,0C685,134.67,685,154.34,685,174z"/>
	<path class="st1" d="M115,626c0.41,1.58,0.88,3.16,1.22,4.76c5.98,28.03,26.02,47.75,54.07,53.18c1.26,0.24,2.48,0.71,3.72,1.07
		c-19.58,0-39.15,0-59,0C115,665.33,115,645.66,115,626z"/>
	<path class="st1" d="M626,685c1.42-0.39,2.83-0.83,4.27-1.15c28.47-6.37,46.18-23.76,53.3-52.01c0.49-1.95,0.96-3.9,1.43-5.85
		c0,19.67,0,39.34,0,59C665.33,685,645.66,685,626,685z"/>
	<path class="st1" d="M394.15,211.51c0,13.78,0,26.87,0,40.72c-3.39,0.23-6.46,0.62-9.53,0.63c-38.59,0.06-77.18,0.06-115.77,0.08
		c-13.07,0.01-14.78,1.69-14.78,14.69c-0.01,87.94,0,175.89,0,263.83c0,1.86-0.07,3.72,0.08,5.56c0.4,4.82,2.97,7.4,7.76,7.79
		c1.84,0.15,3.71,0.09,5.56,0.09c87.76,0,175.52,0,263.27,0c11.91,0,13.55-1.57,13.55-13.44c0.02-88.5,0.02-177,0-265.5
		c0-12.14-1.83-13.91-13.85-13.93c-6.28-0.01-12.55,0-19.88,0c-0.3-13.91-0.23-27.1-0.04-40.66c2.41-0.27,4.01-0.58,5.62-0.59
		c7.24-0.05,14.47-0.13,21.71,0.03c25.27,0.55,45.78,20.54,47.15,45.85c0.12,2.22,0.17,4.45,0.17,6.68
		c0.01,90.17-0.04,180.34,0.06,270.51c0.01,11.45-2.04,22.16-8.8,31.59c-8.67,12.11-20.34,19.29-35.31,20.7
		c-3.5,0.33-7.03,0.54-10.55,0.54c-87.57,0.03-175.14,0.05-262.72-0.04c-5.54-0.01-11.2-0.26-16.59-1.41
		c-21.97-4.7-37.87-24.23-38.21-46.73c-0.22-14.47-0.07-28.94-0.07-43.41c0-77.55,0.04-155.11-0.04-232.66
		c-0.01-13.38,3.77-25.2,12.78-35.2c9.61-10.66,21.77-16.14,35.97-16.21c42.3-0.22,84.6-0.1,126.9-0.07
		C390.21,210.94,391.83,211.26,394.15,211.51z"/>
	<path class="st1" d="M424.36,312.52c0.15-3.08,0.34-5.25,0.35-7.42c0.04-13.17-0.16-26.34,0.08-39.5
		c0.34-18.44,7.19-33.93,21.92-45.46c7.99-6.26,17.12-9.48,27.35-9.39c5.54,0.05,11.08,0.01,16.35,0.01
		c2.07,4.4,2.58,33.45,0.84,41.17c-1.74,0.23-3.69,0.63-5.65,0.71c-3.7,0.15-7.43-0.09-11.12,0.21c-5.11,0.42-7.59,3.14-7.9,8.28
		c-0.13,2.22-0.07,4.45-0.07,6.67c0,69.17,0,138.35,0,207.52c0,2.92,0,5.83,0,8.4c-5.41,2.16-35.76,2.26-41.21,0.35
		c-0.32-2.16-0.67-4.49-1.08-7.27c-1.23,0.49-2.25,0.74-3.1,1.26c-42.99,26.28-98.84,4.76-112.3-43.63
		c-7.35-26.44-7.41-53.06,3.75-78.47c12.12-27.59,32.89-45.43,63.44-49.95c14.49-2.14,28.86-0.98,42.66,4.53
		C420.17,311.15,421.74,311.62,424.36,312.52z M424.72,397.24c0-13.53-0.15-27.05,0.08-40.57c0.08-4.43-1.52-7.16-5.2-9.5
		c-24.98-15.89-59.72-3.51-69.18,24.99c-4.83,14.55-5.25,29.53-2.15,44.48c6.48,31.3,41.89,47.15,69.98,31.63
		c4.52-2.5,6.73-5.55,6.59-10.99C424.48,423.93,424.72,410.58,424.72,397.24z"/>
	<path class="st0" d="M424.72,397.24c0,13.34-0.24,26.69,0.11,40.02c0.14,5.45-2.07,8.5-6.59,10.99
		c-28.09,15.52-63.5-0.33-69.98-31.63c-3.09-14.94-2.67-29.92,2.15-44.48c9.45-28.49,44.2-40.88,69.18-24.99
		c3.68,2.34,5.28,5.07,5.2,9.5C424.57,370.19,424.72,383.72,424.72,397.24z"/>
</g>
</svg>
