<?xml version="1.0" encoding="utf-8"?>
<!-- Generator: Adobe Illustrator 26.1.0, SVG Export Plug-In . SVG Version: 6.00 Build 0)  -->
<svg version="1.1" id="Layer_1" xmlns="http://www.w3.org/2000/svg" xmlns:xlink="http://www.w3.org/1999/xlink" x="0px" y="0px"
	 viewBox="0 0 800 800" style="enable-background:new 0 0 800 800;" xml:space="preserve">
<style type="text/css">
	.st0{fill:#DC1518;}
</style>
<g>
	<path class="st0" d="M632.49,684.77c-154.98,0-309.96,0-464.94,0c-0.82-0.36-1.61-0.87-2.47-1.07
		c-26.49-6.1-41.97-25.39-41.98-52.41c-0.01-95.98,0.06-191.96-0.13-287.94c-0.01-6.86,2.38-11.42,7.63-15.54
		c19.81-15.56,39.46-31.32,58.97-47.25c1.91-1.56,3.31-4.76,3.46-7.29c0.46-7.57,0.04-15.19,0.22-22.78
		c0.52-22.06,17.65-41.11,39.68-42.8c14.56-1.12,29.25-0.37,43.87-0.86c3.03-0.1,6.56-1.3,8.92-3.18
		c35.66-28.36,71.17-56.92,106.71-85.43c5-4.01,10.26-3.98,15.19-0.02c35.82,28.75,71.63,57.51,107.56,86.12
		c1.96,1.56,4.95,2.48,7.49,2.53c12.6,0.25,25.2-0.03,37.8,0.15c24.47,0.35,42.21,15.17,45.78,39.09
		c1.27,8.53,0.71,17.38,0.47,26.07c-0.12,4.16,1.23,6.74,4.45,9.28c19.78,15.6,39.34,31.47,59.1,47.09
		c4.58,3.62,6.74,7.73,6.73,13.71c-0.12,97.09-0.06,194.18-0.1,291.27c-0.01,21.65-13.1,40.24-33.45,47.76
		C639.87,682.61,636.15,683.61,632.49,684.77z M399.89,539.56c1.64-1.2,2.85-2.02,3.99-2.93c59.31-47.45,118.64-94.87,177.81-142.48
		c2.03-1.63,3.51-5.2,3.53-7.88c0.22-41.69,0.16-83.38,0.15-125.08c0-3.52,0.12-7.06-0.19-10.55
		c-1.19-13.46-10.38-21.94-23.86-21.95c-107.49-0.03-214.99-0.02-322.48,0.02c-2.38,0-4.84,0.17-7.11,0.81
		c-11.1,3.13-17.02,11.73-17.03,24.87c-0.05,43.92,0.03,87.83-0.11,131.75c-0.01,3.97,1.37,6.34,4.42,8.76
		c36.24,28.82,72.37,57.79,108.52,86.72C351.53,500.84,375.52,520.06,399.89,539.56z M636.81,661.59
		c-57.6-49.82-113.99-98.6-170.51-147.49c-19.78,15.88-39.13,31.4-58.46,46.94c-5.27,4.24-10.13,4.44-15.07,0.47
		c-9.24-7.43-18.43-14.9-27.68-22.32c-10.36-8.32-20.76-16.6-31.34-25.05c-56.67,49.02-113.02,97.77-170.59,147.57
		c5.78,0.77,9.95,1.81,14.13,1.81c148.44,0.08,296.87,0.08,445.31-0.01C626.87,663.5,631.15,662.38,636.81,661.59z M316.75,500.46
		c-57.29-45.83-114.27-91.4-172.26-137.79c0,3.73,0,5.91,0,8.09c0,59.65,0,119.3,0,178.96c0,27.23-0.1,54.47,0.1,81.7
		c0.04,4.9,1.31,9.79,2.21,16.05C204.34,597.69,260.34,549.25,316.75,500.46z M651.79,646.17c0.79-0.16,1.58-0.32,2.37-0.49
		c2.87-23.23,0.99-46.68,1.32-70.01c0.33-23.52,0.07-47.05,0.07-70.57c0-23.71,0-47.42,0-71.13c0-23.34,0-46.68,0-71.29
		c-58.17,46.55-115.09,92.09-172.21,137.79C539.78,549.29,595.79,597.73,651.79,646.17z M483.44,206.6
		c-28.5-22.8-55.86-44.69-83.4-66.73c-27.69,22.17-55.01,44.04-83.36,66.73C372.82,206.6,427.35,206.6,483.44,206.6z M607.09,374.01
		c14.72-11.79,28.51-22.84,42.75-34.25c-14.39-11.5-28.26-22.59-42.75-34.17C607.09,328.71,607.09,350.77,607.09,374.01z
		 M150.22,339.78c14.39,11.49,28.27,22.58,42.53,33.97c0-23.12,0-45.19,0-68.03C178.3,317.3,164.5,328.35,150.22,339.78z"/>
	<path class="st0" d="M400.66,392.43c-34.82,0-69.64,0-104.46-0.01c-2.22,0-4.46,0.06-6.66-0.18c-5.36-0.59-9.5-5.37-9.38-10.64
		c0.11-4.99,4.21-9.65,9.22-10.34c1.46-0.2,2.96-0.1,4.44-0.1c71.12,0,142.24,0,213.36,0c1.3,0,2.6-0.07,3.89,0.04
		c5.61,0.51,10.07,5.37,9.93,10.79c-0.13,5.33-4.29,10-9.77,10.24c-7.21,0.31-14.44,0.18-21.66,0.19
		C459.93,392.44,430.29,392.43,400.66,392.43z"/>
	<path class="st0" d="M400.34,328.83c-35.93,0-71.86,0.04-107.79-0.03c-9.22-0.02-15.05-7.58-11.15-14.9
		c1.43-2.69,4.95-4.49,7.84-6.11c1.44-0.81,3.62-0.39,5.47-0.4c70.56-0.01,141.13-0.01,211.69,0c1.66,0,3.34,0.01,4.99,0.21
		c5.56,0.69,9.6,5.12,9.61,10.42c0.01,5.14-4.18,9.91-9.54,10.66c-1.82,0.25-3.7,0.13-5.55,0.13
		C470.71,328.83,435.52,328.83,400.34,328.83z"/>
</g>
</svg>
