<?xml version="1.0" encoding="utf-8"?>
<!-- Generator: Adobe Illustrator 24.2.1, SVG Export Plug-In . SVG Version: 6.00 Build 0)  -->
<svg version="1.1" id="Layer_1" xmlns="http://www.w3.org/2000/svg" xmlns:xlink="http://www.w3.org/1999/xlink" x="0px" y="0px"
	 viewBox="0 0 720 720" style="enable-background:new 0 0 720 720;" xml:space="preserve">
<style type="text/css">
	.st0{fill-rule:evenodd;clip-rule:evenodd;fill:#E31F26;}
	.st1{fill:#E31F26;}
	.st2{fill:none;stroke:#E31F26;stroke-width:0.5;stroke-miterlimit:10;}
	.st3{fill:#696A6D;}
</style>
<g>
	<path class="st1" d="M311.28,367.39l-2.74-0.31c-0.52-0.06-0.95-0.43-1.09-0.93c-0.33-1.18-0.8-2.31-1.39-3.35
		c-0.26-0.45-0.22-1.02,0.11-1.43l1.71-2.15c0.4-0.51,0.36-1.24-0.1-1.7l-2.19-2.19c-0.46-0.46-1.19-0.5-1.7-0.1l-2.15,1.72
		c-0.41,0.33-0.97,0.37-1.43,0.11c-1.05-0.59-2.17-1.06-3.35-1.39c-0.5-0.14-0.87-0.57-0.93-1.09l-0.31-2.74
		c-0.07-0.64-0.62-1.13-1.27-1.13l-3.1,0c-0.65,0-1.19,0.49-1.27,1.13l-0.31,2.74c-0.06,0.52-0.43,0.95-0.93,1.09
		c-1.18,0.33-2.31,0.8-3.35,1.39c-0.45,0.26-1.02,0.22-1.43-0.11l-2.15-1.71c-0.51-0.4-1.24-0.36-1.7,0.1l-2.19,2.19
		c-0.46,0.46-0.5,1.19-0.1,1.7l1.72,2.15c0.33,0.41,0.37,0.97,0.11,1.43c-0.59,1.05-1.06,2.17-1.39,3.35
		c-0.14,0.5-0.57,0.87-1.09,0.93l-2.74,0.31c-0.64,0.07-1.13,0.62-1.13,1.27l0,3.1c0,0.65,0.49,1.19,1.13,1.27l2.74,0.31
		c0.52,0.06,0.95,0.43,1.09,0.93c0.33,1.18,0.8,2.31,1.39,3.35c0.26,0.45,0.22,1.02-0.11,1.43l-1.71,2.15
		c-0.4,0.51-0.36,1.24,0.1,1.7l2.19,2.19c0.46,0.46,1.19,0.5,1.7,0.1l2.15-1.72c0.41-0.33,0.97-0.37,1.43-0.11
		c1.05,0.59,2.17,1.06,3.35,1.39c0.5,0.14,0.87,0.57,0.93,1.09l0.31,2.74c0.07,0.64,0.62,1.13,1.27,1.13l3.1,0
		c0.65,0,1.19-0.49,1.27-1.13l0.31-2.74c0.06-0.52,0.43-0.95,0.93-1.09c1.18-0.33,2.31-0.8,3.35-1.39c0.45-0.26,1.02-0.22,1.43,0.11
		l2.15,1.71c0.51,0.4,1.24,0.36,1.7-0.1l2.19-2.19c0.46-0.46,0.5-1.19,0.1-1.7l-1.72-2.15c-0.33-0.41-0.37-0.97-0.11-1.43
		c0.59-1.05,1.06-2.17,1.39-3.35c0.14-0.5,0.57-0.87,1.09-0.93l2.74-0.31c0.64-0.07,1.13-0.62,1.13-1.27l0-3.1
		C312.41,368.01,311.92,367.47,311.28,367.39z M292.92,382.17c-6.6,0-11.96-5.35-11.96-11.95c0-6.6,5.35-11.96,11.95-11.96
		c6.6,0,11.96,5.35,11.96,11.95C304.87,376.81,299.52,382.17,292.92,382.17z"/>
	<g>
		<path class="st0" d="M291.9,371.11c0.27,0,0.46,0,0.65,0c0.23,0,0.48,0.07,0.69,0c0.53-0.17,0.66-0.04,0.52,0.51
			c-0.72,2.76,1.55,5.1,4.35,4.51c0.12-0.03,0.25-0.03,0.44,0.08c-0.17,0.11-0.33,0.25-0.52,0.33c-1.66,0.66-3.24,0.49-4.71-0.51
			c-0.34-0.23-0.54-0.24-0.89,0c-1.47,1.02-3.05,1.16-4.71,0.51c-0.18-0.07-0.34-0.19-0.5-0.39c1.49,0.27,2.85,0.1,3.93-1.02
			C292.24,374,292.4,372.65,291.9,371.11z"/>
		<path class="st0" d="M300.89,371.98c-0.07-0.19-0.14-0.38-0.21-0.57c-0.92-2.56-4.01-3.29-5.97-1.41
			c-0.51,0.49-0.52,0.48-0.79-0.22c-0.07-0.17-0.19-0.33-0.32-0.47c-0.37-0.4-0.34-0.58,0.16-0.73c2.83-0.86,3.68-3.85,1.73-6.06
			c-0.08-0.09-0.15-0.2-0.16-0.42c0.15,0.07,0.32,0.1,0.45,0.2c1.43,1.06,2.14,2.49,2.02,4.27c-0.03,0.49,0.05,0.75,0.54,0.97
			c1.65,0.77,2.5,2.15,2.74,3.93c0.02,0.15-0.03,0.32-0.05,0.48C300.98,371.97,300.93,371.97,300.89,371.98z"/>
		<path class="st0" d="M284.68,371.93c0.05-0.41,0.07-0.83,0.17-1.22c0.39-1.45,1.25-2.54,2.61-3.17c0.45-0.21,0.56-0.45,0.52-0.93
			c-0.13-1.76,0.56-3.18,1.95-4.25c0.15-0.12,0.35-0.17,0.56-0.28c-0.4,0.71-0.86,1.3-1.08,1.97c-0.63,1.91,0.51,3.92,2.47,4.51
			c0.7,0.21,0.72,0.29,0.25,0.86c-0.04,0.05-0.08,0.1-0.12,0.15c-0.16,0.25-0.33,0.51-0.49,0.77c-0.25-0.2-0.49-0.39-0.74-0.59
			c-1.97-1.54-4.8-0.72-5.66,1.64c-0.07,0.19-0.14,0.39-0.21,0.58C284.83,371.96,284.76,371.94,284.68,371.93z"/>
		<path class="st0" d="M290.21,367.14c-0.16-0.28-0.29-0.49-0.41-0.7c1.23-1.37,3.77-1.61,5.57-0.55c0.72,0.42,0.72,0.45,0.16,1.18
			C293.8,365.81,292.03,365.77,290.21,367.14z"/>
		<path class="st0" d="M288.98,369.31c-0.26,2.18,0.65,3.68,2.57,4.58c-0.18,0.8-0.31,0.87-0.96,0.5c-1.69-0.97-2.54-2.45-2.56-4.39
			C288.02,369.23,288.09,369.19,288.98,369.31z"/>
		<path class="st0" d="M296.85,369.27c0.29,0,0.56,0,0.82,0c0.48,2.06-0.8,4.5-2.7,5.26c-0.61,0.24-0.59-0.27-0.79-0.59
			C296.18,373.01,297.12,371.5,296.85,369.27z"/>
	</g>
	<path class="st1" d="M316.42,408.42l-1.85-0.76c-0.35-0.14-0.58-0.49-0.58-0.87c0.01-0.89-0.1-1.78-0.3-2.63
		c-0.09-0.37,0.05-0.76,0.36-0.98l1.63-1.17c0.38-0.27,0.5-0.79,0.27-1.21l-1.1-1.97c-0.23-0.41-0.73-0.59-1.17-0.41l-1.85,0.77
		c-0.35,0.15-0.75,0.06-1.02-0.21c-0.62-0.62-1.31-1.18-2.07-1.64c-0.32-0.2-0.5-0.57-0.43-0.95l0.33-1.98
		c0.08-0.47-0.21-0.92-0.66-1.05l-2.17-0.62c-0.45-0.13-0.93,0.1-1.11,0.54l-0.76,1.85c-0.14,0.35-0.49,0.58-0.87,0.58
		c-0.89-0.01-1.78,0.1-2.63,0.3c-0.37,0.09-0.76-0.05-0.98-0.36l-1.17-1.63c-0.27-0.38-0.79-0.5-1.21-0.27l-1.97,1.1
		c-0.41,0.23-0.59,0.73-0.41,1.17l0.77,1.85c0.15,0.35,0.06,0.75-0.21,1.02c-0.62,0.62-1.18,1.31-1.64,2.07
		c-0.2,0.32-0.57,0.5-0.95,0.43l-1.98-0.33c-0.47-0.08-0.92,0.21-1.05,0.66l-0.62,2.17c-0.13,0.45,0.1,0.93,0.54,1.11l1.85,0.76
		c0.35,0.14,0.58,0.49,0.58,0.87c-0.01,0.89,0.1,1.78,0.3,2.63c0.09,0.37-0.05,0.76-0.36,0.98l-1.63,1.17
		c-0.38,0.27-0.5,0.79-0.27,1.21l1.1,1.97c0.23,0.41,0.73,0.59,1.17,0.41l1.85-0.77c0.35-0.15,0.75-0.06,1.02,0.21
		c0.62,0.62,1.31,1.18,2.07,1.64c0.32,0.2,0.5,0.57,0.43,0.95l-0.33,1.98c-0.08,0.47,0.21,0.92,0.66,1.05l2.17,0.62
		c0.45,0.13,0.93-0.1,1.11-0.54l0.76-1.85c0.14-0.35,0.49-0.58,0.87-0.58c0.89,0.01,1.78-0.1,2.63-0.3
		c0.37-0.09,0.76,0.05,0.98,0.36l1.17,1.63c0.27,0.38,0.79,0.5,1.21,0.27l1.97-1.1c0.41-0.23,0.59-0.73,0.41-1.17l-0.77-1.85
		c-0.15-0.35-0.06-0.75,0.21-1.02c0.62-0.62,1.18-1.31,1.64-2.07c0.2-0.32,0.57-0.5,0.95-0.43l1.98,0.33
		c0.47,0.08,0.92-0.21,1.05-0.66l0.62-2.17C317.09,409.08,316.86,408.6,316.42,408.42z M300.61,415.1
		c-4.63-1.32-7.31-6.14-5.99-10.76s6.14-7.31,10.76-5.99s7.31,6.14,5.99,10.76S305.23,416.42,300.61,415.1z"/>
	<g>
		<path class="st0" d="M298.71,407.47c-0.62-1.17-1.23-2.31-1.86-3.48c0.53-0.29,1.05-0.57,1.59-0.86c-0.1-0.21-0.2-0.4-0.31-0.63
			c0.66-0.36,1.32-0.71,2.01-1.08c0.11,0.2,0.23,0.39,0.35,0.61c0.54-0.28,1.07-0.56,1.62-0.86c0.79,1.47,1.57,2.92,2.35,4.37
			c0.73-0.52,1.48-0.76,2.28-0.29c0.74,0.44,1.05,1.12,0.84,2.02c0.73,0.1,1.14,0.48,1.04,1.27c0.1,0.02,0.18,0.03,0.26,0.04
			c0.5,0.09,0.88,0.36,1.02,0.85c0.15,0.56,0.01,1.07-0.43,1.46c-0.4,0.35-0.87,0.44-1.36,0.21c-0.11-0.05-0.16-0.22-0.24-0.34
			c0.13-0.03,0.28-0.13,0.4-0.09c0.59,0.16,1.09-0.11,1.19-0.67c0.1-0.57-0.27-0.97-0.9-0.95c-0.57,0.02-0.58,0.01-0.45-0.52
			c0.13-0.51-0.07-0.75-0.63-0.78c-0.52-0.02-0.53-0.04-0.39-0.53c0.2-0.69-0.04-1.3-0.66-1.62c-0.52-0.27-1.3-0.08-1.68,0.41
			c0.13,0.38,0.33,0.63,0.76,0.76c0.8,0.23,1.15,0.97,0.99,1.9c-0.01,0.07-0.03,0.13-0.04,0.19c0.84,0.39,1.13,0.8,1.08,1.51
			c-0.03,0.36-0.16,0.67-0.47,0.87c-0.09,0.05-0.24,0.01-0.37,0.01c0.02-0.12-0.01-0.29,0.06-0.35c0.31-0.27,0.36-0.59,0.24-0.96
			c-0.12-0.38-0.41-0.52-0.77-0.56c-0.36-0.05-0.39-0.12-0.29-0.48c0.06-0.22,0.1-0.44,0.11-0.67c0.02-0.43-0.18-0.74-0.56-0.94
			c-0.39-0.2-0.8-0.23-1.12,0.07c-0.27,0.25-0.48,0.57-0.65,0.89c-0.2,0.38-0.21,0.4-0.57,0.21c-0.43-0.24-0.88-0.33-1.32-0.03
			c-0.44,0.3-0.48,0.74-0.42,1.22c0.01,0.08,0.04,0.16,0.04,0.24c0,0.25-0.17,0.35-0.38,0.23c-0.15-0.09-0.28-0.2-0.43-0.27
			c-0.36-0.17-0.66-0.09-0.89,0.18c-0.24,0.29-0.25,0.59-0.04,0.91c0.02,0.04,0.07,0.07,0.08,0.11c0.01,0.12,0.01,0.24,0.01,0.36
			c-0.13-0.02-0.3,0.01-0.39-0.06c-0.39-0.32-0.47-0.97-0.18-1.43c0.13-0.2,0.31-0.36,0.48-0.56c-0.17-0.33-0.37-0.67-0.54-1.03
			c-0.12-0.25-0.29-0.38-0.56-0.33c-0.3,0.06-0.6,0.2-0.57,0.53c0.04,0.5-0.11,0.73-0.64,0.83c-0.49,0.09-0.65,0.61-0.45,1.11
			c0.17,0.43,0.58,0.62,1.03,0.46c0.17-0.06,0.37-0.17,0.45,0.08c0.08,0.24-0.13,0.31-0.3,0.38c-0.66,0.25-1.35-0.06-1.62-0.73
			c-0.3-0.73-0.02-1.48,0.69-1.76c0.22-0.09,0.31-0.19,0.34-0.42C297.62,407.9,297.92,407.65,298.71,407.47z M302.98,404.63
			c-0.17-0.3-0.31-0.56-0.46-0.83c-0.29,0.16-0.54,0.3-0.82,0.45c0.15,0.28,0.29,0.55,0.44,0.83
			C302.43,404.92,302.69,404.78,302.98,404.63z M300.7,405.85c0.29-0.16,0.55-0.3,0.83-0.45c-0.15-0.28-0.29-0.55-0.45-0.84
			c-0.29,0.15-0.55,0.3-0.83,0.45C300.4,405.3,300.54,405.56,300.7,405.85z M303.28,405.2c-0.3,0.16-0.56,0.3-0.83,0.45
			c0.16,0.29,0.3,0.55,0.45,0.83c0.29-0.15,0.55-0.29,0.83-0.44C303.58,405.75,303.44,405.5,303.28,405.2z M299.25,406.62
			c0.3-0.16,0.56-0.3,0.83-0.45c-0.16-0.29-0.3-0.55-0.45-0.83c-0.3,0.16-0.56,0.31-0.83,0.46
			C298.96,406.09,299.09,406.33,299.25,406.62z M301.83,405.97c-0.28,0.15-0.55,0.29-0.83,0.45c0.16,0.29,0.3,0.56,0.45,0.83
			c0.3-0.16,0.56-0.31,0.83-0.45C302.12,406.5,301.98,406.25,301.83,405.97z M300.94,402.84c0.16,0.3,0.31,0.56,0.45,0.83
			c0.29-0.16,0.55-0.3,0.83-0.45c-0.15-0.28-0.29-0.55-0.45-0.83C301.49,402.55,301.24,402.68,300.94,402.84z M300.78,404
			c-0.16-0.29-0.3-0.55-0.45-0.83c-0.29,0.16-0.55,0.3-0.83,0.45c0.16,0.3,0.3,0.55,0.45,0.83
			C300.24,404.29,300.5,404.15,300.78,404z M298.05,404.38c0.16,0.29,0.29,0.55,0.45,0.83c0.29-0.16,0.55-0.3,0.83-0.45
			c-0.16-0.29-0.29-0.55-0.44-0.83C298.61,404.08,298.35,404.22,298.05,404.38z M300.39,406.74c-0.29,0.15-0.54,0.29-0.84,0.45
			c0.15,0.28,0.29,0.54,0.45,0.83c0.29-0.15,0.55-0.29,0.83-0.44C300.68,407.3,300.54,407.04,300.39,406.74z"/>
		<path class="st0" d="M303.68,409.59c-0.52,0-0.8,0.28-0.87,0.81c-0.02,0.11-0.15,0.2-0.23,0.31c-0.08-0.12-0.22-0.23-0.23-0.35
			c-0.03-0.83,0.77-1.4,1.7-1.22c0.98,0.19,1.55,1.24,1.13,2.11c-0.05,0.11-0.24,0.25-0.34,0.23c-0.22-0.05-0.18-0.23-0.11-0.41
			C305.03,410.29,304.52,409.58,303.68,409.59z"/>
	</g>
	<path class="st1" d="M354.63,366.05l-1.55-1.29c-0.29-0.24-0.41-0.64-0.29-1.01c0.27-0.86,0.43-1.73,0.49-2.61
		c0.02-0.38,0.28-0.71,0.64-0.83l1.91-0.63c0.45-0.15,0.72-0.61,0.62-1.08l-0.47-2.22c-0.1-0.47-0.53-0.78-1-0.74l-2.01,0.19
		c-0.38,0.04-0.74-0.17-0.92-0.5c-0.41-0.78-0.91-1.52-1.5-2.2c-0.25-0.29-0.31-0.7-0.14-1.04l0.91-1.8
		c0.21-0.42,0.07-0.94-0.32-1.2l-1.9-1.24c-0.4-0.26-0.93-0.18-1.23,0.19l-1.29,1.55c-0.24,0.29-0.64,0.41-1.01,0.29
		c-0.86-0.27-1.73-0.43-2.61-0.49c-0.38-0.02-0.71-0.28-0.83-0.64l-0.63-1.91c-0.15-0.45-0.61-0.72-1.08-0.62l-2.22,0.47
		c-0.47,0.1-0.78,0.53-0.74,1l0.19,2.01c0.04,0.38-0.17,0.74-0.5,0.92c-0.78,0.41-1.52,0.91-2.2,1.5c-0.29,0.25-0.7,0.31-1.04,0.14
		l-1.8-0.91c-0.42-0.21-0.94-0.07-1.2,0.32l-1.24,1.9c-0.26,0.4-0.18,0.93,0.19,1.23l1.55,1.29c0.29,0.24,0.41,0.64,0.29,1.01
		c-0.27,0.86-0.43,1.73-0.49,2.61c-0.02,0.38-0.28,0.71-0.64,0.83l-1.91,0.63c-0.45,0.15-0.72,0.61-0.62,1.08l0.47,2.22
		c0.1,0.47,0.53,0.78,1,0.74l2.01-0.19c0.38-0.04,0.74,0.17,0.92,0.5c0.41,0.78,0.91,1.52,1.5,2.2c0.25,0.29,0.31,0.7,0.14,1.04
		l-0.91,1.8c-0.21,0.42-0.07,0.94,0.32,1.2l1.9,1.24c0.4,0.26,0.93,0.18,1.23-0.19l1.29-1.55c0.24-0.29,0.64-0.41,1.01-0.29
		c0.86,0.27,1.73,0.43,2.61,0.49c0.38,0.02,0.71,0.28,0.83,0.64l0.63,1.91c0.15,0.45,0.61,0.72,1.08,0.62l2.22-0.47
		c0.47-0.1,0.78-0.53,0.74-1l-0.19-2.01c-0.04-0.38,0.17-0.74,0.5-0.92c0.78-0.41,1.52-0.91,2.2-1.5c0.29-0.25,0.7-0.31,1.04-0.14
		l1.8,0.91c0.42,0.21,0.94,0.07,1.2-0.32l1.24-1.9C355.08,366.89,355,366.36,354.63,366.05z M337.45,367.76
		c-4.05-2.64-5.19-8.07-2.54-12.12c2.64-4.05,8.07-5.19,12.12-2.54s5.19,8.07,2.54,12.12C346.93,369.26,341.5,370.4,337.45,367.76z"
		/>
	<g>
		<path class="st0" d="M303.11,330.75c0.78-0.52,1.64-0.46,2.33,0.11c1.03,0.86,2.15,1.57,3.5,1.77c2.17,0.33,3.98-0.39,5.42-2.04
			c0.1-0.11,0.08-0.33,0.11-0.49c-0.18,0.01-0.41-0.05-0.54,0.04c-0.36,0.22-0.68,0.51-1.03,0.76c-0.85,0.6-1.75,0.93-2.78,0.53
			c-0.24-0.09-0.45-0.23-0.76-0.4c0.63-0.49,1.18-0.93,1.74-1.37c0.93-0.72,1.86-1.43,2.77-2.18c1.03-0.85,2.17-0.95,3.39-0.58
			c0.85,0.26,1.69,0.59,2.54,0.87c0.22,0.08,0.32,0.19,0.27,0.43c-0.8,3.39-2.47,6.12-6.05,7.05c-3.57,0.93-6.87,0.38-9.51-2.45
			c-0.29-0.31-0.54-0.66-0.78-1.01C303.49,331.47,303.31,331.11,303.11,330.75z"/>
		<path class="st0" d="M308.48,331.55c-0.24-0.1-0.44-0.17-0.69-0.27c1.45-3.36,3.95-5.34,7.49-6.06c-2.27,0.22-4.24,1.13-6.06,2.56
			c-0.31-0.75-0.28-1.45-0.06-2.14c0.49-1.53,1.56-2.52,3.13-2.74c2.93-0.41,5.49,0.49,7.81,2.44c-0.49,0.21-0.94,0.35-1.33,0.59
			c-0.66,0.41-1.28,0.49-2.05,0.28c-1.17-0.31-2.28-0.08-3.25,0.75c-0.8,0.68-1.68,1.26-2.51,1.9c-0.25,0.19-0.46,0.26-0.73,0.06
			c-0.2-0.16-0.39-0.15-0.53,0.09c-0.31,0.53-0.64,1.06-0.93,1.61C308.63,330.88,308.59,331.19,308.48,331.55z"/>
		<path class="st0" d="M309.28,315.34c0.14,0.84,0.23,1.68,0.43,2.5c0.23,0.98,0.57,1.93,0.82,2.9c0.35,1.33-0.45,3.06-1.72,3.72
			c-0.7-1.91-0.84-3.87-0.67-5.87c-0.59,1.96-0.57,3.94-0.15,5.99c-0.93-0.16-1.53-0.67-2-1.35c-0.57-0.82-0.75-1.75-0.49-2.71
			c0.58-2.18,1.86-3.88,3.69-5.18C309.2,315.33,309.24,315.34,309.28,315.34z"/>
		<path class="st0" d="M308.15,327.96c-0.56,0.88-1.21,1.56-2.15,1.84c-0.37,0.11-0.82,0.08-1.2,0c-1.62-0.35-3.23-0.74-4.84-1.12
			c-0.04-0.01-0.08-0.04-0.14-0.08c0.76-1.29,1.75-2.36,3.02-3.11c0.68-0.4,1.44-0.76,2.21-0.93c1.45-0.32,3.1,0.92,3.34,2.39
			c0.02,0.12,0,0.24,0,0.37c-0.94-0.04-1.87-0.14-2.78-0.1c-0.91,0.03-1.82,0.2-2.72,0.39C304.63,327.46,306.36,327.5,308.15,327.96
			z"/>
	</g>
	<path class="st1" d="M368.32,400.48l-1.67-0.71c-0.32-0.13-0.52-0.45-0.51-0.79c0.01-0.81-0.07-1.61-0.25-2.38
		c-0.08-0.34,0.05-0.68,0.34-0.88l1.49-1.04c0.35-0.25,0.46-0.71,0.26-1.09l-0.98-1.79c-0.2-0.38-0.66-0.54-1.05-0.38l-1.68,0.68
		c-0.32,0.13-0.68,0.05-0.92-0.2c-0.55-0.57-1.18-1.07-1.86-1.5c-0.29-0.18-0.45-0.52-0.39-0.86l0.31-1.79
		c0.07-0.42-0.18-0.83-0.59-0.95l-1.96-0.58c-0.41-0.12-0.85,0.09-1.01,0.48l-0.71,1.67c-0.13,0.32-0.45,0.52-0.79,0.51
		c-0.81-0.01-1.61,0.07-2.38,0.25c-0.34,0.08-0.68-0.05-0.88-0.34l-1.04-1.49c-0.25-0.35-0.71-0.46-1.09-0.26l-1.79,0.98
		c-0.38,0.2-0.54,0.66-0.38,1.05l0.68,1.68c0.13,0.32,0.05,0.68-0.2,0.92c-0.57,0.55-1.07,1.18-1.5,1.86
		c-0.18,0.29-0.52,0.45-0.86,0.39l-1.79-0.31c-0.42-0.07-0.83,0.18-0.95,0.59l-0.58,1.96c-0.12,0.41,0.09,0.85,0.48,1.01l1.67,0.71
		c0.32,0.13,0.52,0.45,0.51,0.79c-0.01,0.81,0.07,1.61,0.25,2.38c0.08,0.34-0.05,0.68-0.34,0.88l-1.49,1.04
		c-0.35,0.25-0.46,0.71-0.26,1.09l0.98,1.79c0.2,0.38,0.66,0.54,1.05,0.38l1.68-0.68c0.32-0.13,0.68-0.05,0.92,0.2
		c0.55,0.57,1.18,1.07,1.86,1.5c0.29,0.18,0.45,0.52,0.39,0.86l-0.31,1.79c-0.07,0.42,0.18,0.83,0.59,0.95l1.96,0.58
		c0.41,0.12,0.85-0.09,1.01-0.48l0.71-1.67c0.13-0.32,0.45-0.52,0.79-0.51c0.81,0.01,1.61-0.08,2.38-0.25
		c0.34-0.08,0.68,0.05,0.88,0.34l1.04,1.49c0.25,0.35,0.71,0.46,1.09,0.26l1.79-0.98c0.38-0.2,0.54-0.66,0.38-1.05l-0.68-1.68
		c-0.13-0.32-0.05-0.68,0.2-0.92c0.57-0.55,1.07-1.18,1.5-1.86c0.18-0.29,0.52-0.45,0.86-0.39l1.79,0.31
		c0.42,0.07,0.83-0.18,0.95-0.59l0.58-1.96C368.92,401.08,368.72,400.65,368.32,400.48z M353.96,406.4
		c-4.17-1.23-6.56-5.61-5.33-9.79s5.61-6.56,9.79-5.33c4.17,1.23,6.56,5.61,5.33,9.79S358.14,407.63,353.96,406.4z"/>
	<g>
		<path class="st0" d="M414.23,412.16c0-0.52,0-1.04,0-1.58c0.31,0,0.6,0,0.89,0c-0.65-0.38-1.18-0.87-1.61-1.51
			c0.06,0,0.11-0.01,0.15-0.01c0.34,0,0.69,0.01,1.03,0c0.15-0.01,0.26,0.04,0.37,0.14c0.7,0.6,1.53,0.86,2.44,0.77
			c1.22-0.13,2.12-0.75,2.67-1.85c0.72-1.43,0.27-3.19-1.03-4.13c-0.04-0.03-0.08-0.06-0.13-0.09c0.16-0.32,0.32-0.64,0.48-0.95
			c0.99,0.55,2.16,1.96,2.08,3.87c-0.07,1.66-0.89,2.89-2.33,3.75c0.3,0,0.56,0,0.85,0c0,0.54,0,1.06,0,1.58
			C418.14,412.16,416.18,412.16,414.23,412.16z"/>
		<path class="st0" d="M418.54,399.48c0.03,0.03,0.06,0.07,0.1,0.09c0.26,0.13,0.52,0.26,0.79,0.4c-0.1,0.21-0.2,0.41-0.31,0.63
			c-0.32-0.16-0.64-0.32-0.97-0.49c0.08-0.17,0.17-0.33,0.25-0.49c0.02-0.04,0.02-0.09,0.03-0.13
			C418.47,399.48,418.5,399.48,418.54,399.48z"/>
		<path class="st0" d="M417.7,400.44c0.67,0.34,1.33,0.67,2,1c-0.72,1.43-1.43,2.85-2.16,4.29c-0.67-0.33-1.32-0.66-1.99-1
			C416.26,403.29,416.98,401.87,417.7,400.44z"/>
		<path class="st0" d="M416.71,407.63c0,0.28,0,0.55,0,0.83c0,0.02-0.03,0.05-0.06,0.06c-0.02,0.01-0.05,0-0.08,0
			c-1.07,0-2.14,0-3.21,0c-0.12,0-0.15-0.03-0.15-0.15c0.01-0.24,0-0.49,0-0.74C414.39,407.63,415.54,407.63,416.71,407.63z"/>
		<path class="st0" d="M416.1,405.56c-0.08,0.16-0.16,0.32-0.24,0.48c-0.26-0.13-0.51-0.26-0.78-0.39c0.08-0.16,0.16-0.31,0.24-0.48
			C415.59,405.3,415.84,405.43,416.1,405.56z"/>
		<path class="st0" d="M416.38,406.11c0.06-0.11,0.11-0.21,0.16-0.32c0.27,0.13,0.52,0.26,0.78,0.39c-0.06,0.11-0.11,0.21-0.16,0.32
			C416.9,406.37,416.65,406.24,416.38,406.11z"/>
	</g>
	<path class="st1" d="M337.48,386.75l-1.44-0.14c-0.27-0.03-0.5-0.22-0.58-0.48c-0.18-0.62-0.44-1.21-0.75-1.75
		c-0.14-0.24-0.12-0.53,0.05-0.75l0.89-1.14c0.21-0.27,0.18-0.65-0.06-0.89l-1.17-1.14c-0.24-0.24-0.63-0.25-0.89-0.04l-1.12,0.92
		c-0.21,0.17-0.51,0.2-0.75,0.07c-0.55-0.3-1.15-0.54-1.77-0.71c-0.27-0.07-0.46-0.29-0.5-0.56l-0.18-1.44
		c-0.04-0.34-0.33-0.59-0.67-0.59l-1.63,0.02c-0.34,0-0.62,0.26-0.66,0.6l-0.14,1.44c-0.03,0.27-0.22,0.5-0.48,0.58
		c-0.62,0.18-1.21,0.44-1.75,0.75c-0.24,0.14-0.53,0.12-0.75-0.05l-1.14-0.89c-0.27-0.21-0.65-0.18-0.89,0.06l-1.14,1.17
		c-0.24,0.24-0.25,0.63-0.04,0.89l0.92,1.12c0.17,0.21,0.2,0.51,0.07,0.75c-0.3,0.55-0.54,1.15-0.71,1.77
		c-0.07,0.27-0.29,0.46-0.56,0.5l-1.44,0.18c-0.34,0.04-0.59,0.33-0.59,0.67l0.02,1.63c0,0.34,0.26,0.62,0.6,0.66l1.44,0.14
		c0.27,0.03,0.5,0.22,0.58,0.48c0.18,0.62,0.44,1.21,0.75,1.75c0.14,0.24,0.12,0.53-0.05,0.75l-0.89,1.14
		c-0.21,0.27-0.18,0.65,0.06,0.89l1.17,1.14c0.24,0.24,0.63,0.25,0.89,0.04l1.12-0.92c0.21-0.17,0.51-0.2,0.75-0.07
		c0.55,0.3,1.15,0.54,1.77,0.71c0.27,0.07,0.46,0.29,0.5,0.56l0.18,1.44c0.04,0.34,0.33,0.59,0.67,0.59l1.63-0.02
		c0.34,0,0.62-0.26,0.66-0.6l0.14-1.44c0.03-0.27,0.22-0.5,0.48-0.58c0.62-0.18,1.21-0.44,1.75-0.75c0.24-0.14,0.53-0.12,0.75,0.05
		l1.14,0.89c0.27,0.21,0.65,0.18,0.89-0.06l1.14-1.17c0.24-0.24,0.25-0.63,0.04-0.89l-0.92-1.12c-0.17-0.21-0.2-0.51-0.07-0.75
		c0.3-0.55,0.54-1.15,0.71-1.77c0.07-0.27,0.29-0.46,0.56-0.5l1.44-0.18c0.34-0.04,0.59-0.33,0.59-0.67l-0.02-1.63
		C338.08,387.06,337.82,386.78,337.48,386.75z M327.94,394.64c-3.47,0.05-6.32-2.73-6.37-6.2c-0.05-3.47,2.73-6.32,6.2-6.37
		c3.47-0.05,6.32,2.73,6.37,6.2C334.18,391.74,331.41,394.6,327.94,394.64z"/>
	<path class="st1" d="M331.41,433.85l-1.13-0.9c-0.21-0.17-0.3-0.46-0.22-0.72c0.18-0.62,0.29-1.25,0.32-1.88
		c0.01-0.27,0.19-0.51,0.45-0.6l1.37-0.48c0.32-0.11,0.51-0.45,0.43-0.78l-0.36-1.59c-0.08-0.33-0.39-0.56-0.73-0.52l-1.44,0.16
		c-0.27,0.03-0.54-0.11-0.67-0.35c-0.3-0.56-0.67-1.08-1.1-1.56c-0.18-0.2-0.23-0.5-0.11-0.74l0.63-1.3
		c0.15-0.31,0.04-0.68-0.25-0.86l-1.38-0.87c-0.29-0.18-0.67-0.12-0.88,0.15l-0.9,1.13c-0.17,0.21-0.46,0.3-0.72,0.22
		c-0.62-0.18-1.25-0.29-1.88-0.32c-0.27-0.01-0.51-0.19-0.6-0.45l-0.48-1.37c-0.11-0.32-0.45-0.51-0.78-0.43l-1.59,0.36
		c-0.33,0.08-0.56,0.39-0.52,0.73l0.16,1.44c0.03,0.27-0.11,0.54-0.35,0.67c-0.56,0.3-1.08,0.67-1.56,1.1
		c-0.2,0.18-0.5,0.23-0.74,0.11l-1.3-0.63c-0.31-0.15-0.68-0.04-0.86,0.25l-0.87,1.38c-0.18,0.29-0.12,0.67,0.15,0.88l1.13,0.9
		c0.21,0.17,0.3,0.46,0.22,0.72c-0.18,0.62-0.29,1.25-0.32,1.88c-0.01,0.27-0.19,0.51-0.45,0.6l-1.37,0.48
		c-0.32,0.11-0.51,0.45-0.43,0.78l0.36,1.59c0.08,0.33,0.39,0.56,0.73,0.52l1.44-0.16c0.27-0.03,0.54,0.11,0.67,0.35
		c0.3,0.56,0.67,1.08,1.1,1.56c0.18,0.2,0.23,0.5,0.11,0.74l-0.63,1.3c-0.15,0.31-0.04,0.68,0.25,0.86l1.38,0.87
		c0.29,0.18,0.67,0.12,0.88-0.15l0.9-1.13c0.17-0.21,0.46-0.3,0.72-0.22c0.62,0.18,1.25,0.29,1.88,0.32
		c0.27,0.01,0.51,0.19,0.6,0.45l0.48,1.37c0.11,0.32,0.45,0.51,0.78,0.43l1.59-0.36c0.33-0.08,0.56-0.39,0.52-0.73l-0.16-1.44
		c-0.03-0.27,0.11-0.54,0.35-0.67c0.56-0.3,1.08-0.67,1.56-1.1c0.2-0.18,0.5-0.23,0.74-0.11l1.3,0.63c0.31,0.15,0.68,0.04,0.86-0.25
		l0.87-1.38C331.74,434.44,331.68,434.06,331.41,433.85z M319.11,435.28c-2.94-1.85-3.82-5.73-1.97-8.67
		c1.85-2.94,5.73-3.82,8.67-1.97c2.94,1.85,3.82,5.73,1.97,8.67C325.93,436.25,322.04,437.13,319.11,435.28z"/>
	<path class="st1" d="M408.35,430.32l-1.38-0.43c-0.26-0.08-0.45-0.31-0.47-0.59c-0.05-0.64-0.19-1.27-0.39-1.87
		c-0.09-0.26-0.01-0.55,0.2-0.73l1.1-0.94c0.26-0.22,0.31-0.6,0.12-0.89l-0.92-1.35c-0.19-0.28-0.56-0.38-0.87-0.22l-1.28,0.67
		c-0.24,0.13-0.54,0.09-0.75-0.08c-0.48-0.41-1.02-0.76-1.6-1.05c-0.25-0.12-0.39-0.38-0.37-0.65l0.11-1.44
		c0.03-0.34-0.21-0.65-0.54-0.71l-1.6-0.31c-0.34-0.06-0.66,0.13-0.77,0.46l-0.43,1.38c-0.08,0.26-0.31,0.45-0.59,0.47
		c-0.64,0.05-1.27,0.19-1.87,0.39c-0.26,0.09-0.55,0.01-0.73-0.2l-0.94-1.1c-0.22-0.26-0.6-0.31-0.89-0.12l-1.35,0.92
		c-0.28,0.19-0.38,0.56-0.22,0.87l0.67,1.28c0.13,0.24,0.09,0.54-0.08,0.75c-0.41,0.48-0.76,1.02-1.05,1.6
		c-0.12,0.25-0.38,0.39-0.65,0.37l-1.44-0.11c-0.34-0.03-0.65,0.21-0.71,0.54l-0.31,1.6c-0.06,0.34,0.13,0.66,0.46,0.77l1.38,0.43
		c0.26,0.08,0.45,0.31,0.47,0.59c0.05,0.64,0.19,1.27,0.39,1.87c0.09,0.26,0.01,0.55-0.2,0.73l-1.1,0.94
		c-0.26,0.22-0.31,0.6-0.12,0.89l0.92,1.35c0.19,0.28,0.56,0.38,0.87,0.22l1.28-0.67c0.24-0.13,0.54-0.09,0.75,0.08
		c0.48,0.41,1.02,0.76,1.6,1.05c0.25,0.12,0.39,0.38,0.37,0.65l-0.11,1.44c-0.03,0.34,0.21,0.65,0.54,0.71l1.6,0.31
		c0.34,0.06,0.66-0.13,0.77-0.46l0.43-1.38c0.08-0.26,0.31-0.45,0.59-0.47c0.64-0.05,1.27-0.19,1.87-0.39
		c0.26-0.09,0.55-0.01,0.73,0.2l0.94,1.1c0.22,0.26,0.6,0.31,0.89,0.12l1.35-0.92c0.28-0.19,0.38-0.56,0.22-0.87l-0.67-1.28
		c-0.13-0.24-0.09-0.54,0.08-0.75c0.41-0.48,0.76-1.02,1.05-1.6c0.12-0.25,0.38-0.39,0.65-0.37l1.44,0.11
		c0.34,0.03,0.65-0.21,0.71-0.54l0.31-1.6C408.88,430.75,408.68,430.42,408.35,430.32z M397.42,436.14c-3.41-0.65-5.65-3.94-5-7.35
		c0.65-3.41,3.94-5.65,7.35-5c3.41,0.65,5.65,3.94,5,7.35S400.83,436.79,397.42,436.14z"/>
	<path class="st1" d="M395.39,405.81l-1.06-0.89c-0.2-0.17-0.28-0.44-0.2-0.69c0.19-0.58,0.3-1.18,0.35-1.78
		c0.02-0.26,0.19-0.49,0.44-0.57l1.31-0.42c0.31-0.1,0.49-0.42,0.43-0.73l-0.31-1.52c-0.06-0.32-0.36-0.54-0.68-0.51l-1.37,0.12
		c-0.26,0.02-0.51-0.12-0.63-0.35c-0.27-0.54-0.61-1.04-1.02-1.51c-0.17-0.2-0.21-0.48-0.09-0.71l0.63-1.23
		c0.15-0.29,0.05-0.64-0.22-0.82l-1.29-0.86c-0.27-0.18-0.63-0.13-0.84,0.12l-0.89,1.06c-0.17,0.2-0.44,0.28-0.69,0.2
		c-0.58-0.19-1.18-0.3-1.78-0.35c-0.26-0.02-0.49-0.19-0.57-0.44l-0.42-1.31c-0.1-0.31-0.42-0.49-0.73-0.43l-1.52,0.31
		c-0.32,0.06-0.54,0.36-0.51,0.68l0.12,1.37c0.02,0.26-0.12,0.51-0.35,0.63c-0.54,0.27-1.04,0.61-1.51,1.02
		c-0.2,0.17-0.48,0.21-0.71,0.09l-1.23-0.63c-0.29-0.15-0.64-0.05-0.82,0.22l-0.86,1.29c-0.18,0.27-0.13,0.63,0.12,0.84l1.06,0.89
		c0.2,0.17,0.28,0.44,0.2,0.69c-0.19,0.58-0.3,1.18-0.35,1.78c-0.02,0.26-0.19,0.49-0.44,0.57l-1.31,0.42
		c-0.31,0.1-0.49,0.42-0.43,0.73l0.31,1.52c0.06,0.32,0.36,0.54,0.68,0.51l1.37-0.12c0.26-0.02,0.51,0.12,0.63,0.35
		c0.27,0.54,0.61,1.04,1.02,1.51c0.17,0.2,0.21,0.48,0.09,0.71l-0.63,1.23c-0.15,0.29-0.05,0.64,0.22,0.82l1.29,0.86
		c0.27,0.18,0.63,0.13,0.84-0.12l0.89-1.06c0.17-0.2,0.44-0.28,0.69-0.2c0.58,0.19,1.18,0.3,1.78,0.35
		c0.26,0.02,0.49,0.19,0.57,0.44l0.42,1.31c0.1,0.31,0.42,0.49,0.73,0.43l1.52-0.31c0.32-0.06,0.54-0.36,0.51-0.68l-0.12-1.37
		c-0.02-0.26,0.12-0.51,0.35-0.63c0.54-0.27,1.04-0.61,1.51-1.02c0.2-0.17,0.48-0.21,0.71-0.09l1.23,0.63
		c0.29,0.15,0.64,0.05,0.82-0.22l0.86-1.29C395.69,406.38,395.64,406.02,395.39,405.81z M383.65,406.9
		c-2.75-1.83-3.51-5.54-1.68-8.29s5.54-3.51,8.29-1.68s3.51,5.54,1.68,8.29C390.12,407.97,386.4,408.72,383.65,406.9z"/>
	<path class="st1" d="M431.13,333.67l-2.58-1.84c-0.49-0.35-0.71-0.96-0.57-1.54c0.33-1.37,0.49-2.77,0.48-4.15
		c0-0.6,0.35-1.15,0.91-1.37l2.93-1.21c0.69-0.28,1.06-1.04,0.85-1.76l-0.98-3.43c-0.21-0.72-0.92-1.17-1.65-1.04l-3.12,0.52
		c-0.59,0.1-1.18-0.18-1.5-0.69c-0.72-1.18-1.59-2.28-2.6-3.27c-0.43-0.42-0.56-1.06-0.33-1.61l1.22-2.92
		c0.29-0.69,0.01-1.48-0.64-1.85l-3.12-1.73c-0.65-0.36-1.47-0.18-1.91,0.43l-1.84,2.58c-0.35,0.49-0.96,0.71-1.54,0.57
		c-1.37-0.33-2.77-0.49-4.15-0.48c-0.6,0-1.15-0.35-1.37-0.91l-1.21-2.93c-0.28-0.69-1.04-1.06-1.76-0.85l-3.43,0.98
		c-0.72,0.21-1.17,0.92-1.04,1.65l0.52,3.12c0.1,0.59-0.18,1.18-0.69,1.5c-1.18,0.72-2.28,1.59-3.27,2.6
		c-0.42,0.43-1.06,0.56-1.61,0.33l-2.92-1.22c-0.69-0.29-1.48-0.01-1.85,0.64l-1.73,3.12c-0.36,0.65-0.18,1.47,0.43,1.91l2.58,1.84
		c0.49,0.35,0.71,0.96,0.57,1.54c-0.33,1.37-0.49,2.77-0.48,4.15c0,0.6-0.35,1.15-0.91,1.37l-2.93,1.21
		c-0.69,0.28-1.06,1.04-0.85,1.76l0.98,3.43c0.21,0.72,0.92,1.17,1.65,1.04l3.12-0.52c0.59-0.1,1.18,0.18,1.5,0.69
		c0.72,1.18,1.59,2.28,2.6,3.27c0.43,0.42,0.56,1.06,0.33,1.61l-1.22,2.92c-0.29,0.69-0.01,1.48,0.64,1.85l3.12,1.73
		c0.65,0.36,1.47,0.18,1.91-0.43l1.84-2.58c0.35-0.49,0.96-0.71,1.54-0.57c1.37,0.33,2.77,0.49,4.15,0.48c0.6,0,1.15,0.35,1.37,0.91
		l1.21,2.93c0.28,0.69,1.04,1.06,1.76,0.85l3.43-0.98c0.72-0.21,1.17-0.92,1.04-1.65l-0.52-3.12c-0.1-0.59,0.18-1.18,0.69-1.5
		c1.18-0.72,2.28-1.59,3.27-2.6c0.42-0.43,1.06-0.56,1.61-0.33l2.92,1.22c0.69,0.29,1.48,0.01,1.85-0.64l1.73-3.12
		C431.92,334.93,431.74,334.1,431.13,333.67z M404.41,338.27c-6.64-3.69-9.03-12.06-5.34-18.7c3.69-6.64,12.06-9.03,18.7-5.34
		c6.64,3.69,9.03,12.06,5.34,18.7S411.05,341.96,404.41,338.27z"/>
	<path class="st1" d="M330.95,322.26l-3.16-0.25c-0.6-0.05-1.11-0.45-1.29-1.03c-0.43-1.35-1.01-2.62-1.73-3.8
		c-0.31-0.51-0.29-1.16,0.07-1.65l1.89-2.55c0.44-0.6,0.37-1.44-0.18-1.95l-2.61-2.43c-0.55-0.51-1.39-0.53-1.95-0.04l-2.41,2.06
		c-0.46,0.39-1.1,0.46-1.64,0.18c-1.23-0.64-2.54-1.13-3.91-1.46c-0.58-0.14-1.03-0.62-1.11-1.21l-0.47-3.13
		c-0.11-0.74-0.76-1.28-1.5-1.25l-3.56,0.13c-0.75,0.03-1.35,0.61-1.41,1.35l-0.25,3.16c-0.05,0.6-0.45,1.11-1.03,1.29
		c-1.35,0.43-2.62,1.01-3.8,1.73c-0.51,0.31-1.16,0.29-1.65-0.07l-2.55-1.89c-0.6-0.44-1.44-0.37-1.95,0.18l-2.43,2.61
		c-0.51,0.55-0.53,1.39-0.04,1.95l2.06,2.41c0.39,0.46,0.46,1.1,0.18,1.64c-0.64,1.23-1.13,2.54-1.46,3.91
		c-0.14,0.58-0.62,1.03-1.21,1.11l-3.13,0.47c-0.74,0.11-1.28,0.76-1.25,1.5l0.13,3.56c0.03,0.75,0.61,1.35,1.35,1.41l3.16,0.25
		c0.6,0.05,1.11,0.45,1.29,1.03c0.43,1.35,1.01,2.62,1.73,3.8c0.31,0.51,0.29,1.16-0.07,1.65l-1.89,2.55
		c-0.44,0.6-0.37,1.44,0.18,1.95l2.61,2.43c0.55,0.51,1.39,0.53,1.95,0.04l2.41-2.06c0.46-0.39,1.1-0.46,1.64-0.18
		c1.23,0.64,2.54,1.13,3.91,1.46c0.58,0.14,1.03,0.62,1.11,1.21l0.47,3.13c0.11,0.74,0.76,1.28,1.5,1.25l3.56-0.13
		c0.75-0.03,1.35-0.61,1.41-1.35l0.25-3.16c0.05-0.6,0.45-1.11,1.03-1.29c1.35-0.43,2.62-1.01,3.8-1.73
		c0.51-0.31,1.16-0.29,1.65,0.07l2.55,1.89c0.6,0.44,1.44,0.37,1.95-0.18l2.43-2.61c0.51-0.55,0.53-1.39,0.04-1.95l-2.06-2.41
		c-0.39-0.46-0.46-1.1-0.18-1.64c0.64-1.23,1.13-2.54,1.46-3.91c0.14-0.58,0.62-1.03,1.21-1.11l3.13-0.47
		c0.74-0.11,1.28-0.76,1.25-1.5l-0.13-3.56C332.27,322.93,331.69,322.32,330.95,322.26z M310.44,339.99
		c-7.59,0.27-13.96-5.67-14.23-13.26c-0.27-7.59,5.67-13.96,13.26-14.23c7.59-0.27,13.96,5.67,14.23,13.26
		S318.03,339.72,310.44,339.99z"/>
	<path class="st1" d="M385.59,302.42l-3.71-0.42c-0.7-0.08-1.29-0.58-1.48-1.26c-0.45-1.61-1.09-3.13-1.89-4.55
		c-0.35-0.62-0.29-1.38,0.15-1.94l2.33-2.93c0.55-0.69,0.49-1.68-0.13-2.3l-2.98-2.97c-0.62-0.62-1.61-0.68-2.3-0.13l-2.92,2.33
		c-0.55,0.44-1.32,0.5-1.94,0.15c-1.42-0.8-2.95-1.44-4.56-1.88c-0.68-0.19-1.18-0.77-1.27-1.47l-0.42-3.71
		c-0.1-0.88-0.84-1.54-1.72-1.54l-4.21,0c-0.88,0-1.62,0.66-1.72,1.54l-0.42,3.71c-0.08,0.7-0.58,1.29-1.26,1.48
		c-1.61,0.45-3.13,1.09-4.55,1.89c-0.62,0.35-1.38,0.29-1.94-0.15l-2.93-2.33c-0.69-0.55-1.68-0.49-2.3,0.13l-2.97,2.98
		c-0.62,0.62-0.68,1.61-0.13,2.3l2.33,2.92c0.44,0.55,0.5,1.32,0.15,1.94c-0.8,1.42-1.44,2.95-1.88,4.56
		c-0.19,0.68-0.77,1.18-1.47,1.27l-3.71,0.42c-0.88,0.1-1.54,0.84-1.53,1.72l0,4.21c0,0.88,0.66,1.62,1.54,1.72l3.71,0.42
		c0.7,0.08,1.29,0.58,1.48,1.26c0.45,1.61,1.09,3.13,1.89,4.55c0.35,0.62,0.29,1.38-0.15,1.94l-2.33,2.93
		c-0.55,0.69-0.49,1.68,0.13,2.3l2.98,2.97c0.62,0.62,1.61,0.68,2.3,0.13l2.92-2.33c0.55-0.44,1.32-0.5,1.94-0.15
		c1.42,0.8,2.95,1.44,4.56,1.88c0.68,0.19,1.18,0.77,1.27,1.47l0.42,3.71c0.1,0.88,0.84,1.54,1.72,1.54l4.21,0
		c0.88,0,1.62-0.66,1.72-1.54l0.42-3.71c0.08-0.7,0.58-1.29,1.26-1.48c1.61-0.45,3.13-1.09,4.55-1.89c0.62-0.35,1.38-0.29,1.94,0.15
		l2.93,2.33c0.69,0.55,1.68,0.49,2.3-0.13l2.97-2.98c0.62-0.62,0.68-1.61,0.13-2.3l-2.33-2.92c-0.44-0.55-0.5-1.32-0.15-1.94
		c0.8-1.42,1.44-2.95,1.88-4.56c0.19-0.68,0.77-1.18,1.47-1.27l3.71-0.42c0.88-0.1,1.54-0.84,1.54-1.72l0-4.21
		C387.13,303.26,386.47,302.52,385.59,302.42z M360.69,322.51c-8.96,0.01-16.24-7.25-16.25-16.22c-0.01-8.96,7.25-16.24,16.22-16.25
		c8.97-0.01,16.24,7.25,16.25,16.22S369.65,322.5,360.69,322.51z"/>
	<path class="st1" d="M430.46,407.91l-1.8-0.77c-0.34-0.15-0.55-0.49-0.55-0.86c0.02-0.87-0.07-1.73-0.25-2.57
		c-0.08-0.36,0.06-0.74,0.37-0.95l1.61-1.11c0.38-0.26,0.5-0.77,0.28-1.17l-1.04-1.94c-0.22-0.41-0.7-0.59-1.13-0.42l-1.82,0.72
		c-0.34,0.14-0.74,0.05-0.99-0.22c-0.59-0.62-1.26-1.17-1.99-1.64c-0.31-0.2-0.48-0.57-0.41-0.93l0.35-1.92
		c0.08-0.45-0.19-0.9-0.63-1.03l-2.1-0.64c-0.44-0.13-0.91,0.08-1.09,0.51l-0.77,1.8c-0.15,0.34-0.49,0.55-0.86,0.55
		c-0.87-0.02-1.73,0.07-2.57,0.25c-0.36,0.08-0.74-0.06-0.95-0.37l-1.11-1.61c-0.26-0.38-0.77-0.5-1.17-0.28l-1.94,1.04
		c-0.41,0.22-0.59,0.7-0.41,1.13l0.72,1.82c0.14,0.34,0.05,0.74-0.22,0.99c-0.62,0.59-1.17,1.26-1.64,1.99
		c-0.2,0.31-0.57,0.48-0.93,0.41l-1.92-0.35c-0.45-0.08-0.9,0.19-1.03,0.63l-0.64,2.1c-0.13,0.44,0.08,0.91,0.51,1.09l1.8,0.77
		c0.34,0.15,0.55,0.49,0.55,0.86c-0.02,0.87,0.07,1.73,0.25,2.57c0.08,0.36-0.06,0.74-0.37,0.95l-1.61,1.11
		c-0.38,0.26-0.5,0.77-0.28,1.17l1.04,1.94c0.22,0.41,0.7,0.59,1.13,0.42l1.82-0.72c0.34-0.14,0.74-0.05,0.99,0.22
		c0.59,0.62,1.26,1.17,1.99,1.64c0.31,0.2,0.48,0.57,0.41,0.93l-0.35,1.92c-0.08,0.45,0.19,0.9,0.63,1.03l2.1,0.64
		c0.44,0.13,0.91-0.08,1.09-0.51l0.77-1.8c0.15-0.34,0.49-0.55,0.86-0.55c0.87,0.02,1.73-0.07,2.57-0.25
		c0.36-0.08,0.74,0.06,0.95,0.37l1.11,1.61c0.26,0.38,0.77,0.5,1.17,0.28l1.94-1.04c0.41-0.22,0.59-0.7,0.41-1.13l-0.72-1.82
		c-0.14-0.34-0.05-0.74,0.22-0.99c0.62-0.59,1.17-1.26,1.64-1.99c0.2-0.31,0.57-0.48,0.93-0.41l1.92,0.35
		c0.45,0.08,0.9-0.19,1.03-0.63l0.64-2.1C431.1,408.56,430.88,408.09,430.46,407.91z M414.93,414.16c-4.49-1.36-7.02-6.1-5.66-10.59
		s6.1-7.02,10.59-5.66c4.49,1.36,7.02,6.1,5.66,10.59C424.16,412.99,419.42,415.52,414.93,414.16z"/>
	<g>
		<path class="st1" d="M417.27,333.1c-0.17-0.25-0.39-0.46-0.57-0.71c-0.09-0.12-0.19-0.26-0.19-0.39
			c-0.02-1.11-0.02-2.21-0.02-3.32c0.36-0.1,0.91,0.06,0.85-0.48c-0.02-0.21-0.47-0.37-0.83-0.62c-0.01-1.18-0.01-2.53-0.02-3.91
			c0.33-0.09,0.83,0.09,0.85-0.43c0.02-0.57-0.53-0.35-0.88-0.48c0-0.81,0.03-1.61-0.02-2.41c-0.05-0.72,0.07-1.34,0.61-1.87
			c0.15-0.14,0.28-0.48,0.2-0.64c-0.07-0.15-0.41-0.25-0.62-0.25c-3.09,0-6.18,0.02-9.28,0.03c-0.67,0-1.34-0.01-2.02,0.02
			c-0.19,0.01-0.47,0.11-0.54,0.25c-0.07,0.14,0.07,0.38,0.13,0.57c0.03,0.09,0.11,0.17,0.19,0.24c0.43,0.37,0.52,0.85,0.5,1.4
			c-0.03,0.72-0.02,1.45,0.02,2.17c0.02,0.4-0.02,0.64-0.51,0.62c-0.12,0-0.35,0.24-0.35,0.37c0,0.14,0.19,0.32,0.34,0.4
			c0.13,0.07,0.32,0.04,0.47,0.05c0.01,1.39,0.01,2.74,0.02,4.09c-0.04-0.04-0.09-0.07-0.13-0.11c-0.24,0.2-0.65,0.38-0.67,0.6
			c-0.04,0.52,0.49,0.35,0.84,0.44c0,0.85-0.04,1.68,0.03,2.5c0.06,0.7-0.11,1.27-0.61,1.77c-0.15,0.15-0.27,0.5-0.19,0.64
			c0.08,0.15,0.41,0.23,0.64,0.23c3.33,0,6.66-0.02,9.98-0.04c0.47,0,0.94,0.01,1.41-0.01C417.37,333.8,417.53,333.48,417.27,333.1z
			 M406.13,318.48c3.27-0.02,6.53-0.03,9.8-0.04c0.02,0.05,0.05,0.11,0.07,0.16c-0.23,0.12-0.47,0.34-0.7,0.35
			c-2.85,0.04-5.71,0.05-8.56,0.04c-0.23,0-0.45-0.22-0.67-0.34C406.09,318.59,406.11,318.53,406.13,318.48z M413.86,325.66
			c0,0.02-0.01,0.04-0.01,0.06c-0.02,0.18-0.04,0.36-0.09,0.54c-0.09,0.32-0.23,0.61-0.42,0.88c-0.23,0.32-0.51,0.58-0.85,0.78
			c-0.15,0.09-0.31,0.16-0.47,0.22c-0.15,0.05-0.3,0.09-0.45,0.12c-0.1,0.02-0.21,0.03-0.31,0.05c-0.11,0-0.22,0-0.33,0
			c-0.07-0.01-0.14-0.02-0.21-0.03c-0.24-0.03-0.47-0.09-0.69-0.18c-0.26-0.11-0.5-0.25-0.72-0.42c-0.16-0.13-0.31-0.28-0.44-0.45
			c-0.12-0.16-0.23-0.33-0.32-0.52c-0.1-0.22-0.18-0.46-0.22-0.7c-0.02-0.11-0.03-0.22-0.05-0.33c0-0.11,0-0.22,0-0.33
			c0-0.02,0.01-0.03,0.01-0.05c0.02-0.13,0.03-0.27,0.06-0.4c0.07-0.34,0.21-0.65,0.4-0.94c0.12-0.18,0.26-0.35,0.42-0.49
			c0.13-0.11,0.27-0.22,0.41-0.31c0.17-0.12,0.35-0.21,0.55-0.27c0.15-0.05,0.31-0.09,0.46-0.12c0.1-0.02,0.21-0.03,0.31-0.05
			c0.11,0,0.23,0,0.34,0c0.01,0,0.03,0.01,0.04,0.01c0.1,0.01,0.21,0.02,0.31,0.04c0.22,0.04,0.44,0.11,0.64,0.2
			c0.18,0.08,0.35,0.18,0.51,0.3c0.18,0.13,0.34,0.28,0.48,0.45c0.15,0.18,0.28,0.37,0.38,0.59c0.11,0.24,0.19,0.48,0.24,0.74
			c0.02,0.1,0.03,0.2,0.04,0.3C413.86,325.44,413.86,325.55,413.86,325.66z M406.18,333.04c0.09-0.39,0.28-0.52,0.64-0.52
			c2.82,0,5.64-0.01,8.47-0.04c0.36,0,0.6,0.1,0.75,0.51C412.72,333.01,409.47,333.02,406.18,333.04z"/>
		<path class="st1" d="M410.12,325.61c-0.49,0.06-0.96,0.13-1.44,0.19c0.01,0.19,0.11,0.61,0.34,0.98c0.2,0.32,0.46,0.58,0.79,0.78
			c0.25-0.42,0.5-0.84,0.74-1.26C410.3,326.13,410.16,325.9,410.12,325.61z"/>
		<path class="st1" d="M410.05,323.59c0.14,0.27,0.29,0.55,0.43,0.82c0.05,0.08,0.09,0.17,0.14,0.25c0.12-0.07,0.25-0.1,0.39-0.11
			c0.14-0.01,0.27,0.02,0.4,0.06c0.22-0.43,0.43-0.85,0.66-1.28c-0.09-0.03-0.17-0.07-0.25-0.1c-0.32-0.1-0.65-0.14-0.98-0.11
			c-0.3,0.03-0.59,0.12-0.86,0.25c-0.03,0.01-0.03,0.02-0.02,0.05C409.99,323.47,410.02,323.53,410.05,323.59z"/>
		<path class="st1" d="M412.08,325.59c-0.04,0-0.05,0.01-0.06,0.05c-0.03,0.2-0.11,0.37-0.25,0.52c-0.04,0.04-0.09,0.08-0.13,0.12
			c0.29,0.38,0.58,0.77,0.87,1.15c0.37-0.28,0.63-0.63,0.8-1.05c0.08-0.22,0.14-0.45,0.16-0.69c-0.08-0.01-0.15-0.01-0.23-0.02
			C412.85,325.64,412.46,325.62,412.08,325.59z"/>
		<path class="st1" d="M411.07,324.93c-0.32,0-0.57,0.26-0.57,0.57c0,0.31,0.26,0.57,0.57,0.57c0.33,0,0.56-0.26,0.57-0.55
			C411.66,325.19,411.39,324.93,411.07,324.93z"/>
	</g>
	<path class="st1" d="M399.26,362.11l-2.69-0.48c-0.51-0.09-0.91-0.48-1.02-0.99c-0.25-1.19-0.65-2.33-1.17-3.41
		c-0.23-0.47-0.15-1.02,0.2-1.41l1.83-2.03c0.43-0.48,0.44-1.2,0.01-1.69l-2.03-2.3c-0.43-0.48-1.15-0.57-1.67-0.2l-2.24,1.57
		c-0.42,0.3-0.99,0.3-1.42,0.02c-1-0.65-2.08-1.18-3.23-1.58c-0.49-0.17-0.83-0.62-0.85-1.13l-0.14-2.73
		c-0.03-0.64-0.54-1.16-1.18-1.2l-3.07-0.19c-0.64-0.04-1.21,0.41-1.32,1.04l-0.48,2.69c-0.09,0.51-0.48,0.91-0.99,1.02
		c-1.19,0.25-2.33,0.65-3.41,1.17c-0.47,0.23-1.02,0.15-1.41-0.2l-2.03-1.83c-0.48-0.43-1.2-0.44-1.69-0.01l-2.3,2.03
		c-0.48,0.43-0.57,1.15-0.2,1.67l1.57,2.24c0.3,0.42,0.3,0.99,0.02,1.42c-0.65,1-1.18,2.08-1.58,3.23
		c-0.17,0.49-0.62,0.83-1.13,0.85l-2.73,0.14c-0.64,0.03-1.16,0.54-1.2,1.18l-0.19,3.07c-0.04,0.64,0.41,1.21,1.04,1.32l2.69,0.48
		c0.51,0.09,0.91,0.48,1.02,0.99c0.25,1.19,0.65,2.33,1.17,3.41c0.23,0.47,0.15,1.02-0.2,1.41l-1.83,2.03
		c-0.43,0.48-0.44,1.2-0.01,1.69l2.03,2.3c0.43,0.48,1.15,0.57,1.67,0.2l2.24-1.57c0.42-0.3,0.99-0.3,1.42-0.02
		c1,0.65,2.08,1.18,3.23,1.58c0.49,0.17,0.83,0.62,0.85,1.13l0.14,2.73c0.03,0.64,0.54,1.16,1.18,1.2l3.07,0.19
		c0.64,0.04,1.21-0.41,1.32-1.04l0.48-2.69c0.09-0.51,0.48-0.91,0.99-1.02c1.19-0.25,2.33-0.65,3.41-1.17
		c0.47-0.23,1.02-0.15,1.41,0.2l2.03,1.83c0.48,0.43,1.2,0.44,1.69,0.01l2.3-2.03c0.48-0.43,0.57-1.15,0.2-1.67l-1.57-2.24
		c-0.3-0.42-0.3-0.99-0.02-1.42c0.65-1,1.18-2.08,1.58-3.23c0.17-0.49,0.62-0.83,1.13-0.85l2.73-0.14c0.64-0.03,1.16-0.54,1.2-1.18
		l0.19-3.07C400.34,362.79,399.89,362.22,399.26,362.11z M380.17,375.59c-6.54-0.41-11.5-6.04-11.1-12.57s6.04-11.5,12.57-11.1
		s11.5,6.04,11.1,12.57C392.34,371.03,386.71,376,380.17,375.59z"/>
	<g>
		<path class="st1" d="M424.05,370.41c0.07-0.06,0.14-0.12,0.21-0.18c0.27-0.23,0.56-0.44,0.9-0.56c0.54-0.19,1.03-0.09,1.43,0.32
			c0.21,0.22,0.4,0.48,0.55,0.75c0.23,0.38,0.41,0.78,0.62,1.16c0.18,0.33,0.36,0.66,0.64,0.92c0.32,0.3,0.56,0.31,0.91,0.03
			c0.35-0.29,0.58-0.68,0.79-1.07c0.09-0.16,0.16-0.34,0.24-0.49c-0.03-0.12-0.05-0.23-0.08-0.33c-0.03-0.1-0.07-0.21-0.14-0.28
			c-0.18-0.17-0.17-0.33-0.05-0.52c-0.06-0.3-0.05-0.35,0.17-0.5c0-0.03-0.01-0.07-0.01-0.11c-0.01-0.26,0.18-0.39,0.41-0.27
			c0.34,0.17,0.66,0.35,1,0.53c0.17,0.09,0.33,0.18,0.5,0.26c0.13,0.07,0.26,0.13,0.26,0.31c0,0.17-0.11,0.23-0.24,0.29
			c-0.02,0.3-0.05,0.34-0.33,0.43c-0.12,0.26-0.14,0.27-0.43,0.25c-0.11-0.01-0.23,0.03-0.34,0.05c-0.03,0.01-0.06,0.04-0.09,0.04
			c-0.23-0.01-0.29,0.16-0.37,0.33c-0.24,0.49-0.51,0.95-0.9,1.33c-0.17,0.16-0.36,0.3-0.59,0.36c-0.36,0.09-0.67,0-0.94-0.24
			c-0.32-0.28-0.54-0.64-0.75-1.01c-0.21-0.39-0.41-0.79-0.63-1.18c-0.17-0.3-0.35-0.59-0.62-0.81c-0.28-0.22-0.58-0.27-0.91-0.12
			c-0.3,0.13-0.56,0.31-0.82,0.56c0.12,0.07,0.21,0.13,0.3,0.18c0.41,0.24,0.82,0.48,1.22,0.72c0.06,0.03,0.11,0.07,0.16,0.11
			c0.15,0.13,0.19,0.32,0.05,0.49c-0.59,0.73-1.17,1.47-1.75,2.21c-0.48,0.6-0.96,1.21-1.44,1.81c-0.02,0.03-0.05,0.06-0.07,0.09
			c-0.21,0.25-0.36,0.28-0.64,0.11c-0.83-0.49-1.66-0.98-2.5-1.47c-0.24-0.14-0.48-0.28-0.72-0.42c-0.27-0.16-0.32-0.32-0.2-0.6
			c0.68-1.59,1.37-3.18,2.05-4.76c0.12-0.28,0.3-0.35,0.57-0.2c0.22,0.12,0.44,0.25,0.66,0.38c0.6,0.35,1.19,0.7,1.79,1.05
			C423.97,370.37,424,370.39,424.05,370.41z M425.12,372.21c-0.01-0.16-0.07-0.27-0.2-0.35c-0.12-0.08-0.25-0.07-0.37,0.01
			c-0.07,0.05-0.14,0.12-0.19,0.19c-0.39,0.5-0.77,1.01-1.15,1.52c-0.32,0.42-0.64,0.85-0.96,1.27c-0.08,0.11-0.14,0.22-0.1,0.36
			c0.04,0.15,0.13,0.26,0.28,0.29c0.18,0.04,0.32-0.05,0.42-0.19c0.72-0.95,1.44-1.9,2.16-2.85
			C425.06,372.38,425.08,372.29,425.12,372.21z M419.79,373.69c0,0.3,0.2,0.47,0.43,0.42c0.13-0.03,0.23-0.12,0.29-0.24
			c0.06-0.14,0.12-0.27,0.18-0.41c0.42-0.95,0.83-1.9,1.24-2.85c0.04-0.09,0.06-0.19,0.05-0.28c-0.02-0.28-0.31-0.43-0.54-0.27
			c-0.09,0.06-0.16,0.17-0.21,0.27c-0.47,1.06-0.93,2.12-1.4,3.18C419.81,373.58,419.8,373.66,419.79,373.69z M423.57,371.28
			c-0.02-0.18-0.08-0.29-0.21-0.36c-0.12-0.06-0.25-0.05-0.35,0.03c-0.09,0.07-0.16,0.17-0.22,0.26c-0.47,0.78-0.93,1.57-1.39,2.36
			c-0.13,0.22-0.27,0.44-0.39,0.67c-0.1,0.18-0.04,0.39,0.12,0.5c0.14,0.1,0.33,0.07,0.47-0.08c0.04-0.04,0.07-0.08,0.09-0.12
			c0.6-1.01,1.2-2.03,1.79-3.04C423.53,371.43,423.55,371.34,423.57,371.28z"/>
		<path class="st1" d="M435.77,366.44c-0.04,0.58-0.3,1.08-0.76,1.45c-0.24,0.2-0.5,0.37-0.77,0.53c-0.57,0.35-1.1,0.76-1.47,1.33
			c-0.1,0.16-0.24,0.18-0.43,0.08c-0.35-0.18-0.69-0.36-1.03-0.54c-0.15-0.08-0.31-0.17-0.46-0.25c-0.21-0.11-0.25-0.22-0.17-0.44
			c0.05-0.14,0.1-0.28,0.14-0.42c0.14-0.49,0.16-0.99,0.13-1.5c-0.03-0.47-0.04-0.95,0.1-1.4c0.24-0.74,0.75-1.14,1.5-1.29
			c0.56-0.11,1.08,0.03,1.59,0.23c0.48,0.19,0.87,0.53,1.18,0.95C435.6,365.53,435.75,365.95,435.77,366.44z M435.08,366.48
			c-0.01-0.1-0.01-0.18-0.03-0.26c-0.08-0.44-0.31-0.78-0.69-1.01c-0.12-0.07-0.23-0.07-0.34,0.01c-0.17,0.13-0.15,0.34,0.06,0.48
			c0.33,0.23,0.47,0.54,0.39,0.94c-0.03,0.17,0.06,0.32,0.21,0.36c0.14,0.04,0.29-0.05,0.34-0.21
			C435.06,366.68,435.06,366.57,435.08,366.48z"/>
		<path class="st1" d="M425.2,368.22c0.18,0.02,0.35,0.04,0.51,0.05c0.54,0.05,1.08,0.1,1.62,0.15c0.25,0.03,0.38,0.27,0.27,0.49
			c-0.06,0.13-0.17,0.17-0.3,0.17c-0.27-0.02-0.54-0.03-0.81-0.06c-0.57-0.05-1.13-0.1-1.7-0.15c-0.59-0.05-1.17-0.11-1.76-0.16
			c-0.38-0.04-0.76-0.07-1.14-0.1c-0.07-0.01-0.14-0.02-0.21-0.03c-0.21-0.04-0.3-0.16-0.28-0.37c0.02-0.18,0.14-0.3,0.35-0.28
			c0.48,0.04,0.97,0.09,1.45,0.13c0.22,0.02,0.45,0.04,0.7,0.06c0-0.14-0.01-0.26,0-0.38c0.03-0.3,0.16-0.41,0.46-0.39
			c0.21,0.02,0.41,0.03,0.62,0.07c0.2,0.03,0.31,0.19,0.29,0.39C425.25,367.93,425.23,368.06,425.2,368.22z"/>
	</g>
	<path class="st1" d="M443.83,360.88l-2.73,0.69c-0.52,0.13-1.06-0.07-1.38-0.5c-0.74-1.01-1.6-1.92-2.54-2.7
		c-0.41-0.34-0.58-0.9-0.41-1.4l0.86-2.68c0.2-0.63-0.1-1.31-0.71-1.59l-2.89-1.3c-0.6-0.27-1.32-0.05-1.66,0.52l-1.44,2.42
		c-0.27,0.46-0.8,0.7-1.33,0.62c-1.21-0.19-2.46-0.23-3.71-0.12c-0.53,0.05-1.04-0.23-1.28-0.7l-1.29-2.5
		c-0.3-0.59-1-0.86-1.62-0.62l-2.96,1.12c-0.62,0.23-0.97,0.9-0.8,1.54l0.69,2.73c0.13,0.52-0.07,1.06-0.5,1.38
		c-1.01,0.74-1.92,1.6-2.7,2.54c-0.34,0.41-0.9,0.58-1.4,0.41l-2.68-0.86c-0.63-0.2-1.31,0.1-1.59,0.71l-1.3,2.89
		c-0.27,0.6-0.05,1.32,0.52,1.66l2.42,1.44c0.46,0.27,0.7,0.8,0.62,1.33c-0.19,1.21-0.23,2.46-0.12,3.71
		c0.05,0.53-0.23,1.04-0.7,1.28l-2.5,1.29c-0.59,0.3-0.86,1-0.62,1.62l1.12,2.96c0.23,0.62,0.9,0.97,1.54,0.8l2.73-0.69
		c0.52-0.13,1.06,0.07,1.38,0.5c0.74,1.01,1.6,1.92,2.54,2.7c0.41,0.34,0.58,0.9,0.41,1.4l-0.86,2.68c-0.2,0.63,0.1,1.31,0.71,1.59
		l2.89,1.3c0.6,0.27,1.32,0.05,1.66-0.52l1.44-2.42c0.27-0.46,0.8-0.7,1.33-0.62c1.21,0.19,2.46,0.23,3.71,0.12
		c0.53-0.05,1.04,0.23,1.28,0.7l1.29,2.5c0.3,0.59,1,0.86,1.62,0.62l2.96-1.12c0.62-0.23,0.97-0.9,0.8-1.54l-0.69-2.73
		c-0.13-0.52,0.07-1.06,0.5-1.38c1.01-0.74,1.92-1.6,2.7-2.54c0.34-0.41,0.9-0.58,1.4-0.41l2.68,0.86c0.63,0.2,1.31-0.1,1.59-0.71
		l1.3-2.89c0.27-0.6,0.05-1.32-0.52-1.66l-2.42-1.44c-0.46-0.27-0.7-0.8-0.62-1.33c0.19-1.21,0.23-2.46,0.12-3.71
		c-0.05-0.53,0.23-1.04,0.7-1.28l2.5-1.29c0.59-0.3,0.86-1,0.62-1.62l-1.12-2.96C445.14,361.06,444.47,360.72,443.83,360.88z
		 M431.62,381.65c-6.31,2.39-13.37-0.79-15.76-7.11c-2.39-6.31,0.79-13.37,7.11-15.76c6.31-2.39,13.37,0.79,15.76,7.11
		C441.11,372.2,437.93,379.26,431.62,381.65z"/>
	<g>
		<path class="st1" d="M355.86,316.11c-0.67,0-1.34,0-2.01,0c-0.61,0-1.2-0.1-1.77-0.34c-1.33-0.55-2.21-1.53-2.67-2.89
			c-0.19-0.57-0.25-1.16-0.21-1.76c0.05-0.68,0.25-1.31,0.58-1.89c0.42-0.74,0.85-1.48,1.28-2.23c0.03-0.06,0.07-0.11,0.09-0.18
			c0.04-0.14-0.02-0.27-0.16-0.35c-0.21-0.12-0.42-0.24-0.63-0.36c-0.07-0.04-0.13-0.09-0.16-0.17c-0.08-0.18,0.02-0.38,0.21-0.43
			c0.24-0.07,0.48-0.13,0.73-0.2c0.94-0.25,1.87-0.51,2.81-0.76c0.06-0.02,0.13-0.03,0.19-0.02c0.15,0.02,0.23,0.12,0.27,0.26
			c0.08,0.3,0.16,0.59,0.24,0.88c0.23,0.87,0.47,1.73,0.7,2.6c0.01,0.04,0.02,0.07,0.02,0.11c0.02,0.13-0.02,0.23-0.12,0.31
			c-0.11,0.08-0.23,0.08-0.34,0.02c-0.21-0.12-0.42-0.24-0.64-0.36c-0.05-0.03-0.11-0.05-0.16-0.06c-0.13-0.02-0.23,0.04-0.3,0.16
			c-0.12,0.21-0.24,0.42-0.36,0.62c-0.31,0.53-0.61,1.07-0.92,1.6c-0.11,0.2-0.2,0.4-0.22,0.63c-0.03,0.29,0.02,0.56,0.14,0.82
			c0.28,0.56,0.74,0.86,1.36,0.86c1.45,0.01,2.9,0,4.35,0c0.33,0,0.64,0.07,0.91,0.25c0.48,0.31,0.73,0.75,0.73,1.33
			c0,0.78-0.62,1.45-1.4,1.52c-0.09,0.01-0.19,0.01-0.28,0.01C357.38,316.11,356.62,316.11,355.86,316.11z"/>
		<path class="st1" d="M354.28,301.9c0.01-0.3,0.07-0.55,0.2-0.78c0.33-0.57,0.66-1.14,0.99-1.71c0.41-0.72,0.81-1.44,1.24-2.14
			c0.69-1.13,1.69-1.84,2.99-2.12c0.46-0.1,0.92-0.13,1.38-0.08c1.56,0.17,2.76,0.92,3.57,2.26c0.46,0.77,0.91,1.55,1.36,2.33
			c0.07,0.12,0.17,0.2,0.32,0.19c0.06-0.01,0.11-0.03,0.16-0.06c0.21-0.12,0.42-0.24,0.62-0.36c0.1-0.06,0.21-0.07,0.31-0.02
			c0.14,0.07,0.2,0.21,0.16,0.37c-0.09,0.34-0.18,0.68-0.27,1.02c-0.22,0.84-0.45,1.69-0.68,2.53c-0.06,0.23-0.21,0.32-0.43,0.26
			c-1.18-0.31-2.37-0.63-3.55-0.94c-0.2-0.05-0.3-0.22-0.24-0.41c0.03-0.08,0.08-0.14,0.16-0.19c0.21-0.12,0.41-0.24,0.62-0.35
			c0.21-0.11,0.23-0.32,0.13-0.49c-0.45-0.76-0.89-1.52-1.33-2.28c-0.24-0.41-0.58-0.66-1.05-0.75c-0.58-0.1-1.22,0.12-1.56,0.69
			c-0.32,0.55-0.63,1.1-0.95,1.65c-0.41,0.71-0.82,1.43-1.24,2.14c-0.27,0.46-0.68,0.73-1.21,0.78c-0.72,0.07-1.39-0.37-1.62-1.05
			c-0.03-0.08-0.05-0.15-0.06-0.23C354.29,302.06,354.29,301.97,354.28,301.9z"/>
		<path class="st1" d="M366.31,316.11c-0.52,0-1.04,0-1.56,0c-0.19,0-0.29,0.11-0.32,0.23c-0.01,0.04-0.01,0.08-0.01,0.12
			c0,0.23,0,0.45,0,0.68c0,0.03,0,0.07,0,0.1c-0.02,0.12-0.08,0.21-0.2,0.25c-0.11,0.04-0.22,0.03-0.32-0.05
			c-0.06-0.06-0.12-0.12-0.18-0.18c-0.81-0.81-1.62-1.62-2.44-2.43c-0.06-0.06-0.11-0.11-0.13-0.2c-0.02-0.12,0.02-0.23,0.11-0.32
			c0.3-0.3,0.6-0.6,0.91-0.9c0.56-0.56,1.12-1.12,1.69-1.68c0.08-0.08,0.17-0.13,0.28-0.12c0.16,0.01,0.28,0.15,0.28,0.32
			c0,0.24,0.01,0.48,0,0.72c-0.01,0.25,0.17,0.36,0.36,0.36c0.92,0,1.84,0,2.75,0c0.91,0,1.43-0.72,1.5-1.34
			c0.04-0.34-0.04-0.64-0.2-0.93c-0.34-0.59-0.68-1.18-1.02-1.77c-0.36-0.63-0.73-1.25-1.08-1.88c-0.52-0.91-0.06-2.03,0.95-2.3
			c0.65-0.17,1.37,0.11,1.71,0.69c0.41,0.7,0.81,1.41,1.22,2.11c0.33,0.56,0.65,1.13,0.97,1.7c0.31,0.54,0.49,1.12,0.56,1.73
			c0.12,1.23-0.2,2.35-0.96,3.33c-0.7,0.9-1.62,1.46-2.73,1.69c-0.31,0.06-0.63,0.09-0.96,0.09
			C367.09,316.12,366.7,316.11,366.31,316.11z"/>
	</g>
	<g>
		<path class="st0" d="M379.7,357.94c-0.09-0.09-0.17-0.17-0.26-0.26c-0.44-0.44-0.89-0.87-1.33-1.3c-0.08-0.08-0.13-0.08-0.22,0
			c-0.06,0.06-0.13,0.11-0.19,0.17c-0.73,0.72-1.46,1.45-2.19,2.17c-0.01,0.01-0.03,0.03-0.05,0.05c0.02,0,0.03,0,0.04,0
			c1.1,0,2.2,0,3.29,0c0.03,0,0.06-0.01,0.08-0.03C379.15,358.49,379.42,358.22,379.7,357.94z"/>
		<path class="st0" d="M373.53,359.78c0.01-0.08,0.01-0.17,0.02-0.25c0.01-0.15,0.05-0.2,0.19-0.2c0.43-0.01,0.85-0.03,1.28-0.03
			c3.99,0,7.98,0,11.97,0c0.37,0,0.73,0.02,1.1,0.03c0.12,0,0.17,0.05,0.18,0.17c0.01,0.39,0.01,0.78,0.01,1.17
			c0,0.02-0.01,0.05-0.02,0.05c-0.09,0.07-0.16,0.14-0.3,0.14c-4.66,0-9.31,0-13.97,0c-0.18,0-0.34-0.02-0.47-0.16
			C373.53,360.4,373.53,360.09,373.53,359.78z"/>
		<path class="st0" d="M383.3,355.17c0.4,0.38,0.8,0.75,1.19,1.13c0.81,0.8,1.61,1.6,2.41,2.41c0.02,0.02,0.03,0.04,0.06,0.07
			c-2.46,0-4.91,0-7.38,0c0.02-0.02,0.04-0.04,0.05-0.06c1.03-1.03,2.07-2.06,3.1-3.08c0.16-0.16,0.34-0.31,0.51-0.47
			C383.26,355.17,383.28,355.17,383.3,355.17z"/>
		<path class="st1" d="M374.32,361.32c0.04,0.27,0.08,0.52,0.12,0.77c0.1,0.59,0.19,1.18,0.29,1.77c0.1,0.61,0.2,1.22,0.31,1.83
			c0.1,0.61,0.21,1.22,0.31,1.84c0.1,0.62,0.21,1.24,0.31,1.86c0.1,0.6,0.19,1.21,0.29,1.81c0.04,0.26,0.09,0.52,0.13,0.78
			c0.02,0.14,0.07,0.27,0.19,0.37c2.89,0,5.78,0,8.67,0c0.11-0.01,0.23-0.01,0.34-0.02c0.08,0,0.16-0.01,0.24-0.01
			c0.15-0.02,0.22-0.07,0.25-0.22c0.05-0.28,0.09-0.57,0.14-0.85c0.09-0.53,0.17-1.05,0.26-1.58c0.09-0.55,0.18-1.11,0.27-1.66
			c0.1-0.59,0.19-1.18,0.29-1.77c0.09-0.55,0.18-1.11,0.27-1.66c0.1-0.59,0.19-1.18,0.29-1.78c0.08-0.47,0.15-0.94,0.23-1.43
			C383.1,361.31,378.72,361.33,374.32,361.32z M378.44,364.76c0.23-0.36,0.47-0.73,0.7-1.09c0.16-0.24,0.37-0.3,0.65-0.22
			c0.25,0.07,0.42,0.25,0.56,0.46c0.14,0.21,0.25,0.43,0.37,0.65c0.01,0.02,0.01,0.06,0,0.08c-0.3,0.47-0.6,0.93-0.91,1.4
			c0,0-0.01,0-0.02,0.01c-0.5-0.34-1-0.69-1.51-1.03C378.34,364.92,378.39,364.84,378.44,364.76z M378.35,369.3
			c0.01,0.02,0,0.05,0,0.09c-0.02-0.02-0.03-0.03-0.04-0.05c-0.35-0.61-0.69-1.21-1.04-1.82c-0.02-0.04-0.04-0.08-0.05-0.12
			c-0.09-0.19-0.08-0.37,0.03-0.54c0.13-0.21,0.26-0.42,0.4-0.64c-0.1-0.06-0.19-0.12-0.29-0.18c-0.05-0.03-0.1-0.06-0.09-0.12
			c0.02-0.07,0.08-0.07,0.13-0.08c0.22-0.01,0.45-0.03,0.67-0.03c0.29,0,0.58,0,0.88,0c0.05,0,0.08,0.01,0.11,0.06
			c0.22,0.44,0.46,0.87,0.68,1.31c0.03,0.05,0.03,0.11,0.04,0.17c-0.06-0.01-0.13-0.01-0.18-0.04c-0.28-0.15-0.22-0.14-0.38,0.1
			c-0.24,0.37-0.47,0.75-0.7,1.13C378.39,368.78,378.3,369.02,378.35,369.3z M380.84,369.91c-0.03,0-0.06,0-0.08,0
			c-0.6,0-1.21,0-1.81,0c-0.04,0-0.09-0.02-0.13-0.05c-0.22-0.2-0.24-0.46-0.22-0.73c0.01-0.22,0.1-0.42,0.22-0.61
			c0.08-0.14,0.17-0.28,0.26-0.41c0.02-0.02,0.05-0.05,0.08-0.05c0.56,0,1.11,0,1.68,0C380.84,368.67,380.84,369.28,380.84,369.91z
			 M381.07,365.54c-0.03-0.01-0.06-0.04-0.08-0.06c0.02-0.03,0.04-0.06,0.06-0.08c0.04-0.03,0.09-0.06,0.14-0.09
			c0.05-0.02,0.09-0.05,0.16-0.08c-0.23-0.44-0.44-0.88-0.67-1.3c-0.17-0.32-0.42-0.57-0.79-0.67c-0.01,0-0.02-0.01-0.05-0.03
			c0.04,0,0.07-0.01,0.09-0.01c0.67,0,1.33,0,2,0.01c0.12,0,0.24,0.01,0.35,0.04c0.2,0.05,0.33,0.19,0.43,0.36
			c0.1,0.18,0.2,0.37,0.3,0.55c0.04,0.08,0.09,0.09,0.17,0.06c0.09-0.04,0.17-0.07,0.26-0.1c0.03-0.01,0.08,0,0.12,0
			c0,0.04,0,0.07-0.01,0.11c-0.01,0.05-0.03,0.09-0.06,0.14c-0.23,0.38-0.45,0.77-0.68,1.15c-0.06,0.11-0.15,0.15-0.27,0.14
			c-0.45-0.05-0.9-0.08-1.35-0.12C381.14,365.56,381.1,365.55,381.07,365.54z M384.61,367.67c-0.36,0.66-0.73,1.31-1.09,1.97
			c-0.1,0.2-0.26,0.27-0.46,0.29c-0.14,0.01-0.27,0.02-0.41,0.02c-0.12,0-0.24,0-0.37,0c-0.01,0.11-0.01,0.21-0.02,0.31
			c0,0.06,0.02,0.15-0.06,0.18c-0.08,0.03-0.13-0.04-0.17-0.1c-0.12-0.16-0.24-0.33-0.35-0.49c-0.14-0.21-0.28-0.43-0.42-0.64
			c-0.06-0.09-0.07-0.17-0.01-0.27c0.12-0.21,0.23-0.43,0.35-0.63c0.12-0.2,0.24-0.39,0.36-0.59c0.03-0.05,0.09-0.08,0.13-0.11
			c0.02,0.06,0.05,0.11,0.06,0.17c0.01,0.08,0.01,0.16,0.01,0.25c0.03,0,0.06,0,0.08,0c0.45-0.01,0.9-0.01,1.35-0.02
			c0.37-0.01,0.72-0.1,0.98-0.38c0.02-0.02,0.03-0.03,0.06-0.03C384.64,367.61,384.62,367.64,384.61,367.67z M384.53,367.33
			c-0.22,0.26-0.5,0.43-0.86,0.42c-0.2,0-0.4,0-0.6-0.01c-0.03,0-0.08-0.02-0.09-0.04c-0.29-0.48-0.57-0.95-0.85-1.43
			c-0.01-0.01-0.01-0.03-0.03-0.06c0.52-0.3,1.03-0.59,1.55-0.9c0.1,0.14,0.2,0.27,0.28,0.4c0.22,0.33,0.43,0.66,0.64,0.99
			C384.71,366.93,384.69,367.14,384.53,367.33z"/>
		<path class="st0" d="M379.7,357.94c-0.28,0.28-0.55,0.54-0.81,0.81c-0.02,0.02-0.05,0.03-0.08,0.03c-1.1,0-2.2,0-3.29,0
			c-0.01,0-0.02,0-0.04,0c0.02-0.02,0.03-0.04,0.05-0.05c0.73-0.72,1.46-1.45,2.19-2.17c0.06-0.06,0.12-0.12,0.19-0.17
			c0.08-0.07,0.14-0.08,0.22,0c0.45,0.43,0.89,0.87,1.33,1.3C379.52,357.77,379.61,357.85,379.7,357.94z"/>
	</g>
	<g>
		<path class="st0" d="M339.41,365.73c-0.5,0.55-1.12,0.51-1.51,0.31c-0.51-0.27-0.7-0.73-0.59-1.47c-0.1,0-0.2,0-0.3,0
			c-0.17,0-0.26-0.08-0.3-0.24c-0.18-0.88-0.35-1.75-0.52-2.63c-0.02-0.08,0-0.19,0.04-0.26c0.43-0.78,0.87-1.56,1.3-2.35
			c0.07-0.12,0.16-0.18,0.31-0.18c0.36,0.01,0.71,0,1.08,0c-0.47,1.76-0.94,3.51-1.4,5.26c0.01,0.01,0.02,0.01,0.02,0.01
			c0.03-0.02,0.05-0.05,0.08-0.07c0.15-0.09,0.29-0.2,0.44-0.27c0.08-0.04,0.12-0.08,0.14-0.16c0.41-1.54,0.82-3.08,1.23-4.62
			c0.01-0.05,0.03-0.09,0.04-0.14c1.38,0,2.76,0,4.15,0c-0.03,0.04-0.05,0.07-0.07,0.1c-0.62,0.71-1.24,1.43-1.87,2.14
			c-0.55,0.63-0.53,1.36,0.04,1.97c0.43,0.45,0.86,0.9,1.29,1.35c0.02,0.02,0.04,0.05,0.08,0.1c-0.55,0-1.08,0-1.61,0
			c0.16,0.67-0.03,1.18-0.64,1.5C340.51,366.25,339.9,366.27,339.41,365.73z M339.14,364.96c0-0.37-0.3-0.67-0.67-0.66
			c-0.38,0-0.68,0.3-0.68,0.68c0,0.36,0.31,0.67,0.67,0.67C338.85,365.64,339.15,365.34,339.14,364.96z M339.69,364.97
			c0,0.37,0.3,0.67,0.67,0.67c0.37,0,0.68-0.3,0.68-0.68c0-0.37-0.3-0.67-0.67-0.67C339.98,364.3,339.69,364.59,339.69,364.97z"/>
		<path class="st0" d="M344.27,364.11c0-0.35,0-0.73,0-1.12c0-0.62,0-1.25,0-1.87c0-0.54,0.34-0.88,0.88-0.88c0.35,0,0.7,0,1.05,0
			c0.42,0,0.75,0.19,0.97,0.55c0.25,0.42,0.49,0.85,0.73,1.28c0.1,0.17,0.14,0.35,0.14,0.55c0,0.55,0,1.1,0,1.64
			c0,0.47-0.34,0.81-0.81,0.82c-0.31,0-0.61,0-0.92,0c-0.05,0-0.1,0-0.16,0c-0.05,0.27-0.15,0.51-0.33,0.7
			c-0.39,0.41-1,0.5-1.48,0.21c-0.49-0.28-0.72-0.86-0.55-1.39c0.03-0.11,0.01-0.16-0.06-0.24c-0.54-0.55-1.07-1.11-1.61-1.67
			c-0.36-0.37-0.37-0.81-0.03-1.2c1.15-1.31,2.3-2.63,3.44-3.94c0.14-0.16,0.14-0.28-0.01-0.43c-0.23,0.27-0.46,0.53-0.69,0.78
			c-0.59-0.59-1.17-1.16-1.75-1.75c0.84-0.74,1.69-1.48,2.53-2.21c0.48,0.48,0.95,0.95,1.43,1.44c-0.26,0.29-0.53,0.6-0.8,0.92
			c-0.3-0.31-0.6-0.61-0.9-0.91c-0.13,0.14-0.25,0.26-0.37,0.39c0.01,0.01,0.03,0.04,0.05,0.06c0.29,0.29,0.59,0.59,0.88,0.88
			c0.35,0.36,0.37,0.81,0.03,1.19c-0.71,0.81-1.41,1.62-2.12,2.43c-0.06,0.07-0.09,0.14-0.09,0.23c0,0.97,0,1.93,0.01,2.9
			c0,0.07,0.03,0.15,0.08,0.19C343.96,363.84,344.12,363.98,344.27,364.11z M347.52,362.67c-0.05-0.15-0.08-0.28-0.14-0.4
			c-0.2-0.37-0.43-0.73-0.63-1.11c-0.18-0.34-0.38-0.43-0.86-0.36c0,0.01-0.01,0.01-0.01,0.02c0,0.53-0.01,1.05,0,1.58
			c0,0.17,0.11,0.27,0.29,0.27c0.3,0,0.6,0,0.91,0C347.22,362.67,347.35,362.67,347.52,362.67z M345.61,364.96
			c0-0.37-0.3-0.66-0.67-0.66c-0.38,0-0.68,0.3-0.67,0.68c0,0.37,0.3,0.67,0.67,0.67C345.31,365.64,345.61,365.34,345.61,364.96z"/>
		<path class="st0" d="M345.34,359.44c0.16-0.18,0.29-0.34,0.43-0.49c0.02-0.03,0.07-0.04,0.11-0.04c0.26,0,0.53-0.01,0.79,0
			c0.06,0,0.13,0.02,0.18,0.06c0.26,0.16,0.51,0.34,0.77,0.51c0.15,0.1,0.19,0.25,0.1,0.38c-0.09,0.13-0.25,0.16-0.4,0.06
			c-0.2-0.13-0.39-0.27-0.59-0.39c-0.08-0.05-0.18-0.08-0.26-0.08C346.1,359.43,345.74,359.44,345.34,359.44z"/>
		<path class="st0" d="M343.73,357.29c0.14,0,0.27,0.13,0.27,0.27c0,0.14-0.13,0.27-0.27,0.27c-0.15,0-0.28-0.13-0.27-0.28
			C343.46,357.4,343.59,357.28,343.73,357.29z"/>
		<path class="st0" d="M343.45,357.02c0,0.15-0.12,0.26-0.27,0.26c-0.15,0-0.27-0.12-0.26-0.28c0.01-0.15,0.13-0.26,0.28-0.25
			C343.35,356.75,343.46,356.87,343.45,357.02z"/>
		<path class="st0" d="M341.84,357.56c0-0.15,0.12-0.27,0.26-0.27c0.15,0,0.27,0.12,0.27,0.28c0,0.14-0.13,0.27-0.27,0.26
			C341.96,357.82,341.84,357.7,341.84,357.56z"/>
		<path class="st0" d="M343.72,358.36c0,0.15-0.11,0.27-0.26,0.27c-0.15,0-0.28-0.12-0.28-0.27c0-0.14,0.12-0.27,0.27-0.27
			C343.61,358.09,343.72,358.21,343.72,358.36z"/>
		<path class="st0" d="M343.19,357.83c0,0.15-0.13,0.26-0.27,0.26c-0.15,0-0.27-0.13-0.27-0.28c0.01-0.15,0.13-0.26,0.28-0.25
			C343.08,357.56,343.19,357.68,343.19,357.83z"/>
		<path class="st0" d="M342.65,358.36c0,0.15-0.11,0.27-0.26,0.27c-0.15,0-0.28-0.12-0.27-0.27c0-0.14,0.13-0.27,0.27-0.27
			C342.53,358.09,342.65,358.21,342.65,358.36z"/>
	</g>
	<g>
		<path class="st0" d="M358.39,396.08c-0.04,0.11-0.09,0.22-0.13,0.32c-0.01,0.04,0,0.09,0.01,0.13c0.13,0.33,0.27,0.67,0.4,1
			c0.04,0.11,0.08,0.23,0.12,0.36c0.1-0.05,0.21-0.1,0.32-0.17c0.24-0.14,0.48-0.3,0.76-0.32c0.23-0.01,0.34-0.13,0.44-0.3
			c0.1-0.17,0.22-0.32,0.32-0.48c0.06-0.1,0.14-0.13,0.25-0.08c0.37,0.16,0.75,0.31,1.13,0.46c0.04,0.01,0.09,0.02,0.1,0.05
			c0.03,0.04,0.06,0.11,0.05,0.15c-0.02,0.04-0.09,0.07-0.14,0.08c-0.04,0.01-0.08-0.02-0.12-0.04c-0.32-0.13-0.64-0.26-0.95-0.39
			c-0.09-0.04-0.14-0.02-0.19,0.06c-0.09,0.15-0.19,0.3-0.3,0.45c0.09,0.02,0.16,0.03,0.23,0.06c0.2,0.09,0.41,0.17,0.6,0.29
			c0.25,0.14,0.51,0.24,0.8,0.24c0.1,0,0.17,0.04,0.16,0.14c0,0.1-0.08,0.13-0.18,0.13c-0.31-0.01-0.6-0.09-0.87-0.24
			c-0.21-0.12-0.42-0.24-0.65-0.3c-0.39-0.1-0.77-0.05-1.12,0.17c-0.24,0.15-0.49,0.3-0.77,0.34c-0.44,0.07-0.86,0.03-1.25-0.2
			c-0.21-0.13-0.42-0.27-0.67-0.32c-0.39-0.07-0.76-0.04-1.11,0.17c-0.24,0.15-0.48,0.3-0.77,0.35c-0.44,0.07-0.86,0.02-1.26-0.2
			c-0.21-0.12-0.42-0.24-0.65-0.3c-0.4-0.11-0.79-0.05-1.15,0.17c-0.24,0.14-0.47,0.29-0.75,0.33c-0.11,0.01-0.21,0.03-0.32,0.03
			c-0.1,0.01-0.17-0.03-0.18-0.13c0-0.1,0.07-0.14,0.17-0.14c0.1,0,0.19-0.02,0.31-0.03c-0.07-0.23-0.14-0.44-0.21-0.66
			c-0.02-0.08-0.05-0.16-0.08-0.24c-0.03-0.09,0-0.16,0.08-0.19c0.33-0.13,0.67-0.25,1-0.37c0.03-0.01,0.07-0.01,0.1,0
			c0.77,0.17,1.53,0.34,2.3,0.52c0.16,0.04,0.18,0.06,0.18,0.23c0,0.21,0,0.42,0,0.63c0,0.09,0.02,0.13,0.11,0.12
			c0.11-0.01,0.22-0.02,0.33-0.04c0.23-0.03,0.38-0.14,0.45-0.38c0.06-0.23,0.17-0.44,0.26-0.66c0.07-0.18,0.19-0.31,0.36-0.39
			c0.38-0.17,0.76-0.35,1.14-0.52c0.06-0.03,0.15-0.02,0.21,0c0.14,0.04,0.26,0.1,0.4,0.16c0.09,0.04,0.14,0.1,0.1,0.19
			c-0.04,0.09-0.13,0.1-0.2,0.05c-0.28-0.18-0.54-0.12-0.81,0.03c-0.24,0.13-0.5,0.22-0.74,0.35c-0.08,0.04-0.15,0.12-0.19,0.2
			c-0.09,0.19-0.16,0.38-0.24,0.6c0.04-0.01,0.05-0.02,0.07-0.02c0.58-0.24,1.15-0.22,1.69,0.11c0.17,0.1,0.35,0.19,0.53,0.28
			c0.01-0.01,0.02-0.02,0.03-0.03c-0.01-0.05-0.02-0.1-0.03-0.15c-0.05-0.11-0.1-0.22-0.15-0.34c-0.04-0.08-0.04-0.17,0.05-0.21
			c0.1-0.05,0.16,0.01,0.19,0.1c0.09,0.21,0.22,0.4,0.21,0.67c0.09,0,0.18,0.01,0.27,0c0.02,0,0.06-0.06,0.06-0.09
			c0-0.06-0.03-0.11-0.05-0.17c-0.15-0.37-0.3-0.74-0.45-1.11c-0.04-0.1-0.04-0.18,0-0.27c0.05-0.11,0.09-0.23,0.14-0.35
			c-0.04-0.02-0.08-0.04-0.11-0.05c-0.26-0.11-0.53-0.21-0.79-0.31c-0.13-0.05-0.16-0.11-0.11-0.24c0.08-0.2,0.16-0.4,0.24-0.61
			c0.05-0.12,0.11-0.14,0.22-0.1c0.39,0.15,0.78,0.31,1.17,0.46c0.11,0.05,0.14,0.12,0.1,0.23c-0.08,0.2-0.16,0.4-0.24,0.59
			C358.57,396.06,358.54,396.08,358.39,396.08z M354.1,397.94c0.01-0.01,0.02-0.02,0.04-0.03c0-0.18-0.01-0.35,0-0.53
			c0-0.09-0.03-0.13-0.12-0.15c-0.65-0.14-1.3-0.28-1.94-0.43c-0.15-0.03-0.27-0.03-0.41,0.03c-0.21,0.09-0.42,0.16-0.64,0.24
			c0.09,0.27,0.17,0.52,0.25,0.79c0.14-0.08,0.27-0.15,0.39-0.23c0.39-0.24,0.81-0.28,1.26-0.21c0.27,0.04,0.5,0.18,0.74,0.31
			C353.81,397.8,353.95,397.87,354.1,397.94z M358.56,395.34c-0.33-0.13-0.65-0.26-0.98-0.39c-0.06,0.15-0.11,0.28-0.17,0.43
			c0.33,0.13,0.65,0.26,0.98,0.39C358.45,395.62,358.51,395.49,358.56,395.34z"/>
		<path class="st0" d="M354.86,399.65c0.24,0.1,0.45,0.18,0.65,0.26c0.51,0.2,1.01,0.4,1.52,0.6c0.04,0.01,0.09,0.02,0.1,0.05
			c0.03,0.05,0.06,0.12,0.05,0.16c-0.01,0.04-0.09,0.06-0.14,0.08c-0.03,0.01-0.07-0.02-0.11-0.03c-0.73-0.29-1.45-0.58-2.2-0.87
			c-0.23,0.58-0.45,1.16-0.68,1.75c0.06,0.02,0.11,0.05,0.16,0.07c0.67,0.27,1.34,0.53,2,0.8c0.03,0.01,0.05,0.02,0.08,0.03
			c0.09,0.03,0.14,0.09,0.1,0.18c-0.04,0.1-0.12,0.1-0.21,0.07c-0.42-0.17-0.84-0.33-1.27-0.5c-0.28-0.11-0.56-0.23-0.85-0.34
			c-0.04-0.01-0.07-0.03-0.12-0.04c-0.07,0.18-0.14,0.35-0.2,0.52c-0.05,0.13-0.1,0.26-0.15,0.39c-0.07,0.18-0.05,0.23,0.13,0.3
			c0.73,0.29,1.47,0.58,2.2,0.87c0.01,0,0.01,0.01,0.02,0.01c0.19,0.08,0.23,0.06,0.31-0.13c0.22-0.57,0.45-1.13,0.67-1.7
			c0.22-0.56,0.44-1.13,0.67-1.68c0.07-0.16,0.09-0.31,0.03-0.47c-0.04-0.11-0.02-0.2,0.09-0.26c0.21-0.11,0.33-0.29,0.39-0.51
			c0.05-0.16,0.12-0.32,0.18-0.47c0.03-0.09,0.1-0.14,0.19-0.1c0.09,0.04,0.1,0.12,0.06,0.2c-0.09,0.24-0.17,0.48-0.28,0.7
			c-0.07,0.13-0.18,0.23-0.29,0.33c-0.05,0.05-0.08,0.09-0.06,0.16c0.04,0.14,0.03,0.28-0.03,0.42c-0.47,1.17-0.93,2.34-1.4,3.51
			c-0.11,0.28-0.33,0.38-0.61,0.27c-0.76-0.3-1.52-0.6-2.28-0.9c-0.29-0.12-0.38-0.33-0.27-0.62c0.38-0.98,0.76-1.97,1.14-2.95
			c0.09-0.24,0.26-0.41,0.49-0.53c-0.03-0.07-0.05-0.14-0.08-0.2c-0.03-0.09-0.03-0.17,0.07-0.21c0.1-0.04,0.15,0.02,0.18,0.1
			c0.04,0.1,0.08,0.2,0.12,0.3c0.04,0.1,0.01,0.17-0.09,0.22C355.08,399.53,354.99,399.58,354.86,399.65z"/>
		<path class="st0" d="M351.85,399.48c-0.48-0.01-0.37,0.06-0.57-0.37c-0.04-0.09-0.08-0.18-0.12-0.27
			c-0.03-0.08-0.02-0.15,0.06-0.19c0.09-0.04,0.15,0.01,0.18,0.08c0.06,0.13,0.12,0.26,0.17,0.39c0.03,0.06,0.07,0.08,0.13,0.09
			c0.27,0.04,0.46-0.04,0.56-0.3c0.05-0.14,0.16-0.18,0.31-0.19c0.37-0.01,0.74-0.03,1.11-0.04c0.09,0,0.17,0.02,0.18,0.13
			c0,0.1-0.07,0.14-0.17,0.14c-0.34,0.01-0.69,0.03-1.03,0.04c-0.1,0-0.17,0.03-0.21,0.12c-0.01,0.01-0.02,0.03-0.02,0.04
			C352.19,399.54,352.32,399.47,351.85,399.48z"/>
		<path class="st0" d="M361.65,399.38c-0.14,0-0.29,0.01-0.43,0c-0.07-0.01-0.16-0.03-0.21-0.08c-0.3-0.26-0.6-0.53-0.9-0.79
			c-0.03-0.02-0.07-0.05-0.07-0.08c-0.01-0.05-0.02-0.13,0.01-0.16c0.03-0.03,0.1-0.04,0.16-0.03c0.04,0,0.07,0.05,0.1,0.08
			c0.27,0.24,0.54,0.49,0.82,0.72c0.05,0.04,0.12,0.07,0.18,0.07c0.27,0.01,0.55,0,0.82,0.01c0.06,0,0.12,0.06,0.16,0.1
			c0.02,0.02-0.02,0.1-0.05,0.13c-0.02,0.03-0.08,0.03-0.12,0.03C361.97,399.39,361.81,399.38,361.65,399.38z"/>
		<path class="st0" d="M360.67,402.87c0,0.29-0.23,0.52-0.52,0.52c-0.28,0-0.52-0.24-0.52-0.52c0-0.28,0.24-0.51,0.52-0.52
			C360.43,402.35,360.67,402.59,360.67,402.87z M360.39,402.88c0-0.14-0.1-0.25-0.24-0.25c-0.14,0-0.25,0.1-0.25,0.24
			c0,0.14,0.1,0.25,0.24,0.25C360.29,403.12,360.39,403.02,360.39,402.88z"/>
		<path class="st0" d="M351.51,401.5c-0.28,0-0.52-0.24-0.51-0.53c0.01-0.28,0.24-0.51,0.52-0.51c0.28,0,0.52,0.24,0.52,0.52
			C352.03,401.27,351.8,401.5,351.51,401.5z M351.52,401.22c0.14,0,0.25-0.11,0.25-0.25c0-0.14-0.11-0.24-0.25-0.24
			c-0.14,0-0.25,0.11-0.25,0.25C351.27,401.12,351.38,401.22,351.52,401.22z"/>
		<path class="st0" d="M356.53,402.14c-0.12,0-0.19-0.08-0.15-0.17c0.1-0.26,0.2-0.52,0.31-0.78c0.02-0.04,0.11-0.07,0.16-0.06
			c0.08,0.02,0.11,0.09,0.08,0.17c-0.1,0.25-0.2,0.51-0.3,0.76C356.61,402.1,356.55,402.12,356.53,402.14z"/>
		<path class="st0" d="M357.91,398.8c-0.09,0.18-0.16,0.34-0.25,0.5c-0.01,0.03-0.11,0.03-0.14,0.01c-0.04-0.02-0.08-0.1-0.06-0.13
			c0.05-0.15,0.12-0.3,0.19-0.44c0.02-0.03,0.1-0.05,0.14-0.04C357.84,398.69,357.87,398.75,357.91,398.8z"/>
		<path class="st0" d="M351.12,402.34c0,0.12-0.09,0.21-0.21,0.21c-0.12,0-0.21-0.1-0.21-0.21c0-0.11,0.1-0.2,0.21-0.21
			C351.03,402.12,351.12,402.22,351.12,402.34z"/>
		<path class="st0" d="M358.46,402.69c0,0.12-0.1,0.21-0.21,0.21c-0.11,0-0.21-0.11-0.2-0.22c0-0.12,0.1-0.2,0.22-0.2
			C358.38,402.48,358.46,402.57,358.46,402.69z"/>
		<path class="st0" d="M359.31,403.66c0,0.11-0.09,0.21-0.21,0.21c-0.12,0-0.21-0.08-0.21-0.2c0-0.12,0.09-0.21,0.2-0.22
			C359.21,403.45,359.31,403.55,359.31,403.66z"/>
		<path class="st0" d="M361.65,400.76c0,0.11-0.09,0.21-0.21,0.21c-0.12,0-0.21-0.09-0.21-0.21c0-0.12,0.09-0.21,0.21-0.21
			C361.56,400.55,361.65,400.64,361.65,400.76z"/>
		<path class="st0" d="M353.07,401.52c0,0.12-0.1,0.21-0.21,0.21c-0.11,0-0.21-0.11-0.21-0.22c0-0.12,0.1-0.2,0.22-0.2
			C352.99,401.31,353.07,401.4,353.07,401.52z"/>
		<path class="st0" d="M360.2,401.34c0,0.12-0.09,0.21-0.21,0.21c-0.12,0-0.21-0.09-0.21-0.21c0-0.11,0.09-0.2,0.2-0.2
			C360.1,401.13,360.2,401.22,360.2,401.34z"/>
		<path class="st0" d="M353.41,400.32c0,0.12-0.09,0.21-0.21,0.21c-0.12,0-0.21-0.1-0.21-0.21c0-0.12,0.09-0.2,0.2-0.2
			C353.32,400.12,353.41,400.2,353.41,400.32z"/>
		<path class="st0" d="M361.23,401.82c-0.05,0.04-0.1,0.09-0.15,0.1c-0.08,0.01-0.13-0.05-0.13-0.13c0-0.08,0.05-0.12,0.12-0.13
			C361.16,401.66,361.21,401.71,361.23,401.82z"/>
		<path class="st0" d="M354.1,397.94c-0.14-0.07-0.29-0.13-0.43-0.21c-0.23-0.13-0.46-0.27-0.74-0.31
			c-0.44-0.07-0.87-0.02-1.26,0.21c-0.12,0.08-0.25,0.15-0.39,0.23c-0.09-0.27-0.17-0.52-0.25-0.79c0.22-0.08,0.43-0.16,0.64-0.24
			c0.14-0.06,0.26-0.07,0.41-0.03c0.65,0.15,1.29,0.29,1.94,0.43c0.09,0.02,0.12,0.06,0.12,0.15c-0.01,0.18,0,0.35,0,0.53
			C354.12,397.92,354.11,397.93,354.1,397.94z"/>
		<path class="st0" d="M358.56,395.34c-0.06,0.15-0.11,0.28-0.17,0.43c-0.33-0.13-0.65-0.26-0.98-0.39
			c0.06-0.15,0.11-0.28,0.17-0.43C357.91,395.08,358.23,395.21,358.56,395.34z"/>
		<path class="st0" d="M360.39,402.88c0,0.14-0.1,0.24-0.25,0.24c-0.14,0-0.24-0.1-0.24-0.25c0-0.14,0.1-0.24,0.25-0.24
			C360.3,402.63,360.4,402.73,360.39,402.88z"/>
		<path class="st0" d="M351.52,401.22c-0.14,0-0.25-0.1-0.25-0.24c0-0.14,0.11-0.25,0.25-0.25c0.14,0,0.25,0.11,0.25,0.24
			C351.77,401.11,351.66,401.22,351.52,401.22z"/>
	</g>
	<line class="st2" x1="378.59" y1="313.09" x2="396.77" y2="318.43"/>
	<line class="st2" x1="325.73" y1="318.98" x2="341.84" y2="313.68"/>
	<line class="st2" x1="298.05" y1="356.75" x2="304.1" y2="341.38"/>
	<line class="st2" x1="301.7" y1="396.44" x2="298.8" y2="383.09"/>
	<line class="st2" x1="311.71" y1="412.72" x2="318.54" y2="423.68"/>
	<line class="st2" x1="328.74" y1="425.67" x2="350.55" y2="406.14"/>
	<line class="st2" x1="402.59" y1="423.68" x2="411.11" y2="413.67"/>
	<line class="st2" x1="390.71" y1="407.38" x2="396.68" y2="422.27"/>
	<line class="st2" x1="392.77" y1="397.94" x2="416.71" y2="379.9"/>
	<line class="st2" x1="361.65" y1="390.96" x2="375.47" y2="376.49"/>
	<line class="st2" x1="365.15" y1="397.54" x2="379.83" y2="400.33"/>
	<line class="st2" x1="423.63" y1="398.54" x2="427.29" y2="385.01"/>
	<line class="st2" x1="393.69" y1="369.39" x2="413.22" y2="369.89"/>
	<line class="st2" x1="308.91" y1="398.24" x2="320.92" y2="390.96"/>
	<line class="st2" x1="334.71" y1="390.96" x2="348.98" y2="392.72"/>
	<line class="st2" x1="355.4" y1="389.5" x2="348.31" y2="368.21"/>
	<line class="st2" x1="305.32" y1="363.94" x2="332.64" y2="357.99"/>
	<line class="st2" x1="352.51" y1="362.11" x2="364.07" y2="362.54"/>
	<line class="st2" x1="330.69" y1="380.95" x2="334.71" y2="371.81"/>
	<line class="st2" x1="428.15" y1="355.77" x2="422.26" y2="338.53"/>
	<line class="st2" x1="386.31" y1="350.72" x2="397.96" y2="336.75"/>
	<line class="st2" x1="376.44" y1="350.72" x2="367.6" y2="324.5"/>
	<line class="st2" x1="344" y1="350.18" x2="353.49" y2="323.1"/>
	<line class="st2" x1="336.97" y1="351.67" x2="325.32" y2="340"/>
</g>
</svg>
