<svg id="Layer_1" data-name="Layer 1" xmlns="http://www.w3.org/2000/svg" viewBox="0 0 150 150"><defs><style>.cls-1,.cls-2{fill:#e21f26;}.cls-2{fill-rule:evenodd;}</style></defs><path class="cls-1" d="M50.08,62.44l-1.4-.16a.65.65,0,0,1-.55-.47,7.45,7.45,0,0,0-.72-1.72.65.65,0,0,1,.06-.73l.88-1.1a.67.67,0,0,0-.05-.87l-1.12-1.12a.67.67,0,0,0-.87-.05l-1.1.88a.65.65,0,0,1-.73.06,7,7,0,0,0-1.72-.71.66.66,0,0,1-.47-.56l-.16-1.4a.66.66,0,0,0-.65-.58H39.9a.65.65,0,0,0-.65.58l-.16,1.4a.65.65,0,0,1-.48.56,7.81,7.81,0,0,0-1.71.71.65.65,0,0,1-.73-.06l-1.1-.87a.66.66,0,0,0-.87,0l-1.12,1.12a.66.66,0,0,0,0,.87l.88,1.1a.63.63,0,0,1,.05.73,7.89,7.89,0,0,0-.71,1.72.65.65,0,0,1-.55.48l-1.4.15a.66.66,0,0,0-.58.65v1.59a.64.64,0,0,0,.58.64l1.4.16a.68.68,0,0,1,.56.48A6.94,6.94,0,0,0,34,67.67a.65.65,0,0,1-.06.73L33,69.51a.65.65,0,0,0,0,.86l1.12,1.12a.65.65,0,0,0,.87.05l1.1-.88a.67.67,0,0,1,.73,0,7.89,7.89,0,0,0,1.72.71.65.65,0,0,1,.47.55l.16,1.4a.66.66,0,0,0,.65.58h1.58a.64.64,0,0,0,.65-.58l.16-1.4a.65.65,0,0,1,.48-.55,7.81,7.81,0,0,0,1.71-.71.67.67,0,0,1,.73,0l1.1.88a.65.65,0,0,0,.87-.05l1.12-1.12a.65.65,0,0,0,.05-.87l-.88-1.1a.67.67,0,0,1,0-.73A7.81,7.81,0,0,0,48.13,66a.65.65,0,0,1,.55-.48l1.4-.16a.66.66,0,0,0,.58-.65V63.09A.66.66,0,0,0,50.08,62.44ZM40.69,70a6.12,6.12,0,1,1,6.12-6.12A6.11,6.11,0,0,1,40.69,70Z"/><path class="cls-2" d="M40.17,64.34h.34a1,1,0,0,0,.35,0c.27-.08.34,0,.27.26a1.84,1.84,0,0,0,2.22,2.31.35.35,0,0,1,.23,0,1.53,1.53,0,0,1-.27.17,2.48,2.48,0,0,1-2.41-.26.32.32,0,0,0-.45,0,2.45,2.45,0,0,1-2.41.26.65.65,0,0,1-.25-.2,2.06,2.06,0,0,0,2-.52A1.89,1.89,0,0,0,40.17,64.34Z"/><path class="cls-2" d="M44.77,64.79c0-.1-.08-.2-.11-.29a1.85,1.85,0,0,0-3.06-.73c-.26.25-.26.25-.4-.11a.78.78,0,0,0-.16-.24c-.2-.21-.18-.29.08-.37A1.84,1.84,0,0,0,42,60a.34.34,0,0,1-.08-.21.8.8,0,0,1,.23.1,2.37,2.37,0,0,1,1,2.18.42.42,0,0,0,.27.5,2.41,2.41,0,0,1,1.4,2,1.1,1.1,0,0,1,0,.25Z"/><path class="cls-2" d="M36.48,64.76a6.17,6.17,0,0,1,.09-.62,2.42,2.42,0,0,1,1.34-1.63c.23-.1.28-.22.26-.47a2.39,2.39,0,0,1,1-2.17,2.57,2.57,0,0,1,.29-.15,6.1,6.1,0,0,0-.56,1A1.84,1.84,0,0,0,40.16,63c.36.1.37.14.13.43l-.06.08c-.09.13-.17.26-.25.39l-.38-.3a1.86,1.86,0,0,0-2.9.84c0,.1-.07.2-.11.3Z"/><path class="cls-2" d="M39.31,62.31,39.1,62A2.4,2.4,0,0,1,42,61.67c.37.22.37.23.08.61A2.08,2.08,0,0,0,39.31,62.31Z"/><path class="cls-2" d="M38.68,63.42A2.09,2.09,0,0,0,40,65.76c-.09.41-.16.45-.49.26a2.47,2.47,0,0,1-1.31-2.25C38.19,63.38,38.22,63.36,38.68,63.42Z"/><path class="cls-2" d="M42.7,63.4h.42a2.46,2.46,0,0,1-1.38,2.69c-.31.13-.3-.14-.4-.3A2.14,2.14,0,0,0,42.7,63.4Z"/><path class="cls-1" d="M52.71,83.42l-1-.39a.47.47,0,0,1-.29-.44,5.54,5.54,0,0,0-.16-1.35.49.49,0,0,1,.19-.5l.83-.59a.47.47,0,0,0,.14-.62l-.56-1a.48.48,0,0,0-.6-.21l-.94.4a.5.5,0,0,1-.53-.11,5.45,5.45,0,0,0-1.06-.84.48.48,0,0,1-.22-.48l.17-1a.48.48,0,0,0-.34-.53l-1.11-.32a.48.48,0,0,0-.57.28l-.39,1a.47.47,0,0,1-.44.29,5.54,5.54,0,0,0-1.35.16.5.5,0,0,1-.5-.19l-.59-.83a.47.47,0,0,0-.62-.14l-1,.56a.48.48,0,0,0-.21.6L42,78a.5.5,0,0,1-.11.53,5.16,5.16,0,0,0-.84,1.06.48.48,0,0,1-.48.22l-1-.17A.48.48,0,0,0,39,80l-.32,1.11a.49.49,0,0,0,.28.57l1,.39a.47.47,0,0,1,.29.44,5.54,5.54,0,0,0,.16,1.35.5.5,0,0,1-.19.5l-.83.59a.47.47,0,0,0-.14.62l.56,1a.48.48,0,0,0,.6.21l.94-.4a.5.5,0,0,1,.53.11,5.45,5.45,0,0,0,1.06.84.48.48,0,0,1,.22.48l-.17,1a.49.49,0,0,0,.34.54l1.11.32a.49.49,0,0,0,.57-.28l.39-1a.47.47,0,0,1,.44-.29A5.54,5.54,0,0,0,47.16,88a.49.49,0,0,1,.5.19l.59.83a.47.47,0,0,0,.62.14l1-.56a.48.48,0,0,0,.21-.6l-.4-.94a.5.5,0,0,1,.11-.53,5.45,5.45,0,0,0,.84-1.06.48.48,0,0,1,.48-.22l1,.17a.48.48,0,0,0,.53-.34L53,84A.48.48,0,0,0,52.71,83.42Zm-8.09,3.42a4.46,4.46,0,1,1,5.51-3.06A4.47,4.47,0,0,1,44.62,86.84Z"/><path class="cls-2" d="M43.65,82.94l-.95-1.79.81-.43c0-.11-.1-.21-.15-.33l1-.55c.06.1.12.2.18.32l.83-.44c.41.75.8,1.49,1.21,2.23a1,1,0,0,1,1.16-.15.88.88,0,0,1,.43,1c.38,0,.59.24.53.65l.13,0a.6.6,0,0,1,.52.43.69.69,0,0,1-.22.75.62.62,0,0,1-.7.11c-.05,0-.08-.12-.12-.18s.15-.06.21,0a.46.46,0,0,0,.61-.35c.05-.29-.14-.49-.46-.48s-.3,0-.23-.26,0-.39-.32-.4-.28,0-.2-.27A.67.67,0,0,0,47.6,82a.74.74,0,0,0-.86.21.57.57,0,0,0,.39.39.78.78,0,0,1,.5,1,.44.44,0,0,1,0,.1c.43.2.58.4.55.77a.52.52,0,0,1-.24.44s-.12,0-.18,0,0-.15,0-.18a.42.42,0,0,0,.12-.49.43.43,0,0,0-.39-.29c-.19,0-.2-.06-.16-.24a2.14,2.14,0,0,0,.06-.35.49.49,0,0,0-.28-.48.5.5,0,0,0-.58,0,1.92,1.92,0,0,0-.33.46c-.1.19-.11.2-.29.1a.6.6,0,0,0-.68,0,.58.58,0,0,0-.21.62.5.5,0,0,1,0,.12c0,.12-.09.18-.2.11s-.14-.1-.22-.14a.35.35,0,0,0-.45.1.35.35,0,0,0,0,.46s0,0,0,.06a1.15,1.15,0,0,1,0,.19c-.07,0-.15,0-.2,0a.57.57,0,0,1-.09-.73,2.1,2.1,0,0,1,.25-.28l-.28-.53a.25.25,0,0,0-.29-.17c-.15,0-.3.11-.29.28s-.06.37-.33.42-.33.31-.23.57a.4.4,0,0,0,.53.23c.09,0,.19-.09.23,0s-.07.16-.15.2a.63.63,0,0,1-.83-.38.66.66,0,0,1,.35-.9.23.23,0,0,0,.18-.21C43.1,83.15,43.25,83,43.65,82.94Zm2.19-1.46c-.09-.15-.16-.29-.24-.42l-.42.23.23.42Zm-1.17.63.42-.23-.22-.43-.43.23ZM46,81.77l-.42.24.22.42.43-.23C46.14,82.06,46.07,81.93,46,81.77Zm-2.06.73.42-.23-.23-.42-.42.23Zm1.32-.33-.43.23.24.42.42-.23Zm-.45-1.6c.08.15.15.29.23.42l.42-.23-.23-.42Zm-.09.59-.23-.42-.42.22.22.43Zm-1.39.2c.07.15.14.28.22.43l.43-.23-.23-.43Zm1.19,1.21c-.15.07-.28.15-.43.23l.23.42.43-.23Z"/><path class="cls-2" d="M46.2,84a.41.41,0,0,0-.45.41c0,.06-.08.11-.12.16s-.11-.12-.11-.18a.67.67,0,0,1,.87-.62A.78.78,0,0,1,47,84.87c0,.06-.13.13-.18.12s-.09-.12,0-.21A.54.54,0,0,0,46.2,84Z"/><path class="cls-1" d="M72.25,61.75l-.79-.65a.49.49,0,0,1-.15-.52,5.57,5.57,0,0,0,.25-1.33.47.47,0,0,1,.33-.43l1-.32a.48.48,0,0,0,.31-.56l-.24-1.13a.48.48,0,0,0-.51-.38l-1,.1a.48.48,0,0,1-.47-.26,5.71,5.71,0,0,0-.77-1.12.47.47,0,0,1-.07-.53l.46-.93a.47.47,0,0,0-.16-.61l-1-.63a.45.45,0,0,0-.62.09l-.66.8a.49.49,0,0,1-.52.15,5.5,5.5,0,0,0-1.33-.26.48.48,0,0,1-.43-.32l-.32-1a.48.48,0,0,0-.55-.32l-1.14.24a.48.48,0,0,0-.38.51l.1,1a.47.47,0,0,1-.26.47,5.31,5.31,0,0,0-1.12.77.49.49,0,0,1-.53.07l-.92-.47a.49.49,0,0,0-.62.17l-.63,1a.48.48,0,0,0,.09.63l.8.66a.47.47,0,0,1,.15.51,5.19,5.19,0,0,0-.25,1.34.5.5,0,0,1-.33.42l-1,.33a.47.47,0,0,0-.32.55l.24,1.13a.48.48,0,0,0,.51.38l1-.09a.47.47,0,0,1,.47.25,5.65,5.65,0,0,0,.77,1.13.47.47,0,0,1,.07.53l-.47.92a.49.49,0,0,0,.17.61l1,.64a.48.48,0,0,0,.63-.1l.66-.79a.47.47,0,0,1,.51-.15,5.65,5.65,0,0,0,1.34.25.47.47,0,0,1,.42.33l.33,1a.46.46,0,0,0,.55.32L68,65.9a.47.47,0,0,0,.37-.51l-.09-1a.48.48,0,0,1,.25-.47,5.6,5.6,0,0,0,1.13-.76.47.47,0,0,1,.53-.07l.92.46a.46.46,0,0,0,.61-.17l.64-1A.48.48,0,0,0,72.25,61.75Zm-8.78.88a4.48,4.48,0,1,1,6.2-1.3A4.48,4.48,0,0,1,63.47,62.63Z"/><path class="cls-2" d="M45.9,43.7a1,1,0,0,1,1.19,0,3.65,3.65,0,0,0,1.79.91,2.91,2.91,0,0,0,2.77-1c.05-.06,0-.17.06-.25s-.21,0-.28,0-.35.27-.53.39a1.41,1.41,0,0,1-1.42.27,3.66,3.66,0,0,1-.39-.2l.89-.7c.47-.37,1-.73,1.42-1.11a1.73,1.73,0,0,1,1.73-.3c.44.14.87.3,1.3.45.11,0,.17.1.14.22A4.34,4.34,0,0,1,51.47,46a4.62,4.62,0,0,1-4.86-1.26,4,4,0,0,1-.4-.52C46.1,44.07,46,43.88,45.9,43.7Z"/><path class="cls-2" d="M48.65,44.11,48.3,44a5,5,0,0,1,3.83-3.1,5.9,5.9,0,0,0-3.1,1.3,1.52,1.52,0,0,1,0-1.09,1.89,1.89,0,0,1,1.6-1.4,4.89,4.89,0,0,1,4,1.25,6.27,6.27,0,0,0-.68.3,1.24,1.24,0,0,1-1,.15,1.75,1.75,0,0,0-1.66.38c-.41.35-.86.65-1.28,1-.13.1-.24.14-.38,0a.16.16,0,0,0-.27.05c-.16.27-.33.54-.47.82A2.72,2.72,0,0,0,48.65,44.11Z"/><path class="cls-2" d="M49.06,35.82c.07.42.12.86.22,1.28s.28,1,.41,1.48a1.79,1.79,0,0,1-.87,1.9,7,7,0,0,1-.35-3,6.09,6.09,0,0,0-.07,3.06,1.46,1.46,0,0,1-1-.69,1.62,1.62,0,0,1-.26-1.38A4.74,4.74,0,0,1,49,35.82Z"/><path class="cls-2" d="M48.48,42.27a1.94,1.94,0,0,1-1.1.94,1.19,1.19,0,0,1-.62,0l-2.47-.57-.07,0A4.27,4.27,0,0,1,45.76,41a4,4,0,0,1,1.13-.48,1.54,1.54,0,0,1,1.71,1.22,1.2,1.2,0,0,1,0,.19c-.48,0-1-.07-1.42,0a7.5,7.5,0,0,0-1.4.2A8.23,8.23,0,0,1,48.48,42.27Z"/><path class="cls-1" d="M79.26,79.36,78.4,79a.44.44,0,0,1-.26-.4A5.43,5.43,0,0,0,78,77.38a.44.44,0,0,1,.17-.45l.76-.53a.43.43,0,0,0,.13-.56l-.5-.92a.43.43,0,0,0-.54-.19l-.86.35a.45.45,0,0,1-.47-.1,5.08,5.08,0,0,0-1-.77.44.44,0,0,1-.2-.44l.16-.92a.42.42,0,0,0-.3-.48l-1-.3a.44.44,0,0,0-.52.25l-.36.85a.45.45,0,0,1-.41.27,4.88,4.88,0,0,0-1.21.12.42.42,0,0,1-.45-.17l-.54-.76a.42.42,0,0,0-.55-.13l-.92.5a.43.43,0,0,0-.19.54l.35.86a.44.44,0,0,1-.11.47,4.73,4.73,0,0,0-.76,1,.43.43,0,0,1-.44.19l-.92-.16a.44.44,0,0,0-.48.3l-.3,1a.42.42,0,0,0,.25.51l.85.36a.43.43,0,0,1,.26.41,5.56,5.56,0,0,0,.13,1.22.42.42,0,0,1-.17.45l-.76.53a.44.44,0,0,0-.13.56l.5.92a.43.43,0,0,0,.54.19l.86-.35a.42.42,0,0,1,.47.1,5.08,5.08,0,0,0,.95.77.42.42,0,0,1,.2.44l-.16.91a.43.43,0,0,0,.3.49l1,.29a.42.42,0,0,0,.52-.24l.36-.86a.44.44,0,0,1,.41-.26,4.88,4.88,0,0,0,1.21-.13.45.45,0,0,1,.46.17l.53.76a.42.42,0,0,0,.56.13l.91-.5a.43.43,0,0,0,.2-.54l-.35-.86a.42.42,0,0,1,.1-.47,5.08,5.08,0,0,0,.77-1,.42.42,0,0,1,.44-.2l.91.16a.44.44,0,0,0,.49-.3l.29-1A.44.44,0,0,0,79.26,79.36Zm-7.35,3a4,4,0,1,1,5-2.73A4,4,0,0,1,71.91,82.39Z"/><path class="cls-2" d="M102.74,85.34v-.81h.45a2.42,2.42,0,0,1-.82-.77h.07c.18,0,.35,0,.53,0a.26.26,0,0,1,.19.07,1.6,1.6,0,0,0,1.25.4,1.65,1.65,0,0,0,1.36-1,1.68,1.68,0,0,0-.53-2.11l-.06,0,.25-.48a2.21,2.21,0,0,1,1.06,2,2.25,2.25,0,0,1-1.19,1.92h.43v.81Z"/><path class="cls-2" d="M104.94,78.85l0,0,.41.21-.16.32-.5-.25c0-.09.09-.17.13-.25a.17.17,0,0,0,0-.07Z"/><path class="cls-2" d="M104.51,79.34l1,.51c-.37.73-.73,1.46-1.1,2.2l-1-.52Z"/><path class="cls-2" d="M104,83c0,.14,0,.28,0,.42s0,0,0,0,0,0,0,0h-1.65c-.06,0-.07,0-.07-.07V83Z"/><path class="cls-2" d="M103.69,82l-.12.25c-.13-.07-.26-.14-.4-.2l.12-.25Z"/><path class="cls-2" d="M103.83,82.24l.09-.16.4.2-.09.16Z"/><path class="cls-1" d="M63.48,72.34l-.73-.08a.34.34,0,0,1-.3-.24,4,4,0,0,0-.38-.9.33.33,0,0,1,0-.38l.45-.59a.33.33,0,0,0,0-.45l-.59-.59a.34.34,0,0,0-.46,0l-.57.46a.35.35,0,0,1-.39,0,3.68,3.68,0,0,0-.9-.36.35.35,0,0,1-.26-.29l-.09-.74a.33.33,0,0,0-.35-.29h-.83a.35.35,0,0,0-.34.31l-.07.73a.34.34,0,0,1-.25.3,4.11,4.11,0,0,0-.89.38.35.35,0,0,1-.39,0l-.58-.45a.34.34,0,0,0-.46,0l-.58.6a.34.34,0,0,0,0,.45l.47.57a.37.37,0,0,1,0,.39,4.16,4.16,0,0,0-.37.9.34.34,0,0,1-.28.26l-.74.09a.35.35,0,0,0-.3.35v.83a.36.36,0,0,0,.31.34l.74.07a.33.33,0,0,1,.29.25,4.71,4.71,0,0,0,.39.89.37.37,0,0,1,0,.39l-.46.58a.36.36,0,0,0,0,.46l.6.58a.35.35,0,0,0,.46,0l.57-.47a.35.35,0,0,1,.38,0,4.24,4.24,0,0,0,.91.37.34.34,0,0,1,.26.28l.09.74a.34.34,0,0,0,.34.3h.84a.34.34,0,0,0,.33-.31l.08-.74a.33.33,0,0,1,.24-.29,4.53,4.53,0,0,0,.9-.39.35.35,0,0,1,.38,0l.59.46a.35.35,0,0,0,.45,0l.59-.6a.34.34,0,0,0,0-.46l-.46-.57a.33.33,0,0,1,0-.38,3.75,3.75,0,0,0,.36-.91.33.33,0,0,1,.29-.25l.74-.1a.33.33,0,0,0,.29-.34v-.84A.33.33,0,0,0,63.48,72.34Zm-4.88,4a3.22,3.22,0,1,1,3.17-3.26A3.23,3.23,0,0,1,58.6,76.38Z"/><path class="cls-1" d="M60.38,96.43,59.8,96a.35.35,0,0,1-.11-.37,4,4,0,0,0,.16-1,.35.35,0,0,1,.23-.31l.7-.25a.34.34,0,0,0,.22-.4l-.18-.81a.34.34,0,0,0-.38-.26l-.73.08a.35.35,0,0,1-.34-.18,4.48,4.48,0,0,0-.57-.8.35.35,0,0,1,0-.38l.32-.66a.35.35,0,0,0-.13-.44l-.7-.45a.34.34,0,0,0-.45.08l-.47.58a.33.33,0,0,1-.36.11,4,4,0,0,0-1-.16.36.36,0,0,1-.31-.23l-.24-.7a.34.34,0,0,0-.4-.22l-.81.18a.35.35,0,0,0-.27.37l.09.74a.36.36,0,0,1-.18.34,3.43,3.43,0,0,0-.8.57.35.35,0,0,1-.38,0L52,91.17a.35.35,0,0,0-.44.13l-.44.7a.35.35,0,0,0,.07.45l.58.46a.35.35,0,0,1,.12.37,4,4,0,0,0-.17,1,.32.32,0,0,1-.23.31l-.69.25a.35.35,0,0,0-.23.4l.19.81a.36.36,0,0,0,.37.27l.74-.09a.36.36,0,0,1,.34.18,4,4,0,0,0,.56.8.33.33,0,0,1,.06.38l-.32.67a.35.35,0,0,0,.12.44l.71.44a.34.34,0,0,0,.45-.08l.46-.58a.36.36,0,0,1,.37-.11,3.51,3.51,0,0,0,1,.16.36.36,0,0,1,.31.23l.24.7a.34.34,0,0,0,.4.22l.82-.18a.34.34,0,0,0,.26-.37l-.08-.74a.34.34,0,0,1,.18-.34,4.28,4.28,0,0,0,.8-.56.33.33,0,0,1,.38-.06l.66.32a.34.34,0,0,0,.44-.13l.45-.7A.34.34,0,0,0,60.38,96.43Zm-6.29.73a3.21,3.21,0,1,1,4.43-1A3.2,3.2,0,0,1,54.09,97.16Z"/><path class="cls-1" d="M99.73,94.62,99,94.4a.36.36,0,0,1-.24-.3,3.73,3.73,0,0,0-.19-.95.34.34,0,0,1,.1-.38l.56-.48a.34.34,0,0,0,.06-.45l-.47-.69A.35.35,0,0,0,98.4,91l-.66.34a.33.33,0,0,1-.38,0,4.15,4.15,0,0,0-.82-.54.35.35,0,0,1-.19-.33l.06-.74a.35.35,0,0,0-.28-.36l-.82-.16a.34.34,0,0,0-.39.24l-.22.71a.36.36,0,0,1-.3.24,3.89,3.89,0,0,0-1,.19.33.33,0,0,1-.37-.1l-.48-.56a.34.34,0,0,0-.45-.06l-.69.47a.34.34,0,0,0-.11.44l.34.66a.33.33,0,0,1,0,.38,4.15,4.15,0,0,0-.54.82.35.35,0,0,1-.33.19L90,92.77a.35.35,0,0,0-.36.28l-.16.82a.34.34,0,0,0,.24.39l.7.22a.33.33,0,0,1,.24.3,4.43,4.43,0,0,0,.2,1,.33.33,0,0,1-.1.37l-.56.48a.34.34,0,0,0-.06.45l.47.69a.34.34,0,0,0,.44.11l.66-.34a.33.33,0,0,1,.38,0,4.39,4.39,0,0,0,.81.54.34.34,0,0,1,.2.33l-.06.74a.35.35,0,0,0,.28.36l.82.16a.34.34,0,0,0,.39-.24l.22-.7a.33.33,0,0,1,.3-.24,4.22,4.22,0,0,0,1-.2.34.34,0,0,1,.38.1l.48.56a.34.34,0,0,0,.45.06l.69-.47a.35.35,0,0,0,.11-.44l-.34-.66a.33.33,0,0,1,0-.38,3.71,3.71,0,0,0,.53-.82.37.37,0,0,1,.34-.19l.74.06a.35.35,0,0,0,.36-.28L100,95A.34.34,0,0,0,99.73,94.62Zm-5.59,3A3.22,3.22,0,1,1,97.9,95,3.22,3.22,0,0,1,94.14,97.6Z"/><path class="cls-1" d="M93.1,82.09l-.54-.45a.35.35,0,0,1-.1-.36,3.58,3.58,0,0,0,.18-.91.34.34,0,0,1,.22-.29l.68-.21a.33.33,0,0,0,.21-.38l-.15-.78a.34.34,0,0,0-.35-.26l-.7.06a.31.31,0,0,1-.32-.18,4.34,4.34,0,0,0-.52-.77.32.32,0,0,1,0-.36l.32-.63a.32.32,0,0,0-.11-.42l-.66-.44a.33.33,0,0,0-.43.07l-.45.54a.34.34,0,0,1-.35.1,3.66,3.66,0,0,0-.92-.18.34.34,0,0,1-.29-.23l-.21-.67a.33.33,0,0,0-.38-.22l-.77.16a.33.33,0,0,0-.27.35l.07.7a.33.33,0,0,1-.18.32,3.72,3.72,0,0,0-.77.52.34.34,0,0,1-.37,0l-.62-.32a.33.33,0,0,0-.43.11l-.43.66a.33.33,0,0,0,.06.43l.54.45a.33.33,0,0,1,.1.35,3.67,3.67,0,0,0-.18.91.33.33,0,0,1-.22.29l-.67.22a.32.32,0,0,0-.22.38l.15.77a.32.32,0,0,0,.35.26l.7-.06a.32.32,0,0,1,.32.18,4.34,4.34,0,0,0,.52.77.32.32,0,0,1,0,.36l-.32.63a.32.32,0,0,0,.11.42l.66.44a.32.32,0,0,0,.43-.06l.45-.54a.34.34,0,0,1,.35-.1,4.16,4.16,0,0,0,.92.18.32.32,0,0,1,.29.22l.21.67a.32.32,0,0,0,.38.22l.78-.16a.33.33,0,0,0,.26-.34l-.07-.71a.33.33,0,0,1,.18-.32,3.36,3.36,0,0,0,.77-.52.36.36,0,0,1,.37,0l.63.32a.32.32,0,0,0,.42-.11l.43-.66A.31.31,0,0,0,93.1,82.09Zm-6,.55a3.06,3.06,0,1,1,4.25-.86A3.07,3.07,0,0,1,87.09,82.64Z"/><path class="cls-1" d="M111.38,45.19l-1.32-.94a.75.75,0,0,1-.29-.79,8.46,8.46,0,0,0,.24-2.12.74.74,0,0,1,.46-.7L112,40a.75.75,0,0,0,.44-.9l-.5-1.75a.76.76,0,0,0-.85-.54l-1.6.27a.75.75,0,0,1-.76-.35,8.87,8.87,0,0,0-1.33-1.67.76.76,0,0,1-.17-.83l.62-1.49a.75.75,0,0,0-.32-.95l-1.6-.88a.74.74,0,0,0-1,.22L104,32.46a.76.76,0,0,1-.79.3,9.09,9.09,0,0,0-2.12-.25.75.75,0,0,1-.71-.46l-.62-1.5a.74.74,0,0,0-.9-.43l-1.75.5a.75.75,0,0,0-.53.84l.27,1.6a.76.76,0,0,1-.36.77,9.15,9.15,0,0,0-1.67,1.32.74.74,0,0,1-.82.17l-1.5-.62a.74.74,0,0,0-.94.33l-.89,1.59a.76.76,0,0,0,.22,1l1.32.94a.75.75,0,0,1,.29.79,8.46,8.46,0,0,0-.24,2.12.74.74,0,0,1-.47.7l-1.49.62a.75.75,0,0,0-.44.9l.5,1.75a.76.76,0,0,0,.85.54l1.6-.27a.75.75,0,0,1,.76.35,8.49,8.49,0,0,0,1.33,1.67.76.76,0,0,1,.17.83L94.43,50a.77.77,0,0,0,.33.95l1.6.88a.74.74,0,0,0,1-.22l.94-1.32a.77.77,0,0,1,.79-.29,9,9,0,0,0,2.12.25.75.75,0,0,1,.71.46l.61,1.5a.75.75,0,0,0,.9.43l1.76-.5a.75.75,0,0,0,.53-.84l-.27-1.6a.76.76,0,0,1,.36-.77,9.15,9.15,0,0,0,1.67-1.32.74.74,0,0,1,.82-.17l1.5.62a.75.75,0,0,0,.94-.33l.89-1.59A.76.76,0,0,0,111.38,45.19ZM97.71,47.54a7,7,0,1,1,9.57-2.73A7,7,0,0,1,97.71,47.54Z"/><path class="cls-1" d="M60.14,39.36l-1.61-.13a.74.74,0,0,1-.66-.52,9.06,9.06,0,0,0-.89-2,.74.74,0,0,1,0-.84l1-1.3a.74.74,0,0,0-.09-1l-1.33-1.25a.75.75,0,0,0-1,0l-1.23,1.06a.76.76,0,0,1-.84.09,8.75,8.75,0,0,0-2-.75.73.73,0,0,1-.57-.62l-.24-1.6a.76.76,0,0,0-.77-.64L48.09,30a.76.76,0,0,0-.72.7l-.13,1.61a.74.74,0,0,1-.52.66,9.06,9.06,0,0,0-1.95.89.76.76,0,0,1-.84,0l-1.3-1a.75.75,0,0,0-1,.09l-1.24,1.33a.75.75,0,0,0,0,1l1.05,1.23a.76.76,0,0,1,.1.84,8.75,8.75,0,0,0-.75,2,.75.75,0,0,1-.62.57l-1.6.24a.76.76,0,0,0-.64.77L38,42.71a.75.75,0,0,0,.69.72l1.62.13a.74.74,0,0,1,.66.52A9.22,9.22,0,0,0,41.82,46a.77.77,0,0,1,0,.85l-1,1.3a.74.74,0,0,0,.09,1l1.33,1.25a.75.75,0,0,0,1,0l1.23-1.06a.76.76,0,0,1,.84-.09,8.75,8.75,0,0,0,2,.75.75.75,0,0,1,.57.62l.24,1.6a.74.74,0,0,0,.77.64l1.82-.06a.76.76,0,0,0,.72-.7l.12-1.61a.77.77,0,0,1,.53-.66A8.77,8.77,0,0,0,54,49a.76.76,0,0,1,.84,0l1.31,1a.74.74,0,0,0,1-.09l1.24-1.33a.75.75,0,0,0,0-1l-1.06-1.23a.76.76,0,0,1-.09-.84,9.25,9.25,0,0,0,.75-2,.73.73,0,0,1,.62-.57l1.6-.24a.76.76,0,0,0,.64-.77l-.07-1.82A.75.75,0,0,0,60.14,39.36ZM49.65,48.43a7,7,0,1,1,6.78-7.28A7,7,0,0,1,49.65,48.43Z"/><path class="cls-1" d="M88.09,29.21,86.19,29a.88.88,0,0,1-.75-.65,10.34,10.34,0,0,0-1-2.32.91.91,0,0,1,.07-1l1.19-1.49a.9.9,0,0,0-.06-1.18l-1.53-1.52A.89.89,0,0,0,83,20.77L81.47,22a.89.89,0,0,1-1,.07,10.58,10.58,0,0,0-2.33-1,.89.89,0,0,1-.65-.75l-.21-1.9a.9.9,0,0,0-.89-.79H74.25a.88.88,0,0,0-.88.78l-.21,1.9a.9.9,0,0,1-.64.76,10.2,10.2,0,0,0-2.33,1,.87.87,0,0,1-1-.07l-1.5-1.19a.89.89,0,0,0-1.18.07L65,22.38a.89.89,0,0,0-.06,1.18l1.19,1.49a.9.9,0,0,1,.08,1,10.61,10.61,0,0,0-1,2.33.88.88,0,0,1-.75.65l-1.9.22a.88.88,0,0,0-.78.88v2.15a.89.89,0,0,0,.78.88l1.9.21a.9.9,0,0,1,.76.65,10.61,10.61,0,0,0,1,2.33.88.88,0,0,1-.08,1L65,38.82A.89.89,0,0,0,65,40l1.52,1.52a.89.89,0,0,0,1.18.07l1.49-1.2a.91.91,0,0,1,1-.07,10.2,10.2,0,0,0,2.33,1,.88.88,0,0,1,.64.75l.22,1.9a.89.89,0,0,0,.88.79h2.15a.88.88,0,0,0,.88-.78l.21-1.9a.9.9,0,0,1,.65-.76,10.58,10.58,0,0,0,2.33-1,.89.89,0,0,1,1,.07L83,41.57a.87.87,0,0,0,1.17-.07L85.68,40a.89.89,0,0,0,.07-1.18l-1.19-1.49a.88.88,0,0,1-.08-1,10.58,10.58,0,0,0,1-2.33.89.89,0,0,1,.75-.65l1.9-.22a.89.89,0,0,0,.79-.88V30.09A.89.89,0,0,0,88.09,29.21ZM75.35,39.48a8.3,8.3,0,1,1,8.29-8.31A8.31,8.31,0,0,1,75.35,39.48Z"/><path class="cls-1" d="M111,83.16l-.91-.39a.45.45,0,0,1-.28-.44,5.66,5.66,0,0,0-.13-1.31.47.47,0,0,1,.19-.49l.82-.57a.47.47,0,0,0,.15-.6l-.53-1a.46.46,0,0,0-.58-.21l-.93.37a.48.48,0,0,1-.51-.11,5.19,5.19,0,0,0-1-.84.47.47,0,0,1-.21-.48l.18-1a.47.47,0,0,0-.32-.53l-1.08-.32a.47.47,0,0,0-.56.25l-.39.92a.45.45,0,0,1-.44.28,5.66,5.66,0,0,0-1.31.13.47.47,0,0,1-.49-.19l-.56-.82a.47.47,0,0,0-.6-.15l-1,.53a.47.47,0,0,0-.21.58l.37.93a.48.48,0,0,1-.11.51,5.19,5.19,0,0,0-.84,1,.47.47,0,0,1-.48.21l-1-.18a.46.46,0,0,0-.53.32l-.32,1.08a.45.45,0,0,0,.26.55l.92.4a.46.46,0,0,1,.27.44A5.66,5.66,0,0,0,99,83.39a.47.47,0,0,1-.19.49l-.82.56a.46.46,0,0,0-.14.6l.53,1a.47.47,0,0,0,.58.21l.92-.37a.46.46,0,0,1,.51.11,5.5,5.5,0,0,0,1,.84.47.47,0,0,1,.21.47l-.18,1a.46.46,0,0,0,.32.52l1.08.33a.46.46,0,0,0,.56-.26l.39-.92a.49.49,0,0,1,.44-.28,5.16,5.16,0,0,0,1.31-.12.46.46,0,0,1,.49.18l.57.83a.47.47,0,0,0,.6.14l1-.53a.46.46,0,0,0,.21-.58l-.37-.93a.47.47,0,0,1,.11-.5,5.84,5.84,0,0,0,.84-1,.46.46,0,0,1,.48-.21l1,.18a.48.48,0,0,0,.53-.32l.32-1.08A.46.46,0,0,0,111,83.16Zm-7.94,3.2a4.34,4.34,0,1,1,5.42-2.9A4.34,4.34,0,0,1,103.09,86.36Z"/><path class="cls-1" d="M104.29,44.9c-.09-.13-.2-.24-.29-.36a.42.42,0,0,1-.1-.2c0-.57,0-1.13,0-1.7.19,0,.47,0,.44-.25,0-.1-.24-.19-.43-.32,0-.6,0-1.29,0-2,.17,0,.43,0,.44-.21s-.27-.18-.45-.25c0-.41,0-.82,0-1.23a1.1,1.1,0,0,1,.31-1,.36.36,0,0,0,.1-.33c0-.07-.2-.12-.31-.12H98.19c-.1,0-.24.06-.27.13s0,.2.06.29a.29.29,0,0,0,.1.12.85.85,0,0,1,.26.72c0,.37,0,.74,0,1.11,0,.2,0,.33-.26.32-.06,0-.18.12-.18.18a.36.36,0,0,0,.18.21.62.62,0,0,0,.24,0c0,.71,0,1.4,0,2.1l-.07-.06c-.12.1-.33.2-.34.31,0,.26.25.18.43.22,0,.44,0,.86,0,1.28a1.06,1.06,0,0,1-.31.91.37.37,0,0,0-.09.32c0,.08.21.12.32.12h5.83C104.34,45.26,104.42,45.1,104.29,44.9Zm-5.7-7.48,5,0,0,.08c-.12.06-.24.18-.36.18-1.46,0-2.92,0-4.38,0-.11,0-.23-.12-.34-.18Zm4,3.67v0a1.26,1.26,0,0,1-.05.28,1.32,1.32,0,0,1-.21.45,1.41,1.41,0,0,1-.44.4,1.33,1.33,0,0,1-.24.11.86.86,0,0,1-.23.06.9.9,0,0,1-.16,0h-.28a1.4,1.4,0,0,1-.35-.1,1.36,1.36,0,0,1-.37-.21,2.39,2.39,0,0,1-.22-.23,1.2,1.2,0,0,1-.16-.27,1.09,1.09,0,0,1-.12-.36.88.88,0,0,1,0-.16v-.2l0-.2a1.3,1.3,0,0,1,.21-.48,1.33,1.33,0,0,1,.21-.26l.21-.16a1,1,0,0,1,.28-.13l.24-.07.15,0h.2l.15,0a1.17,1.17,0,0,1,.33.11,1.1,1.1,0,0,1,.26.15,1.09,1.09,0,0,1,.25.23,1.17,1.17,0,0,1,.19.3,1.21,1.21,0,0,1,.12.38l0,.15Zm-3.93,3.78A.3.3,0,0,1,99,44.6c1.44,0,2.89,0,4.33,0a.35.35,0,0,1,.38.27Z"/><path class="cls-1" d="M100.64,41.07l-.74.1a1.08,1.08,0,0,0,.17.5,1.39,1.39,0,0,0,.4.4c.13-.22.26-.43.38-.65A.48.48,0,0,1,100.64,41.07Z"/><path class="cls-1" d="M100.6,40c.07.14.14.28.22.41a.54.54,0,0,0,.07.13.46.46,0,0,1,.2,0,.34.34,0,0,1,.2,0c.12-.22.23-.44.34-.66l-.13,0a1.4,1.4,0,0,0-.5-.06,1.32,1.32,0,0,0-.44.13s0,0,0,0Z"/><path class="cls-1" d="M101.64,41.06s0,0,0,0a.42.42,0,0,1-.12.26l-.07.06.44.59a1.15,1.15,0,0,0,.41-.54,1.05,1.05,0,0,0,.08-.35h-.11Z"/><path class="cls-1" d="M101.12,40.72a.3.3,0,0,0,0,.59.3.3,0,0,0,.29-.29A.29.29,0,0,0,101.12,40.72Z"/><path class="cls-1" d="M95.08,59.74l-1.38-.25a.64.64,0,0,1-.52-.5,8,8,0,0,0-.59-1.75.62.62,0,0,1,.1-.71l.93-1a.64.64,0,0,0,0-.86l-1-1.18a.65.65,0,0,0-.86-.1l-1.14.8a.67.67,0,0,1-.73,0,7.44,7.44,0,0,0-1.65-.81.66.66,0,0,1-.44-.58l-.07-1.4a.65.65,0,0,0-.61-.61l-1.56-.1a.65.65,0,0,0-.68.54l-.24,1.37a.65.65,0,0,1-.51.52,7.46,7.46,0,0,0-1.74.6.65.65,0,0,1-.72-.1l-1-.94a.64.64,0,0,0-.86,0l-1.18,1a.64.64,0,0,0-.1.85l.8,1.15a.65.65,0,0,1,0,.72,7.51,7.51,0,0,0-.81,1.66.64.64,0,0,1-.58.43l-1.39.07a.66.66,0,0,0-.62.61l-.09,1.57a.64.64,0,0,0,.53.68l1.37.24a.65.65,0,0,1,.52.5,8,8,0,0,0,.6,1.75.64.64,0,0,1-.1.72l-.94,1a.64.64,0,0,0,0,.86l1,1.18a.65.65,0,0,0,.86.1L80.8,67a.67.67,0,0,1,.73,0,7,7,0,0,0,1.65.81.67.67,0,0,1,.44.58l.07,1.4a.63.63,0,0,0,.6.61l1.57.1a.65.65,0,0,0,.68-.53l.24-1.38a.65.65,0,0,1,.51-.52,7.46,7.46,0,0,0,1.74-.6.68.68,0,0,1,.72.1l1,.94a.64.64,0,0,0,.86,0l1.18-1a.66.66,0,0,0,.1-.86l-.8-1.15a.63.63,0,0,1,0-.72,8,8,0,0,0,.81-1.66.63.63,0,0,1,.58-.43l1.39-.07a.65.65,0,0,0,.61-.61l.1-1.57A.63.63,0,0,0,95.08,59.74Zm-9.76,6.89A6.06,6.06,0,1,1,91.75,61,6.05,6.05,0,0,1,85.32,66.63Z"/><path class="cls-1" d="M107.76,64l.11-.09a1.53,1.53,0,0,1,.46-.28.64.64,0,0,1,.73.16,2.47,2.47,0,0,1,.28.38c.12.2.21.4.32.6a1.73,1.73,0,0,0,.33.47.29.29,0,0,0,.46,0,1.84,1.84,0,0,0,.41-.55l.12-.25c0-.07,0-.12,0-.17a.23.23,0,0,0-.07-.14.2.2,0,0,1,0-.27c0-.15,0-.18.09-.25s0,0,0-.06.09-.2.21-.14l.51.27.26.13c.06,0,.13.07.13.16s-.06.12-.12.15,0,.17-.17.22-.07.14-.22.13a.52.52,0,0,0-.17,0l0,0c-.12,0-.15.08-.19.17a2.4,2.4,0,0,1-.46.68.65.65,0,0,1-.3.18.5.5,0,0,1-.48-.12,1.79,1.79,0,0,1-.38-.52l-.32-.6a1.61,1.61,0,0,0-.32-.42.44.44,0,0,0-.47-.06,1.4,1.4,0,0,0-.41.29l.15.09.63.37.08.06a.16.16,0,0,1,0,.25c-.3.37-.59.75-.89,1.13s-.49.62-.74.92l0,0a.22.22,0,0,1-.33.06l-1.28-.75-.37-.22a.21.21,0,0,1-.1-.31l1-2.43a.18.18,0,0,1,.29-.11l.34.2.91.54Zm.55.93a.21.21,0,0,0-.11-.18.15.15,0,0,0-.18,0,.32.32,0,0,0-.1.1c-.2.25-.4.51-.59.77l-.49.65a.23.23,0,0,0-.06.18.19.19,0,0,0,.15.15.2.2,0,0,0,.21-.1L108.25,65Zm-2.73.75c0,.15.1.24.22.21a.2.2,0,0,0,.15-.12l.09-.21c.21-.49.43-1,.64-1.46a.22.22,0,0,0,0-.14.17.17,0,0,0-.27-.14.3.3,0,0,0-.11.14c-.24.54-.48,1.08-.71,1.63A.19.19,0,0,0,105.58,65.66Zm1.93-1.23a.22.22,0,0,0-.11-.19.15.15,0,0,0-.17,0,.53.53,0,0,0-.12.14l-.71,1.2c-.07.12-.14.23-.2.35a.19.19,0,0,0,.06.25.18.18,0,0,0,.24,0l0-.06.92-1.56A.76.76,0,0,0,107.51,64.43Z"/><path class="cls-1" d="M113.75,62a1,1,0,0,1-.39.75A3.83,3.83,0,0,1,113,63a2.33,2.33,0,0,0-.75.68c0,.08-.12.09-.22,0l-.53-.28-.23-.13c-.11-.05-.13-.11-.09-.22s0-.15.07-.22a2.22,2.22,0,0,0,.07-.77,1.76,1.76,0,0,1,0-.72.94.94,0,0,1,.77-.66,1.49,1.49,0,0,1,.81.12,1.31,1.31,0,0,1,.6.49A1.07,1.07,0,0,1,113.75,62Zm-.35,0s0-.09,0-.13a.73.73,0,0,0-.35-.52.15.15,0,0,0-.17,0c-.09.07-.08.18,0,.25a.44.44,0,0,1,.2.48.14.14,0,0,0,.1.18.15.15,0,0,0,.18-.11A.9.9,0,0,0,113.4,62Z"/><path class="cls-1" d="M108.35,62.86l.26,0,.83.08a.17.17,0,0,1,.14.25.15.15,0,0,1-.16.08c-.14,0-.28,0-.41,0l-.87-.07-.9-.09-.59,0-.11,0a.15.15,0,0,1-.14-.18.15.15,0,0,1,.18-.15l.74.07.36,0v-.2c0-.15.08-.21.24-.2l.31,0a.17.17,0,0,1,.15.2Z"/><path class="cls-1" d="M117.87,59.11l-1.39.35a.66.66,0,0,1-.7-.25,7.75,7.75,0,0,0-1.3-1.38.66.66,0,0,1-.21-.72l.44-1.37a.67.67,0,0,0-.36-.81l-1.48-.67a.66.66,0,0,0-.85.27l-.73,1.23a.67.67,0,0,1-.68.32,8,8,0,0,0-1.9-.06.66.66,0,0,1-.66-.36l-.65-1.28a.67.67,0,0,0-.83-.32l-1.52.58a.67.67,0,0,0-.41.78l.36,1.4a.68.68,0,0,1-.26.7,8.11,8.11,0,0,0-1.38,1.3.66.66,0,0,1-.72.21l-1.37-.44a.67.67,0,0,0-.81.36l-.67,1.48a.67.67,0,0,0,.27.85l1.24.73a.66.66,0,0,1,.31.68,8,8,0,0,0,0,1.9.67.67,0,0,1-.36.65l-1.28.66a.66.66,0,0,0-.32.83l.57,1.52a.68.68,0,0,0,.79.41l1.39-.36a.68.68,0,0,1,.71.26,7.73,7.73,0,0,0,1.3,1.38.67.67,0,0,1,.21.72L104.13,72a.66.66,0,0,0,.36.81l1.47.67a.67.67,0,0,0,.85-.27l.74-1.24a.67.67,0,0,1,.67-.32,7.55,7.55,0,0,0,1.9.06.69.69,0,0,1,.66.36l.66,1.28a.66.66,0,0,0,.82.32l1.52-.57a.67.67,0,0,0,.41-.79L113.83,71a.69.69,0,0,1,.26-.71,7.41,7.41,0,0,0,1.38-1.3.68.68,0,0,1,.72-.21l1.37.44a.66.66,0,0,0,.81-.36l.67-1.47a.67.67,0,0,0-.27-.85l-1.23-.74a.67.67,0,0,1-.32-.68,8.51,8.51,0,0,0,.06-1.89.66.66,0,0,1,.36-.66l1.28-.66a.67.67,0,0,0,.32-.83l-.58-1.51A.67.67,0,0,0,117.87,59.11Zm-6.24,10.62a6.25,6.25,0,1,1,3.63-8.06A6.25,6.25,0,0,1,111.63,69.73Z"/><path class="cls-1" d="M72.88,36.21h-1a2.36,2.36,0,0,1-2.27-1.65,2.24,2.24,0,0,1-.1-.89,2.34,2.34,0,0,1,.3-1c.21-.38.43-.76.65-1.14a.18.18,0,0,0,0-.09.15.15,0,0,0-.08-.18l-.32-.18A.24.24,0,0,1,70,31a.16.16,0,0,1,.11-.22l.37-.1,1.44-.39H72a.15.15,0,0,1,.13.14c0,.15.09.3.13.45l.36,1.33s0,0,0,.06a.15.15,0,0,1-.06.15.17.17,0,0,1-.18,0l-.32-.18-.09,0a.14.14,0,0,0-.15.08l-.18.31-.48.82a.92.92,0,0,0-.11.33.73.73,0,0,0,.07.41.74.74,0,0,0,.7.44c.74,0,1.48,0,2.23,0a.82.82,0,0,1,.46.13.77.77,0,0,1,.38.68.8.8,0,0,1-.72.78H72.88Z"/><path class="cls-1" d="M72.08,29a.74.74,0,0,1,.1-.4l.51-.88c.21-.37.41-.74.63-1.1a2.3,2.3,0,0,1,1.53-1.08,2.13,2.13,0,0,1,.71,0,2.29,2.29,0,0,1,1.82,1.15c.24.4.47.8.7,1.2a.15.15,0,0,0,.16.09s.05,0,.08,0l.32-.18a.15.15,0,0,1,.16,0,.16.16,0,0,1,.08.19c0,.17-.09.35-.14.52-.11.43-.23.86-.34,1.29a.17.17,0,0,1-.22.14l-1.82-.49a.15.15,0,0,1-.12-.2.14.14,0,0,1,.08-.1l.31-.18a.17.17,0,0,0,.07-.25c-.23-.39-.46-.78-.68-1.17a.74.74,0,0,0-.54-.38.76.76,0,0,0-.79.35c-.17.28-.33.56-.49.84l-.63,1.1a.8.8,0,0,1-1.45-.14l0-.12A.57.57,0,0,1,72.08,29Z"/><path class="cls-1" d="M78.23,36.21h-.8a.17.17,0,0,0-.17.12v.46a.14.14,0,0,1-.11.12.16.16,0,0,1-.16,0l-.09-.09-1.25-1.25a.12.12,0,0,1-.06-.1.17.17,0,0,1,0-.16l.46-.46L77,34a.15.15,0,0,1,.14-.06.16.16,0,0,1,.15.16v.37c0,.13.08.18.18.18h1.41a.77.77,0,0,0,.77-.68.8.8,0,0,0-.11-.48c-.17-.3-.35-.6-.52-.91l-.56-1a.8.8,0,0,1,1.37-.82l.62,1.08.5.86a2.37,2.37,0,0,1,.28.89,2.38,2.38,0,0,1-1.89,2.57,2.63,2.63,0,0,1-.49,0Z"/><path class="cls-2" d="M85.07,57.61a.8.8,0,0,0-.13-.13c-.22-.23-.45-.45-.68-.67a.07.07,0,0,0-.11,0,.81.81,0,0,0-.1.09L82.93,58l0,0h1.75Z"/><path class="cls-2" d="M81.92,58.55a.62.62,0,0,0,0-.13c0-.08,0-.11.1-.11h7.34a.08.08,0,0,1,.09.09c0,.2,0,.4,0,.6v0a.29.29,0,0,1-.16.07H82.16a.31.31,0,0,1-.24-.08Z"/><path class="cls-2" d="M86.91,56.19c.21.19.42.38.61.58L88.76,58l0,0H85l0,0,1.59-1.57a3,3,0,0,1,.26-.24Z"/><path class="cls-1" d="M82.32,59.33l.06.4.15.9c0,.31.11.63.16.94s.1.62.16.94l.15,1,.15.93c0,.13,0,.26.07.39a.26.26,0,0,0,.09.19H88c.08,0,.12,0,.13-.12s0-.29.07-.43.09-.54.13-.81.09-.57.14-.85l.15-.91c0-.28.09-.57.14-.85l.15-.91c0-.24.07-.48.11-.73C86.82,59.33,84.57,59.34,82.32,59.33Zm2.11,1.76.36-.55a.26.26,0,0,1,.33-.12.53.53,0,0,1,.29.24,3.54,3.54,0,0,1,.19.33v0l-.47.72h0l-.77-.53Zm0,2.32v.05l0,0c-.17-.31-.35-.62-.53-.93,0,0,0,0,0-.06a.28.28,0,0,1,0-.28l.21-.33-.15-.09a.06.06,0,0,1,0-.06s0,0,.07,0l.34,0h.45a.06.06,0,0,1,.06,0c.11.23.23.45.35.67,0,0,0,.06,0,.09s-.07,0-.09,0-.12-.07-.2.05l-.35.58A.48.48,0,0,0,84.39,63.41Zm1.27.31h-1l-.07,0a.44.44,0,0,1-.11-.38.61.61,0,0,1,.11-.31c0-.07.09-.14.14-.21l0,0h.86Zm.12-2.23,0,0,0,0,.08,0a.29.29,0,0,1,.08,0l-.35-.67a.62.62,0,0,0-.4-.34l0,0h1.07l.18,0a.38.38,0,0,1,.22.19l.15.28a.06.06,0,0,0,.09,0l.13,0H87v.06l0,.07c-.12.19-.23.39-.35.59a.14.14,0,0,1-.14.07l-.69-.07Zm1.81,1.09c-.19.34-.38.67-.56,1a.27.27,0,0,1-.24.15h-.4a.76.76,0,0,1,0,.15s0,.08,0,.09-.06,0-.08-.05l-.18-.25-.22-.33a.14.14,0,0,1,0-.14L86,62.9l.19-.3.07-.06a.32.32,0,0,1,0,.09.53.53,0,0,1,0,.13h.73a.66.66,0,0,0,.5-.2h0A.08.08,0,0,0,87.59,62.58Zm0-.17a.59.59,0,0,1-.44.22H86.8l0,0-.44-.73v0l.79-.46c.05.07.1.14.14.21s.23.33.33.5A.26.26,0,0,1,87.55,62.41Z"/><path class="cls-2" d="M85.07,57.61l-.41.41H82.91l0,0,1.12-1.11a.81.81,0,0,1,.1-.09.07.07,0,0,1,.11,0c.23.22.46.44.68.67A.8.8,0,0,1,85.07,57.61Z"/><path class="cls-2" d="M64.47,61.59a.63.63,0,0,1-.77.16.64.64,0,0,1-.3-.76h-.15a.15.15,0,0,1-.16-.12c-.09-.45-.18-.9-.26-1.35a.2.2,0,0,1,0-.13l.66-1.2a.18.18,0,0,1,.16-.09h.55c-.24.9-.48,1.79-.71,2.69h0l0,0,.23-.14a.11.11,0,0,0,.07-.08l.63-2.37a.64.64,0,0,0,0-.07h2.12l0,0-1,1.1a.69.69,0,0,0,0,1l.67.69,0,.05h-.83a.62.62,0,0,1-.32.77A.61.61,0,0,1,64.47,61.59Zm-.14-.39a.34.34,0,0,0-.34-.34.33.33,0,0,0-.34.34.34.34,0,1,0,.68,0Zm.28,0a.35.35,0,1,0,.35-.34A.34.34,0,0,0,64.61,61.2Z"/><path class="cls-2" d="M67,60.76V59.24a.42.42,0,0,1,.45-.45h.54a.51.51,0,0,1,.49.28l.38.65a.57.57,0,0,1,.07.29v.84a.41.41,0,0,1-.41.42h-.56a.66.66,0,0,1-.16.36.62.62,0,0,1-.76.1.6.6,0,0,1-.28-.71.13.13,0,0,0,0-.12l-.83-.85a.42.42,0,0,1,0-.61l1.76-2a.14.14,0,0,0,0-.22l-.36.4-.89-.9,1.29-1.13.73.74-.41.47-.46-.47-.19.21,0,0,.45.45a.42.42,0,0,1,0,.61c-.37.41-.73.82-1.09,1.24a.16.16,0,0,0,0,.12v1.48a.21.21,0,0,0,0,.1ZM68.62,60c0-.08,0-.15-.07-.21s-.22-.37-.32-.56-.2-.22-.44-.19h0v.81a.13.13,0,0,0,.15.14h.69Zm-1,1.17a.34.34,0,0,0-.34-.34.35.35,0,0,0-.35.34.35.35,0,0,0,.35.34A.34.34,0,0,0,67.64,61.2Z"/><path class="cls-2" d="M67.5,58.37c.09-.09.15-.17.22-.25l.06,0h.41a.16.16,0,0,1,.09,0l.39.26a.13.13,0,0,1,0,.2.14.14,0,0,1-.2,0,3.28,3.28,0,0,0-.31-.2.24.24,0,0,0-.13-.05Z"/><path class="cls-2" d="M66.68,57.27a.14.14,0,1,1,0,.28.15.15,0,0,1-.14-.15A.14.14,0,0,1,66.68,57.27Z"/><path class="cls-2" d="M66.54,57.14a.13.13,0,0,1-.14.13.13.13,0,0,1-.13-.15.12.12,0,0,1,.14-.12A.13.13,0,0,1,66.54,57.14Z"/><path class="cls-2" d="M65.71,57.41a.14.14,0,0,1,.14-.14.14.14,0,0,1,0,.28A.15.15,0,0,1,65.71,57.41Z"/><path class="cls-2" d="M66.68,57.82a.14.14,0,0,1-.14.14.14.14,0,0,1-.14-.14.15.15,0,0,1,.14-.14A.14.14,0,0,1,66.68,57.82Z"/><path class="cls-2" d="M66.4,57.55a.13.13,0,0,1-.14.13.13.13,0,0,1-.13-.14.14.14,0,0,1,.27,0Z"/><path class="cls-2" d="M66.12,57.82A.12.12,0,0,1,66,58a.14.14,0,0,1-.14-.14.15.15,0,0,1,.14-.14A.13.13,0,0,1,66.12,57.82Z"/><path class="cls-2" d="M74.18,77.11a1.22,1.22,0,0,0-.07.17.13.13,0,0,0,0,.06c.07.17.14.34.2.52a1.71,1.71,0,0,1,.07.18l.16-.08a.81.81,0,0,1,.39-.17.24.24,0,0,0,.22-.15c0-.09.11-.16.17-.25a.09.09,0,0,1,.12,0l.58.24s0,0,0,0,0,0,0,.07a.1.1,0,0,1-.07,0s-.05,0-.07,0l-.48-.2s-.07,0-.1,0l-.15.23a.35.35,0,0,1,.11,0l.31.14a.76.76,0,0,0,.4.13c.06,0,.09,0,.09.07s0,.07-.09.07a1,1,0,0,1-.45-.13,1.24,1.24,0,0,0-.33-.15.72.72,0,0,0-.57.08,1,1,0,0,1-.4.18,1,1,0,0,1-.64-.1,1,1,0,0,0-.34-.17.81.81,0,0,0-.57.09,1.07,1.07,0,0,1-.39.18,1,1,0,0,1-.65-.1,1.26,1.26,0,0,0-.33-.16.7.7,0,0,0-.59.09,1.08,1.08,0,0,1-.38.17l-.16,0c-.05,0-.09,0-.09-.07s0-.07.08-.08h.16c0-.12-.07-.23-.11-.33a.65.65,0,0,0,0-.13.07.07,0,0,1,0-.09l.51-.19h.05l1.18.27c.08,0,.09,0,.09.11V78s0,.06,0,.06l.17,0a.24.24,0,0,0,.23-.2c0-.11.09-.22.13-.34a.35.35,0,0,1,.19-.19l.59-.27a.17.17,0,0,1,.1,0l.21.08s.07,0,0,.1a.08.08,0,0,1-.11,0,.36.36,0,0,0-.41,0c-.12.07-.26.12-.38.18a.24.24,0,0,0-.1.1l-.12.31h0a1,1,0,0,1,.87,0l.27.15,0,0s0-.05,0-.08l-.08-.17s0-.08,0-.11.08,0,.1,0a1,1,0,0,1,.11.34.57.57,0,0,0,.13,0,0,0,0,0,0,0,0,.24.24,0,0,0,0-.08L74,77.37a.17.17,0,0,1,0-.14l.07-.18L74,77l-.4-.16c-.07,0-.08-.06-.06-.13l.12-.31c0-.06.06-.07.12,0l.6.23a.09.09,0,0,1,0,.12l-.13.3C74.27,77.1,74.25,77.11,74.18,77.11Zm-2.2,1h0v-.27s0-.07-.06-.08l-1-.22a.3.3,0,0,0-.21,0c-.11.05-.22.08-.33.12,0,.14.09.27.13.41l.2-.12a1,1,0,0,1,.64-.11,1.06,1.06,0,0,1,.38.16Zm2.29-1.33-.51-.2-.08.22.5.2Z"/><path class="cls-2" d="M72.37,78.94l.34.13.77.31s0,0,.06,0,0,.06,0,.08,0,0-.07,0l-.06,0-1.12-.45L72,80,72,80l1,.41,0,0a.07.07,0,0,1,.06.09s-.07,0-.11,0l-.65-.26L72,80.12l-.06,0-.11.27c0,.07,0,.13-.07.2s0,.12.06.15l1.13.45h0c.09,0,.12,0,.15-.06l.35-.87c.11-.29.22-.57.34-.86a.33.33,0,0,0,0-.24.09.09,0,0,1,0-.13.4.4,0,0,0,.2-.26l.1-.24s.05-.08.09-.06,0,.06,0,.1a3,3,0,0,1-.15.36.49.49,0,0,1-.15.17s0,.05,0,.09a.26.26,0,0,1,0,.21c-.24.6-.47,1.2-.71,1.79a.21.21,0,0,1-.31.14l-1.17-.46a.22.22,0,0,1-.14-.32c.2-.5.39-1,.59-1.51a.47.47,0,0,1,.25-.27l0-.1s0-.09,0-.11.08,0,.1,0l.06.16c0,.05,0,.08,0,.11Z"/><path class="cls-2" d="M70.83,78.85c-.25,0-.19,0-.29-.19l-.06-.14a.06.06,0,0,1,0-.09s.08,0,.09,0a.82.82,0,0,1,.09.19s0,0,.07,0a.23.23,0,0,0,.29-.16.15.15,0,0,1,.16-.09l.57,0a.07.07,0,0,1,.09.06s0,.07-.09.07l-.53,0s-.08,0-.1.07a0,0,0,0,0,0,0C71,78.88,71.07,78.84,70.83,78.85Z"/><path class="cls-2" d="M75.84,78.8a1.47,1.47,0,0,1-.21,0,.21.21,0,0,1-.11,0c-.16-.13-.31-.27-.46-.41l0,0s0-.06,0-.08a.1.1,0,0,1,.08,0s0,0,0,0l.42.36a.11.11,0,0,0,.09,0h.42a.16.16,0,0,1,.08.06s0,0,0,.06,0,0-.06,0Z"/><path class="cls-2" d="M75.34,80.59a.27.27,0,1,1-.27-.27A.27.27,0,0,1,75.34,80.59Zm-.14,0a.12.12,0,0,0-.12-.13.12.12,0,0,0-.13.13.12.12,0,0,0,.13.12A.12.12,0,0,0,75.2,80.59Z"/><path class="cls-2" d="M70.66,79.88a.25.25,0,0,1-.26-.27.26.26,0,0,1,.26-.26.27.27,0,1,1,0,.53Zm0-.14a.13.13,0,0,0,.13-.13.13.13,0,0,0-.13-.12.13.13,0,0,0-.13.13A.13.13,0,0,0,70.66,79.74Z"/><path class="cls-2" d="M73.22,80.21c-.06,0-.09,0-.07-.09s.1-.26.16-.4,0,0,.08,0,0,0,0,.09-.1.26-.16.39A.1.1,0,0,1,73.22,80.21Z"/><path class="cls-2" d="M73.93,78.5l-.12.25s-.06,0-.08,0a.07.07,0,0,1,0-.07,1.47,1.47,0,0,1,.1-.22s0,0,.07,0Z"/><path class="cls-2" d="M70.46,80.31a.1.1,0,0,1-.11.11.1.1,0,0,1-.1-.11.12.12,0,0,1,.1-.11A.11.11,0,0,1,70.46,80.31Z"/><path class="cls-2" d="M74.21,80.49a.11.11,0,0,1-.11.11.13.13,0,0,1-.1-.12.11.11,0,0,1,.11-.1A.1.1,0,0,1,74.21,80.49Z"/><path class="cls-2" d="M74.65,81a.11.11,0,1,1-.11-.11A.12.12,0,0,1,74.65,81Z"/><path class="cls-2" d="M75.85,79.5a.11.11,0,0,1-.11.11.1.1,0,0,1-.11-.1.1.1,0,0,1,.11-.11A.12.12,0,0,1,75.85,79.5Z"/><path class="cls-2" d="M71.46,79.89a.13.13,0,0,1-.11.11.11.11,0,0,1-.11-.11.1.1,0,0,1,.11-.1A.1.1,0,0,1,71.46,79.89Z"/><path class="cls-2" d="M75.1,79.8a.1.1,0,0,1-.11.11.1.1,0,0,1-.1-.11.1.1,0,0,1,.1-.1A.1.1,0,0,1,75.1,79.8Z"/><path class="cls-2" d="M71.63,79.28a.11.11,0,0,1-.11.11.1.1,0,0,1-.1-.11.09.09,0,0,1,.1-.1A.1.1,0,0,1,71.63,79.28Z"/><path class="cls-2" d="M75.63,80.05l-.08,0s-.06,0-.06-.07a.05.05,0,0,1,.06-.06S75.62,80,75.63,80.05Z"/><path class="cls-2" d="M72,78.06,71.76,78a1.06,1.06,0,0,0-.38-.16,1,1,0,0,0-.64.11l-.2.12c0-.14-.08-.27-.13-.41.11,0,.22-.07.33-.12a.3.3,0,0,1,.21,0l1,.22s.06,0,.06.08v.27Z"/><path class="cls-2" d="M74.27,76.73l-.09.22-.5-.2.08-.22Z"/><path class="cls-2" d="M75.2,80.59a.12.12,0,0,1-.12.12.12.12,0,0,1-.13-.12.12.12,0,0,1,.13-.13A.12.12,0,0,1,75.2,80.59Z"/><path class="cls-2" d="M70.66,79.74a.13.13,0,0,1-.13-.12.13.13,0,0,1,.13-.13.13.13,0,0,1,.13.12A.13.13,0,0,1,70.66,79.74Z"/><path class="cls-2" d="M46.62,132s30.48-8.35,57.73.41c0,0-3-3.33-13.12-4.79,0,0-12.48-.65-12.08-13,0,0-1.29-8.43,2.92-13.54,0,0,3.59-4.58,7.06-6.62,0,0-5-.59-9.65,5.65,0,0-.68-8.68,4.64-13.54,0,0-4.56-.81-7.6,8.27,0,0-2.42-6.94-7.55-8.29,0,0,4.37,4.48,4.52,13.48,0,0-5.14-6.49-11.37-6.24,0,0,10.41,5.75,11.37,14.1,0,0,.37,7.87-.23,10.38,0,0-2.13,7.78-10.08,8.27C63.18,126.52,50.9,127.09,46.62,132Z"/><rect class="cls-1" x="88.97" y="31.19" width="0.38" height="9.69" transform="translate(29.44 111.4) rotate(-73.62)"/><rect class="cls-1" x="57.25" y="36.14" width="8.68" height="0.38" transform="translate(-8.27 21.08) rotate(-18.22)"/><polygon class="cls-1" points="43.49 57.06 43.14 56.93 46.23 49.07 46.58 49.21 43.49 57.06"/><rect class="cls-1" x="44.25" y="70.39" width="0.38" height="6.98" transform="translate(-14.64 11.09) rotate(-12.23)"/><polygon class="cls-1" points="53.64 91.33 50.14 85.72 50.46 85.52 53.96 91.13 53.64 91.33"/><rect class="cls-1" x="57.1" y="87.06" width="14.97" height="0.38" transform="translate(-41.73 65.33) rotate(-41.84)"/><rect class="cls-1" x="95.6" y="88.48" width="6.72" height="0.38" transform="translate(-32.7 106.55) rotate(-49.59)"/><rect class="cls-1" x="92.04" y="82.6" width="0.38" height="8.2" transform="translate(-25.66 40.6) rotate(-21.87)"/><rect class="cls-1" x="90.22" y="73.26" width="15.33" height="0.38" transform="translate(-24.49 73.66) rotate(-36.98)"/><polygon class="cls-1" points="75.98 74.62 75.71 74.36 82.78 66.96 83.05 67.22 75.98 74.62"/><polygon class="cls-1" points="85.11 79.47 77.6 78.04 77.67 77.67 85.18 79.1 85.11 79.47"/><rect class="cls-1" x="104.9" y="74.72" width="7.17" height="0.38" transform="translate(7.78 159.99) rotate(-74.82)"/><polygon class="cls-1" points="102.21 63.91 92.23 63.65 92.24 63.27 102.22 63.53 102.21 63.91"/><rect class="cls-1" x="48.35" y="76.16" width="7.18" height="0.38" transform="translate(-32.09 38.05) rotate(-31.27)"/><polygon class="cls-1" points="69.34 75.58 62.04 74.68 62.09 74.31 69.39 75.21 69.34 75.58"/><rect class="cls-1" x="70.64" y="62.56" width="0.38" height="11.48" transform="translate(-17.95 25.88) rotate(-18.42)"/><polygon class="cls-1" points="47.08 60.86 47 60.49 60.97 57.45 61.05 57.81 47.08 60.86"/><polygon class="cls-1" points="77.07 60.15 71.16 59.92 71.17 59.55 77.09 59.77 77.07 60.15"/><rect class="cls-1" x="58.49" y="66.85" width="5.11" height="0.38" transform="translate(-24.91 95.89) rotate(-66.24)"/><polygon class="cls-1" points="109.68 56.56 106.67 47.74 107.02 47.62 110.03 56.43 109.68 56.56"/><rect class="cls-1" x="86.78" y="50.15" width="9.31" height="0.38" transform="translate(-5.75 88.4) rotate(-50.22)"/><rect class="cls-1" x="80.96" y="40.13" width="0.38" height="14.15" transform="matrix(0.95, -0.32, 0.32, 0.95, -10.83, 28.39)"/><polygon class="cls-1" points="66.99 53.7 66.64 53.58 71.5 39.73 71.85 39.85 66.99 53.7"/><rect class="cls-1" x="60.05" y="47.2" width="0.38" height="8.43" transform="translate(-18.71 57.6) rotate(-44.96)"/></svg>