<?xml version="1.0" encoding="utf-8"?>
<!-- Generator: Adobe Illustrator 27.7.0, SVG Export Plug-In . SVG Version: 6.00 Build 0)  -->
<svg version="1.1" id="Layer_1" xmlns="http://www.w3.org/2000/svg" xmlns:xlink="http://www.w3.org/1999/xlink" x="0px" y="0px"
	 viewBox="0 0 720 720" style="enable-background:new 0 0 720 720;" xml:space="preserve">
<style type="text/css">
	.st0{fill-rule:evenodd;clip-rule:evenodd;fill:#E31F26;}
	.st1{fill:#E31F26;}
	.st2{fill:none;stroke:#E31F26;stroke-width:0.5;stroke-miterlimit:10;}
	.st3{fill:#696A6D;}
	.st4{fill:#FFFFFF;}
	.st5{fill-rule:evenodd;clip-rule:evenodd;fill:#FFFFFF;}
	.st6{fill:none;stroke:#FFFFFF;stroke-width:3;stroke-miterlimit:10;}
</style>
<path class="st1" d="M437.48,482.09H282.52c-24.53,0-44.61-20.07-44.61-44.61V282.52c0-24.53,20.07-44.61,44.61-44.61h154.96
	c24.53,0,44.61,20.07,44.61,44.61v154.96C482.09,462.01,462.01,482.09,437.48,482.09z"/>
<g>
	<g>
		<path class="st4" d="M325.99,352l-1.91-0.22c-0.36-0.04-0.66-0.3-0.76-0.65c-0.23-0.83-0.56-1.61-0.97-2.34
			c-0.18-0.32-0.15-0.71,0.08-1l1.2-1.5c0.28-0.35,0.25-0.86-0.07-1.18l-1.53-1.53c-0.32-0.32-0.83-0.35-1.18-0.07l-1.5,1.2
			c-0.29,0.23-0.68,0.26-1,0.08c-0.73-0.41-1.52-0.74-2.34-0.97c-0.35-0.1-0.61-0.4-0.65-0.76l-0.22-1.91
			c-0.05-0.45-0.43-0.79-0.88-0.79l-2.16,0c-0.45,0-0.83,0.34-0.88,0.79l-0.22,1.91c-0.04,0.36-0.3,0.66-0.65,0.76
			c-0.83,0.23-1.61,0.56-2.34,0.97c-0.32,0.18-0.71,0.15-1-0.08l-1.5-1.2c-0.35-0.28-0.86-0.25-1.18,0.07l-1.53,1.53
			c-0.32,0.32-0.35,0.83-0.07,1.18l1.2,1.5c0.23,0.29,0.26,0.68,0.08,1c-0.41,0.73-0.74,1.52-0.97,2.34
			c-0.1,0.35-0.4,0.61-0.76,0.65l-1.91,0.22c-0.45,0.05-0.79,0.43-0.79,0.88l0,2.16c0,0.45,0.34,0.83,0.79,0.88l1.91,0.22
			c0.36,0.04,0.66,0.3,0.76,0.65c0.23,0.83,0.56,1.61,0.97,2.34c0.18,0.32,0.15,0.71-0.08,1l-1.2,1.5
			c-0.28,0.35-0.25,0.86,0.07,1.18l1.53,1.53c0.32,0.32,0.83,0.35,1.18,0.07l1.5-1.2c0.29-0.23,0.68-0.26,1-0.08
			c0.73,0.41,1.52,0.74,2.34,0.97c0.35,0.1,0.61,0.4,0.65,0.76l0.22,1.91c0.05,0.45,0.43,0.79,0.88,0.79l2.16,0
			c0.45,0,0.83-0.34,0.88-0.79l0.22-1.91c0.04-0.36,0.3-0.66,0.65-0.76c0.83-0.23,1.61-0.56,2.34-0.97c0.32-0.18,0.71-0.15,1,0.08
			l1.5,1.2c0.35,0.28,0.86,0.25,1.18-0.07l1.53-1.53c0.32-0.32,0.35-0.83,0.07-1.18l-1.2-1.5c-0.23-0.29-0.26-0.68-0.08-1
			c0.41-0.73,0.74-1.52,0.97-2.34c0.1-0.35,0.4-0.61,0.76-0.65l1.91-0.22c0.45-0.05,0.79-0.43,0.79-0.88l0-2.16
			C326.78,352.44,326.44,352.06,325.99,352z M313.18,362.32c-4.61,0-8.35-3.73-8.35-8.34c0-4.61,3.73-8.35,8.34-8.35
			c4.61,0,8.35,3.73,8.35,8.34C321.52,358.58,317.79,362.32,313.18,362.32z"/>
	</g>
	<g>
		<g>
			<path class="st5" d="M312.47,354.6c0.19,0,0.32,0,0.46,0c0.16,0,0.34,0.05,0.48,0c0.37-0.12,0.46-0.03,0.36,0.35
				c-0.5,1.93,1.08,3.56,3.04,3.15c0.08-0.02,0.17-0.02,0.31,0.06c-0.12,0.08-0.23,0.18-0.36,0.23c-1.16,0.46-2.26,0.34-3.29-0.36
				c-0.24-0.16-0.38-0.17-0.62,0c-1.02,0.71-2.13,0.81-3.29,0.36c-0.13-0.05-0.24-0.13-0.35-0.27c1.04,0.19,1.99,0.07,2.74-0.71
				C312.71,356.62,312.82,355.67,312.47,354.6z"/>
		</g>
		<g>
			<path class="st5" d="M318.74,355.21c-0.05-0.13-0.1-0.26-0.15-0.4c-0.64-1.79-2.8-2.3-4.17-0.99c-0.36,0.34-0.36,0.34-0.55-0.15
				c-0.05-0.12-0.14-0.23-0.22-0.33c-0.26-0.28-0.24-0.4,0.11-0.51c1.97-0.6,2.57-2.69,1.21-4.23c-0.06-0.06-0.1-0.14-0.11-0.29
				c0.11,0.05,0.23,0.07,0.31,0.14c1,0.74,1.49,1.74,1.41,2.98c-0.02,0.34,0.04,0.52,0.38,0.68c1.15,0.54,1.75,1.5,1.91,2.74
				c0.01,0.11-0.02,0.22-0.03,0.33C318.81,355.2,318.77,355.2,318.74,355.21z"/>
		</g>
		<g>
			<path class="st5" d="M307.43,355.17c0.04-0.28,0.05-0.58,0.12-0.85c0.27-1.01,0.87-1.77,1.82-2.21c0.32-0.15,0.39-0.31,0.36-0.65
				c-0.09-1.23,0.39-2.22,1.36-2.97c0.11-0.08,0.24-0.12,0.39-0.19c-0.28,0.5-0.6,0.91-0.76,1.37c-0.44,1.33,0.36,2.73,1.72,3.15
				c0.49,0.15,0.5,0.2,0.17,0.6c-0.03,0.04-0.06,0.07-0.08,0.11c-0.11,0.18-0.23,0.36-0.34,0.53c-0.17-0.14-0.34-0.28-0.52-0.41
				c-1.38-1.07-3.35-0.5-3.95,1.15c-0.05,0.14-0.1,0.27-0.15,0.41C307.54,355.19,307.49,355.18,307.43,355.17z"/>
		</g>
		<g>
			<path class="st5" d="M311.29,351.82c-0.11-0.19-0.2-0.34-0.28-0.49c0.86-0.96,2.63-1.12,3.89-0.38c0.5,0.29,0.5,0.31,0.11,0.83
				C313.8,350.9,312.56,350.87,311.29,351.82z"/>
		</g>
		<g>
			<path class="st5" d="M310.43,353.34c-0.18,1.52,0.45,2.57,1.79,3.2c-0.12,0.56-0.22,0.61-0.67,0.35
				c-1.18-0.68-1.77-1.71-1.79-3.06C309.76,353.28,309.81,353.26,310.43,353.34z"/>
		</g>
		<g>
			<path class="st5" d="M315.93,353.31c0.2,0,0.39,0,0.57,0c0.33,1.44-0.56,3.14-1.89,3.67c-0.43,0.17-0.41-0.19-0.55-0.41
				C315.45,355.92,316.11,354.87,315.93,353.31z"/>
		</g>
	</g>
	<g>
		<path class="st4" d="M329.58,380.64l-1.29-0.53c-0.25-0.1-0.4-0.34-0.4-0.61c0-0.62-0.07-1.24-0.21-1.83
			c-0.06-0.26,0.04-0.53,0.25-0.68l1.14-0.81c0.27-0.19,0.35-0.55,0.19-0.84l-0.77-1.38c-0.16-0.29-0.51-0.41-0.82-0.28l-1.29,0.54
			c-0.25,0.1-0.53,0.04-0.71-0.15c-0.43-0.43-0.91-0.82-1.45-1.15c-0.23-0.14-0.35-0.4-0.3-0.66l0.23-1.38
			c0.05-0.33-0.14-0.64-0.46-0.73l-1.51-0.43c-0.32-0.09-0.65,0.07-0.78,0.38l-0.53,1.29c-0.1,0.25-0.34,0.4-0.61,0.4
			c-0.62,0-1.24,0.07-1.83,0.21c-0.26,0.06-0.53-0.04-0.68-0.25l-0.81-1.14c-0.19-0.27-0.55-0.35-0.84-0.19l-1.38,0.77
			c-0.29,0.16-0.41,0.51-0.28,0.82l0.54,1.29c0.1,0.25,0.04,0.53-0.15,0.71c-0.43,0.43-0.82,0.91-1.15,1.45
			c-0.14,0.23-0.4,0.35-0.66,0.3l-1.38-0.23c-0.33-0.05-0.64,0.14-0.73,0.46l-0.43,1.51c-0.09,0.32,0.07,0.65,0.38,0.78l1.29,0.53
			c0.25,0.1,0.4,0.34,0.4,0.61c0,0.62,0.07,1.24,0.21,1.83c0.06,0.26-0.04,0.53-0.25,0.68l-1.14,0.81
			c-0.27,0.19-0.35,0.55-0.19,0.84l0.77,1.38c0.16,0.29,0.51,0.41,0.82,0.28l1.29-0.54c0.25-0.1,0.53-0.04,0.71,0.15
			c0.43,0.43,0.91,0.82,1.45,1.15c0.23,0.14,0.35,0.4,0.3,0.66l-0.23,1.38c-0.05,0.33,0.14,0.64,0.46,0.73l1.51,0.43
			c0.32,0.09,0.65-0.07,0.78-0.38l0.53-1.29c0.1-0.25,0.34-0.4,0.61-0.4c0.62,0,1.24-0.07,1.83-0.21c0.26-0.06,0.53,0.04,0.68,0.25
			l0.81,1.14c0.19,0.27,0.55,0.35,0.84,0.19l1.38-0.77c0.29-0.16,0.41-0.51,0.28-0.82l-0.54-1.29c-0.1-0.25-0.04-0.53,0.15-0.71
			c0.43-0.43,0.82-0.91,1.15-1.45c0.14-0.23,0.4-0.35,0.66-0.3l1.38,0.23c0.33,0.05,0.64-0.14,0.73-0.46l0.43-1.51
			C330.05,381.1,329.89,380.76,329.58,380.64z M318.55,385.3c-3.23-0.92-5.1-4.28-4.18-7.51s4.28-5.1,7.51-4.18
			c3.23,0.92,5.1,4.28,4.18,7.51S321.77,386.22,318.55,385.3z"/>
	</g>
	<g>
		<g>
			<path class="st5" d="M317.22,379.97c-0.44-0.82-0.86-1.61-1.3-2.43c0.37-0.2,0.73-0.4,1.11-0.6c-0.07-0.14-0.14-0.28-0.22-0.44
				c0.46-0.25,0.92-0.49,1.4-0.75c0.08,0.14,0.16,0.27,0.25,0.43c0.38-0.2,0.74-0.39,1.13-0.6c0.55,1.02,1.09,2.03,1.64,3.05
				c0.51-0.36,1.03-0.53,1.59-0.2c0.52,0.3,0.73,0.78,0.59,1.41c0.51,0.07,0.8,0.34,0.72,0.89c0.07,0.01,0.13,0.02,0.18,0.03
				c0.35,0.07,0.61,0.25,0.71,0.59c0.11,0.39,0.01,0.75-0.3,1.02c-0.28,0.25-0.61,0.3-0.95,0.15c-0.08-0.03-0.11-0.16-0.17-0.24
				c0.09-0.02,0.2-0.09,0.28-0.07c0.41,0.11,0.76-0.07,0.83-0.47c0.07-0.4-0.19-0.68-0.63-0.66c-0.4,0.02-0.41,0.01-0.31-0.36
				c0.09-0.36-0.05-0.53-0.44-0.54c-0.36-0.02-0.37-0.03-0.27-0.37c0.14-0.48-0.03-0.91-0.46-1.13c-0.36-0.19-0.91-0.05-1.18,0.29
				c0.09,0.26,0.23,0.44,0.53,0.53c0.56,0.16,0.8,0.68,0.69,1.32c-0.01,0.05-0.02,0.09-0.03,0.13c0.59,0.27,0.79,0.56,0.76,1.05
				c-0.02,0.25-0.11,0.47-0.33,0.6c-0.06,0.04-0.17,0-0.26,0c0.01-0.08,0-0.2,0.04-0.25c0.22-0.19,0.25-0.41,0.17-0.67
				c-0.08-0.26-0.28-0.36-0.54-0.39c-0.25-0.03-0.27-0.08-0.21-0.34c0.04-0.15,0.07-0.31,0.08-0.47c0.02-0.3-0.13-0.52-0.39-0.66
				c-0.27-0.14-0.56-0.16-0.78,0.05c-0.19,0.17-0.34,0.4-0.46,0.62c-0.14,0.26-0.15,0.28-0.4,0.14c-0.3-0.17-0.61-0.23-0.92-0.02
				c-0.3,0.21-0.34,0.52-0.29,0.85c0.01,0.06,0.03,0.11,0.03,0.16c0,0.17-0.12,0.24-0.27,0.16c-0.1-0.06-0.19-0.14-0.3-0.19
				c-0.25-0.12-0.46-0.07-0.62,0.13c-0.17,0.2-0.17,0.41-0.02,0.64c0.02,0.03,0.05,0.05,0.06,0.08c0.01,0.08,0.01,0.17,0.01,0.25
				c-0.09-0.01-0.21,0.01-0.27-0.04c-0.28-0.23-0.33-0.68-0.12-1c0.09-0.14,0.21-0.25,0.34-0.39c-0.12-0.23-0.26-0.47-0.38-0.72
				c-0.08-0.17-0.2-0.27-0.39-0.23c-0.21,0.04-0.42,0.14-0.4,0.37c0.03,0.35-0.08,0.51-0.44,0.58c-0.34,0.07-0.45,0.42-0.31,0.77
				c0.12,0.3,0.41,0.43,0.72,0.32c0.12-0.04,0.26-0.12,0.32,0.06c0.06,0.17-0.09,0.22-0.21,0.26c-0.46,0.18-0.94-0.04-1.13-0.51
				c-0.21-0.51-0.01-1.03,0.48-1.23c0.15-0.06,0.22-0.13,0.24-0.29C316.46,380.27,316.67,380.1,317.22,379.97z M320.2,377.99
				c-0.12-0.21-0.22-0.39-0.32-0.58c-0.2,0.11-0.38,0.21-0.58,0.31c0.11,0.2,0.2,0.38,0.31,0.58
				C319.82,378.19,320,378.1,320.2,377.99z M318.61,378.84c0.21-0.11,0.38-0.21,0.58-0.31c-0.1-0.19-0.2-0.38-0.31-0.58
				c-0.2,0.11-0.38,0.21-0.58,0.31C318.4,378.46,318.5,378.64,318.61,378.84z M320.41,378.39c-0.21,0.11-0.39,0.21-0.58,0.32
				c0.11,0.21,0.21,0.38,0.31,0.58c0.2-0.11,0.38-0.21,0.58-0.31C320.62,378.78,320.52,378.6,320.41,378.39z M317.6,379.38
				c0.21-0.11,0.39-0.21,0.58-0.31c-0.11-0.2-0.21-0.39-0.31-0.58c-0.21,0.11-0.39,0.21-0.58,0.32
				C317.4,379.01,317.49,379.18,317.6,379.38z M319.4,378.93c-0.2,0.11-0.38,0.21-0.58,0.31c0.11,0.21,0.21,0.39,0.32,0.58
				c0.21-0.11,0.39-0.21,0.58-0.31C319.6,379.3,319.5,379.12,319.4,378.93z M318.78,376.74c0.11,0.21,0.21,0.39,0.32,0.58
				c0.2-0.11,0.38-0.21,0.58-0.31c-0.11-0.2-0.2-0.38-0.31-0.58C319.16,376.54,318.99,376.63,318.78,376.74z M318.67,377.55
				c-0.11-0.2-0.21-0.39-0.32-0.58c-0.2,0.11-0.39,0.21-0.58,0.31c0.11,0.21,0.21,0.38,0.31,0.58
				C318.29,377.75,318.47,377.66,318.67,377.55z M316.76,377.82c0.11,0.2,0.2,0.38,0.31,0.58c0.2-0.11,0.39-0.21,0.58-0.31
				c-0.11-0.2-0.21-0.38-0.31-0.58C317.15,377.61,316.97,377.71,316.76,377.82z M318.39,379.47c-0.2,0.11-0.38,0.2-0.58,0.31
				c0.11,0.2,0.21,0.38,0.31,0.58c0.2-0.11,0.38-0.2,0.58-0.31C318.6,379.86,318.5,379.68,318.39,379.47z"/>
		</g>
		<g>
			<path class="st5" d="M320.69,381.46c-0.36,0-0.56,0.19-0.61,0.56c-0.01,0.08-0.1,0.14-0.16,0.21c-0.05-0.08-0.16-0.16-0.16-0.24
				c-0.02-0.58,0.54-0.98,1.19-0.85c0.69,0.14,1.08,0.86,0.79,1.47c-0.04,0.08-0.17,0.18-0.24,0.16c-0.15-0.03-0.13-0.16-0.08-0.29
				C321.64,381.95,321.28,381.45,320.69,381.46z"/>
		</g>
	</g>
	<g>
		<path class="st4" d="M356.25,351.07l-1.08-0.9c-0.21-0.17-0.29-0.45-0.2-0.7c0.19-0.6,0.3-1.21,0.34-1.82
			c0.02-0.27,0.19-0.5,0.45-0.58l1.34-0.44c0.31-0.1,0.5-0.43,0.43-0.75l-0.33-1.55c-0.07-0.32-0.37-0.55-0.7-0.52l-1.4,0.13
			c-0.27,0.03-0.52-0.12-0.64-0.35c-0.28-0.55-0.63-1.06-1.05-1.53c-0.18-0.2-0.21-0.49-0.09-0.73l0.63-1.26
			c0.15-0.3,0.05-0.66-0.23-0.84l-1.33-0.87c-0.28-0.18-0.65-0.13-0.86,0.13l-0.9,1.08c-0.17,0.21-0.45,0.29-0.7,0.2
			c-0.6-0.19-1.21-0.3-1.82-0.34c-0.27-0.02-0.5-0.19-0.58-0.45l-0.44-1.34c-0.1-0.31-0.43-0.5-0.75-0.43l-1.55,0.33
			c-0.32,0.07-0.55,0.37-0.52,0.7l0.13,1.4c0.03,0.27-0.12,0.52-0.35,0.64c-0.55,0.28-1.06,0.63-1.53,1.05
			c-0.2,0.18-0.49,0.21-0.73,0.09l-1.26-0.63c-0.3-0.15-0.66-0.05-0.84,0.23l-0.87,1.33c-0.18,0.28-0.13,0.65,0.13,0.86l1.08,0.9
			c0.21,0.17,0.29,0.45,0.2,0.7c-0.19,0.6-0.3,1.21-0.34,1.82c-0.02,0.27-0.19,0.5-0.45,0.58l-1.34,0.44
			c-0.31,0.1-0.5,0.43-0.43,0.75l0.33,1.55c0.07,0.32,0.37,0.55,0.7,0.52l1.4-0.13c0.27-0.03,0.52,0.12,0.64,0.35
			c0.28,0.55,0.63,1.06,1.05,1.53c0.18,0.2,0.21,0.49,0.09,0.73l-0.63,1.26c-0.15,0.3-0.05,0.66,0.23,0.84l1.33,0.87
			c0.28,0.18,0.65,0.13,0.86-0.13l0.9-1.08c0.17-0.21,0.45-0.29,0.7-0.2c0.6,0.19,1.21,0.3,1.82,0.34c0.27,0.02,0.5,0.19,0.58,0.45
			l0.44,1.34c0.1,0.31,0.43,0.5,0.75,0.43l1.55-0.33c0.32-0.07,0.55-0.37,0.52-0.7l-0.13-1.4c-0.03-0.27,0.12-0.52,0.35-0.64
			c0.55-0.28,1.06-0.63,1.53-1.05c0.2-0.18,0.49-0.21,0.73-0.09l1.26,0.63c0.3,0.15,0.66,0.05,0.84-0.23l0.87-1.33
			C356.56,351.65,356.51,351.28,356.25,351.07z M344.26,352.26c-2.83-1.85-3.62-5.63-1.78-8.46c1.85-2.83,5.63-3.62,8.46-1.78
			c2.83,1.85,3.62,5.63,1.78,8.46C350.88,353.31,347.09,354.1,344.26,352.26z"/>
	</g>
	<g>
		<g>
			<path class="st5" d="M320.29,326.43c0.54-0.36,1.15-0.32,1.62,0.08c0.72,0.6,1.5,1.09,2.44,1.24c1.52,0.23,2.78-0.27,3.78-1.42
				c0.07-0.08,0.05-0.23,0.08-0.34c-0.13,0.01-0.28-0.03-0.38,0.03c-0.25,0.15-0.48,0.36-0.72,0.53c-0.59,0.42-1.22,0.65-1.94,0.37
				c-0.16-0.06-0.31-0.16-0.53-0.28c0.44-0.35,0.83-0.65,1.21-0.96c0.65-0.51,1.3-1,1.93-1.52c0.72-0.59,1.52-0.66,2.37-0.4
				c0.6,0.18,1.18,0.41,1.77,0.61c0.16,0.05,0.23,0.13,0.19,0.3c-0.56,2.37-1.73,4.27-4.22,4.92c-2.49,0.65-4.79,0.26-6.64-1.71
				c-0.2-0.22-0.38-0.46-0.54-0.71C320.56,326.93,320.43,326.68,320.29,326.43z"/>
		</g>
		<g>
			<path class="st5" d="M324.04,326.98c-0.17-0.07-0.31-0.12-0.48-0.19c1.01-2.35,2.76-3.72,5.23-4.23
				c-1.58,0.16-2.96,0.79-4.23,1.78c-0.22-0.52-0.19-1.01-0.04-1.49c0.34-1.07,1.09-1.76,2.18-1.91c2.04-0.29,3.84,0.34,5.45,1.7
				c-0.34,0.15-0.66,0.24-0.93,0.41c-0.46,0.28-0.89,0.34-1.43,0.2c-0.82-0.21-1.59-0.05-2.27,0.52c-0.56,0.48-1.17,0.88-1.75,1.33
				c-0.17,0.13-0.32,0.18-0.51,0.04c-0.14-0.11-0.27-0.1-0.37,0.06c-0.22,0.37-0.45,0.74-0.65,1.12
				C324.15,326.52,324.12,326.74,324.04,326.98z"/>
		</g>
		<g>
			<path class="st5" d="M324.6,315.67c0.1,0.58,0.16,1.17,0.3,1.75c0.16,0.68,0.39,1.35,0.57,2.02c0.24,0.93-0.31,2.14-1.2,2.59
				c-0.49-1.33-0.58-2.7-0.47-4.1c-0.41,1.37-0.4,2.75-0.11,4.18c-0.65-0.11-1.07-0.47-1.39-0.94c-0.39-0.57-0.52-1.22-0.34-1.89
				c0.41-1.52,1.3-2.71,2.57-3.61C324.55,315.67,324.57,315.67,324.6,315.67z"/>
		</g>
		<g>
			<path class="st5" d="M323.81,324.48c-0.39,0.62-0.84,1.09-1.5,1.28c-0.26,0.08-0.57,0.06-0.84,0c-1.13-0.24-2.25-0.52-3.38-0.78
				c-0.03-0.01-0.05-0.03-0.1-0.06c0.53-0.9,1.22-1.64,2.11-2.17c0.48-0.28,1-0.53,1.54-0.65c1.01-0.23,2.17,0.64,2.33,1.66
				c0.01,0.08,0,0.17,0,0.26c-0.66-0.03-1.3-0.1-1.94-0.07c-0.64,0.02-1.27,0.14-1.9,0.27
				C321.36,324.13,322.56,324.16,323.81,324.48z"/>
		</g>
	</g>
	<g>
		<path class="st4" d="M365.81,375.1l-1.17-0.49c-0.22-0.09-0.36-0.31-0.36-0.55c0.01-0.56-0.05-1.12-0.18-1.66
			c-0.05-0.23,0.04-0.48,0.23-0.62l1.04-0.73c0.24-0.17,0.32-0.5,0.18-0.76l-0.68-1.25c-0.14-0.26-0.46-0.38-0.74-0.26l-1.17,0.48
			c-0.22,0.09-0.48,0.04-0.64-0.14c-0.39-0.4-0.82-0.75-1.3-1.05c-0.2-0.13-0.31-0.36-0.27-0.6l0.22-1.25
			c0.05-0.29-0.13-0.58-0.41-0.66l-1.37-0.4c-0.29-0.08-0.59,0.06-0.71,0.33l-0.49,1.17c-0.09,0.22-0.31,0.36-0.55,0.36
			c-0.56-0.01-1.12,0.05-1.66,0.18c-0.23,0.05-0.48-0.04-0.62-0.23l-0.73-1.04c-0.17-0.24-0.5-0.32-0.76-0.18l-1.25,0.68
			c-0.26,0.14-0.38,0.46-0.26,0.74l0.48,1.17c0.09,0.22,0.04,0.48-0.14,0.64c-0.4,0.39-0.75,0.82-1.05,1.3
			c-0.13,0.2-0.36,0.31-0.6,0.27l-1.25-0.22c-0.29-0.05-0.58,0.13-0.66,0.41l-0.4,1.37c-0.08,0.29,0.06,0.59,0.33,0.71l1.17,0.49
			c0.22,0.09,0.36,0.31,0.36,0.55c-0.01,0.56,0.05,1.12,0.18,1.66c0.05,0.23-0.04,0.48-0.23,0.62l-1.04,0.73
			c-0.24,0.17-0.32,0.5-0.18,0.76l0.68,1.25c0.14,0.26,0.46,0.38,0.74,0.26l1.17-0.48c0.22-0.09,0.48-0.04,0.64,0.14
			c0.39,0.4,0.82,0.75,1.3,1.05c0.2,0.13,0.31,0.36,0.27,0.6l-0.22,1.25c-0.05,0.29,0.13,0.58,0.41,0.66l1.37,0.4
			c0.29,0.08,0.59-0.06,0.71-0.33l0.49-1.17c0.09-0.22,0.31-0.36,0.55-0.36c0.56,0.01,1.12-0.05,1.66-0.18
			c0.23-0.05,0.48,0.04,0.62,0.23l0.73,1.04c0.17,0.24,0.5,0.32,0.76,0.18l1.25-0.68c0.26-0.14,0.38-0.46,0.26-0.74l-0.48-1.17
			c-0.09-0.22-0.04-0.48,0.14-0.64c0.4-0.39,0.75-0.82,1.05-1.3c0.13-0.2,0.36-0.31,0.6-0.27l1.25,0.22
			c0.29,0.05,0.58-0.13,0.66-0.41l0.4-1.37C366.23,375.52,366.08,375.21,365.81,375.1z M355.79,379.23
			c-2.91-0.86-4.58-3.92-3.72-6.83s3.92-4.58,6.83-3.72c2.91,0.86,4.58,3.92,3.72,6.83C361.76,378.42,358.7,380.09,355.79,379.23z"
			/>
	</g>
	<g>
		<g>
			<path class="st5" d="M397.85,383.25c0-0.36,0-0.73,0-1.1c0.21,0,0.42,0,0.62,0c-0.45-0.27-0.83-0.61-1.12-1.05
				c0.04,0,0.07-0.01,0.1-0.01c0.24,0,0.48,0.01,0.72,0c0.11,0,0.18,0.03,0.26,0.1c0.49,0.42,1.07,0.6,1.7,0.54
				c0.85-0.09,1.48-0.53,1.86-1.29c0.5-1,0.19-2.22-0.72-2.88c-0.03-0.02-0.05-0.04-0.09-0.06c0.11-0.22,0.23-0.44,0.34-0.67
				c0.69,0.38,1.51,1.37,1.45,2.7c-0.05,1.16-0.62,2.02-1.63,2.62c0.21,0,0.39,0,0.59,0c0,0.37,0,0.74,0,1.1
				C400.58,383.25,399.21,383.25,397.85,383.25z"/>
		</g>
		<g>
			<path class="st5" d="M400.86,374.4c0.02,0.02,0.04,0.05,0.07,0.06c0.18,0.09,0.36,0.18,0.55,0.28c-0.07,0.14-0.14,0.28-0.22,0.44
				c-0.23-0.11-0.45-0.22-0.68-0.34c0.06-0.12,0.12-0.23,0.17-0.34c0.01-0.03,0.02-0.06,0.02-0.09
				C400.81,374.4,400.83,374.4,400.86,374.4z"/>
		</g>
		<g>
			<path class="st5" d="M400.27,375.07c0.47,0.23,0.93,0.47,1.39,0.7c-0.5,1-1,1.99-1.5,2.99c-0.46-0.23-0.92-0.46-1.39-0.7
				C399.27,377.06,399.77,376.07,400.27,375.07z"/>
		</g>
		<g>
			<path class="st5" d="M399.58,380.08c0,0.2,0,0.39,0,0.58c0,0.01-0.02,0.03-0.04,0.04c-0.02,0.01-0.04,0-0.06,0
				c-0.75,0-1.49,0-2.24,0c-0.08,0-0.11-0.02-0.1-0.1c0.01-0.17,0-0.34,0-0.52C397.96,380.08,398.77,380.08,399.58,380.08z"/>
		</g>
		<g>
			<path class="st5" d="M399.16,378.64c-0.06,0.11-0.11,0.22-0.17,0.34c-0.18-0.09-0.36-0.18-0.54-0.27
				c0.06-0.11,0.11-0.22,0.17-0.34C398.8,378.46,398.98,378.55,399.16,378.64z"/>
		</g>
		<g>
			<path class="st5" d="M399.35,379.02c0.04-0.08,0.08-0.15,0.11-0.22c0.19,0.09,0.36,0.18,0.54,0.27
				c-0.04,0.08-0.07,0.14-0.11,0.22C399.71,379.21,399.54,379.12,399.35,379.02z"/>
		</g>
	</g>
	<g>
		<path class="st4" d="M344.29,365.51l-1.01-0.1c-0.19-0.02-0.35-0.15-0.4-0.34c-0.13-0.43-0.3-0.84-0.53-1.22
			c-0.1-0.17-0.08-0.37,0.03-0.52l0.62-0.8c0.15-0.19,0.13-0.46-0.04-0.62l-0.81-0.79c-0.17-0.17-0.44-0.18-0.62-0.03l-0.78,0.64
			c-0.15,0.12-0.36,0.14-0.52,0.05c-0.39-0.21-0.8-0.38-1.24-0.49c-0.19-0.05-0.32-0.2-0.35-0.39l-0.13-1
			c-0.03-0.24-0.23-0.41-0.47-0.41l-1.14,0.02c-0.24,0-0.44,0.18-0.46,0.42l-0.1,1.01c-0.02,0.19-0.15,0.35-0.34,0.4
			c-0.43,0.13-0.84,0.3-1.22,0.53c-0.17,0.1-0.37,0.08-0.52-0.03l-0.8-0.62c-0.19-0.15-0.46-0.13-0.62,0.04l-0.79,0.81
			c-0.17,0.17-0.18,0.44-0.03,0.62l0.64,0.78c0.12,0.15,0.14,0.36,0.05,0.52c-0.21,0.39-0.38,0.8-0.49,1.24
			c-0.05,0.19-0.2,0.32-0.39,0.35l-1,0.13c-0.24,0.03-0.41,0.23-0.41,0.47l0.02,1.14c0,0.24,0.18,0.44,0.42,0.46l1.01,0.1
			c0.19,0.02,0.35,0.15,0.4,0.34c0.13,0.43,0.3,0.84,0.53,1.22c0.1,0.17,0.08,0.37-0.03,0.52l-0.62,0.8
			c-0.15,0.19-0.13,0.46,0.04,0.62l0.81,0.79c0.17,0.17,0.44,0.18,0.62,0.03l0.78-0.64c0.15-0.12,0.36-0.14,0.52-0.05
			c0.39,0.21,0.8,0.38,1.24,0.49c0.19,0.05,0.32,0.2,0.35,0.39l0.13,1c0.03,0.24,0.23,0.41,0.47,0.41l1.14-0.02
			c0.24,0,0.44-0.18,0.46-0.42l0.1-1.01c0.02-0.19,0.15-0.35,0.34-0.4c0.43-0.13,0.84-0.3,1.22-0.53c0.17-0.1,0.37-0.08,0.52,0.03
			l0.8,0.62c0.19,0.15,0.46,0.13,0.62-0.04l0.79-0.81c0.17-0.17,0.18-0.44,0.03-0.62l-0.64-0.78c-0.12-0.15-0.14-0.36-0.05-0.52
			c0.21-0.39,0.38-0.8,0.49-1.24c0.05-0.19,0.2-0.32,0.39-0.35l1-0.13c0.24-0.03,0.41-0.23,0.41-0.47l-0.02-1.14
			C344.7,365.73,344.52,365.53,344.29,365.51z M337.62,371.02c-2.42,0.03-4.41-1.9-4.45-4.33s1.9-4.41,4.33-4.45
			c2.42-0.03,4.41,1.9,4.45,4.33C341.98,369,340.04,370.99,337.62,371.02z"/>
	</g>
	<g>
		<path class="st4" d="M340.05,398.39l-0.79-0.63c-0.15-0.12-0.21-0.32-0.16-0.5c0.13-0.43,0.2-0.87,0.22-1.31
			c0.01-0.19,0.13-0.36,0.31-0.42l0.95-0.33c0.22-0.08,0.35-0.31,0.3-0.55l-0.25-1.11c-0.05-0.23-0.27-0.39-0.51-0.36l-1,0.11
			c-0.19,0.02-0.37-0.08-0.46-0.25c-0.21-0.39-0.47-0.75-0.77-1.09c-0.13-0.14-0.16-0.35-0.08-0.52l0.44-0.91
			c0.1-0.21,0.03-0.47-0.17-0.6l-0.96-0.61c-0.2-0.13-0.47-0.08-0.61,0.1l-0.63,0.79c-0.12,0.15-0.32,0.21-0.5,0.16
			c-0.43-0.13-0.87-0.2-1.31-0.22c-0.19-0.01-0.36-0.13-0.42-0.31l-0.33-0.95c-0.08-0.22-0.31-0.35-0.55-0.3l-1.11,0.25
			c-0.23,0.05-0.39,0.27-0.36,0.51l0.11,1c0.02,0.19-0.08,0.37-0.25,0.46c-0.39,0.21-0.75,0.47-1.09,0.77
			c-0.14,0.13-0.35,0.16-0.52,0.08l-0.91-0.44c-0.21-0.1-0.47-0.03-0.6,0.17l-0.61,0.96c-0.13,0.2-0.08,0.47,0.1,0.61l0.79,0.63
			c0.15,0.12,0.21,0.32,0.16,0.5c-0.13,0.43-0.2,0.87-0.22,1.31c-0.01,0.19-0.13,0.36-0.31,0.42l-0.95,0.33
			c-0.22,0.08-0.35,0.31-0.3,0.55l0.25,1.11c0.05,0.23,0.27,0.39,0.51,0.36l1-0.11c0.19-0.02,0.37,0.08,0.46,0.25
			c0.21,0.39,0.47,0.75,0.77,1.09c0.13,0.14,0.16,0.35,0.08,0.52l-0.44,0.91c-0.1,0.21-0.03,0.47,0.17,0.6l0.96,0.61
			c0.2,0.13,0.47,0.08,0.61-0.1l0.63-0.79c0.12-0.15,0.32-0.21,0.5-0.16c0.43,0.13,0.87,0.2,1.31,0.22
			c0.19,0.01,0.36,0.13,0.42,0.31l0.33,0.95c0.08,0.22,0.31,0.35,0.55,0.3l1.11-0.25c0.23-0.05,0.39-0.27,0.36-0.51l-0.11-1
			c-0.02-0.19,0.08-0.37,0.25-0.46c0.39-0.21,0.75-0.47,1.09-0.77c0.14-0.13,0.35-0.16,0.52-0.08l0.91,0.44
			c0.21,0.1,0.47,0.03,0.6-0.17l0.61-0.96C340.28,398.8,340.23,398.54,340.05,398.39z M331.46,399.39c-2.05-1.29-2.67-4-1.38-6.05
			c1.29-2.05,4-2.67,6.05-1.38c2.05,1.29,2.67,4,1.38,6.05S333.51,400.68,331.46,399.39z"/>
	</g>
	<g>
		<path class="st4" d="M393.75,395.92l-0.96-0.3c-0.18-0.06-0.31-0.22-0.33-0.41c-0.04-0.45-0.13-0.89-0.27-1.3
			c-0.06-0.18-0.01-0.38,0.14-0.51l0.77-0.66c0.18-0.16,0.22-0.42,0.08-0.62l-0.64-0.94c-0.13-0.2-0.39-0.26-0.6-0.15l-0.89,0.47
			c-0.17,0.09-0.38,0.07-0.52-0.06c-0.34-0.29-0.71-0.53-1.11-0.73c-0.17-0.08-0.28-0.26-0.26-0.46l0.08-1.01
			c0.02-0.24-0.15-0.45-0.38-0.5l-1.12-0.21c-0.23-0.04-0.46,0.09-0.53,0.32l-0.3,0.96c-0.06,0.18-0.22,0.31-0.41,0.33
			c-0.45,0.04-0.89,0.13-1.3,0.27c-0.18,0.06-0.38,0.01-0.51-0.14l-0.66-0.77c-0.16-0.18-0.42-0.22-0.62-0.08l-0.94,0.64
			c-0.2,0.13-0.26,0.39-0.15,0.6l0.47,0.89c0.09,0.17,0.07,0.38-0.06,0.52c-0.29,0.34-0.53,0.71-0.73,1.11
			c-0.08,0.17-0.26,0.28-0.46,0.26l-1.01-0.08c-0.24-0.02-0.45,0.15-0.5,0.38l-0.21,1.12c-0.04,0.23,0.09,0.46,0.32,0.53l0.96,0.3
			c0.18,0.06,0.31,0.22,0.33,0.41c0.04,0.45,0.13,0.89,0.27,1.3c0.06,0.18,0.01,0.38-0.14,0.51l-0.77,0.66
			c-0.18,0.16-0.22,0.42-0.08,0.62l0.64,0.94c0.13,0.2,0.39,0.26,0.6,0.15l0.89-0.47c0.17-0.09,0.38-0.07,0.52,0.06
			c0.34,0.28,0.71,0.53,1.11,0.73c0.17,0.08,0.28,0.26,0.26,0.46l-0.08,1.01c-0.02,0.24,0.15,0.45,0.38,0.5l1.12,0.21
			c0.23,0.04,0.46-0.09,0.53-0.32l0.3-0.96c0.06-0.18,0.22-0.31,0.41-0.33c0.45-0.04,0.89-0.13,1.3-0.27
			c0.18-0.06,0.38-0.01,0.51,0.14l0.66,0.77c0.16,0.18,0.42,0.22,0.62,0.08l0.94-0.64c0.2-0.13,0.26-0.39,0.15-0.6l-0.47-0.89
			c-0.09-0.17-0.07-0.38,0.06-0.52c0.29-0.34,0.53-0.71,0.73-1.11c0.08-0.17,0.26-0.28,0.46-0.26l1.01,0.08
			c0.24,0.02,0.45-0.15,0.5-0.38l0.21-1.12C394.11,396.22,393.98,395.99,393.75,395.92z M386.12,399.98
			c-2.38-0.45-3.94-2.75-3.49-5.13c0.45-2.38,2.75-3.94,5.13-3.49c2.38,0.45,3.94,2.75,3.49,5.13
			C390.79,398.88,388.5,400.44,386.12,399.98z"/>
	</g>
	<g>
		<path class="st4" d="M384.7,378.82l-0.74-0.62c-0.14-0.12-0.19-0.31-0.14-0.48c0.13-0.41,0.21-0.83,0.24-1.24
			c0.01-0.18,0.13-0.34,0.31-0.39l0.92-0.3c0.22-0.07,0.34-0.29,0.3-0.51l-0.22-1.06c-0.05-0.22-0.25-0.38-0.48-0.36l-0.96,0.08
			c-0.18,0.02-0.35-0.08-0.44-0.24c-0.19-0.37-0.43-0.73-0.71-1.05c-0.12-0.14-0.14-0.33-0.06-0.5l0.44-0.86
			c0.1-0.2,0.04-0.45-0.15-0.57l-0.9-0.6c-0.19-0.13-0.44-0.09-0.59,0.08l-0.62,0.74c-0.12,0.14-0.31,0.19-0.48,0.14
			c-0.41-0.13-0.83-0.21-1.24-0.24c-0.18-0.01-0.34-0.13-0.39-0.31l-0.3-0.92c-0.07-0.22-0.29-0.34-0.51-0.3l-1.06,0.22
			c-0.22,0.05-0.38,0.25-0.36,0.48l0.08,0.96c0.02,0.18-0.08,0.35-0.24,0.44c-0.37,0.19-0.73,0.43-1.05,0.71
			c-0.14,0.12-0.33,0.14-0.5,0.06l-0.86-0.44c-0.2-0.1-0.45-0.04-0.57,0.15l-0.6,0.9c-0.13,0.19-0.09,0.44,0.08,0.59l0.74,0.62
			c0.14,0.12,0.19,0.31,0.14,0.48c-0.13,0.41-0.21,0.83-0.24,1.24c-0.01,0.18-0.13,0.34-0.31,0.39l-0.92,0.3
			c-0.22,0.07-0.34,0.29-0.3,0.51l0.22,1.06c0.05,0.22,0.25,0.38,0.48,0.36l0.96-0.08c0.18-0.02,0.35,0.08,0.44,0.24
			c0.19,0.37,0.43,0.73,0.71,1.05c0.12,0.14,0.14,0.33,0.06,0.5l-0.44,0.86c-0.1,0.2-0.04,0.45,0.15,0.57l0.9,0.6
			c0.19,0.13,0.44,0.09,0.59-0.08l0.62-0.74c0.12-0.14,0.31-0.19,0.48-0.14c0.41,0.13,0.83,0.21,1.24,0.24
			c0.18,0.01,0.34,0.13,0.39,0.31l0.3,0.92c0.07,0.22,0.29,0.34,0.51,0.3l1.06-0.22c0.22-0.05,0.38-0.25,0.36-0.48l-0.08-0.96
			c-0.02-0.18,0.08-0.35,0.24-0.44c0.37-0.19,0.73-0.43,1.05-0.71c0.14-0.12,0.33-0.14,0.5-0.06l0.86,0.44
			c0.2,0.1,0.45,0.04,0.57-0.15l0.6-0.9C384.91,379.22,384.88,378.96,384.7,378.82z M376.51,379.58c-1.92-1.27-2.45-3.87-1.17-5.79
			c1.27-1.92,3.87-2.45,5.79-1.17c1.92,1.27,2.45,3.87,1.17,5.79C381.02,380.32,378.43,380.85,376.51,379.58z"/>
	</g>
	<g>
		<path class="st4" d="M409.64,328.47l-1.8-1.28c-0.34-0.24-0.5-0.67-0.4-1.08c0.23-0.96,0.34-1.93,0.33-2.9
			c0-0.42,0.25-0.8,0.63-0.96l2.04-0.84c0.48-0.2,0.74-0.73,0.59-1.23l-0.68-2.39c-0.14-0.5-0.64-0.81-1.15-0.73l-2.18,0.36
			c-0.41,0.07-0.83-0.12-1.04-0.48c-0.5-0.82-1.11-1.59-1.81-2.28c-0.3-0.29-0.39-0.74-0.23-1.13l0.85-2.04
			c0.2-0.48,0.01-1.04-0.45-1.29l-2.17-1.21c-0.46-0.25-1.03-0.12-1.33,0.3l-1.28,1.8c-0.24,0.34-0.67,0.5-1.08,0.4
			c-0.96-0.23-1.93-0.34-2.9-0.33c-0.42,0-0.8-0.25-0.96-0.63l-0.84-2.04c-0.2-0.48-0.73-0.74-1.23-0.59l-2.39,0.68
			c-0.5,0.14-0.81,0.64-0.73,1.15l0.36,2.18c0.07,0.41-0.12,0.83-0.48,1.04c-0.82,0.5-1.59,1.11-2.28,1.81
			c-0.29,0.3-0.74,0.39-1.13,0.23l-2.04-0.85c-0.48-0.2-1.04-0.01-1.29,0.45l-1.21,2.17c-0.25,0.46-0.12,1.03,0.3,1.33l1.8,1.28
			c0.34,0.24,0.5,0.67,0.4,1.08c-0.23,0.96-0.34,1.93-0.33,2.9c0,0.42-0.25,0.8-0.63,0.96l-2.04,0.84c-0.48,0.2-0.74,0.73-0.59,1.23
			l0.68,2.39c0.14,0.5,0.64,0.81,1.15,0.73l2.18-0.36c0.41-0.07,0.83,0.12,1.04,0.48c0.5,0.82,1.11,1.59,1.81,2.28
			c0.3,0.29,0.39,0.74,0.23,1.13l-0.85,2.04c-0.2,0.48-0.01,1.04,0.45,1.29l2.17,1.21c0.46,0.25,1.03,0.12,1.33-0.3l1.28-1.8
			c0.24-0.34,0.67-0.5,1.08-0.4c0.96,0.23,1.93,0.34,2.9,0.33c0.42,0,0.8,0.25,0.96,0.63l0.84,2.04c0.2,0.48,0.73,0.74,1.23,0.59
			l2.39-0.68c0.5-0.14,0.81-0.64,0.73-1.15l-0.36-2.18c-0.07-0.41,0.12-0.83,0.48-1.04c0.82-0.5,1.59-1.11,2.28-1.81
			c0.29-0.3,0.74-0.39,1.13-0.23l2.04,0.85c0.48,0.2,1.04,0.01,1.29-0.45l1.21-2.17C410.2,329.34,410.07,328.77,409.64,328.47z
			 M391,331.68c-4.63-2.57-6.3-8.42-3.73-13.05c2.57-4.63,8.42-6.3,13.05-3.73s6.3,8.42,3.73,13.05
			C401.48,332.58,395.63,334.25,391,331.68z"/>
	</g>
	<g>
		<path class="st4" d="M339.72,320.51l-2.2-0.17c-0.42-0.03-0.77-0.32-0.9-0.72c-0.3-0.94-0.71-1.83-1.21-2.65
			c-0.22-0.36-0.2-0.81,0.05-1.15l1.32-1.78c0.31-0.42,0.26-1-0.12-1.36l-1.82-1.7c-0.38-0.36-0.97-0.37-1.36-0.03l-1.68,1.44
			c-0.32,0.27-0.77,0.32-1.14,0.13c-0.86-0.44-1.77-0.79-2.73-1.02c-0.41-0.1-0.72-0.43-0.78-0.85l-0.33-2.19
			c-0.08-0.52-0.53-0.89-1.05-0.87l-2.49,0.09c-0.52,0.02-0.94,0.42-0.98,0.94l-0.17,2.2c-0.03,0.42-0.32,0.77-0.72,0.9
			c-0.94,0.3-1.83,0.71-2.65,1.21c-0.36,0.22-0.81,0.2-1.15-0.05l-1.78-1.32c-0.42-0.31-1-0.26-1.36,0.12l-1.7,1.82
			c-0.36,0.38-0.37,0.97-0.03,1.36l1.44,1.68c0.27,0.32,0.32,0.77,0.13,1.14c-0.44,0.86-0.79,1.77-1.02,2.73
			c-0.1,0.41-0.43,0.72-0.85,0.78l-2.19,0.33c-0.52,0.08-0.89,0.53-0.87,1.05l0.09,2.49c0.02,0.52,0.42,0.94,0.94,0.98l2.2,0.17
			c0.42,0.03,0.77,0.32,0.9,0.72c0.3,0.94,0.71,1.83,1.21,2.65c0.22,0.36,0.2,0.81-0.05,1.15l-1.32,1.78
			c-0.31,0.42-0.26,1,0.12,1.36l1.82,1.7c0.38,0.36,0.97,0.37,1.36,0.03l1.68-1.44c0.32-0.27,0.77-0.32,1.14-0.13
			c0.86,0.44,1.77,0.79,2.73,1.02c0.41,0.1,0.72,0.43,0.78,0.85l0.33,2.19c0.08,0.52,0.53,0.89,1.05,0.87l2.49-0.09
			c0.52-0.02,0.94-0.42,0.98-0.94l0.17-2.2c0.03-0.42,0.32-0.77,0.72-0.9c0.94-0.3,1.83-0.71,2.65-1.21
			c0.36-0.22,0.81-0.2,1.15,0.05l1.78,1.32c0.42,0.31,1,0.26,1.36-0.12l1.7-1.82c0.36-0.38,0.37-0.97,0.03-1.36l-1.44-1.68
			c-0.27-0.32-0.32-0.77-0.13-1.14c0.44-0.86,0.79-1.77,1.02-2.73c0.1-0.41,0.43-0.72,0.85-0.78l2.19-0.33
			c0.52-0.08,0.89-0.53,0.87-1.05l-0.09-2.49C340.65,320.97,340.24,320.55,339.72,320.51z M325.41,332.88
			c-5.3,0.19-9.75-3.96-9.93-9.26s3.96-9.75,9.26-9.93c5.3-0.19,9.75,3.96,9.93,9.26C334.85,328.24,330.71,332.69,325.41,332.88z"/>
	</g>
	<g>
		<path class="st4" d="M377.86,306.66l-2.59-0.29c-0.49-0.06-0.9-0.4-1.03-0.88c-0.31-1.12-0.76-2.19-1.32-3.18
			c-0.24-0.43-0.21-0.97,0.1-1.35l1.62-2.04c0.38-0.48,0.34-1.17-0.09-1.61l-2.08-2.07c-0.44-0.43-1.13-0.47-1.61-0.09l-2.04,1.63
			c-0.39,0.31-0.92,0.35-1.35,0.1c-0.99-0.56-2.06-1-3.18-1.31c-0.48-0.13-0.83-0.54-0.88-1.03l-0.3-2.59
			c-0.07-0.61-0.59-1.07-1.2-1.07l-2.94,0c-0.61,0-1.13,0.46-1.2,1.07l-0.29,2.59c-0.06,0.49-0.4,0.9-0.88,1.03
			c-1.12,0.31-2.19,0.76-3.18,1.32c-0.43,0.24-0.97,0.21-1.35-0.1l-2.04-1.62c-0.48-0.38-1.17-0.34-1.61,0.09l-2.07,2.08
			c-0.43,0.44-0.47,1.13-0.09,1.61l1.63,2.04c0.31,0.39,0.35,0.92,0.1,1.35c-0.56,0.99-1,2.06-1.31,3.18
			c-0.13,0.48-0.54,0.83-1.03,0.88l-2.59,0.3c-0.61,0.07-1.07,0.59-1.07,1.2l0,2.94c0,0.61,0.46,1.13,1.07,1.2l2.59,0.29
			c0.49,0.06,0.9,0.4,1.03,0.88c0.31,1.12,0.76,2.19,1.32,3.18c0.24,0.43,0.21,0.97-0.1,1.35l-1.62,2.04
			c-0.38,0.48-0.34,1.17,0.09,1.61l2.08,2.07c0.44,0.43,1.13,0.47,1.61,0.09l2.04-1.63c0.39-0.31,0.92-0.35,1.35-0.1
			c0.99,0.56,2.06,1,3.18,1.31c0.48,0.13,0.83,0.54,0.88,1.03l0.3,2.59c0.07,0.61,0.59,1.07,1.2,1.07l2.94,0
			c0.61,0,1.13-0.46,1.2-1.07l0.29-2.59c0.06-0.49,0.4-0.9,0.88-1.03c1.12-0.31,2.19-0.76,3.18-1.32c0.43-0.24,0.97-0.21,1.35,0.1
			l2.04,1.62c0.48,0.38,1.17,0.34,1.61-0.09l2.07-2.08c0.43-0.44,0.47-1.13,0.09-1.61l-1.63-2.04c-0.31-0.39-0.35-0.92-0.1-1.35
			c0.56-0.99,1-2.06,1.31-3.18c0.13-0.48,0.54-0.83,1.03-0.88l2.59-0.3c0.61-0.07,1.07-0.59,1.07-1.2l0-2.94
			C378.94,307.24,378.47,306.73,377.86,306.66z M360.48,320.67c-6.26,0.01-11.33-5.06-11.34-11.32
			c-0.01-6.26,5.06-11.33,11.32-11.34c6.26-0.01,11.33,5.06,11.34,11.32C371.8,315.59,366.74,320.67,360.48,320.67z"/>
	</g>
	<g>
		<path class="st4" d="M409.18,380.28l-1.25-0.54c-0.24-0.1-0.39-0.34-0.38-0.6c0.01-0.61-0.05-1.21-0.18-1.79
			c-0.06-0.25,0.04-0.51,0.26-0.66l1.12-0.77c0.26-0.18,0.35-0.53,0.2-0.82l-0.72-1.35c-0.15-0.28-0.49-0.41-0.79-0.29l-1.27,0.5
			c-0.24,0.1-0.51,0.03-0.69-0.15c-0.41-0.43-0.88-0.82-1.39-1.14c-0.22-0.14-0.33-0.39-0.29-0.65l0.25-1.34
			c0.06-0.32-0.13-0.63-0.44-0.72l-1.47-0.45c-0.31-0.09-0.64,0.06-0.76,0.35l-0.54,1.25c-0.1,0.24-0.34,0.39-0.6,0.38
			c-0.61-0.01-1.21,0.05-1.79,0.18c-0.25,0.06-0.51-0.04-0.66-0.26l-0.77-1.12c-0.18-0.26-0.53-0.35-0.82-0.2l-1.35,0.72
			c-0.28,0.15-0.41,0.49-0.29,0.79l0.5,1.27c0.1,0.24,0.03,0.51-0.15,0.69c-0.43,0.41-0.82,0.88-1.14,1.39
			c-0.14,0.22-0.39,0.33-0.65,0.29l-1.34-0.25c-0.32-0.06-0.63,0.13-0.72,0.44l-0.45,1.47c-0.09,0.31,0.06,0.64,0.35,0.76l1.25,0.54
			c0.24,0.1,0.39,0.34,0.38,0.6c-0.01,0.61,0.05,1.21,0.18,1.79c0.06,0.25-0.04,0.51-0.26,0.66l-1.12,0.77
			c-0.26,0.18-0.35,0.53-0.2,0.82l0.72,1.35c0.15,0.28,0.49,0.41,0.79,0.29l1.27-0.5c0.24-0.1,0.51-0.03,0.69,0.15
			c0.41,0.43,0.88,0.82,1.39,1.14c0.22,0.14,0.33,0.39,0.29,0.65l-0.25,1.34c-0.06,0.32,0.13,0.63,0.44,0.72l1.47,0.45
			c0.31,0.09,0.64-0.06,0.76-0.35l0.54-1.25c0.1-0.24,0.34-0.39,0.6-0.38c0.61,0.01,1.21-0.05,1.79-0.18
			c0.25-0.06,0.51,0.04,0.66,0.26l0.77,1.12c0.18,0.26,0.53,0.35,0.82,0.2l1.35-0.72c0.28-0.15,0.41-0.49,0.29-0.79l-0.5-1.27
			c-0.1-0.24-0.03-0.51,0.15-0.69c0.43-0.41,0.82-0.88,1.14-1.39c0.14-0.22,0.39-0.33,0.65-0.29l1.34,0.25
			c0.32,0.06,0.63-0.13,0.72-0.44l0.45-1.47C409.62,380.74,409.47,380.41,409.18,380.28z M398.34,384.65
			c-3.13-0.95-4.9-4.26-3.95-7.39s4.26-4.9,7.39-3.95c3.13,0.95,4.9,4.26,3.95,7.39C404.78,383.83,401.47,385.6,398.34,384.65z"/>
	</g>
	<g>
		<g>
			<path class="st4" d="M399.97,328.07c-0.12-0.17-0.27-0.32-0.4-0.49c-0.06-0.08-0.13-0.18-0.13-0.27
				c-0.01-0.77-0.01-1.54-0.02-2.32c0.25-0.07,0.64,0.04,0.6-0.34c-0.01-0.14-0.33-0.26-0.58-0.43c0-0.82-0.01-1.77-0.01-2.73
				c0.23-0.06,0.58,0.07,0.59-0.3c0.01-0.4-0.37-0.25-0.62-0.33c0-0.57,0.02-1.13-0.02-1.69c-0.03-0.5,0.05-0.94,0.43-1.31
				c0.1-0.1,0.19-0.34,0.14-0.44c-0.05-0.1-0.28-0.17-0.44-0.17c-2.16,0-4.32,0.01-6.48,0.02c-0.47,0-0.94-0.01-1.41,0.01
				c-0.13,0.01-0.33,0.07-0.37,0.17c-0.05,0.09,0.05,0.27,0.09,0.4c0.02,0.06,0.08,0.12,0.13,0.16c0.3,0.26,0.37,0.59,0.35,0.98
				c-0.02,0.5-0.01,1.01,0.01,1.51c0.01,0.28-0.02,0.45-0.36,0.43c-0.08,0-0.24,0.17-0.24,0.26c0,0.1,0.13,0.22,0.24,0.28
				c0.09,0.05,0.22,0.02,0.33,0.03c0,0.97,0.01,1.91,0.01,2.86c-0.03-0.03-0.06-0.05-0.09-0.08c-0.16,0.14-0.46,0.27-0.47,0.42
				c-0.03,0.37,0.34,0.24,0.59,0.31c0,0.6-0.03,1.17,0.02,1.74c0.04,0.49-0.08,0.88-0.42,1.23c-0.1,0.1-0.19,0.35-0.13,0.45
				c0.05,0.11,0.29,0.16,0.44,0.16c2.32,0,4.65-0.01,6.97-0.02c0.33,0,0.66,0.01,0.99-0.01
				C400.04,328.56,400.16,328.33,399.97,328.07z M392.2,317.86c2.28-0.01,4.56-0.02,6.84-0.03c0.02,0.04,0.03,0.07,0.05,0.11
				c-0.16,0.08-0.33,0.24-0.49,0.24c-1.99,0.03-3.98,0.03-5.97,0.03c-0.16,0-0.31-0.15-0.47-0.24
				C392.17,317.94,392.18,317.9,392.2,317.86z M397.59,322.87c0,0.01,0,0.03-0.01,0.04c-0.01,0.13-0.03,0.25-0.07,0.38
				c-0.06,0.22-0.16,0.43-0.29,0.61c-0.16,0.22-0.35,0.41-0.59,0.54c-0.1,0.06-0.22,0.11-0.33,0.16c-0.1,0.04-0.21,0.06-0.32,0.09
				c-0.07,0.02-0.15,0.02-0.22,0.03c-0.08,0-0.15,0-0.23,0c-0.05-0.01-0.1-0.01-0.14-0.02c-0.17-0.02-0.33-0.06-0.48-0.13
				c-0.18-0.07-0.35-0.17-0.5-0.3c-0.11-0.09-0.21-0.2-0.3-0.31c-0.09-0.11-0.16-0.23-0.22-0.36c-0.07-0.16-0.13-0.32-0.16-0.49
				c-0.01-0.08-0.02-0.15-0.03-0.23c0-0.08,0-0.15,0-0.23c0-0.01,0-0.02,0.01-0.03c0.01-0.09,0.02-0.19,0.04-0.28
				c0.05-0.24,0.14-0.46,0.28-0.66c0.08-0.13,0.18-0.24,0.29-0.34c0.09-0.08,0.19-0.15,0.28-0.22c0.12-0.08,0.25-0.14,0.38-0.19
				c0.11-0.03,0.21-0.06,0.32-0.09c0.07-0.02,0.14-0.02,0.22-0.03c0.08,0,0.16,0,0.24,0c0.01,0,0.02,0.01,0.03,0.01
				c0.07,0.01,0.14,0.01,0.21,0.03c0.16,0.03,0.31,0.08,0.45,0.14c0.13,0.06,0.24,0.12,0.35,0.21c0.13,0.09,0.24,0.2,0.34,0.32
				c0.1,0.13,0.19,0.26,0.26,0.41c0.08,0.16,0.13,0.34,0.17,0.52c0.01,0.07,0.02,0.14,0.03,0.21
				C397.59,322.72,397.59,322.8,397.59,322.87z M392.23,328.02c0.06-0.27,0.2-0.36,0.45-0.36c1.97,0,3.94-0.01,5.91-0.03
				c0.25,0,0.42,0.07,0.52,0.36C396.8,328,394.53,328.01,392.23,328.02z"/>
		</g>
		<g>
			<path class="st4" d="M394.98,322.84c-0.34,0.04-0.67,0.09-1.01,0.13c0.01,0.14,0.08,0.43,0.23,0.68
				c0.14,0.22,0.32,0.41,0.55,0.55c0.17-0.29,0.35-0.58,0.52-0.88C395.11,323.2,395.01,323.04,394.98,322.84z"/>
		</g>
		<g>
			<path class="st4" d="M394.93,321.43c0.1,0.19,0.2,0.38,0.3,0.57c0.03,0.06,0.06,0.12,0.1,0.18c0.09-0.05,0.18-0.07,0.27-0.08
				c0.1-0.01,0.19,0.01,0.28,0.04c0.15-0.3,0.3-0.59,0.46-0.9c-0.06-0.02-0.12-0.05-0.18-0.07c-0.22-0.07-0.45-0.1-0.69-0.08
				c-0.21,0.02-0.41,0.08-0.6,0.18c-0.02,0.01-0.02,0.02-0.01,0.04C394.89,321.35,394.91,321.39,394.93,321.43z"/>
		</g>
		<g>
			<path class="st4" d="M396.35,322.83c-0.03,0-0.04,0.01-0.04,0.04c-0.02,0.14-0.08,0.26-0.17,0.36c-0.03,0.03-0.06,0.06-0.09,0.08
				c0.2,0.27,0.4,0.54,0.6,0.8c0.26-0.2,0.44-0.44,0.56-0.73c0.06-0.16,0.1-0.32,0.11-0.48c-0.06,0-0.11-0.01-0.16-0.01
				C396.89,322.86,396.62,322.85,396.35,322.83z"/>
		</g>
		<g>
			<path class="st4" d="M395.65,322.37c-0.22,0-0.4,0.18-0.39,0.4c0,0.22,0.18,0.4,0.4,0.4c0.23,0,0.39-0.18,0.39-0.38
				C396.05,322.55,395.87,322.37,395.65,322.37z"/>
		</g>
	</g>
	<g>
		<path class="st4" d="M387.4,348.31l-1.88-0.33c-0.36-0.06-0.64-0.34-0.71-0.69c-0.18-0.83-0.45-1.63-0.82-2.38
			c-0.16-0.33-0.11-0.71,0.14-0.98l1.28-1.41c0.3-0.33,0.3-0.84,0.01-1.18l-1.42-1.61c-0.3-0.34-0.8-0.4-1.17-0.14l-1.56,1.09
			c-0.3,0.21-0.69,0.21-0.99,0.01c-0.7-0.45-1.45-0.83-2.26-1.1c-0.34-0.12-0.58-0.43-0.6-0.79l-0.1-1.9
			c-0.02-0.45-0.38-0.81-0.83-0.84l-2.14-0.13c-0.45-0.03-0.85,0.29-0.92,0.73l-0.33,1.88c-0.06,0.36-0.34,0.64-0.69,0.71
			c-0.83,0.18-1.63,0.45-2.38,0.82c-0.33,0.16-0.71,0.11-0.98-0.14l-1.41-1.28c-0.33-0.3-0.84-0.3-1.18-0.01l-1.61,1.42
			c-0.34,0.3-0.4,0.8-0.14,1.17l1.09,1.56c0.21,0.3,0.21,0.69,0.01,0.99c-0.45,0.7-0.83,1.45-1.1,2.26
			c-0.12,0.34-0.43,0.58-0.79,0.6l-1.9,0.1c-0.45,0.02-0.81,0.38-0.84,0.83l-0.13,2.14c-0.03,0.45,0.29,0.85,0.73,0.92l1.88,0.33
			c0.36,0.06,0.64,0.34,0.71,0.69c0.18,0.83,0.45,1.63,0.82,2.38c0.16,0.33,0.11,0.71-0.14,0.98l-1.28,1.41
			c-0.3,0.33-0.3,0.84-0.01,1.18l1.42,1.61c0.3,0.34,0.8,0.4,1.17,0.14l1.56-1.09c0.3-0.21,0.69-0.21,0.99-0.01
			c0.7,0.45,1.45,0.83,2.26,1.1c0.34,0.12,0.58,0.43,0.6,0.79l0.1,1.9c0.02,0.45,0.38,0.81,0.83,0.84l2.14,0.13
			c0.45,0.03,0.85-0.29,0.92-0.73l0.33-1.88c0.06-0.36,0.34-0.64,0.69-0.71c0.83-0.18,1.63-0.45,2.38-0.82
			c0.33-0.16,0.71-0.11,0.98,0.14l1.41,1.28c0.33,0.3,0.84,0.3,1.18,0.01l1.61-1.42c0.34-0.3,0.4-0.8,0.14-1.17l-1.09-1.56
			c-0.21-0.3-0.21-0.69-0.01-0.99c0.45-0.7,0.83-1.45,1.1-2.26c0.12-0.34,0.43-0.58,0.79-0.6l1.9-0.1c0.45-0.02,0.81-0.38,0.84-0.83
			l0.13-2.14C388.16,348.79,387.84,348.39,387.4,348.31z M374.08,357.73c-4.56-0.28-8.03-4.21-7.74-8.78
			c0.28-4.56,4.21-8.03,8.78-7.74c4.56,0.28,8.03,4.21,7.74,8.78C382.57,354.54,378.64,358.01,374.08,357.73z"/>
	</g>
	<g>
		<g>
			<path class="st4" d="M404.71,354.11c0.05-0.04,0.1-0.08,0.15-0.12c0.19-0.16,0.39-0.31,0.63-0.39c0.38-0.13,0.72-0.07,1,0.23
				c0.15,0.16,0.28,0.34,0.39,0.52c0.16,0.26,0.29,0.54,0.43,0.81c0.13,0.23,0.25,0.46,0.45,0.64c0.22,0.21,0.39,0.22,0.63,0.02
				c0.25-0.2,0.4-0.47,0.55-0.75c0.06-0.11,0.11-0.24,0.17-0.34c-0.02-0.08-0.03-0.16-0.06-0.23c-0.02-0.07-0.05-0.15-0.1-0.19
				c-0.12-0.12-0.12-0.23-0.04-0.36c-0.05-0.21-0.03-0.25,0.12-0.35c0-0.02,0-0.05-0.01-0.08c-0.01-0.18,0.12-0.27,0.28-0.19
				c0.23,0.12,0.46,0.24,0.7,0.37c0.12,0.06,0.23,0.12,0.35,0.18c0.09,0.05,0.18,0.09,0.18,0.21c0,0.12-0.08,0.16-0.16,0.2
				c-0.01,0.21-0.03,0.24-0.23,0.3c-0.09,0.18-0.1,0.19-0.3,0.17c-0.08-0.01-0.16,0.02-0.24,0.03c-0.02,0-0.04,0.03-0.06,0.03
				c-0.16-0.01-0.21,0.11-0.26,0.23c-0.16,0.34-0.35,0.66-0.63,0.93c-0.12,0.12-0.25,0.21-0.41,0.25c-0.25,0.06-0.46,0-0.65-0.17
				c-0.23-0.2-0.38-0.45-0.52-0.71c-0.15-0.27-0.29-0.55-0.44-0.83c-0.12-0.21-0.24-0.41-0.44-0.57c-0.2-0.16-0.41-0.19-0.63-0.08
				c-0.21,0.09-0.39,0.22-0.57,0.39c0.08,0.05,0.14,0.09,0.21,0.13c0.28,0.17,0.57,0.33,0.85,0.5c0.04,0.02,0.08,0.05,0.11,0.08
				c0.11,0.09,0.13,0.22,0.03,0.35c-0.41,0.51-0.82,1.03-1.22,1.54c-0.33,0.42-0.67,0.84-1,1.27c-0.02,0.02-0.03,0.04-0.05,0.06
				c-0.15,0.17-0.25,0.19-0.45,0.08c-0.58-0.34-1.16-0.68-1.74-1.02c-0.17-0.1-0.34-0.2-0.5-0.3c-0.19-0.11-0.22-0.22-0.14-0.42
				c0.48-1.11,0.95-2.22,1.43-3.33c0.08-0.19,0.21-0.24,0.4-0.14c0.16,0.08,0.31,0.18,0.46,0.27c0.42,0.25,0.83,0.49,1.25,0.74
				C404.65,354.08,404.67,354.09,404.71,354.11z M405.45,355.37c-0.01-0.11-0.05-0.19-0.14-0.25c-0.09-0.05-0.18-0.05-0.26,0.01
				c-0.05,0.03-0.1,0.08-0.14,0.13c-0.27,0.35-0.54,0.7-0.8,1.06c-0.22,0.3-0.45,0.59-0.67,0.89c-0.06,0.07-0.1,0.15-0.07,0.25
				c0.03,0.1,0.09,0.18,0.2,0.2c0.13,0.02,0.22-0.04,0.29-0.13c0.5-0.66,1-1.32,1.5-1.99C405.41,355.49,405.42,355.42,405.45,355.37
				z M401.73,356.39c0,0.21,0.14,0.33,0.3,0.29c0.09-0.02,0.16-0.08,0.2-0.17c0.04-0.09,0.08-0.19,0.13-0.28
				c0.29-0.66,0.58-1.32,0.87-1.99c0.03-0.06,0.04-0.13,0.04-0.2c-0.01-0.19-0.22-0.3-0.38-0.19c-0.06,0.04-0.11,0.12-0.15,0.19
				c-0.33,0.74-0.65,1.48-0.98,2.22C401.75,356.32,401.74,356.37,401.73,356.39z M404.37,354.72c-0.01-0.12-0.06-0.2-0.15-0.25
				c-0.08-0.05-0.17-0.03-0.24,0.02c-0.06,0.05-0.11,0.12-0.16,0.18c-0.33,0.55-0.65,1.1-0.97,1.64c-0.09,0.16-0.19,0.31-0.27,0.47
				c-0.07,0.13-0.03,0.27,0.08,0.35c0.1,0.07,0.23,0.05,0.33-0.05c0.03-0.03,0.05-0.06,0.07-0.09c0.42-0.71,0.84-1.42,1.25-2.12
				C404.34,354.82,404.35,354.76,404.37,354.72z"/>
		</g>
		<g>
			<path class="st4" d="M412.89,351.34c-0.03,0.41-0.21,0.75-0.53,1.02c-0.17,0.14-0.35,0.26-0.54,0.37
				c-0.4,0.25-0.76,0.53-1.03,0.93c-0.07,0.11-0.17,0.12-0.3,0.06c-0.24-0.12-0.48-0.25-0.72-0.38c-0.11-0.06-0.21-0.12-0.32-0.17
				c-0.14-0.08-0.17-0.15-0.12-0.31c0.03-0.1,0.07-0.2,0.1-0.3c0.1-0.34,0.11-0.69,0.09-1.05c-0.02-0.33-0.03-0.66,0.07-0.98
				c0.16-0.51,0.52-0.8,1.05-0.9c0.39-0.08,0.75,0.02,1.11,0.16c0.34,0.14,0.61,0.37,0.83,0.66
				C412.77,350.7,412.87,351,412.89,351.34z M412.4,351.36c-0.01-0.07-0.01-0.13-0.02-0.18c-0.06-0.3-0.21-0.54-0.48-0.7
				c-0.08-0.05-0.16-0.05-0.24,0.01c-0.12,0.09-0.1,0.24,0.04,0.34c0.23,0.16,0.33,0.37,0.27,0.65c-0.02,0.12,0.04,0.22,0.15,0.25
				c0.1,0.03,0.21-0.04,0.24-0.15C412.39,351.51,412.39,351.43,412.4,351.36z"/>
		</g>
		<g>
			<path class="st4" d="M405.51,352.58c0.13,0.01,0.24,0.03,0.36,0.04c0.38,0.04,0.76,0.07,1.13,0.11c0.18,0.02,0.26,0.19,0.19,0.34
				c-0.04,0.09-0.12,0.12-0.21,0.12c-0.19-0.01-0.38-0.02-0.57-0.04c-0.4-0.03-0.79-0.07-1.19-0.1c-0.41-0.04-0.82-0.08-1.23-0.11
				c-0.27-0.02-0.53-0.05-0.8-0.07c-0.05,0-0.1-0.01-0.15-0.02c-0.15-0.03-0.21-0.11-0.19-0.26c0.01-0.13,0.1-0.21,0.24-0.2
				c0.34,0.03,0.68,0.06,1.01,0.09c0.16,0.01,0.31,0.03,0.49,0.04c0-0.1-0.01-0.18,0-0.27c0.02-0.21,0.11-0.29,0.32-0.27
				c0.14,0.01,0.29,0.02,0.43,0.05c0.14,0.02,0.22,0.14,0.2,0.27C405.54,352.38,405.53,352.47,405.51,352.58z"/>
		</g>
	</g>
	<g>
		<path class="st4" d="M418.51,347.46l-1.9,0.48c-0.36,0.09-0.74-0.05-0.96-0.35c-0.52-0.71-1.12-1.34-1.77-1.89
			c-0.29-0.24-0.4-0.63-0.29-0.98l0.6-1.87c0.14-0.44-0.07-0.92-0.49-1.11l-2.01-0.91c-0.42-0.19-0.92-0.03-1.16,0.36l-1,1.69
			c-0.19,0.32-0.56,0.49-0.93,0.43c-0.85-0.13-1.72-0.16-2.59-0.08c-0.37,0.03-0.73-0.16-0.9-0.49l-0.9-1.75
			c-0.21-0.41-0.7-0.6-1.13-0.44l-2.07,0.78c-0.43,0.16-0.67,0.63-0.56,1.08l0.48,1.9c0.09,0.36-0.05,0.74-0.35,0.96
			c-0.71,0.52-1.34,1.12-1.89,1.77c-0.24,0.29-0.63,0.4-0.98,0.29l-1.87-0.6c-0.44-0.14-0.92,0.07-1.11,0.49l-0.91,2.01
			c-0.19,0.42-0.03,0.92,0.36,1.16l1.69,1c0.32,0.19,0.49,0.56,0.43,0.93c-0.13,0.85-0.16,1.72-0.08,2.59
			c0.03,0.37-0.16,0.73-0.49,0.9l-1.75,0.9c-0.41,0.21-0.6,0.7-0.44,1.13l0.78,2.07c0.16,0.43,0.63,0.67,1.08,0.56l1.9-0.48
			c0.36-0.09,0.74,0.05,0.96,0.35c0.52,0.71,1.12,1.34,1.77,1.89c0.29,0.24,0.4,0.63,0.29,0.98l-0.6,1.87
			c-0.14,0.44,0.07,0.92,0.49,1.11l2.01,0.91c0.42,0.19,0.92,0.03,1.16-0.36l1-1.69c0.19-0.32,0.56-0.49,0.93-0.43
			c0.85,0.13,1.72,0.16,2.59,0.08c0.37-0.03,0.73,0.16,0.9,0.49l0.9,1.75c0.21,0.41,0.7,0.6,1.13,0.44l2.07-0.78
			c0.43-0.16,0.67-0.63,0.56-1.08l-0.48-1.9c-0.09-0.36,0.05-0.74,0.35-0.96c0.71-0.52,1.34-1.12,1.89-1.77
			c0.24-0.29,0.63-0.4,0.98-0.29l1.87,0.6c0.44,0.14,0.92-0.07,1.11-0.49l0.91-2.01c0.19-0.42,0.03-0.92-0.36-1.16l-1.69-1
			c-0.32-0.19-0.49-0.56-0.43-0.93c0.13-0.85,0.16-1.72,0.08-2.59c-0.03-0.37,0.16-0.73,0.49-0.9l1.75-0.9
			c0.41-0.21,0.6-0.7,0.44-1.13l-0.78-2.07C419.42,347.59,418.96,347.34,418.51,347.46z M409.98,361.95
			c-4.41,1.67-9.33-0.55-11-4.96c-1.67-4.41,0.55-9.33,4.96-11c4.41-1.67,9.33,0.55,11,4.96S414.39,360.28,409.98,361.95z"/>
	</g>
	<g>
		<g>
			<path class="st4" d="M357.11,316.21c-0.47,0-0.94,0-1.4,0c-0.43,0-0.84-0.07-1.23-0.23c-0.93-0.39-1.54-1.07-1.86-2.02
				c-0.13-0.4-0.18-0.81-0.14-1.23c0.04-0.47,0.17-0.91,0.41-1.32c0.29-0.52,0.6-1.04,0.89-1.55c0.02-0.04,0.05-0.08,0.06-0.12
				c0.03-0.1-0.01-0.19-0.11-0.24c-0.14-0.08-0.29-0.17-0.44-0.25c-0.05-0.03-0.09-0.06-0.11-0.12c-0.05-0.13,0.01-0.26,0.15-0.3
				c0.17-0.05,0.34-0.09,0.51-0.14c0.65-0.18,1.31-0.35,1.96-0.53c0.04-0.01,0.09-0.02,0.13-0.02c0.1,0.01,0.16,0.08,0.19,0.18
				c0.05,0.21,0.11,0.41,0.17,0.62c0.16,0.61,0.33,1.21,0.49,1.82c0.01,0.02,0.01,0.05,0.02,0.07c0.01,0.09-0.01,0.16-0.09,0.21
				c-0.08,0.05-0.16,0.06-0.24,0.01c-0.15-0.08-0.3-0.17-0.44-0.25c-0.03-0.02-0.07-0.04-0.11-0.04c-0.09-0.01-0.16,0.03-0.21,0.11
				c-0.08,0.14-0.17,0.29-0.25,0.44c-0.21,0.37-0.43,0.74-0.64,1.12c-0.08,0.14-0.14,0.28-0.16,0.44c-0.02,0.2,0.01,0.39,0.1,0.57
				c0.2,0.39,0.51,0.6,0.95,0.6c1.01,0,2.02,0,3.04,0c0.23,0,0.44,0.05,0.64,0.18c0.33,0.22,0.51,0.52,0.51,0.93
				c0,0.54-0.43,1.01-0.98,1.06c-0.07,0.01-0.13,0.01-0.2,0.01C358.17,316.21,357.64,316.21,357.11,316.21z"/>
		</g>
		<g>
			<path class="st4" d="M356.01,306.29c0.01-0.21,0.05-0.38,0.14-0.54c0.23-0.4,0.46-0.8,0.69-1.2c0.29-0.5,0.57-1,0.87-1.5
				c0.48-0.79,1.18-1.29,2.09-1.48c0.32-0.07,0.64-0.09,0.96-0.06c1.09,0.12,1.92,0.64,2.49,1.58c0.32,0.54,0.63,1.08,0.95,1.63
				c0.05,0.09,0.12,0.14,0.22,0.13c0.04,0,0.08-0.02,0.11-0.04c0.15-0.08,0.29-0.17,0.44-0.25c0.07-0.04,0.14-0.05,0.22-0.01
				c0.1,0.05,0.14,0.15,0.11,0.26c-0.06,0.24-0.13,0.48-0.19,0.71c-0.16,0.59-0.31,1.18-0.47,1.77c-0.04,0.16-0.15,0.22-0.3,0.18
				c-0.83-0.22-1.65-0.44-2.48-0.66c-0.14-0.04-0.21-0.16-0.17-0.28c0.02-0.06,0.06-0.1,0.11-0.13c0.14-0.08,0.28-0.17,0.43-0.25
				c0.15-0.08,0.16-0.23,0.09-0.34c-0.31-0.53-0.62-1.06-0.93-1.59c-0.17-0.29-0.41-0.46-0.73-0.52c-0.4-0.07-0.85,0.08-1.09,0.48
				c-0.22,0.38-0.44,0.77-0.66,1.15c-0.29,0.5-0.57,1-0.86,1.49c-0.19,0.32-0.47,0.51-0.84,0.54c-0.51,0.05-0.97-0.26-1.13-0.73
				c-0.02-0.05-0.03-0.11-0.04-0.16C356.02,306.4,356.01,306.34,356.01,306.29z"/>
		</g>
		<g>
			<path class="st4" d="M364.4,316.21c-0.36,0-0.73,0-1.09,0c-0.13,0-0.2,0.08-0.22,0.16c-0.01,0.03-0.01,0.06-0.01,0.08
				c0,0.16,0,0.32,0,0.47c0,0.02,0,0.05,0,0.07c-0.01,0.08-0.06,0.15-0.14,0.18c-0.08,0.02-0.16,0.02-0.22-0.04
				c-0.04-0.04-0.08-0.08-0.13-0.12c-0.57-0.57-1.13-1.13-1.7-1.7c-0.04-0.04-0.08-0.08-0.09-0.14c-0.02-0.09,0.01-0.16,0.07-0.22
				c0.21-0.21,0.42-0.42,0.63-0.63c0.39-0.39,0.78-0.78,1.18-1.18c0.06-0.06,0.12-0.09,0.2-0.08c0.11,0.01,0.2,0.1,0.2,0.22
				c0,0.17,0.01,0.34,0,0.5c-0.01,0.17,0.12,0.25,0.25,0.25c0.64,0,1.28,0,1.92,0c0.63,0,1-0.5,1.05-0.94
				c0.03-0.23-0.03-0.45-0.14-0.65c-0.24-0.41-0.47-0.82-0.71-1.24c-0.25-0.44-0.51-0.88-0.76-1.31c-0.36-0.64-0.04-1.41,0.66-1.6
				c0.45-0.12,0.95,0.07,1.19,0.48c0.29,0.49,0.57,0.98,0.85,1.47c0.23,0.39,0.46,0.79,0.68,1.18c0.21,0.38,0.34,0.78,0.39,1.21
				c0.09,0.86-0.14,1.64-0.67,2.32c-0.49,0.63-1.13,1.02-1.91,1.18c-0.22,0.05-0.44,0.06-0.67,0.06
				C364.95,316.21,364.67,316.21,364.4,316.21z"/>
		</g>
	</g>
	<g>
		<g>
			<path class="st5" d="M373.75,345.41c-0.06-0.06-0.12-0.12-0.18-0.18c-0.31-0.3-0.62-0.61-0.93-0.91c-0.06-0.05-0.09-0.05-0.15,0
				c-0.04,0.04-0.09,0.08-0.13,0.12c-0.51,0.51-1.02,1.01-1.53,1.52c-0.01,0.01-0.02,0.02-0.03,0.04c0.02,0,0.02,0,0.03,0
				c0.77,0,1.53,0,2.3,0c0.02,0,0.04-0.01,0.05-0.02C373.37,345.79,373.55,345.6,373.75,345.41z"/>
		</g>
		<g>
			<path class="st5" d="M369.45,346.69c0-0.06,0.01-0.12,0.01-0.18c0.01-0.1,0.03-0.14,0.13-0.14c0.3-0.01,0.59-0.02,0.89-0.02
				c2.78,0,5.57,0,8.35,0c0.26,0,0.51,0.01,0.77,0.02c0.08,0,0.12,0.04,0.12,0.12c0.01,0.27,0.01,0.55,0.01,0.82
				c0,0.01,0,0.03-0.01,0.04c-0.06,0.05-0.11,0.1-0.21,0.1c-3.25,0-6.5,0-9.75,0c-0.13,0-0.24-0.01-0.33-0.11
				C369.45,347.12,369.45,346.91,369.45,346.69z"/>
		</g>
		<g>
			<path class="st5" d="M376.26,343.47c0.28,0.26,0.56,0.52,0.83,0.79c0.56,0.56,1.12,1.12,1.68,1.68c0.01,0.01,0.02,0.03,0.04,0.05
				c-1.72,0-3.43,0-5.15,0c0.02-0.02,0.03-0.03,0.04-0.04c0.72-0.72,1.44-1.44,2.16-2.15c0.11-0.11,0.24-0.22,0.35-0.33
				C376.24,343.47,376.25,343.47,376.26,343.47z"/>
		</g>
		<g>
			<path class="st4" d="M369.99,347.77c0.03,0.19,0.05,0.36,0.08,0.54c0.07,0.41,0.13,0.82,0.2,1.23c0.07,0.43,0.14,0.85,0.21,1.28
				c0.07,0.43,0.14,0.85,0.21,1.28c0.07,0.43,0.15,0.87,0.22,1.3c0.07,0.42,0.13,0.84,0.2,1.27c0.03,0.18,0.06,0.36,0.09,0.54
				c0.02,0.1,0.05,0.19,0.13,0.26c2.02,0,4.04,0,6.05,0c0.08,0,0.16-0.01,0.24-0.01c0.06,0,0.11,0,0.16-0.01
				c0.1-0.01,0.15-0.05,0.17-0.16c0.04-0.2,0.07-0.4,0.1-0.6c0.06-0.37,0.12-0.73,0.18-1.1c0.06-0.39,0.13-0.77,0.19-1.16
				c0.07-0.41,0.13-0.82,0.2-1.23c0.06-0.39,0.13-0.77,0.19-1.16c0.07-0.41,0.13-0.83,0.2-1.24c0.05-0.33,0.11-0.66,0.16-1
				C376.12,347.76,373.06,347.77,369.99,347.77z M372.87,350.16c0.16-0.25,0.32-0.51,0.49-0.76c0.11-0.17,0.26-0.21,0.45-0.15
				c0.18,0.05,0.29,0.18,0.39,0.32c0.09,0.15,0.18,0.3,0.26,0.45c0.01,0.01,0.01,0.04,0,0.05c-0.21,0.33-0.42,0.65-0.63,0.98
				c0,0,0,0-0.01,0.01c-0.35-0.24-0.7-0.48-1.05-0.72C372.8,350.28,372.83,350.22,372.87,350.16z M372.81,353.33
				c0,0.02,0,0.04,0,0.07c-0.01-0.02-0.02-0.02-0.03-0.03c-0.24-0.42-0.48-0.85-0.72-1.27c-0.02-0.03-0.03-0.06-0.04-0.08
				c-0.06-0.13-0.05-0.26,0.02-0.38c0.09-0.15,0.18-0.29,0.28-0.45c-0.07-0.04-0.14-0.09-0.21-0.13c-0.04-0.02-0.07-0.04-0.06-0.09
				c0.01-0.05,0.05-0.05,0.09-0.05c0.16-0.01,0.31-0.02,0.47-0.02c0.2,0,0.41,0,0.61,0c0.04,0,0.06,0.01,0.08,0.04
				c0.16,0.3,0.32,0.61,0.47,0.91c0.02,0.03,0.02,0.08,0.03,0.12c-0.04-0.01-0.09-0.01-0.12-0.03c-0.2-0.1-0.15-0.1-0.26,0.07
				c-0.17,0.26-0.33,0.52-0.49,0.79C372.83,352.97,372.77,353.14,372.81,353.33z M374.54,353.76c-0.02,0-0.04,0-0.06,0
				c-0.42,0-0.84,0-1.27,0c-0.03,0-0.07-0.02-0.09-0.04c-0.16-0.14-0.17-0.32-0.16-0.51c0.01-0.16,0.07-0.29,0.15-0.43
				c0.06-0.1,0.12-0.19,0.18-0.29c0.01-0.02,0.04-0.03,0.06-0.03c0.39,0,0.78,0,1.17,0C374.54,352.9,374.54,353.32,374.54,353.76z
				 M374.71,350.71c-0.02-0.01-0.04-0.03-0.06-0.04c0.01-0.02,0.03-0.04,0.04-0.05c0.03-0.02,0.07-0.04,0.1-0.06
				c0.03-0.02,0.07-0.03,0.11-0.06c-0.16-0.31-0.31-0.61-0.47-0.91c-0.12-0.23-0.29-0.4-0.55-0.47c-0.01,0-0.02-0.01-0.04-0.02
				c0.03,0,0.05,0,0.06,0c0.46,0,0.93,0,1.39,0.01c0.08,0,0.17,0.01,0.25,0.03c0.14,0.04,0.23,0.13,0.3,0.25
				c0.07,0.13,0.14,0.26,0.21,0.39c0.03,0.06,0.06,0.06,0.12,0.04c0.06-0.03,0.12-0.05,0.18-0.07c0.02-0.01,0.05,0,0.08,0
				c0,0.03,0,0.05,0,0.08c-0.01,0.03-0.02,0.07-0.04,0.09c-0.16,0.27-0.32,0.54-0.47,0.8c-0.04,0.07-0.1,0.1-0.19,0.09
				c-0.31-0.03-0.63-0.06-0.94-0.09C374.76,350.72,374.73,350.72,374.71,350.71z M377.18,352.2c-0.25,0.46-0.51,0.91-0.76,1.37
				c-0.07,0.14-0.18,0.19-0.32,0.2c-0.1,0.01-0.19,0.01-0.29,0.01c-0.08,0-0.17,0-0.26,0c0,0.08-0.01,0.14-0.01,0.21
				c0,0.04,0.01,0.1-0.04,0.12c-0.06,0.02-0.09-0.03-0.12-0.07c-0.08-0.11-0.16-0.23-0.24-0.35c-0.1-0.15-0.19-0.3-0.3-0.45
				c-0.04-0.06-0.05-0.12-0.01-0.19c0.08-0.15,0.16-0.3,0.25-0.44c0.08-0.14,0.17-0.28,0.25-0.41c0.02-0.03,0.06-0.05,0.09-0.08
				c0.01,0.04,0.04,0.08,0.04,0.12c0.01,0.06,0.01,0.11,0.01,0.17c0.02,0,0.04,0,0.06,0c0.31,0,0.63,0,0.94-0.01
				c0.26-0.01,0.5-0.07,0.69-0.27c0.01-0.01,0.02-0.02,0.05-0.02C377.19,352.16,377.19,352.18,377.18,352.2z M377.12,351.96
				c-0.16,0.18-0.35,0.3-0.6,0.29c-0.14,0-0.28,0-0.42,0c-0.02,0-0.05-0.01-0.07-0.03c-0.2-0.33-0.4-0.66-0.59-1
				c0-0.01-0.01-0.02-0.02-0.04c0.36-0.21,0.72-0.41,1.08-0.62c0.07,0.1,0.14,0.19,0.2,0.28c0.15,0.23,0.3,0.46,0.45,0.69
				C377.25,351.68,377.23,351.83,377.12,351.96z"/>
		</g>
		<g>
			<path class="st5" d="M373.75,345.41c-0.19,0.19-0.38,0.38-0.57,0.57c-0.01,0.01-0.04,0.02-0.05,0.02c-0.77,0-1.53,0-2.3,0
				c-0.01,0-0.01,0-0.03,0c0.01-0.02,0.02-0.03,0.03-0.04c0.51-0.51,1.02-1.01,1.53-1.52c0.04-0.04,0.09-0.08,0.13-0.12
				c0.06-0.05,0.1-0.05,0.15,0c0.31,0.3,0.62,0.61,0.93,0.91C373.63,345.29,373.68,345.34,373.75,345.41z"/>
		</g>
	</g>
	<g>
		<g>
			<path class="st5" d="M345.63,350.84c-0.35,0.38-0.78,0.36-1.05,0.21c-0.36-0.19-0.49-0.51-0.41-1.03c-0.07,0-0.14,0-0.21,0
				c-0.12,0-0.18-0.06-0.21-0.17c-0.12-0.61-0.25-1.22-0.36-1.83c-0.01-0.06,0-0.13,0.03-0.18c0.3-0.55,0.6-1.09,0.91-1.64
				c0.05-0.09,0.11-0.13,0.21-0.13c0.25,0,0.5,0,0.75,0c-0.33,1.23-0.65,2.45-0.98,3.67c0.01,0,0.01,0.01,0.02,0.01
				c0.02-0.02,0.04-0.04,0.06-0.05c0.1-0.07,0.2-0.14,0.31-0.19c0.06-0.03,0.08-0.06,0.1-0.11c0.29-1.08,0.57-2.15,0.86-3.22
				c0.01-0.03,0.02-0.06,0.03-0.1c0.96,0,1.92,0,2.9,0c-0.02,0.03-0.03,0.05-0.05,0.07c-0.43,0.5-0.87,1-1.31,1.49
				c-0.38,0.44-0.37,0.95,0.03,1.37c0.3,0.31,0.6,0.63,0.9,0.94c0.02,0.02,0.03,0.04,0.06,0.07c-0.38,0-0.75,0-1.12,0
				c0.11,0.47-0.02,0.83-0.45,1.05C346.4,351.21,345.97,351.22,345.63,350.84z M345.44,350.31c0-0.26-0.21-0.46-0.47-0.46
				c-0.26,0-0.47,0.21-0.47,0.47c0,0.25,0.22,0.47,0.47,0.47C345.24,350.78,345.44,350.57,345.44,350.31z M345.82,350.31
				c0,0.26,0.21,0.47,0.47,0.47c0.26,0,0.47-0.21,0.47-0.47c0-0.26-0.21-0.47-0.47-0.47C346.03,349.84,345.82,350.05,345.82,350.31z
				"/>
		</g>
		<g>
			<path class="st5" d="M349.02,349.71c0-0.25,0-0.51,0-0.78c0-0.43,0-0.87,0-1.3c0-0.38,0.24-0.61,0.61-0.61c0.24,0,0.49,0,0.74,0
				c0.3,0,0.52,0.13,0.67,0.39c0.17,0.3,0.34,0.59,0.51,0.89c0.07,0.12,0.1,0.25,0.1,0.39c0,0.38,0,0.77,0,1.15
				c0,0.33-0.24,0.57-0.57,0.57c-0.21,0-0.43,0-0.64,0c-0.04,0-0.07,0-0.11,0c-0.03,0.19-0.1,0.35-0.23,0.49
				c-0.27,0.29-0.7,0.35-1.03,0.15c-0.34-0.2-0.5-0.6-0.38-0.97c0.02-0.07,0.01-0.11-0.04-0.17c-0.38-0.39-0.75-0.77-1.12-1.16
				c-0.25-0.26-0.26-0.56-0.02-0.84c0.8-0.92,1.6-1.84,2.4-2.75c0.1-0.11,0.1-0.2-0.01-0.3c-0.16,0.19-0.32,0.37-0.48,0.55
				c-0.41-0.41-0.81-0.81-1.22-1.22c0.59-0.51,1.18-1.03,1.76-1.54c0.33,0.33,0.66,0.66,1,1c-0.18,0.2-0.37,0.42-0.56,0.64
				c-0.21-0.21-0.42-0.42-0.63-0.63c-0.09,0.1-0.17,0.18-0.26,0.27c0.01,0.01,0.02,0.03,0.04,0.04c0.21,0.21,0.41,0.41,0.62,0.62
				c0.25,0.25,0.25,0.56,0.02,0.83c-0.49,0.56-0.99,1.13-1.48,1.69c-0.04,0.05-0.06,0.1-0.06,0.16c0,0.67,0,1.35,0,2.02
				c0,0.05,0.02,0.1,0.05,0.13C348.8,349.52,348.91,349.62,349.02,349.71z M351.29,348.71c-0.04-0.1-0.05-0.2-0.1-0.28
				c-0.14-0.26-0.3-0.51-0.44-0.77c-0.13-0.24-0.27-0.3-0.6-0.25c0,0.01-0.01,0.01-0.01,0.02c0,0.37,0,0.73,0,1.1
				c0,0.12,0.08,0.19,0.2,0.19c0.21,0,0.42,0,0.63,0C351.08,348.71,351.17,348.71,351.29,348.71z M349.96,350.3
				c0-0.26-0.21-0.46-0.47-0.46c-0.26,0-0.47,0.21-0.47,0.47c0,0.26,0.21,0.46,0.47,0.47C349.75,350.78,349.96,350.57,349.96,350.3z
				"/>
		</g>
		<g>
			<path class="st5" d="M349.77,346.45c0.11-0.13,0.2-0.24,0.3-0.34c0.02-0.02,0.05-0.03,0.08-0.03c0.18,0,0.37,0,0.55,0
				c0.04,0,0.09,0.02,0.13,0.04c0.18,0.12,0.36,0.23,0.54,0.36c0.1,0.07,0.13,0.18,0.07,0.27c-0.06,0.09-0.17,0.11-0.28,0.04
				c-0.14-0.09-0.27-0.19-0.41-0.27c-0.05-0.03-0.12-0.06-0.18-0.06C350.3,346.45,350.05,346.45,349.77,346.45z"/>
		</g>
		<g>
			<path class="st5" d="M348.64,344.95c0.1,0,0.19,0.09,0.19,0.19c0,0.1-0.09,0.19-0.19,0.19c-0.1,0-0.19-0.09-0.19-0.19
				C348.46,345.03,348.55,344.95,348.64,344.95z"/>
		</g>
		<g>
			<path class="st5" d="M348.45,344.77c0,0.1-0.08,0.18-0.19,0.18c-0.11,0-0.19-0.09-0.18-0.2c0-0.1,0.09-0.18,0.19-0.18
				C348.38,344.58,348.46,344.66,348.45,344.77z"/>
		</g>
		<g>
			<path class="st5" d="M347.33,345.14c0-0.1,0.08-0.19,0.18-0.19c0.1,0,0.19,0.09,0.19,0.19c0,0.1-0.09,0.19-0.19,0.18
				C347.41,345.32,347.33,345.24,347.33,345.14z"/>
		</g>
		<g>
			<path class="st5" d="M348.64,345.7c0,0.1-0.08,0.19-0.18,0.19c-0.1,0-0.19-0.08-0.19-0.19c0-0.1,0.09-0.19,0.19-0.19
				C348.56,345.51,348.64,345.6,348.64,345.7z"/>
		</g>
		<g>
			<path class="st5" d="M348.27,345.33c0,0.1-0.09,0.18-0.19,0.18c-0.11,0-0.19-0.09-0.19-0.2c0-0.1,0.09-0.18,0.19-0.18
				C348.19,345.14,348.27,345.23,348.27,345.33z"/>
		</g>
		<g>
			<path class="st5" d="M347.89,345.7c0,0.1-0.08,0.19-0.18,0.19c-0.1,0-0.19-0.08-0.19-0.19c0-0.1,0.09-0.19,0.19-0.19
				C347.8,345.51,347.89,345.6,347.89,345.7z"/>
		</g>
	</g>
	<g>
		<g>
			<path class="st5" d="M358.88,372.02c-0.03,0.08-0.06,0.15-0.09,0.23c-0.01,0.03,0,0.06,0.01,0.09c0.09,0.23,0.19,0.46,0.28,0.7
				c0.03,0.08,0.05,0.16,0.08,0.25c0.07-0.04,0.15-0.07,0.22-0.12c0.17-0.1,0.33-0.21,0.53-0.22c0.16-0.01,0.24-0.09,0.31-0.21
				c0.07-0.12,0.15-0.22,0.22-0.34c0.04-0.07,0.1-0.09,0.17-0.05c0.26,0.11,0.53,0.22,0.79,0.32c0.03,0.01,0.06,0.02,0.07,0.04
				c0.02,0.03,0.04,0.08,0.03,0.11c-0.01,0.03-0.06,0.05-0.1,0.06c-0.03,0.01-0.06-0.01-0.09-0.03c-0.22-0.09-0.45-0.18-0.67-0.27
				c-0.06-0.03-0.1-0.02-0.13,0.04c-0.06,0.11-0.14,0.21-0.21,0.32c0.06,0.01,0.11,0.02,0.16,0.04c0.14,0.06,0.28,0.12,0.42,0.2
				c0.17,0.1,0.35,0.17,0.56,0.16c0.07,0,0.12,0.03,0.12,0.1c0,0.07-0.06,0.09-0.12,0.09c-0.22-0.01-0.42-0.06-0.61-0.17
				c-0.15-0.08-0.3-0.17-0.45-0.21c-0.27-0.07-0.54-0.03-0.78,0.12c-0.17,0.1-0.34,0.21-0.54,0.24c-0.31,0.05-0.6,0.02-0.87-0.14
				c-0.15-0.09-0.29-0.19-0.47-0.22c-0.27-0.05-0.53-0.03-0.77,0.12c-0.17,0.1-0.34,0.21-0.54,0.24c-0.31,0.05-0.6,0.02-0.88-0.14
				c-0.15-0.08-0.29-0.17-0.45-0.21c-0.28-0.08-0.55-0.04-0.8,0.12c-0.16,0.1-0.33,0.21-0.53,0.23c-0.07,0.01-0.15,0.02-0.22,0.02
				c-0.07,0.01-0.12-0.02-0.12-0.09c0-0.07,0.05-0.1,0.12-0.1c0.07,0,0.14-0.01,0.21-0.02c-0.05-0.16-0.1-0.31-0.14-0.46
				c-0.02-0.06-0.04-0.11-0.05-0.17c-0.02-0.06,0-0.11,0.06-0.13c0.23-0.09,0.46-0.17,0.7-0.26c0.02-0.01,0.05-0.01,0.07,0
				c0.54,0.12,1.07,0.24,1.6,0.36c0.11,0.02,0.12,0.04,0.12,0.16c0,0.15,0,0.29,0,0.44c0,0.06,0.01,0.09,0.08,0.08
				c0.08-0.01,0.15-0.01,0.23-0.03c0.16-0.02,0.27-0.1,0.32-0.27c0.04-0.16,0.12-0.31,0.18-0.46c0.05-0.13,0.13-0.21,0.25-0.27
				c0.27-0.12,0.53-0.25,0.8-0.36c0.04-0.02,0.1-0.02,0.15,0c0.09,0.03,0.18,0.07,0.28,0.11c0.06,0.03,0.1,0.07,0.07,0.14
				c-0.03,0.06-0.09,0.07-0.14,0.04c-0.2-0.12-0.38-0.09-0.57,0.02c-0.16,0.09-0.35,0.16-0.52,0.24c-0.05,0.03-0.1,0.08-0.13,0.14
				c-0.06,0.13-0.11,0.27-0.17,0.42c0.03-0.01,0.04-0.01,0.05-0.02c0.41-0.17,0.8-0.15,1.18,0.08c0.12,0.07,0.24,0.13,0.37,0.2
				c0.01-0.01,0.02-0.01,0.02-0.02c-0.01-0.04-0.01-0.07-0.02-0.11c-0.03-0.08-0.07-0.16-0.1-0.24c-0.03-0.06-0.03-0.12,0.04-0.15
				c0.07-0.03,0.11,0.01,0.13,0.07c0.06,0.15,0.16,0.28,0.14,0.46c0.07,0,0.13,0,0.19,0c0.02,0,0.04-0.04,0.04-0.06
				c0-0.04-0.02-0.08-0.04-0.12c-0.1-0.26-0.21-0.52-0.32-0.77c-0.03-0.07-0.03-0.13,0-0.19c0.03-0.08,0.06-0.16,0.1-0.24
				c-0.03-0.01-0.05-0.03-0.08-0.03c-0.18-0.07-0.37-0.15-0.55-0.22c-0.09-0.04-0.11-0.08-0.08-0.17c0.05-0.14,0.11-0.28,0.17-0.42
				c0.03-0.08,0.07-0.1,0.16-0.07c0.27,0.11,0.54,0.21,0.81,0.32c0.08,0.03,0.1,0.08,0.07,0.16c-0.05,0.14-0.11,0.28-0.17,0.41
				C359,372.01,358.98,372.03,358.88,372.02z M355.88,373.32c0.01-0.01,0.02-0.01,0.03-0.02c0-0.12,0-0.25,0-0.37
				c0-0.06-0.02-0.09-0.08-0.11c-0.45-0.1-0.9-0.2-1.35-0.3c-0.1-0.02-0.19-0.02-0.29,0.02c-0.14,0.06-0.29,0.11-0.44,0.17
				c0.06,0.19,0.12,0.36,0.18,0.55c0.1-0.06,0.19-0.11,0.27-0.16c0.27-0.17,0.57-0.2,0.88-0.15c0.19,0.03,0.35,0.13,0.51,0.22
				C355.68,373.23,355.78,373.27,355.88,373.32z M359,371.51c-0.23-0.09-0.46-0.18-0.68-0.27c-0.04,0.1-0.08,0.2-0.12,0.3
				c0.23,0.09,0.45,0.18,0.68,0.27C358.92,371.7,358.96,371.61,359,371.51z"/>
		</g>
		<g>
			<path class="st5" d="M356.41,374.52c0.17,0.07,0.31,0.12,0.45,0.18c0.35,0.14,0.71,0.28,1.06,0.42c0.03,0.01,0.06,0.02,0.07,0.04
				c0.02,0.03,0.04,0.08,0.03,0.11c-0.01,0.03-0.06,0.04-0.1,0.05c-0.02,0.01-0.05-0.01-0.08-0.02c-0.51-0.2-1.01-0.4-1.53-0.61
				c-0.16,0.41-0.32,0.81-0.48,1.22c0.04,0.02,0.07,0.03,0.11,0.05c0.47,0.19,0.93,0.37,1.4,0.56c0.02,0.01,0.04,0.02,0.05,0.02
				c0.06,0.02,0.1,0.06,0.07,0.13c-0.03,0.07-0.08,0.07-0.14,0.05c-0.29-0.12-0.59-0.23-0.88-0.35c-0.2-0.08-0.39-0.16-0.59-0.24
				c-0.03-0.01-0.05-0.02-0.08-0.03c-0.05,0.13-0.1,0.25-0.14,0.37c-0.04,0.09-0.07,0.18-0.11,0.27c-0.05,0.13-0.04,0.16,0.09,0.21
				c0.51,0.2,1.02,0.41,1.54,0.61c0.01,0,0.01,0,0.02,0.01c0.13,0.05,0.16,0.04,0.21-0.09c0.16-0.39,0.31-0.79,0.47-1.18
				c0.16-0.39,0.31-0.79,0.47-1.17c0.05-0.11,0.07-0.21,0.02-0.33c-0.03-0.08-0.01-0.14,0.06-0.18c0.15-0.08,0.23-0.2,0.27-0.36
				c0.03-0.11,0.09-0.22,0.13-0.33c0.02-0.06,0.07-0.1,0.13-0.07c0.06,0.03,0.07,0.08,0.04,0.14c-0.06,0.16-0.12,0.33-0.2,0.49
				c-0.05,0.09-0.13,0.16-0.2,0.23c-0.04,0.04-0.05,0.06-0.04,0.11c0.03,0.1,0.02,0.19-0.02,0.29c-0.33,0.82-0.65,1.63-0.97,2.45
				c-0.08,0.2-0.23,0.26-0.43,0.19c-0.53-0.21-1.06-0.42-1.59-0.63c-0.2-0.08-0.27-0.23-0.19-0.43c0.27-0.69,0.53-1.37,0.8-2.06
				c0.06-0.17,0.18-0.29,0.35-0.37c-0.02-0.05-0.04-0.09-0.06-0.14c-0.02-0.06-0.02-0.12,0.05-0.15c0.07-0.03,0.1,0.01,0.13,0.07
				c0.03,0.07,0.06,0.14,0.09,0.21c0.03,0.07,0.01,0.12-0.06,0.16C356.57,374.43,356.5,374.47,356.41,374.52z"/>
		</g>
		<g>
			<path class="st5" d="M354.31,374.4c-0.33,0-0.25,0.04-0.4-0.26c-0.03-0.06-0.06-0.12-0.08-0.19c-0.02-0.06-0.01-0.1,0.05-0.13
				c0.06-0.03,0.1,0,0.13,0.06c0.04,0.09,0.08,0.18,0.12,0.27c0.02,0.05,0.05,0.05,0.09,0.06c0.19,0.03,0.32-0.03,0.39-0.21
				c0.04-0.1,0.11-0.13,0.21-0.13c0.26,0,0.52-0.02,0.78-0.03c0.07,0,0.12,0.02,0.12,0.09c0,0.07-0.05,0.1-0.12,0.1
				c-0.24,0.01-0.48,0.02-0.72,0.03c-0.07,0-0.12,0.02-0.14,0.09c0,0.01-0.01,0.02-0.02,0.03
				C354.55,374.44,354.64,374.39,354.31,374.4z"/>
		</g>
		<g>
			<path class="st5" d="M361.15,374.33c-0.1,0-0.2,0.01-0.3,0c-0.05,0-0.11-0.02-0.15-0.06c-0.21-0.18-0.42-0.37-0.63-0.55
				c-0.02-0.02-0.05-0.03-0.05-0.05c-0.01-0.04-0.01-0.09,0.01-0.11c0.02-0.02,0.07-0.03,0.11-0.02c0.03,0,0.05,0.03,0.07,0.05
				c0.19,0.17,0.38,0.34,0.57,0.5c0.03,0.03,0.08,0.05,0.12,0.05c0.19,0.01,0.38,0,0.57,0.01c0.04,0,0.09,0.04,0.11,0.07
				c0.01,0.01-0.01,0.07-0.03,0.09c-0.02,0.02-0.05,0.02-0.08,0.02C361.37,374.33,361.26,374.33,361.15,374.33z"/>
		</g>
		<g>
			<path class="st5" d="M360.47,376.77c0,0.2-0.16,0.36-0.36,0.36c-0.2,0-0.37-0.17-0.36-0.36c0-0.19,0.17-0.36,0.36-0.36
				C360.3,376.4,360.47,376.57,360.47,376.77z M360.28,376.77c0-0.1-0.07-0.17-0.17-0.17c-0.1,0-0.17,0.07-0.17,0.17
				c0,0.1,0.07,0.17,0.17,0.17C360.2,376.94,360.28,376.87,360.28,376.77z"/>
		</g>
		<g>
			<path class="st5" d="M354.08,375.81c-0.2,0-0.36-0.17-0.36-0.37c0-0.2,0.17-0.36,0.36-0.36c0.2,0,0.36,0.17,0.36,0.37
				C354.44,375.64,354.27,375.81,354.08,375.81z M354.08,375.61c0.1,0,0.17-0.08,0.17-0.17c0-0.09-0.08-0.17-0.18-0.17
				c-0.1,0-0.17,0.08-0.17,0.17C353.91,375.54,353.99,375.62,354.08,375.61z"/>
		</g>
		<g>
			<path class="st5" d="M357.58,376.26c-0.09,0-0.13-0.05-0.11-0.12c0.07-0.18,0.14-0.36,0.22-0.54c0.01-0.03,0.08-0.05,0.11-0.04
				c0.05,0.01,0.07,0.06,0.05,0.12c-0.07,0.18-0.14,0.35-0.21,0.53C357.63,376.22,357.59,376.24,357.58,376.26z"/>
		</g>
		<g>
			<path class="st5" d="M358.54,373.92c-0.06,0.12-0.11,0.24-0.17,0.35c-0.01,0.02-0.08,0.02-0.1,0.01
				c-0.03-0.02-0.05-0.07-0.04-0.09c0.04-0.11,0.08-0.21,0.14-0.31c0.01-0.02,0.07-0.04,0.1-0.03
				C358.49,373.85,358.51,373.89,358.54,373.92z"/>
		</g>
		<g>
			<path class="st5" d="M353.8,376.39c0,0.08-0.06,0.15-0.15,0.15c-0.08,0-0.15-0.07-0.15-0.15c0-0.08,0.07-0.14,0.14-0.14
				C353.74,376.24,353.8,376.31,353.8,376.39z"/>
		</g>
		<g>
			<path class="st5" d="M358.93,376.64c0,0.08-0.07,0.15-0.15,0.14c-0.08,0-0.15-0.08-0.14-0.15c0-0.08,0.07-0.14,0.15-0.14
				C358.87,376.49,358.93,376.55,358.93,376.64z"/>
		</g>
		<g>
			<path class="st5" d="M359.52,377.32c0,0.08-0.06,0.15-0.14,0.15c-0.08,0-0.15-0.06-0.15-0.14c0-0.08,0.06-0.15,0.14-0.15
				C359.45,377.17,359.52,377.24,359.52,377.32z"/>
		</g>
		<g>
			<path class="st5" d="M361.15,375.29c0,0.08-0.07,0.15-0.15,0.15c-0.08,0-0.14-0.06-0.14-0.15c0-0.08,0.06-0.15,0.14-0.15
				C361.09,375.15,361.15,375.21,361.15,375.29z"/>
		</g>
		<g>
			<path class="st5" d="M355.16,375.82c0,0.08-0.07,0.15-0.15,0.14c-0.08,0-0.15-0.07-0.14-0.15c0-0.08,0.07-0.14,0.15-0.14
				C355.1,375.68,355.16,375.74,355.16,375.82z"/>
		</g>
		<g>
			<path class="st5" d="M360.14,375.7c0,0.08-0.06,0.15-0.15,0.14c-0.08,0-0.15-0.06-0.14-0.15c0-0.08,0.06-0.14,0.14-0.14
				C360.07,375.55,360.14,375.61,360.14,375.7z"/>
		</g>
		<g>
			<path class="st5" d="M355.4,374.99c0,0.08-0.06,0.15-0.15,0.15c-0.08,0-0.15-0.07-0.14-0.15c0-0.08,0.06-0.14,0.14-0.14
				C355.34,374.84,355.4,374.9,355.4,374.99z"/>
		</g>
		<g>
			<path class="st5" d="M360.86,376.03c-0.04,0.02-0.07,0.06-0.11,0.07c-0.06,0.01-0.09-0.03-0.09-0.09c0-0.06,0.03-0.09,0.09-0.09
				C360.81,375.92,360.84,375.95,360.86,376.03z"/>
		</g>
		<g>
			<path class="st5" d="M355.88,373.32c-0.1-0.05-0.2-0.09-0.3-0.15c-0.16-0.09-0.32-0.19-0.51-0.22c-0.31-0.05-0.6-0.02-0.88,0.15
				c-0.09,0.05-0.18,0.1-0.27,0.16c-0.06-0.19-0.12-0.36-0.18-0.55c0.15-0.06,0.3-0.11,0.44-0.17c0.1-0.04,0.18-0.05,0.29-0.02
				c0.45,0.11,0.9,0.2,1.35,0.3c0.06,0.01,0.09,0.04,0.08,0.11c0,0.12,0,0.25,0,0.37C355.9,373.31,355.89,373.32,355.88,373.32z"/>
		</g>
		<g>
			<path class="st5" d="M359,371.51c-0.04,0.1-0.08,0.2-0.12,0.3c-0.23-0.09-0.45-0.18-0.68-0.27c0.04-0.1,0.08-0.2,0.12-0.3
				C358.54,371.33,358.76,371.42,359,371.51z"/>
		</g>
		<g>
			<path class="st5" d="M360.28,376.77c0,0.1-0.07,0.17-0.17,0.17c-0.1,0-0.17-0.07-0.17-0.17c0-0.1,0.07-0.17,0.17-0.17
				C360.21,376.6,360.28,376.67,360.28,376.77z"/>
		</g>
		<g>
			<path class="st5" d="M354.08,375.61c-0.1,0-0.17-0.07-0.18-0.17c0-0.09,0.08-0.17,0.17-0.17c0.1,0,0.18,0.07,0.18,0.17
				C354.26,375.54,354.18,375.61,354.08,375.61z"/>
		</g>
	</g>
	<g>
		<path class="st5" d="M321.27,446.86c0,0,41.59-11.4,78.78,0.55c0,0-4.07-4.54-17.9-6.53c0,0-17.04-0.89-16.48-17.7
			c0,0-1.77-11.51,3.98-18.48c0,0,4.89-6.25,9.63-9.04c0,0-6.87-0.81-13.17,7.71c0,0-0.93-11.85,6.34-18.48
			c0,0-6.22-1.1-10.37,11.29c0,0-3.3-9.47-10.31-11.32c0,0,5.96,6.12,6.17,18.4c0,0-7.01-8.85-15.51-8.52c0,0,14.2,7.86,15.51,19.25
			c0,0,0.51,10.73-0.31,14.16c0,0-2.92,10.62-13.76,11.28C343.87,439.45,327.11,440.23,321.27,446.86z"/>
	</g>
	<g>
		
			<rect x="379.06" y="309.35" transform="matrix(0.2821 -0.9594 0.9594 0.2821 -30.8145 590.7551)" class="st4" width="0.51" height="13.23"/>
	</g>
	<g>
		
			<rect x="335.78" y="316.11" transform="matrix(0.9498 -0.3127 0.3127 0.9498 -81.7933 122.7191)" class="st4" width="11.84" height="0.51"/>
	</g>
	<g>
		<polygon class="st4" points="317,344.67 316.52,344.48 320.74,333.76 321.22,333.94 		"/>
	</g>
	<g>
		
			<rect x="318.04" y="362.85" transform="matrix(0.9773 -0.2119 0.2119 0.9773 -70.6607 75.7827)" class="st4" width="0.51" height="9.53"/>
	</g>
	<g>
		<polygon class="st4" points="330.85,391.42 326.08,383.77 326.51,383.5 331.28,391.15 		"/>
	</g>
	<g>
		
			<rect x="335.58" y="385.61" transform="matrix(0.745 -0.667 0.667 0.745 -169.2162 329.0324)" class="st4" width="20.43" height="0.51"/>
	</g>
	<g>
		
			<rect x="388.11" y="387.54" transform="matrix(0.6482 -0.7615 0.7615 0.6482 -157.1414 435.4453)" class="st4" width="9.17" height="0.51"/>
	</g>
	<g>
		
			<rect x="383.26" y="379.51" transform="matrix(0.928 -0.3726 0.3726 0.928 -115.8674 170.6103)" class="st4" width="0.51" height="11.2"/>
	</g>
	<g>
		
			<rect x="380.76" y="366.77" transform="matrix(0.7988 -0.6016 0.6016 0.7988 -142.0857 309.1833)" class="st4" width="20.92" height="0.51"/>
	</g>
	<g>
		<polygon class="st4" points="361.34,368.63 360.97,368.27 370.61,358.17 370.98,358.53 		"/>
	</g>
	<g>
		<polygon class="st4" points="373.79,375.24 363.54,373.3 363.64,372.79 373.89,374.74 		"/>
	</g>
	<g>
		
			<rect x="400.8" y="368.76" transform="matrix(0.2618 -0.9651 0.9651 0.2618 -56.6698 663.9527)" class="st4" width="9.78" height="0.51"/>
	</g>
	<g>
		<polygon class="st4" points="397.14,354.01 383.51,353.65 383.52,353.14 397.15,353.49 		"/>
	</g>
	<g>
		
			<rect x="323.63" y="370.73" transform="matrix(0.8547 -0.5191 0.5191 0.8547 -144.8462 224.4308)" class="st4" width="9.8" height="0.51"/>
	</g>
	<g>
		<polygon class="st4" points="352.27,369.94 342.32,368.7 342.38,368.2 352.34,369.43 		"/>
	</g>
	<g>
		
			<rect x="354.06" y="352.17" transform="matrix(0.9488 -0.316 0.316 0.9488 -95.6072 130.4129)" class="st4" width="0.51" height="15.66"/>
	</g>
	<g>
		<polygon class="st4" points="321.89,349.84 321.78,349.34 340.85,345.19 340.96,345.69 		"/>
	</g>
	<g>
		<polygon class="st4" points="362.83,348.88 354.76,348.57 354.78,348.06 362.85,348.36 		"/>
	</g>
	<g>
		
			<rect x="337.46" y="358.02" transform="matrix(0.4029 -0.9153 0.9153 0.4029 -124.3244 525.991)" class="st4" width="6.97" height="0.51"/>
	</g>
	<g>
		<polygon class="st4" points="407.33,343.97 403.22,331.94 403.7,331.78 407.81,343.81 		"/>
	</g>
	<g>
		
			<rect x="376.08" y="335.23" transform="matrix(0.6398 -0.7685 0.7685 0.6398 -120.0883 414.7545)" class="st4" width="12.7" height="0.51"/>
	</g>
	<g>
		
			<rect x="368.13" y="321.56" transform="matrix(0.9476 -0.3194 0.3194 0.9476 -86.4976 135.0196)" class="st4" width="0.51" height="19.31"/>
	</g>
	<g>
		<polygon class="st4" points="349.07,340.08 348.59,339.91 355.22,321.01 355.7,321.18 		"/>
	</g>
	<g>
		
			<rect x="339.6" y="331.2" transform="matrix(0.7076 -0.7066 0.7066 0.7076 -138.7226 338.6556)" class="st4" width="0.51" height="11.51"/>
	</g>
</g>
<path class="st6" d="M426.31,446.92H293.69c-11.26,0-20.48-9.21-20.48-20.48V293.82c0-11.26,9.21-20.48,20.48-20.48h132.62
	c11.26,0,20.48,9.21,20.48,20.48v132.62C446.78,437.7,437.57,446.92,426.31,446.92z"/>
</svg>
