<?xml version="1.0" encoding="utf-8"?>
<!-- Generator: Adobe Illustrator 27.1.1, SVG Export Plug-In . SVG Version: 6.00 Build 0)  -->
<svg version="1.1" id="Layer_1" xmlns="http://www.w3.org/2000/svg" xmlns:xlink="http://www.w3.org/1999/xlink" x="0px" y="0px"
	 viewBox="0 0 800 800" style="enable-background:new 0 0 800 800;" xml:space="preserve">
<style type="text/css">
	.st0{fill:#DB171A;}
</style>
<g>
	<g>
		<path class="st0" d="M396.13,682c-24.38-9.94-47.84-21.6-69.62-36.53c-52.03-35.69-91.27-82.36-119.15-138.73
			c-20.32-41.07-32.97-84.53-37.3-130.07c-2.26-23.77-1.91-47.79-2.46-71.71c-0.31-13.44,0.02-26.89-0.08-40.33
			c-0.06-8.9,3.61-15.36,11.35-19.95c70.22-41.66,140.39-83.41,210.54-125.21c8.02-4.78,15.46-4.11,23.3,0.56
			c69.63,41.52,139.32,82.94,209.03,124.33c6.01,3.57,10.37,8.16,11.45,15.3c0.14,0.91,0.31,1.83,0.3,2.74
			c-0.33,33.69,0.54,67.46-1.34,101.06c-2.59,46.43-14.27,90.98-33.75,133.31c-30.57,66.45-75.94,120.15-138.82,158.06
			c-17.36,10.47-36.37,18.19-54.63,27.17C402.03,682,399.08,682,396.13,682z M595.26,321.66c0-18.2-0.16-30.72,0.09-43.24
			c0.08-3.96-1.07-6.26-4.57-8.33c-62.17-36.85-124.28-73.81-186.33-110.87c-2.98-1.78-5.06-1.56-7.91,0.14
			c-62.2,37.12-124.44,74.17-186.74,111.13c-2.9,1.72-4.08,3.52-4.04,6.93c0.18,16.21-0.37,32.43,0.19,48.62
			c0.72,20.39,0.94,40.93,3.72,61.09c6.66,48.28,23.17,93.27,49.49,134.43c33.98,53.15,79.12,93.58,137.12,119.08
			c2.46,1.08,6.22,1.07,8.66-0.03c9.54-4.3,19.08-8.73,28.09-14.03c74.58-43.87,122.55-108.52,147.73-190.66
			C592.74,396.85,596.67,356.72,595.26,321.66z"/>
		<path class="st0" d="M362.21,434.92c12.28-12.36,24.06-24.27,35.89-36.12c22.51-22.54,45.03-45.07,67.57-67.57
			c8.71-8.69,20-9.23,27.96-1.46c7.86,7.67,7.67,19.5-0.83,28.03c-38.61,38.73-77.28,77.4-116,116.01
			c-9.28,9.26-19.96,9.16-29.15,0.01c-13.05-12.99-26.07-26.01-39.07-39.05c-8.57-8.61-9.12-20.12-1.41-27.98
			c7.72-7.87,19.42-7.57,28,0.91C344.08,416.48,352.81,425.44,362.21,434.92z"/>
	</g>
</g>
</svg>
