<?xml version="1.0" encoding="utf-8"?>
<!-- Generator: Adobe Illustrator 27.1.1, SVG Export Plug-In . SVG Version: 6.00 Build 0)  -->
<svg version="1.1" id="Layer_1" xmlns="http://www.w3.org/2000/svg" xmlns:xlink="http://www.w3.org/1999/xlink" x="0px" y="0px"
	 viewBox="0 0 800 800" style="enable-background:new 0 0 800 800;" xml:space="preserve">
<style type="text/css">
	.st0{clip-path:url(#SVGID_00000139254460373879716550000014277191986720032426_);fill:#FFFFFF;}
	.st1{clip-path:url(#SVGID_00000139254460373879716550000014277191986720032426_);}
	.st2{fill:#FFFFFF;}
	.st3{fill:#E22126;}
	.st4{opacity:0.5;fill:#A7A9AC;}
	.st5{opacity:0.5;fill:#D1D3D5;}
	.st6{fill:#696A6D;}
	.st7{opacity:0.5;fill:#696A6D;}
</style>
<g>
	<g>
		<g>
			<defs>
				<path id="SVGID_1_" d="M614.97,417.33c-8.68-26.12-4.66-55.7-13.77-82.2c-7.22-21-20.08-39.95-36.1-55.23
					c-32.92-31.4-78.07-47.71-122.43-54.18c-13.12-1.91-26.37-2.97-39.63-3.19c-42-0.68-83.9,8.01-121.23,27.53
					c-60.9,31.85-104.53,88.69-132.62,150.28c-6.01,13.17-11.35,26.64-16,40.35c-31.8,93.78,123.5,98.76,123.5,98.76l79.6,66.08
					l10.4,71.78c16.82,7.53,47.56,8.3,81.74,5.82c38.28-2.78,72.55-25.12,90.43-59.07c4.09-7.78,7.64-13.64,10.04-16.04
					c11.42-11.37,15.86-3.27,52.88-4.73c37.02-1.47,51.04-16.03,46.3-34.84c-4.74-18.8,2.78-29.95,7.29-35.31
					c4.52-5.36-2.42-12.44-2.42-12.44c7.4-2.52,8.92-9.45,8.99-16.46c0.07-7.01-8.56-7.12-9.78-25.36
					c16.54-8.06,13.22-20.51,11.35-24.63C641.63,450.16,619.73,431.65,614.97,417.33z"/>
			</defs>
			<clipPath id="SVGID_00000034074484724430053650000008639885855802160525_">
				<use xlink:href="#SVGID_1_"  style="overflow:visible;"/>
			</clipPath>
			<path style="clip-path:url(#SVGID_00000034074484724430053650000008639885855802160525_);fill:#FFFFFF;" d="M132.97,262.36
				c-4.58-23.53,10.78-46.31,34.31-50.89c23.53-4.58,46.31,10.78,50.89,34.31c4.58,23.53-10.78,46.31-34.31,50.89
				C160.33,301.25,137.55,285.89,132.97,262.36z M765.33,441.39C751,367.77,686.64,316.62,614.41,316.3
				c0.41-9.45-0.24-19.1-2.13-28.79c-12.9-66.3-77.11-109.58-143.41-96.68c-66.3,12.9-109.58,77.11-96.68,143.41
				c1.87,9.59,4.83,18.67,8.7,27.2c-8.13-0.19-16.39,0.45-24.7,2.07c-28.77,5.6-52.89,21.54-69.3,43.2
				c-15.71-21.32-42.73-32.95-70.45-27.56c-38.36,7.47-63.4,44.61-55.93,82.97c7.47,38.36,44.61,63.4,82.97,55.93
				c9.12-1.78,17.46-5.27,24.82-10.02c16.39,56.09,73.13,91.47,131.62,80.08c17.76-3.46,33.74-10.86,47.24-21.11
				c-4.03,9.98-5.36,21.2-3.15,32.55c6.09,31.26,36.36,51.67,67.62,45.59c18.74-3.65,33.52-16.02,41.09-32.05
				c27.53,11.81,58.76,15.78,90.38,9.62C726.92,606.38,781.64,525.21,765.33,441.39z M318.3,359.31
				c25.29-4.92,41.8-29.41,36.88-54.7c-4.92-25.29-29.41-41.8-54.7-36.88c-25.29,4.92-41.8,29.41-36.88,54.7
				C268.52,347.72,293.02,364.23,318.3,359.31z"/>
			<g style="clip-path:url(#SVGID_00000034074484724430053650000008639885855802160525_);">
				
					<ellipse transform="matrix(0.7071 -0.7071 0.7071 0.7071 -249.8573 294.1119)" class="st2" cx="230.1" cy="448.66" rx="70.75" ry="70.75"/>
				
					<ellipse transform="matrix(0.1758 -0.9844 0.9844 0.1758 -156.741 764.5379)" class="st2" cx="378.19" cy="475.87" rx="114.4" ry="114.4"/>
				
					<ellipse transform="matrix(0.6657 -0.7462 0.7462 0.6657 -130.9075 216.0753)" class="st2" cx="175.71" cy="254.14" rx="43.4" ry="43.4"/>
				
					<ellipse transform="matrix(0.7071 -0.7071 0.7071 0.7071 -153.2991 571.9033)" class="st2" cx="613.7" cy="471" rx="154.62" ry="154.62"/>
				
					<ellipse transform="matrix(0.7071 -0.7071 0.7071 0.7071 -75.6575 439.2366)" class="st2" cx="492.38" cy="310.95" rx="122.3" ry="122.3"/>
				<path class="st2" d="M557.35,577.58c6.08,31.26-14.33,61.54-45.59,67.62c-31.26,6.08-61.54-14.33-67.62-45.59
					c-6.08-31.26,14.33-61.54,45.59-67.62C520.99,525.91,551.26,546.32,557.35,577.58z"/>
				
					<ellipse transform="matrix(0.9978 -0.0665 0.0665 0.9978 -20.1708 21.2804)" class="st2" cx="309.53" cy="313.59" rx="46.65" ry="46.65"/>
			</g>
			<g style="clip-path:url(#SVGID_00000034074484724430053650000008639885855802160525_);">
				
					<ellipse transform="matrix(0.7071 -0.7071 0.7071 0.7071 -249.8573 294.1119)" class="st3" cx="230.1" cy="448.66" rx="70.75" ry="70.75"/>
				
					<ellipse transform="matrix(0.1758 -0.9844 0.9844 0.1758 -156.741 764.5379)" class="st4" cx="378.19" cy="475.87" rx="114.4" ry="114.4"/>
				
					<ellipse transform="matrix(0.6657 -0.7462 0.7462 0.6657 -130.9075 216.0753)" class="st5" cx="175.71" cy="254.14" rx="43.4" ry="43.4"/>
				
					<ellipse transform="matrix(0.7071 -0.7071 0.7071 0.7071 -153.2991 571.9033)" class="st3" cx="613.7" cy="471" rx="154.62" ry="154.62"/>
				
					<ellipse transform="matrix(0.7071 -0.7071 0.7071 0.7071 -75.6575 439.2366)" class="st6" cx="492.38" cy="310.95" rx="122.3" ry="122.3"/>
				<path class="st7" d="M557.35,577.58c6.08,31.26-14.33,61.54-45.59,67.62c-31.26,6.08-61.54-14.33-67.62-45.59
					c-6.08-31.26,14.33-61.54,45.59-67.62C520.99,525.91,551.26,546.32,557.35,577.58z"/>
				
					<ellipse transform="matrix(0.9978 -0.0665 0.0665 0.9978 -20.1708 21.2804)" class="st4" cx="309.53" cy="313.59" rx="46.65" ry="46.65"/>
			</g>
		</g>
	</g>
	<g>
		<g>
			<g>
				<polygon class="st3" points="466.94,154.59 475.28,178.7 454.37,164.1 434.02,179.48 441.44,155.07 420.52,140.47 
					446.02,139.99 453.44,115.58 461.79,139.69 487.29,139.2 				"/>
				<polygon class="st3" points="540.96,181.54 547.79,201.27 530.67,189.32 514.01,201.92 520.09,181.94 502.96,169.99 
					523.84,169.59 529.91,149.61 536.74,169.34 557.62,168.95 				"/>
				<polygon class="st3" points="602.82,233.03 608.13,248.39 594.81,239.09 581.84,248.89 586.57,233.34 573.24,224.04 
					589.49,223.73 594.22,208.18 599.53,223.54 615.78,223.23 				"/>
			</g>
			<g>
				<polygon class="st3" points="360.6,154.59 352.26,178.7 373.18,164.1 393.52,179.48 386.1,155.07 407.02,140.47 381.52,139.99 
					374.1,115.58 365.76,139.69 340.25,139.2 				"/>
				<polygon class="st3" points="286.58,181.54 279.75,201.27 296.87,189.32 313.53,201.92 307.45,181.94 324.58,169.99 
					303.7,169.59 297.63,149.61 290.8,169.34 269.92,168.95 				"/>
				<polygon class="st3" points="224.72,233.03 219.41,248.39 232.74,239.09 245.7,248.89 240.97,233.34 254.3,224.04 
					238.05,223.73 233.32,208.18 228.01,223.54 211.76,223.23 				"/>
			</g>
		</g>
	</g>
</g>
</svg>
