<svg id="SvgjsSvg1262" width="256" height="256" xmlns="http://www.w3.org/2000/svg" version="1.1" xmlns:xlink="http://www.w3.org/1999/xlink" xmlns:svgjs="http://svgjs.com/svgjs"><defs id="SvgjsDefs1263"></defs><g id="SvgjsG1264"><svg xmlns="http://www.w3.org/2000/svg" enable-background="new 0 0 512 512" viewBox="0 0 512 512" width="256" height="256"><linearGradient id="a" x1="73.519" x2="438.481" y1="426.481" y2="61.519" gradientUnits="userSpaceOnUse"><stop offset=".054" stop-color="#e41e25" class="stopColore25b61 svgShape"></stop><stop offset=".534" stop-color="#e6787c" class="stopColorb678e6 svgShape"></stop><stop offset="1" stop-color="#e55e63" class="stopColor5ebce5 svgShape"></stop></linearGradient><path fill="url(#a)" d="M328,280c-8.822,0-16,7.178-16,16s7.178,16,16,16s16-7.178,16-16S336.822,280,328,280z M328.02,304	c-4.418,0-8.005-3.582-8.005-8s3.577-8,7.995-8h0.01c4.419,0,8,3.582,8,8S332.438,304,328.02,304z M256,224h8v64h-25.013
	c-3.561-13.786-16.104-24-30.987-24c-2.761,0-5.442,0.352-8,1.013V224h8v24c0,2.772,1.436,5.348,3.794,6.805
	c2.359,1.458,5.303,1.59,7.784,0.35L232,248.944l12.422,6.211c1.13,0.565,2.354,0.845,3.578,0.845c1.462,0,2.921-0.401,4.206-1.195
	c2.358-1.458,3.794-4.033,3.794-6.805V224z M372.687,240H336v-24h12.687L372.687,240z M208,280c-8.822,0-16,7.178-16,16
	s7.178,16,16,16s16-7.178,16-16S216.822,280,208,280z M208.02,304c-4.418,0-8.005-3.582-8.005-8s3.577-8,7.995-8h0.01
	c4.419,0,8,3.582,8,8S212.438,304,208.02,304z M168,192h128v96h-16v-72c0-4.418-3.582-8-8-8h-80c-4.418,0-8,3.582-8,8v58.868
	c-3.277,3.717-5.711,8.193-6.987,13.132H168V192z M232,232c-1.226,0-2.451,0.282-3.578,0.845L224,235.056V224h16v11.056
	l-4.422-2.211C234.451,232.282,233.226,232,232,232z M312,128c4.411,0,8,3.589,8,8s-3.589,8-8,8s-8-3.589-8-8S307.589,128,312,128z
	 M336,56c0-13.234-10.767-24-24-24s-24,10.766-24,24c0,8.738,12.485,31.542,24,49.534C323.515,87.542,336,64.738,336,56z M304,56
	c0-4.411,3.589-8,8-8s8,3.589,8,8s-3.589,8-8,8S304,60.411,304,56z M283.36,408l8.889,40h-72.499l8.889-40H283.36z M32,380
	c0,6.617,5.383,12,12,12h424c6.617,0,12-5.383,12-12v-20H32V380z M216,368h80c4.418,0,8,3.582,8,8s-3.582,8-8,8h-80
	c-4.418,0-8-3.582-8-8S211.582,368,216,368z M324.688,475.733l1.066,4.267H186.246l1.066-4.267
	C189.04,468.825,195.22,464,202.341,464h107.318C316.78,464,322.96,468.825,324.688,475.733z M468,96H336.505
	c-4.175,7.38-8.477,14.266-11.924,19.573c4.62,2.856,8.201,7.233,10.043,12.427h66.752c3.302-9.311,12.195-16,22.624-16
	c13.233,0,24,10.766,24,24s-10.767,24-24,24c-10.429,0-19.321-6.689-22.624-16h-66.752c-3.302,9.311-12.195,16-22.624,16
	s-19.321-6.689-22.624-16h-66.752c-3.302,9.311-12.195,16-22.624,16s-19.321-6.689-22.624-16h-66.752
	c-3.302,9.311-12.195,16-22.624,16c-13.233,0-24-10.766-24-24s10.767-24,24-24c10.429,0,19.321,6.689,22.624,16h66.752
	c3.302-9.311,12.195-16,22.624-16s19.321,6.689,22.624,16h66.752c1.843-5.195,5.424-9.572,10.043-12.427
	c-3.447-5.307-7.749-12.193-11.924-19.573H44c-6.617,0-12,5.383-12,12v236h448V108C480,101.383,474.617,96,468,96z M56,248h40
	c4.418,0,8,3.582,8,8s-3.582,8-8,8H56c-4.418,0-8-3.582-8-8S51.582,248,56,248z M48,224c0-4.418,3.582-8,8-8h40c4.418,0,8,3.582,8,8
	s-3.582,8-8,8H56C51.582,232,48,228.418,48,224z M56,280h40c4.418,0,8,3.582,8,8s-3.582,8-8,8H56c-4.418,0-8-3.582-8-8
	S51.582,280,56,280z M104,328H56c-4.418,0-8-3.582-8-8s3.582-8,8-8h48c4.418,0,8,3.582,8,8S108.418,328,104,328z M104,200H56
	c-4.418,0-8-3.582-8-8s3.582-8,8-8h48c4.418,0,8,3.582,8,8S108.418,200,104,200z M392,289.16c0,8.183-6.657,14.84-14.84,14.84
	h-18.173c-3.561,13.786-16.104,24-30.987,24s-27.426-10.214-30.987-24h-58.025c-3.561,13.786-16.104,24-30.987,24
	s-27.426-10.214-30.987-24H160c-4.418,0-8-3.582-8-8V184c0-4.418,3.582-8,8-8h144c4.418,0,8,3.582,8,8v16h37.17
	c3.904,0,7.727,1.583,10.487,4.343l30,30c1.5,1.5,2.343,3.535,2.343,5.657V289.16z M456,328h-48c-4.418,0-8-3.582-8-8s3.582-8,8-8
	h48c4.418,0,8,3.582,8,8S460.418,328,456,328z M456,296h-40c-4.418,0-8-3.582-8-8s3.582-8,8-8h40c4.418,0,8,3.582,8,8
	S460.418,296,456,296z M456,264h-40c-4.418,0-8-3.582-8-8s3.582-8,8-8h40c4.418,0,8,3.582,8,8S460.418,264,456,264z M456,232h-40
	c-4.418,0-8-3.582-8-8s3.582-8,8-8h40c4.418,0,8,3.582,8,8S460.418,232,456,232z M456,200h-48c-4.418,0-8-3.582-8-8s3.582-8,8-8h48
	c4.418,0,8,3.582,8,8S460.418,200,456,200z M424,144c-4.411,0-8-3.589-8-8s3.589-8,8-8s8,3.589,8,8S428.411,144,424,144z M88,128
	c4.411,0,8,3.589,8,8s-3.589,8-8,8s-8-3.589-8-8S83.589,128,88,128z M200,128c4.411,0,8,3.589,8,8s-3.589,8-8,8s-8-3.589-8-8
	S195.589,128,200,128z M328,256h48v32h-17.013c-3.561-13.786-16.104-24-30.987-24c-5.826,0-11.289,1.573-16,4.305V216h8v32
	C320,252.418,323.582,256,328,256z"></path></svg></g></svg>