<?xml version="1.0" encoding="UTF-8"?>
<svg id="Layer_1" data-name="Layer 1" xmlns="http://www.w3.org/2000/svg" viewBox="0 0 25 25">
  <defs>
    <style>
      .cls-1 {
        fill: #dc1518;
        stroke-width: 0px;
      }
    </style>
  </defs>
  <path class="cls-1" d="m15.13,12.64H6.06v-3.45h9.06c0,1.16,0,2.3,0,3.45Z"/>
  <path class="cls-1" d="m15.47,12.85c-.03-.95.07-1.86-.08-2.8.09-.08.19-.07.23.09.04.18.09.36.09.53.01.62,0,1.24,0,1.86,0,.1.01.19.02.3h.42c0-.31,0-.6,0-.9,0-.13-.07-.3.14-.36.02,0,.03-.1.03-.15,0-.27,0-.55,0-.82,0-.07-.04-.13-.06-.19-.06-.14-.03-.2.12-.22.04,0,.08-.01.11,0,.08.03.15.07.22.11l-.15.18c-.05.36-.05.74-.05,1.12.03,0,.07,0,.1,0,.01-.05.04-.11.04-.16,0-.25,0-.49,0-.74,0-.17.05-.25.23-.25.36,0,.71,0,1.07,0,.21,0,.34.09.42.29.14.35.28.69.43,1.04.12.29.08.59.04.89-.02.12-.05.22.08.34.07.06.04.25.05.37-.27.08-.5.14-.76.22-.02-.07-.05-.15-.07-.22-.15-.45-.54-.73-1.01-.73-.47,0-.86.29-.99.75-.05.17-.11.24-.29.24-1.36,0-2.71,0-4.07,0-.05,0-.11-.01-.14-.01-.13-.26-.25-.5-.38-.76h4.23Zm1.67-1.98v.71h.65v-.71h-.65Zm1.22.72c-.09-.43-.19-.63-.36-.73v.73h.36Z"/>
  <path class="cls-1" d="m12.74,15.59c.1,0,.18,0,.26.02.04.01.07.06.11.09-.03.03-.07.1-.1.1-.34,0-.67,0-1.01,0-.04,0-.07-.06-.11-.1.04-.03.07-.09.11-.1.08-.02.16-.01.26-.02.04-.12.1-.23-.1-.26-.02,0-.05,0-.05-.01-.12-.28-.36-.18-.56-.18-1.57,0-3.14,0-4.7,0-.24,0-.53-.12-.69.18-.17,0-.19.11-.13.26.08,0,.17,0,.26.02.04,0,.07.06.11.09-.03.03-.07.1-.1.1-.34,0-.67,0-1.01,0-.04,0-.07-.06-.11-.1.04-.03.07-.08.11-.1.08-.02.16-.01.25-.02.1-.19,0-.27-.18-.28v-.68h14.32v.66c-.1.05-.3.06-.18.3.07,0,.16,0,.25.02.04,0,.07.06.11.09-.03.03-.07.1-.1.1-.34,0-.67,0-1.01,0-.04,0-.07-.06-.11-.09.04-.03.07-.08.11-.09.08-.02.16-.01.26-.02.04-.12.09-.23-.1-.26-.03,0-.08-.03-.09-.05-.04-.19-.18-.14-.31-.14-1.57,0-3.14,0-4.7,0-.21,0-.42,0-.63,0-.09,0-.18-.01-.21.12,0,.03-.06.07-.1.07-.17.02-.14.13-.11.26Z"/>
  <path class="cls-1" d="m17.13,14.59c-.51,0-.92-.4-.92-.91,0-.49.41-.9.9-.91.5,0,.92.42.92.92,0,.5-.4.9-.9.9Zm.43-.9c0-.24-.19-.43-.43-.43-.26,0-.46.2-.45.44,0,.23.21.43.45.43.23,0,.44-.2.44-.43Z"/>
  <path class="cls-1" d="m9.17,13.67c0,.51-.4.92-.91.92-.5,0-.9-.4-.91-.9,0-.5.42-.93.91-.92.49,0,.9.41.9.9Zm-.47.01c0-.24-.19-.43-.43-.43-.25,0-.46.2-.45.44,0,.23.21.43.45.42.23,0,.44-.21.43-.44Z"/>
  <path class="cls-1" d="m11.43,13.67c0,.52-.39.92-.91.92-.5,0-.9-.4-.91-.89,0-.5.42-.92.92-.93.49,0,.9.41.9.9Zm-.47.01c0-.24-.19-.43-.43-.43-.26,0-.44.19-.44.45,0,.24.2.43.44.42.24,0,.43-.2.43-.44Z"/>
  <path class="cls-1" d="m6.44,12.87h1.08c-.1.22-.19.44-.29.64-.02.05-.08.11-.13.11-.18.01-.36,0-.55,0,0-.28-.32-.45-.12-.76Z"/>
  <path class="cls-1" d="m3.05,15.8c-.07-.18-.05-.27.11-.33.67-.24,1.35-.49,2.02-.73.01,0,.03,0,.06,0,.06.13.05.24-.11.29-.69.25-1.38.5-2.08.76Z"/>
  <path class="cls-1" d="m19.77,14.71c.36.13.71.26,1.05.38.33.12.66.25,1,.36.16.06.22.15.14.32-.04,0-.09-.01-.13-.02-.63-.23-1.26-.46-1.89-.69-.15-.06-.27-.12-.17-.35Z"/>
  <path class="cls-1" d="m9,12.87h.78c-.1.23-.19.46-.3.68-.01.03-.07.07-.1.07-.03,0-.08-.04-.1-.08-.1-.22-.19-.44-.29-.67Z"/>
  <path class="cls-1" d="m8.41,13.71c0,.08-.1.14-.17.12-.1-.02-.13-.1-.13-.16,0-.05.06-.15.14-.14s.15.07.15.18Z"/>
  <path class="cls-1" d="m10.65,13.71c0,.08-.1.14-.17.12-.1-.02-.13-.1-.13-.16,0-.05.06-.15.14-.14s.15.07.15.18Z"/>
  <path class="cls-1" d="m17.27,13.71c0,.08-.1.14-.17.12-.1-.02-.13-.1-.13-.16,0-.05.06-.15.14-.14s.15.07.15.18Z"/>
</svg>