<?xml version="1.0" encoding="utf-8"?>
<!-- Generator: Adobe Illustrator 27.1.1, SVG Export Plug-In . SVG Version: 6.00 Build 0)  -->
<svg version="1.1" id="Layer_1" xmlns="http://www.w3.org/2000/svg" xmlns:xlink="http://www.w3.org/1999/xlink" x="0px" y="0px"
	 viewBox="0 0 800 800" style="enable-background:new 0 0 800 800;" xml:space="preserve">
<style type="text/css">
	.st0{fill:#DC1518;}
</style>
<g>
	<path class="st0" d="M486.16,537.61c-7.4-0.58-14.29-2.64-19.9-7.97c-3.29-3.12-6.63-6.19-9.85-9.38
		c-2.06-2.05-4.41-2.83-7.05-1.69c-2.62,1.13-3.76,3.36-3.72,6.26c0.06,4.1,0.05,8.21-0.01,12.31
		c-0.23,15.87-13.04,28.8-28.85,28.96c-11.23,0.11-22.46,0.12-33.69,0c-15.77-0.17-28.56-13.14-28.77-29.04
		c-0.06-4.1-0.07-8.21-0.01-12.31c0.04-2.9-1.11-5.13-3.76-6.22c-2.65-1.08-4.98-0.25-7.05,1.79c-3.53,3.49-7.04,7.02-10.84,10.2
		c-11.48,9.61-27.47,9.43-38.43-0.64c-8.1-7.45-15.86-15.28-23.66-23.05c-3.87-3.86-6.69-8.42-8.13-13.78
		c-2.88-10.75,0.06-20.02,7.25-28.11c2.72-3.06,5.72-5.88,8.68-8.72c2.29-2.2,3-4.75,1.77-7.63c-1.22-2.85-3.8-2.99-6.52-3.11
		c-6.44-0.28-13.03-0.02-19.26-1.39c-13.38-2.94-22.42-16.25-21.98-28.46c0.37-10.35,0.49-20.75-0.03-31.09
		c-0.68-13.71,10.84-29.72,29.9-30.19c4.1-0.1,8.21-0.08,12.31-0.02c2.63,0.04,5.11-0.76,5.56-3.37c0.36-2.08-0.03-4.85-1.21-6.52
		c-2.09-2.95-5.05-5.29-7.63-7.9c-4-4.05-7.23-8.6-8.74-14.16c-2.9-10.65-0.53-20.26,6.92-28.17c7.99-8.48,16.37-16.62,24.99-24.46
		c10.08-9.17,26.18-9.68,37.04-1.38c4.09,3.13,7.71,6.9,11.41,10.53c2.15,2.11,4.41,3.63,7.46,2.45c3.32-1.29,4.08-4.08,3.98-7.38
		c-0.12-3.88-0.08-7.77,0-11.66c0.29-15.47,13.12-28.39,28.56-28.57c11.44-0.14,22.89-0.15,34.34,0
		c15.46,0.2,28.16,13.1,28.41,28.67c0.07,4.1,0.08,8.21,0.01,12.31c-0.06,3.13,1.06,5.54,4.06,6.66c2.75,1.02,4.98-0.07,6.98-2.09
		c2.58-2.61,5.43-4.95,7.95-7.61c11.01-11.66,30.34-12.35,42.55-0.71c7.97,7.6,15.95,15.22,23.41,23.31
		c10.93,11.86,10.67,28.4-0.17,40.46c-2.74,3.05-5.69,5.91-8.67,8.73c-2.29,2.17-3.16,4.65-2,7.58c1.13,2.86,3.61,3.22,6.39,3.32
		c6.22,0.22,12.53,0.16,18.64,1.17c12.42,2.06,23.4,15.14,22.81,29.09c-0.44,10.35-0.04,20.73-0.1,31.09
		c-0.1,16.17-12.63,29.06-28.92,29.74c-4.31,0.18-8.64,0.11-12.96,0.05c-2.59-0.04-4.8,0.61-5.81,3.16
		c-1.03,2.6-0.69,5.06,1.44,7.13c2.63,2.56,5.22,5.17,7.8,7.77c12.21,12.29,13.21,29.42,1.15,42.31
		c-7.95,8.5-16.5,16.47-24.95,24.49C499.98,535.34,493.33,537.09,486.16,537.61z M540.9,379.22c-4.91,0-9.83,0.09-14.74-0.02
		c-14.28-0.32-25.21-7.42-29.82-19.85c-4.79-12.91-1.62-24.12,8.17-33.62c2.01-1.96,4.01-3.93,5.96-5.95
		c4.55-4.71,4.62-6.18,0.13-10.74c-6.06-6.15-12.21-12.23-18.38-18.28c-5.09-5-6.98-4.87-12.37,0.26
		c-3.75,3.56-7.34,7.41-11.55,10.35c-17.24,12.03-40.64,1.46-45.74-16.24c-1.29-4.48-1.36-9.35-1.69-14.06
		c-0.26-3.61-0.05-7.25-0.05-11.4c-10.94-3.84-21.56-1.25-31.9-1.99c-3.23-0.23-6.56-0.34-9.73,3.63c0,2.82,0.27,6.69-0.07,10.51
		c-0.44,4.91-0.66,10-2.2,14.61c-6.14,18.37-31.31,27.4-48.47,12.61c-3.27-2.81-6.18-6.03-9.32-9c-4.08-3.85-6.55-3.93-10.49-0.1
		c-6.51,6.32-12.94,12.72-19.31,19.18c-4.45,4.5-4.36,5.99,0.26,10.74c3.01,3.1,6.28,5.97,9.05,9.26
		c14.83,17.56,5.3,44.77-17.24,48.99c-5.04,0.94-10.29,0.74-15.44,1.12c-2.5,0.18-4.98,0.49-7.18,0.71
		c-2.23,7.05-1.97,34.55,0.24,39.8c0.86,0.22,1.88,0.68,2.9,0.71c4.1,0.12,8.21-0.02,12.31,0.16c13.7,0.61,24.2,6.41,29.3,19.59
		c4.96,12.8,1.92,24.12-7.86,33.68c-2.32,2.27-4.66,4.51-6.88,6.87c-3.53,3.76-3.61,5.66-0.02,9.33c6.65,6.79,13.4,13.48,20.22,20.1
		c3.42,3.32,6.08,3.3,9.54,0.12c3.02-2.78,5.73-5.89,8.8-8.6c8.09-7.13,17.27-10.19,28.09-7.48c12.06,3.02,22.45,13.8,22.98,25.8
		c0.18,4.09,0.5,8.16,0.78,12.25c0.17,2.53,0.37,5.06,0.6,8.21c11.28,3.29,22.52,1.12,33.55,1.57c2.32,0.09,4.7-1.26,7.48-2.08
		c0-4.4-0.25-8.07,0.06-11.69c0.43-4.91,0.61-10,2.09-14.63c5.54-17.36,29.17-27.7,46.73-14.29c4.09,3.13,7.58,7.05,11.37,10.57
		c3.83,3.55,6.37,3.71,10.01,0.19c6.83-6.61,13.57-13.31,20.21-20.11c3.57-3.65,3.46-5.5-0.16-9.33c-2.96-3.14-6.21-6.02-9.08-9.24
		c-7.66-8.61-9.87-18.63-6.25-29.51c3.68-11.06,11.27-18.33,23.02-20.28c5.07-0.84,10.3-0.69,15.44-1.07
		c2.48-0.19,4.95-0.58,7.13-0.84C543.29,412.74,543.13,385.86,540.9,379.22z"/>
	<path class="st0" d="M464.93,645.17c6.36,5.34,12.26,10.28,18.15,15.22c1.32,1.11,2.74,2.13,3.93,3.36
		c7.01,7.23,4.46,17.25-5.04,20.6c-4.48,1.58-8.08,0.06-11.39-2.56c-5.91-4.69-11.69-9.56-17.5-14.38
		c-8.14-6.75-16.22-13.56-24.4-20.26c-4.32-3.54-7.06-7.8-5.58-13.48c0.67-2.59,2.2-5.16,3.92-7.25
		c7.82-9.49,15.86-18.8,23.81-28.18c3.63-4.28,7.04-8.76,10.91-12.81c6.65-6.96,17.15-4.91,20.63,3.81
		c1.68,4.21,0.94,8.1-1.76,11.56c-3.05,3.91-6.31,7.65-9.48,11.47c-1.5,1.8-2.98,3.62-3.98,6.33c3.57-1.17,7.17-2.25,10.7-3.52
		c55.47-19.84,97.76-55.51,127.4-106.29c14.06-24.08,22.69-50.13,27.51-77.51c0.48-2.75,0.58-5.59,1.3-8.27
		c1.81-6.77,7.13-10.51,13.25-9.61c7.04,1.03,11.4,6.21,10.77,13.67c-0.51,5.98-1.55,11.95-2.79,17.84
		c-9.73,46.16-30.19,86.87-61.95,121.85c-34.39,37.88-76.26,63.53-125.54,77.14C467.02,644.13,466.31,644.55,464.93,645.17z"/>
	<path class="st0" d="M653.38,334.54c4.02-7.02,7.55-13.2,11.1-19.35c1.29-2.24,2.51-4.55,4.02-6.64c3.96-5.5,10.98-6.89,16.63-3.43
		c5.34,3.26,7.26,9.88,4.26,15.89c-2.31,4.62-5.07,9.03-7.64,13.52c-6.55,11.41-13.04,22.86-19.68,34.22
		c-4.99,8.53-10.94,10.31-19.44,5.6c-15.47-8.57-30.87-17.28-46.21-26.08c-5.95-3.42-8.35-8.77-6.93-13.93
		c1.98-7.2,10.14-12.05,17.32-8.18c5.51,2.96,10.94,6.06,16.42,9.09c1.27,0.7,2.57,1.34,4.53,2.36c-0.22-1.95-0.21-3.2-0.53-4.36
		c-9.31-33.79-25.28-64.04-48.24-90.57c-33.41-38.61-75.22-63.33-124.7-75.32c-4.39-1.06-8.89-1.68-13.24-2.86
		c-7.21-1.95-11.37-8.22-9.87-14.39c1.65-6.81,8.09-10.86,15.47-9.37c87.97,17.82,151.88,66.75,190.66,147.92
		c6.32,13.23,11.13,27.08,14.54,41.39C652.13,331.27,652.66,332.47,653.38,334.54z"/>
	<path class="st0" d="M331.31,171.83c-14.63,3.33-28.11,9.58-41.28,16.48c-24.72,12.95-46.42,29.89-65.08,50.63
		c-28.3,31.48-46.96,67.9-55.45,109.44c-0.95,4.63-1.54,9.36-2.76,13.92c-1.6,6.01-7.66,10.1-13.2,9.13
		c-6.49-1.14-11.44-6.74-10.53-12.65c0.99-6.37,1.53-12.84,2.95-19.11c9.56-42.24,28.42-79.89,56.73-112.65
		c31.48-36.42,70.27-62.09,115.9-77.43c0.8-0.27,1.61-0.5,3.57-1.12c-2.25-1.04-3.59-1.77-5.01-2.3
		c-7.07-2.62-14.22-5.03-21.22-7.82c-5.74-2.29-8.29-6.89-7.69-12.8c0.54-5.23,4.35-9.42,9.98-10.42c1.8-0.32,3.9-0.11,5.64,0.5
		c18.08,6.36,36.18,12.68,54.13,19.38c7.44,2.78,9.98,8.71,7.34,16.17c-5.96,16.86-12.13,33.64-18.33,50.41
		c-0.73,1.97-1.88,3.93-3.28,5.49c-3.63,4.06-9.42,5.01-14.2,2.65c-4.67-2.31-7.27-6.92-6.56-12.23c0.31-2.32,1.1-4.6,1.84-6.84
		c2.1-6.32,4.29-12.62,6.44-18.92l0.36-0.31L331.31,171.83z"/>
	<path class="st0" d="M146.56,453.33c-4.69,6.4-8.72,11.99-12.86,17.5c-1.42,1.89-2.91,3.8-4.69,5.33
		c-4.56,3.93-10.19,4.03-14.85,0.51c-4.73-3.56-6.32-9.69-3.75-15.03c0.83-1.73,1.99-3.33,3.13-4.89
		c9.8-13.42,19.63-26.83,29.47-40.23c0.89-1.22,1.85-2.4,2.9-3.48c4.75-4.89,9.95-5.79,15.76-2.14c5.11,3.21,9.88,6.95,14.79,10.48
		c9.81,7.06,19.6,14.15,29.41,21.21c3.43,2.47,6.15,5.29,6.52,9.87c0.4,5.01-1.28,8.9-5.49,11.61c-4.21,2.7-8.61,2.86-12.79,0.08
		c-5.03-3.35-9.87-6.97-14.79-10.48c-2.44-1.74-4.87-3.51-8.43-6.07c1.29,4.93,2.13,8.75,3.28,12.48
		c20.37,66.04,61.81,114.19,123.5,144.98c15.86,7.91,32.66,13.39,49.92,17.48c7,1.66,10.71,5.37,11.19,10.81
		c0.72,8.28-5.15,14.5-13.4,13.3c-6.78-0.99-13.49-2.78-20.07-4.75c-44.81-13.45-83.4-37.15-115.41-71.24
		c-29.97-31.9-50.5-69.15-61.64-111.53C147.82,457.46,147.29,455.82,146.56,453.33z"/>
	<path class="st0" d="M399.71,465c-33.01,0.18-65.64-25.86-65.38-65.37c0.27-40.64,34.03-65.12,65.9-64.91
		c33.46,0.22,65.6,26.19,65.36,65.43C465.35,440.48,431.98,465.53,399.71,465z M441.14,400.01c-0.42-20.3-15.15-40.48-40.88-40.73
		c-24.74-0.23-41.03,18.84-41.31,40.17c-0.28,21.04,15.64,41.1,41.08,41.05C425.3,440.47,440.52,420.81,441.14,400.01z"/>
</g>
</svg>
