<?xml version="1.0" encoding="utf-8"?>
<!-- Generator: Adobe Illustrator 26.1.0, SVG Export Plug-In . SVG Version: 6.00 Build 0)  -->
<svg version="1.1" id="Layer_1" xmlns="http://www.w3.org/2000/svg" xmlns:xlink="http://www.w3.org/1999/xlink" x="0px" y="0px"
	 viewBox="0 0 383 330" style="enable-background:new 0 0 383 330;" xml:space="preserve">
<style type="text/css">
	.st0{fill:#DB191A;}
	.st1{fill:#4A539D;}
	.st2{fill:#ED5364;}
	.st3{fill:#FFFFFF;enable-background:new    ;}
	.st4{fill:#353535;}
	.st5{opacity:0.2;fill:#030404;enable-background:new    ;}
	.st6{display:none;opacity:0.6;fill:#FFFFFF;enable-background:new    ;}
	.st7{fill:#EA3841;}
	.st8{fill:none;stroke:#4A4949;stroke-miterlimit:10;}
	.st9{fill:#606161;}
	.st10{fill:#263238;}
	.st11{fill:#BA7964;}
	.st12{fill:#FFFFFF;}
	.st13{fill:#484747;}
	.st14{fill:#A24F3F;}
	.st15{fill:none;stroke:#2E353A;stroke-width:0.725;stroke-linecap:round;stroke-linejoin:round;}
	.st16{fill:#DE5853;}
	.st17{fill:none;stroke:#263238;stroke-width:0.5;stroke-miterlimit:10;}
	.st18{opacity:0.6;fill:#FFFFFF;enable-background:new    ;}
	.st19{fill:#EAB375;}
	.st20{fill:#E9303E;}
	.st21{fill:#D58744;}
	.st22{opacity:0.3;fill:#FFFFFF;enable-background:new    ;}
	.st23{fill:#BF1F1B;}
	.st24{fill:#C71D1B;}
	.st25{opacity:0.4;fill:#FFFFFF;enable-background:new    ;}
	.st26{opacity:0.2;fill:#DB191A;enable-background:new    ;}
</style>
<g>
	<path class="st0" d="M49.93,158.53L45,159.39l22.96,131.85l4.92-0.86L49.93,158.53L49.93,158.53z"/>
	<path class="st1" d="M69.44,155.7c6.42-13.72,0.5-30.05-13.22-36.48c-13.72-6.42-30.05-0.5-36.48,13.22
		c-6.42,13.72-0.5,30.05,13.22,36.48C46.68,175.34,63.01,169.42,69.44,155.7L69.44,155.7z"/>
	<path class="st2" d="M69.44,155.7c6.42-13.72,0.5-30.05-13.22-36.48c-13.72-6.42-30.05-0.5-36.48,13.22
		c-6.42,13.72-0.5,30.05,13.22,36.48C46.68,175.34,63.01,169.42,69.44,155.7L69.44,155.7z"/>
	<path class="st0" d="M64.99,159.14c8.32-11.27,5.94-27.16-5.33-35.48c-11.27-8.33-27.16-5.94-35.48,5.33
		c-8.33,11.27-5.94,27.16,5.33,35.48C40.78,172.8,56.67,170.41,64.99,159.14L64.99,159.14z"/>
	<path class="st1" d="M29.77,146.46l7.12-1.87c0,0,0.46-5.43-2.22-16.51c1.21-0.45,2.47-0.72,3.75-0.82
		c1.28,0.07,4.69,12.32,4.69,12.32s12.68-3.95,13.51-3.56c0.52,0.24,1.09,2.14,1.42,3.48c0.21,0.79-0.19,1.61-0.94,1.93l-0.42,0.2
		l2.32,12.45c0.16,0.96-0.43,1.88-1.37,2.13l-12,2.99c-1.19,0.29-2.44,0.22-3.58-0.21l-1.52-0.57l-7.28,2.31L29.77,146.46
		L29.77,146.46z"/>
	<path class="st3" d="M29.77,146.46l7.12-1.87c0,0,0.46-5.43-2.22-16.51c1.21-0.45,2.47-0.72,3.75-0.82
		c1.28,0.07,4.69,12.32,4.69,12.32s12.68-3.95,13.51-3.56c0.52,0.24,1.09,2.14,1.42,3.48c0.21,0.79-0.19,1.61-0.94,1.93l-0.42,0.2
		l2.32,12.45c0.16,0.96-0.43,1.88-1.37,2.13l-12,2.99c-1.19,0.29-2.44,0.22-3.58-0.21l-1.52-0.57l-7.28,2.31L29.77,146.46
		L29.77,146.46z"/>
	<path class="st4" d="M138.59,242.64l-2.13-5.62c-28.45,1.31-31.64-9.37-31.94-12.82c-0.53-6.33,5.18-12.09,12.76-12.85
		c10.43-1.07,17.39,8.28,20.93,14.43c5.37-6.47,15.76-11.81,23.6-11.81c6,0,10.26,2.81,11.69,8.53c1.14,4.58-0.48,7.42-2.04,9.19
		c-6.62,7.5-25.71,6.02-31.44,5.43L138.59,242.64L138.59,242.64z M141.96,231.29c8.64,0.76,21.21,0.2,24.74-3.75
		c0.56-0.64,1.14-1.29,0.64-3.33c-0.72-2.9-2.44-3.85-5.54-3.85C154.87,220.33,145.12,226.23,141.96,231.29L141.96,231.29z
		 M118.89,217.62c-0.31,0-0.63,0.02-0.94,0.06c-4.29,0.43-7.27,3.52-7.07,6.01c0.24,2.81,5.48,7.54,23.08,7.1
		C131.75,226.4,126.46,217.62,118.89,217.62z"/>
	<path class="st1" d="M199.73,233.71H76.21v84.85h123.52L199.73,233.71L199.73,233.71z"/>
	<path class="st0" d="M199.73,233.71H76.21v84.85h123.52L199.73,233.71L199.73,233.71z"/>
	<path class="st5" d="M199.73,263.03H76.21v55.53h123.52L199.73,263.03L199.73,263.03z"/>
	<path class="st4" d="M168.57,233.71h-10.04v84.85h10.04V233.71z M100.92,233.71h-7.37v84.85h7.37V233.71z"/>
	<path class="st5" d="M125.29,233.71H76.21v84.85h49.07C125.29,318.56,125.29,233.71,125.29,233.71z"/>
	<path class="st6" d="M22.79,318.56h83.57v-57.41H22.79V318.56z"/>
	<g>
		<path class="st4" d="M63.2,261.6c-3.89,0.4-16.8,1.39-21.28-3.66c-1.53-1.68-2.06-4.05-1.38-6.22c0.94-3.86,3.84-5.78,7.9-5.78
			c5.3,0,12.33,3.63,15.93,8c2.4-4.17,7.1-10.49,14.15-9.77c5.13,0.52,9,4.41,8.63,8.7c-0.2,2.31-2.36,9.56-21.61,8.67l-1.43,3.8
			L63.2,261.6L63.2,261.6z M48.45,250.15c-2.1,0-3.25,0.68-3.75,2.64c-0.33,0.77-0.16,1.67,0.43,2.27
			c2.39,2.7,10.89,3.06,16.75,2.54C59.74,254.17,53.14,250.15,48.45,250.15z M67.31,257.3c11.9,0.3,15.46-2.91,15.61-4.81
			c0.14-1.68-1.87-3.75-4.78-4.06c-0.22-0.01-0.44-0.01-0.67,0C72.36,248.4,68.78,254.34,67.31,257.3z"/>
		<path class="st7" d="M22.79,318.56h83.57v-57.41H22.79V318.56z"/>
		<path class="st0" d="M73.14,318.56h33.21v-57.41H73.14V318.56z"/>
		<path class="st4" d="M43.87,318.56h6.79v-57.41h-6.79V318.56z M89.64,318.56h4.99v-57.41h-4.99V318.56z"/>
	</g>
	<path class="st8" d="M317.37,247.95c0,0,6.56-5.47,12.18,0c5.62,5.47,6.72,39.36,6.72,39.36"/>
	<path class="st8" d="M336.79,293.9c0,0-3.87-39.81,10.7-56.54"/>
	<path class="st8" d="M335.36,289.7c0,0,2.98-45.33-7.95-55.38 M336.79,289.7c0,0,0.25-29.99,8.38-34.6
		c8.13-4.61,12.24,10.53,12.24,10.53"/>
	<path class="st8" d="M333.54,289.7c0,0,1.33-22.99-4.97-31.21c-6.3-8.22-12.92,3.52-12.92,3.52 M335.74,292.79
		c0,0-4.08-53.78,2.66-62.89"/>
	<path class="st1" d="M352.08,259.46c0,0-4.05,1.5-2.81,5.02c1.24,3.52,14.06,9.37,14.06,9.37s5.36-4.92,0.44-12.92
		C358.85,252.95,352.2,256.94,352.08,259.46z"/>
	<path class="st0" d="M352.08,259.46c0,0-4.05,1.5-2.81,5.02c1.24,3.52,14.06,9.37,14.06,9.37s5.36-4.92,0.44-12.92
		C358.85,252.95,352.2,256.94,352.08,259.46z"/>
	<path class="st1" d="M334.47,252.75c0,0,4.31-0.18,4.56,3.54c0.25,3.72-9.37,14-9.37,14s-6.84-2.47-5.37-11.75
		C325.77,249.26,333.41,250.46,334.47,252.75L334.47,252.75z"/>
	<path class="st0" d="M334.47,252.75c0,0,4.31-0.18,4.56,3.54c0.25,3.72-9.37,14-9.37,14s-6.84-2.47-5.37-11.75
		C325.77,249.26,333.41,250.46,334.47,252.75L334.47,252.75z"/>
	<path class="st1" d="M330.82,235c0,0,2.88-0.31,2.65-2.06s-11.18-6.26-17.65,1.03c0,0,4.14,7.1,10.12,7.2
		C331.92,241.26,330.82,235,330.82,235z"/>
	<path class="st0" d="M330.82,235c0,0,2.88-0.31,2.65-2.06s-11.18-6.26-17.65,1.03c0,0,4.14,7.1,10.12,7.2
		C331.92,241.26,330.82,235,330.82,235z"/>
	<path class="st1" d="M336.18,230.7c0,0-2.61,1.27-3.33-0.35c-0.72-1.61,6.18-11.25,15.51-8.44c0,0,0.24,8.22-4.78,11.45
		C338.56,236.6,336.18,230.7,336.18,230.7z"/>
	<path class="st0" d="M336.18,230.7c0,0-2.61,1.27-3.33-0.35c-0.72-1.61,6.18-11.25,15.51-8.44c0,0,0.24,8.22-4.78,11.45
		C338.56,236.6,336.18,230.7,336.18,230.7z"/>
	<path class="st1" d="M322.56,258.04c0,0,1.99-1.6-0.15-2.38c-2.14-0.78-12.65-0.56-12.77,9.85c0,0,12.24,2.03,13.76-1.93
		C324.92,259.62,322.56,258.04,322.56,258.04z"/>
	<path class="st0" d="M322.56,258.04c0,0,1.99-1.6-0.15-2.38c-2.14-0.78-12.65-0.56-12.77,9.85c0,0,12.24,2.03,13.76-1.93
		C324.92,259.62,322.56,258.04,322.56,258.04z"/>
	<path class="st1" d="M347.53,234.69c0,0-1.99-1.6,0.16-2.38c2.15-0.78,12.65-0.56,12.76,9.85c0,0-12.24,2.03-13.75-1.93
		C345.19,236.26,347.53,234.69,347.53,234.69z"/>
	<path class="st0" d="M347.53,234.69c0,0-1.99-1.6,0.16-2.38c2.15-0.78,12.65-0.56,12.76,9.85c0,0-12.24,2.03-13.75-1.93
		C345.19,236.26,347.53,234.69,347.53,234.69z"/>
	<path class="st1" d="M341.05,243.08c0,0-0.17-1.95,1.41-1.18c1.57,0.77,7.05,6.67,1.37,12.29c0,0-7.65-5.67-6.27-8.61
		C338.93,242.63,341.05,243.08,341.05,243.08z"/>
	<path class="st0" d="M341.05,243.08c0,0-0.17-1.95,1.41-1.18c1.57,0.77,7.05,6.67,1.37,12.29c0,0-7.65-5.67-6.27-8.61
		C338.93,242.63,341.05,243.08,341.05,243.08z"/>
	<path class="st1" d="M320.79,245.86c0,0,1.19-1.56-0.55-1.75c-1.74-0.2-9.52,1.87-7.71,9.66c0,0,9.49-0.71,9.9-3.95
		C322.82,246.59,320.79,245.86,320.79,245.86z"/>
	<path class="st0" d="M320.79,245.86c0,0,1.19-1.56-0.55-1.75c-1.74-0.2-9.52,1.87-7.71,9.66c0,0,9.49-0.71,9.9-3.95
		C322.82,246.59,320.79,245.86,320.79,245.86z"/>
	<path class="st1" d="M352.84,318.57h-32.55l-3.51-35.64h39.58L352.84,318.57z"/>
	<path class="st9" d="M352.84,318.57h-32.55l-3.51-35.64h39.58L352.84,318.57z"/>
	<path class="st1" d="M358.09,278.99h-43.06v7.86h43.06V278.99z"/>
	<path class="st4" d="M358.09,278.99h-43.06v7.86h43.06V278.99z"/>
	<path class="st10" d="M293.95,57.41c0,0-2.42-5.56-10.2-5.56s-14.27,4.63-13.91,10.56s-4.08,5.38-4.82,11.13
		c-0.74,5.75,2.03,7.23,2.22,9.64c0.19,2.42-2.96,1.67-5,5.75c-2.04,4.08-4.63,9.82,4.08,17.42c8.71,7.6,33.38,6.31,38.75,1.67
		c5.37-4.64,5.19-13.53,0-15.93c-5.19-2.4-0.37-2.04,0.19-7.41c0.55-5.37-4.26-7.41-3.89-11.68
		C301.74,68.73,303.05,57.78,293.95,57.41z"/>
	<path class="st11" d="M248.69,135.25l-7.68-4.19c0,0-2.17-5.62-3.33-6.22s-9.49-0.44-10.55-0.44c-1.06,0-0.77,7.81-0.26,9.11
		c0.51,1.3,9.72,1.73,10.62,1.87l9.37,6.8L248.69,135.25z"/>
	<path class="st1" d="M261.59,93.28c-5.78,0-10.48,40.75-10.48,40.75l-7.91-2.97l-4.94,7.17c0,0,8.89,11.37,17.55,9.89
		c8.65-1.48,13.12-46.04,13.12-46.04L261.59,93.28z"/>
	<path class="st0" d="M268.91,102.09c0,0-0.11,1.16-0.35,3.13c-1.2,10.16-5.49,41.67-12.76,42.91c-0.69,0.12-1.39,0.16-2.09,0.11
		c-7.94-0.38-15.46-10-15.46-10l4.94-7.16l7.91,2.96c0,0,4.69-40.79,10.48-40.75L268.91,102.09z"/>
	<path class="st5" d="M268.57,105.22c-1.2,10.16-5.49,41.67-12.76,42.91c-0.69,0.12-1.39,0.16-2.09,0.11
		c-0.19-26.17,7.78-49.3,7.78-49.3S268.57,105.22,268.57,105.22z"/>
	<path class="st11" d="M265.83,153.53c0,0-10.16,54.14-12.87,76.37c-3.54,29-18.02,71.42-18.02,71.42l5.79,1.5
		c0,0,20.41-36.06,24.37-68.49c16.21-33.15,17.53-73.98,17.53-73.98L265.83,153.53L265.83,153.53z"/>
	<path class="st10" d="M224.16,314.44c0.94-0.42,1.95-0.66,2.97-0.71c0,0,3.56-2.1,7.09-10.23h3.97c1.37,0.02,2.59,0.89,3.05,2.18
		c0.07,0.18,0.1,0.36,0.11,0.55c-0.04,0.96-0.14,1.91-0.31,2.86c-0.58,3.17-1.35,6.3-2.32,9.37l-0.67-0.18l1.23-5.91
		c0.4-2.02-1.72-0.07-2.69,1.96s-2.48,4.07-6.87,3.06C224.62,316.1,222.56,315.36,224.16,314.44L224.16,314.44z"/>
	<path class="st11" d="M276.37,152.67c0,0,1.27,55.06,3.21,77.37c2.54,29.11-2.81,73.61-2.81,73.61l5.98,0.26
		c0,0,12.51-39.5,9.7-72.05c9.01-35.79,1.87-76,1.87-76L276.37,152.67L276.37,152.67z"/>
	<path class="st10" d="M267.43,316.26c0.89-0.53,1.86-0.9,2.88-1.08c0,0,3.31-2.46,5.94-10.94l3.94-0.45
		c1.38-0.13,2.69,0.62,3.27,1.87c0.08,0.17,0.14,0.35,0.17,0.53c0.06,0.96,0.06,1.92,0,2.88c-0.24,3.2-0.68,6.38-1.3,9.52
		l-0.68-0.09l0.57-6.02c0.19-2.04-1.7,0.11-2.46,2.24c-0.76,2.13-2.02,4.31-6.5,3.75C268.06,317.85,265.93,317.33,267.43,316.26
		L267.43,316.26z"/>
	<path class="st11" d="M234.94,301.32c0,0-5,10.37-7.81,12.41c0,0,3.82,2.28,7.81-2.81c5.15-6.56,6.41-4.69,6.41-4.69
		c-0.1-1.13-0.31-2.25-0.62-3.35C239.95,300.7,234.94,301.32,234.94,301.32L234.94,301.32z M277.33,301.23c0,0-1.41,3.83-3.28,8.05
		c-0.86,2.19-2.13,4.19-3.75,5.9c0,0,3.25,1.06,5.01-0.98c1.76-2.04,4.76-9.37,8.14-8.57c-0.18-0.6-0.43-1.18-0.75-1.72
		C282.19,303.08,277.33,301.23,277.33,301.23L277.33,301.23z"/>
	<path class="st1" d="M262.35,144.5c0,0-4.02,40.08-10,80.26c-3.51,22.89-8.88,45.46-16.06,67.48l11.87,0.99
		c0,0,22.74-56.37,29.66-88.99c0,0,2.46,57.84-1.49,89.98l10.38-0.5c0,0,25.31-108.85,6.43-148.09L262.35,144.5L262.35,144.5z"/>
	<path class="st0" d="M286.71,293.73l-10.38,0.49c3.96-32.13,1.49-89.98,1.49-89.98c-1.75,8.24-4.51,17.98-7.65,27.95
		c-9.31,29.53-22.02,61.04-22.02,61.04l-11.87-0.99c7.19-22.02,12.56-44.59,16.06-67.48c5.98-40.18,10-80.26,10-80.26l30.79,1.16
		C312.05,184.86,286.71,293.73,286.71,293.73L286.71,293.73z"/>
	<path class="st5" d="M277.82,204.24c-1.75,8.24-4.51,17.98-7.65,27.95c-1.2-18.75,3.57-52.42,3.57-52.42L277.82,204.24
		L277.82,204.24z"/>
	<path class="st10" d="M293.08,143.71l0.08,4.53l-30.98-1.79l-0.09-5.35L293.08,143.71L293.08,143.71z"/>
	<path class="st12" d="M268.88,147.23l6.77,0.48l0.36-5.13l-6.77-0.48L268.88,147.23L268.88,147.23z"/>
	<path class="st1" d="M282.39,149.83l1.54,0.05l0.25-7.82l-1.54-0.05L282.39,149.83z"/>
	<path class="st0" d="M282.39,149.83l1.54,0.05l0.25-7.82l-1.54-0.05L282.39,149.83z"/>
	<path class="st1" d="M263.47,148.1l1.54,0.05l0.25-7.82l-1.54-0.05L263.47,148.1z"/>
	<path class="st0" d="M263.47,148.1l1.54,0.05l0.25-7.82l-1.54-0.05L263.47,148.1z"/>
	<path class="st1" d="M262.2,139.86l30.93,2.67c0.3-7.67,1.4-15.28,3.29-22.72c0.74-2.96,1.67-6.27,2.86-10.09
		c0.68-2.2,1.39-4.38,2.13-6.56c0.59-1.79,1.23-3.69,1.93-5.7c-4.2-1.34-8.49-2.38-12.84-3.1c-4.59-0.82-9.23-1.3-13.89-1.46
		c-6.02-0.05-12.93,0.63-12.93,0.63s-0.98,0.23-1.6,6.62C261.52,106.09,260.96,118.07,262.2,139.86L262.2,139.86z"/>
	<path class="st13" d="M262.15,141.67l30.93,2.04c0.49-7.69,1.04-14.73,3.36-23.9c0.74-2.96,1.67-6.27,2.86-10.09
		c0.68-2.2,1.39-4.38,2.13-6.56c0.59-1.79,1.23-3.69,1.93-5.7c-4.2-1.34-8.49-2.38-12.84-3.1c-4.59-0.82-9.23-1.3-13.89-1.46
		c-6.02-0.05-12.93,0.63-12.93,0.63s-0.98,0.23-1.6,6.62C261.52,106.09,260.87,119.87,262.15,141.67L262.15,141.67z"/>
	<path class="st11" d="M279.17,99.69c7.63-0.94,9.92-4.24,9.92-4.24c-4.84-4.56-0.82-12.47-0.82-12.47l-9.18,1.72
		c0.21,1.28,0.32,2.57,0.36,3.86c0.07,5.58-2.45,5.62-2.45,5.62C275.39,97.22,279.17,99.69,279.17,99.69z"/>
	<path class="st5" d="M279.09,84.69c0.21,1.28,0.32,2.57,0.36,3.86c6.2,0,8.82-5.58,8.82-5.58S279.09,84.69,279.09,84.69z"/>
	<path class="st11" d="M284.16,59.03c-7.98-0.43-10.78,3.69-11.82,11.88c-1.29,10.23,0.59,17.66,10.68,16.01
		C296.74,84.68,297.42,59.73,284.16,59.03z"/>
	<path class="st14" d="M277.53,70.75c-0.7,1.16-1.54,2.22-2.5,3.18c0.44,0.7,1.23,1.09,2.05,1.02
		C277.08,74.95,277.53,70.75,277.53,70.75z"/>
	<path class="st10" d="M282.43,70.37c0,0.65,0.26,1.21,0.69,1.25c0.43,0.04,0.83-0.47,0.89-1.12c0.06-0.66-0.26-1.22-0.7-1.25
		C282.87,69.22,282.5,69.71,282.43,70.37z"/>
	<path class="st10" d="M283.51,69.29l-1.38-0.67C282.13,68.62,282.75,69.87,283.51,69.29z M274.32,69.59
		c-0.05,0.66,0.26,1.21,0.69,1.25s0.83-0.47,0.94-1.12c0.1-0.66-0.26-1.21-0.7-1.25S274.38,68.93,274.32,69.59z"/>
	<path class="st10" d="M275.38,68.51L274,67.85C274,67.85,274.62,69.1,275.38,68.51z"/>
	<path class="st15" d="M282.83,64.86c1.29-0.09,2.54,0.43,3.39,1.4 M277.05,64.2c-1.09-0.33-2.27-0.16-3.21,0.49"/>
	<path class="st10" d="M278.07,78.15c0.33,0.92,0.59,1.86,0.78,2.81c0.17,0.01,0.34,0.01,0.52,0c2.33-0.1,3.38-0.94,3.84-1.8
		c0.21-0.43,0.31-0.91,0.3-1.4c0-0.28-0.03-0.55-0.1-0.82c-1.41,0.71-2.96,1.11-4.54,1.16C278.38,78.15,278.07,78.15,278.07,78.15z"
		/>
	<path class="st12" d="M278.87,78.1l0.25,0.82c2.19-0.1,3.75-0.48,4.39-1.17c0-0.28-0.03-0.55-0.1-0.82
		C281.99,77.65,280.44,78.04,278.87,78.1z"/>
	<path class="st16" d="M279.36,80.95c2.33-0.1,3.38-0.94,3.84-1.8c-0.89,0.06-1.76,0.27-2.58,0.63
		C280.1,80.03,279.65,80.44,279.36,80.95z"/>
	<path class="st10" d="M292.15,72.96c0,0-3.37-6.76-2.53-11.79c0,0-15.46-7.32-17.11,8.68c0,0-0.77-14.33,12.96-13.9
		c13.73,0.43,12.58,20.5,5.16,26.08C290.63,82.03,294.23,77.18,292.15,72.96L292.15,72.96z"/>
	<path class="st10" d="M292.95,58.27c0,0-6.24-5.56-11.92-4.51s-4.69,8.53,2.81,11.37c7.5,2.84,9.03,6.5,9.03,6.5l6.49-5.81
		L292.95,58.27L292.95,58.27z"/>
	<path class="st17" d="M279.36,56.1c0,0-2.66,0.18-1.92,4.13c0.74,3.96,6.36,5.94,11.68,7.8c5.31,1.86,4.88,3.95,4.88,3.95"/>
	<path class="st11" d="M290.75,74.57c0.26-1.91,2.02-3.25,3.94-2.99c2.46,0.4,3.36,5.54-2.86,6.43
		C290.94,78.13,290.49,77.24,290.75,74.57L290.75,74.57z M296.15,96.28c0,0-8.95,7.26-17.28,7.15s-11.25-9.49-11.25-9.49
		S280.55,90.13,296.15,96.28z"/>
	<path class="st1" d="M290.69,93.74c-2.99,20.34-2.83,41.02,0.47,61.31l8.89-0.99l4.21-57.1L290.69,93.74L290.69,93.74z"/>
	<path class="st0" d="M304.27,96.96l-0.45,6.05l-2.26,30.66l-1.5,20.39l-8.89,0.99c-0.1-0.65-0.21-1.29-0.3-1.93
		c-1.53-10.05-2.29-20.2-2.28-30.37v-1.04c0.01-9.36,0.71-18.71,2.11-27.97l4.12,0.94L304.27,96.96L304.27,96.96z"/>
	<path class="st5" d="M273.61,92.53c0,0-9.93,29.14-11.37,59.05l-3.24-0.94c0,0-2.38-32.35,2.57-57.31L273.61,92.53z"/>
	<path class="st0" d="M273.61,92.53c-2.81,8.72-5.14,17.59-6.98,26.56c-0.51,2.43-1,4.97-1.46,7.59c-0.86,4.85-1.61,9.99-2.17,15.25
		c-0.34,3.2-0.6,6.43-0.76,9.68l-3.24-0.97c0,0-0.31-4.15-0.47-10.64c-0.11-4.45-0.16-10.01,0-16.06
		c0.17-10.27,1.19-20.51,3.03-30.61l8.24-0.53L273.61,92.53L273.61,92.53z M291.9,104.78l3.15,4.45l-6.47,12.48
		c0.01-9.36,0.71-18.71,2.11-27.97l4.12,0.94l2.64,5.89C297.46,100.57,291.9,104.78,291.9,104.78z"/>
	<path class="st0" d="M273.61,92.53c-2.81,8.72-5.14,17.59-6.98,26.56l-2.34-12.81l4.63-4.17l-2.96-4.63l3.88-4.69L273.61,92.53z"/>
	<path class="st5" d="M303.82,103.01l-2.26,30.66c-2.63,6.56-6.21,13.88-10.69,19.45c-1.53-10.05-2.29-20.2-2.28-30.37
		c4.1-6.68,9.93-15.33,15-19.55L303.82,103.01z M265.16,126.66c-0.86,4.85-1.61,9.99-2.17,15.25c-1.47-0.63-2.98-1.29-4.44-1.95
		c-0.11-4.45-0.16-10.01,0-16.06L265.16,126.66z"/>
	<path class="st1" d="M233.9,129.67c0,0-6.97-2.81-4-10.03c0,0-2.02,1.87-6.7-0.45c0,0,4.88,2.33,4.2,3.85
		c-0.57,1.27-6.99,1.95-6.99,1.95s7.23-0.5,7.99,1.06c0.48,0.98-4.38,6.8-4.38,6.8s5.11-4.94,6.2-4.3c1.09,0.64-0.35,4.75-0.35,4.75
		s1.39-3.55,2.18-3.44c0.8,0.11,0.67,2.48,0.67,2.48S232.75,129.83,233.9,129.67z M239.5,113.99c0,0-5.81-4.75-10.71,1.36
		c0,0,0.68-2.68-3.64-5.62c0,0,4.41,3.14,5.41,1.8c0.82-1.11-1.69-7.06-1.69-7.06s3.06,6.56,4.8,6.48c1.1-0.06,3.83-7.11,3.83-7.11
		s-1.87,6.86-0.76,7.5c1.12,0.64,3.98-2.61,3.98-2.61s-2.43,2.93-1.95,3.58c0.48,0.65,2.5-0.61,2.5-0.61S239.06,112.87,239.5,113.99
		L239.5,113.99z"/>
	<path class="st0" d="M233.9,129.67c0,0-6.97-2.81-4-10.03c0,0-2.02,1.87-6.7-0.45c0,0,4.88,2.33,4.2,3.85
		c-0.57,1.27-6.99,1.95-6.99,1.95s7.23-0.5,7.99,1.06c0.48,0.98-4.38,6.8-4.38,6.8s5.11-4.94,6.2-4.3c1.09,0.64-0.35,4.75-0.35,4.75
		s1.39-3.55,2.18-3.44c0.8,0.11,0.67,2.48,0.67,2.48S232.75,129.83,233.9,129.67z M239.5,113.99c0,0-5.81-4.75-10.71,1.36
		c0,0,0.68-2.68-3.64-5.62c0,0,4.41,3.14,5.41,1.8c0.82-1.11-1.69-7.06-1.69-7.06s3.06,6.56,4.8,6.48c1.1-0.06,3.83-7.11,3.83-7.11
		s-1.87,6.86-0.76,7.5c1.12,0.64,3.98-2.61,3.98-2.61s-2.43,2.93-1.95,3.58c0.48,0.65,2.5-0.61,2.5-0.61S239.06,112.87,239.5,113.99
		L239.5,113.99z"/>
	<path class="st11" d="M261.41,127.99l-12.59-8.56c0,0-4.07-11.98-5.04-12.18c-0.97-0.21-7.7,3.44-8.03,4.51
		c-0.33,1.07,3.65,9.63,4.69,10.71c1.04,1.09,3.66,1.2,3.66,1.2l12.26,9.63L261.41,127.99z"/>
	<path class="st1" d="M304.27,96.96c-3.59-0.23-16.81,35.1-18.79,38.06c-1.98,2.96-31.76-12.73-31.76-12.73l-4.44,9.82
		c0,0,32.44,19.29,41.4,16.51c6.49-2.02,12.61-22.49,15.32-31.4C310.33,103.04,307.55,97.16,304.27,96.96z"/>
	<path class="st0" d="M304.27,96.96c-3.59-0.23-16.81,35.1-18.79,38.06c-1.98,2.96-31.76-12.73-31.76-12.73l-4.44,9.82
		c0,0,32.44,19.29,41.4,16.51c6.49-2.02,12.61-22.49,15.32-31.4C310.33,103.04,307.55,97.16,304.27,96.96z"/>
	<path class="st0" d="M194.48,13.64l-12.67-2.19c-1.88-0.33-3.67,0.94-4,2.82l-2.19,12.67c-0.33,1.88,0.94,3.67,2.82,4l12.67,2.19
		c1.88,0.33,3.67-0.94,4-2.82c0,0,0,0,0,0l2.19-12.67C197.62,15.76,196.36,13.97,194.48,13.64z"/>
	<path class="st18" d="M192.45,19.37c-0.99-2.46-3.75-2.06-5.43-0.56c-1.06-1.98-3.53-3.29-5.3-1.29c-2.97,3.36,1.21,7.69,3.23,9.45
		l0.57,0.5l0.71-0.27C188.76,26.21,194.15,23.54,192.45,19.37z"/>
	<path class="st0" d="M187.12,30.88c0,0-3.57,5.4-9.61,6.23c0,0,3.49-1.27,4.29-7.4L187.12,30.88z"/>
	<path class="st10" d="M142.36,309.87h-9.28c-0.31,0-0.58,0.22-0.65,0.52l-1.51,6.8c-0.13,0.61,0.26,1.21,0.87,1.34
		c0.08,0.01,0.16,0.01,0.24,0c3,0,5.19-0.22,8.96-0.22c2.32,0,9.33,0.23,12.53,0.23s3.63-3.16,2.32-3.46
		c-5.89-1.27-10.31-3.06-12.18-4.74C143.31,310.02,142.84,309.85,142.36,309.87L142.36,309.87z M181.71,309.63h-9.28
		c-0.31,0-0.58,0.22-0.65,0.52l-1.51,6.8c-0.13,0.61,0.26,1.21,0.87,1.34c0.08,0.01,0.16,0.01,0.24,0c3.01-0.06,5.19-0.23,8.96-0.23
		c2.32,0,9.33,0.24,12.53,0.24s3.63-3.17,2.32-3.46c-5.89-1.28-10.31-3.06-12.18-4.75C182.66,309.77,182.19,309.61,181.71,309.63
		L181.71,309.63z"/>
	<path class="st10" d="M137.44,137.89h40.54c3.85,21.04,14.87,106.22,6.22,172.58l-13.53,1.48c0,0,2.1-101.97-9.99-134.54
		c-1.4,17.43-3.06,35.98-4.49,45.84c-3.52,24.29-11.47,87.6-11.47,87.6L131,311.21c0,0,3.01-61.4,4.32-85.29
		C136.77,200.03,137.39,143.21,137.44,137.89L137.44,137.89z"/>
	<path class="st9" d="M137.44,137.89h40.54c3.85,21.04,14.87,106.22,6.22,172.58l-13.53,1.48c0,0,2.1-101.97-9.99-134.54
		c-1.4,17.43-3.06,35.98-4.49,45.84c-3.52,24.29-11.47,87.6-11.47,87.6L131,311.21c0,0,3.01-61.4,4.32-85.29
		C136.77,200.03,137.39,143.21,137.44,137.89L137.44,137.89z"/>
	<path class="st5" d="M160.68,177.41c2,5.71,3.51,11.57,4.53,17.54c1.13-15.51-3.4-31.96-3.4-31.96L160.68,177.41L160.68,177.41z"/>
	<path class="st10" d="M178.32,138.38h-40.8v4.85l41.32-0.51L178.32,138.38z"/>
	<path class="st10" d="M150.64,144.81h1.45v-8.62h-1.45V144.81z M171.28,144.81h1.45v-8.62h-1.45V144.81z"/>
	<path class="st12" d="M159.72,142.96h7.54v-5.44h-7.54V142.96z"/>
	<path class="st9" d="M150.64,144.81h1.45v-8.62h-1.45V144.81z M171.28,144.81h1.45v-8.62h-1.45V144.81z"/>
	<path class="st19" d="M220.72,88.69l3.43-3.52c0,0,1.37-5.3,2.16-6.27c0.79-0.97,6.76-3.75,6.76-3.75s2.05,0.1,2.34,0.49
		c0.29,0.38-0.68,9.31-1.57,10.48c-0.88,1.17-5.18,2.16-5.77,2.35c-0.59,0.2-6.65,6.36-6.65,6.36S220.72,88.69,220.72,88.69z"/>
	<path class="st1" d="M174.28,67.75c6.4,0.78,19.01,29.88,23.82,32.48c4.82,2.6,23.92-13.71,23.92-13.71l4.82,5.93
		c0,0-21.69,23.17-30.22,20.62c-8.53-2.55-20.62-24.47-24.28-31.33C168.67,74.88,174.28,67.75,174.28,67.75L174.28,67.75z"/>
	<path class="st20" d="M226.84,92.45c0,0-21.69,23.17-30.22,20.62c-3.75-1.13-8.12-5.94-12.18-11.57
		c-4.43-6.33-8.47-12.93-12.09-19.76c-1.6-3.17-1.68-6.89-0.21-10.12c0.55-1.36,1.27-2.65,2.15-3.82
		c6.4,0.78,19.01,29.89,23.82,32.49c4.82,2.6,23.92-13.72,23.92-13.72L226.84,92.45z"/>
	<path class="st5" d="M184.43,101.46c-4.43-6.33-8.47-12.93-12.09-19.76c-1.6-3.17-1.68-6.89-0.21-10.12
		C175.78,76.07,183.19,86.85,184.43,101.46z"/>
	<path class="st1" d="M174.28,67.75c0,0-25.78-1.22-44.99,3.64c0,0,8.44,42.69,8.15,66.99h40.87
		C178.32,138.38,180.98,92.82,174.28,67.75z"/>
	<path class="st0" d="M178.32,138.38h-40.86c0-2.64,0-5.49-0.19-8.49c-0.36-7.01-1.15-14.78-2.12-22.3l-0.28-2.19
		c-0.66-4.88-1.36-9.61-2.04-13.92c-1.87-11.58-3.53-20.09-3.53-20.09c19.2-4.85,44.99-3.64,44.99-3.64
		C180.97,92.83,178.32,138.38,178.32,138.38L178.32,138.38z"/>
	<path class="st5" d="M162.33,112.47c0,0-7.06,16.82-25.06,17.41c-0.36-7.01-1.15-14.78-2.12-22.3L162.33,112.47z"/>
	<path class="st19" d="M144.34,69.45c3.75,3.36,12.77,2.12,12.77,2.12s5.62-1.55,4.47-3.32c-3.34-0.55-4.95-2.11-5.62-4.1
		c-0.37-1.24-0.49-2.53-0.34-3.81c0.05-0.71,0.15-1.42,0.28-2.12l-11.25-8.3C146.17,55.39,147.97,65.48,144.34,69.45L144.34,69.45z"
		/>
	<path class="st5" d="M147.29,55.19c0.44,6.73,5.97,8.59,8.68,8.96c-0.37-1.24-0.49-2.53-0.34-3.81
		C155.64,60.34,147.29,55.19,147.29,55.19z"/>
	<path class="st10" d="M163.68,32.48c0,0,3.13,10.12-1.77,14.93s-7.79-14.47-7.79-14.47L163.68,32.48z"/>
	<path class="st19" d="M147.18,58.03c2.9,3.15,7.54,3.98,11.34,2.02c2.42-1.19,4.29-3.25,5.25-5.76c0.13-0.35,0.24-0.7,0.35-1.07
		c1.75-6.74,0.94-17.94-6.36-21.08c-5.06-2.2-10.95-0.03-13.37,4.93c-0.77,1.58-1.13,3.33-1.03,5.08
		C143.64,49.68,143.45,54.11,147.18,58.03z"/>
	<path class="st10" d="M154.73,44.49c-0.06,0.61,0.3,1.12,0.7,1.12s0.73-0.49,0.75-1.1c0.02-0.61-0.31-1.12-0.7-1.12
		C155.08,43.39,154.75,43.87,154.73,44.49z M161.65,44.63c-0.06,0.61,0.31,1.12,0.7,1.12c0.39,0.01,0.73-0.49,0.75-1.1
		c0.02-0.61-0.31-1.12-0.7-1.12S161.67,44.05,161.65,44.63z"/>
	<path class="st21" d="M159.45,44.88c0.69,1.89,1.63,3.68,2.81,5.3c-0.87,0.59-1.95,0.77-2.96,0.49L159.45,44.88z"/>
	<path class="st10" d="M152.62,42.2c0.13,0.02,0.27-0.03,0.36-0.13c0.55-0.73,1.41-1.16,2.32-1.16c0.09,0.01,0.19-0.02,0.26-0.08
		c0.07-0.06,0.12-0.15,0.13-0.24c0.02-0.2-0.13-0.37-0.33-0.39c-1.16-0.03-2.26,0.5-2.95,1.42c-0.12,0.15-0.1,0.38,0.05,0.51
		C152.51,42.16,152.56,42.19,152.62,42.2L152.62,42.2z M164.68,42.3c0.07,0.02,0.14,0.02,0.21,0c0.18-0.08,0.27-0.29,0.19-0.48
		c-0.47-1.06-1.42-1.84-2.56-2.07c-0.19-0.03-0.37,0.11-0.4,0.3c-0.02,0.19,0.11,0.37,0.3,0.41c0.89,0.2,1.64,0.82,2,1.67
		C164.46,42.23,164.57,42.29,164.68,42.3L164.68,42.3z M149.06,32.88l0.5,3.31c-1.14,0.59-1.65,1.96-1.15,3.15
		c1.14,2.76-0.32,7.12-2.41,8.91c0,0-0.1-1.21-1.12-0.89c-1.01,0.32-0.55,6.56,1.52,9.54c-2.65-2.73-4.54-6.1-5.49-9.78
		c-1.73-6.06-1.56-10.56-0.37-12.96L149.06,32.88z"/>
	<path class="st19" d="M139.97,48.26c0.79,1.74,2.24,3.09,4.03,3.75c2.36,0.85,3.75-1.23,3.22-3.55c-0.47-2.06-2.24-5.06-4.69-4.88
		C140.09,43.75,139.03,46.14,139.97,48.26z"/>
	<path class="st10" d="M159.87,52.52c-0.31,0.87-0.56,1.76-0.74,2.67h-0.49c-2.21-0.1-3.21-0.88-3.64-1.72
		c-0.2-0.41-0.3-0.86-0.29-1.32c0-0.26,0.03-0.51,0.1-0.76c1.34,0.66,2.8,1.04,4.29,1.1C159.11,52.5,159.87,52.52,159.87,52.52z"/>
	<path class="st12" d="M159.11,52.48l-0.23,0.78c-2.08-0.1-3.53-0.45-4.16-1.12c0-0.26,0.03-0.51,0.1-0.76
		C156.16,52.04,157.62,52.42,159.11,52.48z"/>
	<path class="st16" d="M158.65,55.18c-2.21-0.1-3.21-0.88-3.64-1.72c0.84,0.05,1.67,0.26,2.44,0.6
		C157.95,54.3,158.37,54.69,158.65,55.18z"/>
	<path class="st9" d="M151.35,34.01c0,0,0.5,3.96-4.44,6c-4.94,2.04-6.74,3.75-6.74,3.75s-3.34-9.7,2.72-13.28
		c0,0,0.12-1.87,5.31-3.65c5.19-1.77,12.63-0.94,16.01,5.31c2.53,4.69,0.19,8.03,0.19,8.03s-0.5-2.72-5.31-3.34
		C156.33,36.48,153.69,35.51,151.35,34.01L151.35,34.01z M160.81,71.02l-1.09,5.33c0,0,6.21,25.91,7.5,39.36l-2.26,2.27l-3.56-2.27
		c0,0-0.32-27.37-3.46-38.86l-5.62-4.61l4.43-1.43L160.81,71.02L160.81,71.02z"/>
	<path class="st1" d="M145.59,64.42l10.78,4.85l0.63-3.9l3.96,1.4c1.42,0.5,2.32,1.91,2.17,3.41l-0.45,4.27l-5.46-2.99l-2.73,3.85
		l-12.93-6.23L145.59,64.42z"/>
	<path class="st20" d="M145.59,64.42l10.78,4.85l0.63-3.9l3.96,1.4c1.42,0.5,2.32,1.91,2.17,3.41l-0.45,4.27l-5.46-2.99l-2.73,3.85
		l-12.93-6.23L145.59,64.42z"/>
	<path class="st19" d="M174.19,105.66l12.97-2.41c0,0,2.41-2.41,3.52-2.41c1.12,0,15.58,4.44,15.58,4.44s-3.9,3.9-5.75,4.64
		c-1.86,0.74-10.38-1.12-10.38-1.12l-12.61,3.34C177.53,112.14,174.19,105.66,174.19,105.66z"/>
	<path class="st1" d="M129.29,71.39c5.92-2.16,14.68,32.92,16.53,35.7c1.86,2.78,36.71-4.09,36.71-4.09l2.81,8.16
		c0,0-29.48,10.2-41.71,8.16s-15-19.84-17.99-30.4S124.97,72.95,129.29,71.39z"/>
	<path class="st20" d="M129.29,71.39c5.92-2.16,14.68,32.92,16.53,35.7c1.86,2.78,36.71-4.09,36.71-4.09l2.81,8.16
		c0,0-29.48,10.2-41.71,8.16s-15-19.84-17.99-30.4S124.97,72.95,129.29,71.39z"/>
	<path class="st0" d="M222.93,71.36c0.54-1.18,1.57-2.08,2.81-2.46c1.14-0.34,2.35-0.31,3.47,0.07c1.13,0.37,2.11,1.08,2.81,2.04
		c0.18,0.24,0.33,0.49,0.46,0.76c0.13,0.26,0.24,0.54,0.32,0.82l0.12,0.41l0.06,0.39l0.1,0.79c0.18,2.14-0.5,4.26-1.87,5.9
		c-1.3,1.55-3,2.72-4.91,3.39c-1.82,0.65-3.75,0.97-5.69,0.94c-0.94,0-1.88-0.07-2.81-0.21c-0.85-0.17-1.71-0.26-2.58-0.26
		c-0.77-0.01-1.52,0.24-2.14,0.7c-0.56,0.38-0.81,1.07-0.63,1.72c0.24,0.59,0.88,0.91,1.5,0.75c0.53-0.21,0.8-0.81,0.59-1.34
		c0-0.01-0.01-0.02-0.01-0.03c-0.07-0.17-0.19-0.32-0.34-0.43c0.52,0.12,0.91,0.57,0.94,1.11c0.03,0.6-0.26,1.17-0.77,1.49
		c-0.53,0.33-1.19,0.37-1.75,0.11c-0.56-0.22-1.02-0.66-1.27-1.21c-0.43-1.13-0.09-2.4,0.84-3.17c0.81-0.69,1.83-1.1,2.9-1.17
		c0.96-0.04,1.92,0,2.87,0.13c0.87,0.09,1.74,0.1,2.61,0.05c1.72-0.07,3.41-0.44,5-1.11c1.53-0.6,2.88-1.6,3.9-2.89
		c0.98-1.3,1.41-2.94,1.2-4.56c-0.09-0.86-0.53-1.64-1.21-2.17c-0.68-0.53-1.54-0.76-2.4-0.65c-1.76,0.31-3.05,1.87-3.82,3.37
		L222.93,71.36L222.93,71.36z M198.58,63.07c0.3-1.28,0.02-2.63-0.76-3.68c-0.7-0.96-1.68-1.69-2.81-2.06
		c-1.12-0.4-2.34-0.44-3.48-0.1c-0.29,0.08-0.56,0.19-0.82,0.33c-0.27,0.12-0.52,0.27-0.75,0.45l-0.36,0.25l-0.29,0.28l-0.56,0.55
		c-1.44,1.59-2.2,3.69-2.1,5.83c0.09,2.02,0.71,3.99,1.81,5.69c1.04,1.64,2.37,3.08,3.92,4.25c0.75,0.58,1.55,1.11,2.38,1.57
		c0.77,0.39,1.51,0.85,2.2,1.37c0.61,0.48,1.05,1.13,1.27,1.87c0.2,0.64-0.02,1.35-0.56,1.75c-0.55,0.32-1.25,0.18-1.64-0.32
		c-0.3-0.49-0.14-1.13,0.35-1.43c0.01-0.01,0.03-0.02,0.04-0.02c0.17-0.09,0.35-0.13,0.54-0.12c-0.49-0.24-1.08-0.13-1.44,0.28
		c-0.4,0.45-0.52,1.08-0.31,1.65c0.22,0.58,0.72,1.02,1.32,1.16c0.58,0.17,1.21,0.1,1.74-0.18c1.03-0.63,1.54-1.85,1.27-3.03
		c-0.22-1.05-0.77-2-1.57-2.7c-0.73-0.62-1.52-1.17-2.35-1.65c-0.74-0.46-1.44-0.98-2.1-1.56c-1.32-1.11-2.43-2.43-3.28-3.93
		c-0.85-1.42-1.31-3.03-1.32-4.69c0.02-1.63,0.67-3.18,1.82-4.34c0.6-0.62,1.43-0.97,2.3-0.97c0.86,0,1.69,0.35,2.3,0.97
		c1.2,1.32,1.27,3.35,0.94,5L198.58,63.07L198.58,63.07z"/>
	<path class="st0" d="M209.32,84.94c5.82-0.65,11.61-5.06,14.84-11.85l1.48-3.12l-28.39-9.68l-0.73,3.37
		c-1.58,7.35,0.31,14.37,4.52,18.44c1.12,1.11,1.53,2.76,1.04,4.26l-2.01,6.28c-0.48,1.54-2.02,2.49-3.61,2.23
		c-1.4-0.24-2.85,0.04-4.06,0.79l-1.48,0.94l17.59,6l-0.59-1.65c-0.51-1.33-1.48-2.43-2.74-3.1c-1.42-0.76-2.06-2.45-1.5-3.96
		l2.25-6.2C206.46,86.21,207.77,85.15,209.32,84.94z"/>
	<path class="st10" d="M190.5,94.82l19.44,6.62l-1.42,6.57l-20.91-7.12L190.5,94.82L190.5,94.82z"/>
	<path class="st9" d="M194.94,96.33l10.57,3.6l-1.42,6.56l-12.03-4.1L194.94,96.33L194.94,96.33z"/>
	<path class="st12" d="M202.76,101.07l-6.32-2.15l-0.84,2.46l6.32,2.15L202.76,101.07L202.76,101.07z"/>
	<path class="st22" d="M202.06,81.66c1.05,1.27,1.36,3.01,0.81,4.56l-2.41,7.1c-0.48,1.39-1.06,1.78-2.73,1.87
		c-0.98-0.02-1.95,0.21-2.81,0.67l2.95,1.01c0.35-0.15,0.71-0.24,1.09-0.27h0.48c0.65-0.04,1.22-0.48,1.42-1.1l3.93-11.53
		c0.28-0.83,0.17-1.74-0.32-2.47l-0.5-0.76c-2.09-3.18-2.86-7.04-2.15-10.78l1.23-6.84l-4.26-1.45l-0.94,7.92
		C197.31,73.4,199.01,78.41,202.06,81.66z"/>
	<path class="st1" d="M152.67,95.89l-3.3-0.91l-3.19,1.52l-0.71-7.54l6.5-0.61L152.67,95.89z"/>
	<path class="st23" d="M152.67,95.89l-3.3-0.91l-3.19,1.52l-0.71-7.54l6.5-0.61L152.67,95.89z"/>
	<path class="st24" d="M148.16,82.41l0.68,0.37l0.71-0.32l0.57,0.52l0.78-0.13l0.42,0.65l0.78,0.07l0.25,0.74l0.74,0.25l0.06,0.78
		l0.66,0.42l-0.14,0.77l0.52,0.58l-0.32,0.71l0.37,0.68l-0.49,0.61l0.18,0.76l-0.63,0.47l-0.01,0.78l-0.72,0.3l-0.21,0.75l-0.77,0.1
		l-0.38,0.68l-0.78-0.09l-0.54,0.56l-0.73-0.27l-0.67,0.4l-0.64-0.45l-0.74,0.23l-0.51-0.6l-0.78,0.04l-0.35-0.7l-0.76-0.15
		l-0.16-0.77l-0.7-0.34l0.04-0.79l-0.59-0.51l0.23-0.74l-0.45-0.64l0.4-0.67l-0.27-0.73l0.56-0.54l-0.08-0.77l0.67-0.39l0.11-0.77
		l0.75-0.21l0.3-0.72l0.78-0.01l0.47-0.62l0.76,0.18L148.16,82.41L148.16,82.41z"/>
	<path class="st25" d="M149.86,92.52c2.52-0.66,4.02-3.24,3.35-5.76c-0.66-2.52-3.24-4.02-5.76-3.35c-2.52,0.66-4.02,3.24-3.35,5.76
		C144.77,91.68,147.35,93.19,149.86,92.52z"/>
	<path class="st12" d="M148.8,87.6l-0.06,0.84l0.67-0.06v0.67l-0.69,0.06l-0.07,1.06L148,90.24l0.07-1.06l-0.57,0.06l-0.07,1.05
		l-0.66,0.07l0.07-1.06l-0.65,0.07v-0.67l0.66-0.07l0.07-0.84l-0.66,0.07v-0.67l0.66-0.07l0.08-1.21l0.66-0.06l-0.08,1.2h0.57
		l0.08-1.21l0.67-0.07l-0.08,1.21l0.68-0.07v0.67L148.8,87.6z M148.14,87.66h-0.57l-0.06,0.85l0.57-0.06
		C148.08,88.46,148.14,87.66,148.14,87.66z M150.85,89.97l-0.31-3.38l-0.56,0.06l-0.05-0.46c0.16-0.04,0.31-0.12,0.43-0.22
		c0.13-0.1,0.23-0.24,0.28-0.4h0.46l0.41,4.39L150.85,89.97z"/>
	<g>
		<path class="st26" d="M222.93,71.36c0.54-1.18,1.57-2.08,2.81-2.46c1.14-0.34,2.35-0.31,3.47,0.07c1.13,0.37,2.11,1.08,2.81,2.04
			c0.18,0.24,0.33,0.49,0.46,0.76c0.13,0.26,0.24,0.54,0.32,0.82l0.12,0.41l0.06,0.39l0.1,0.79c0.18,2.14-0.5,4.26-1.87,5.9
			c-1.3,1.55-3,2.72-4.91,3.39c-1.82,0.65-3.75,0.97-5.69,0.94c-0.94,0-1.88-0.07-2.81-0.21c-0.85-0.17-1.71-0.26-2.58-0.26
			c-0.77-0.01-1.52,0.24-2.14,0.7c-0.56,0.38-0.81,1.07-0.63,1.72c0.24,0.59,0.88,0.91,1.5,0.75c0.53-0.21,0.8-0.8,0.59-1.34
			c0-0.01-0.01-0.02-0.01-0.04c-0.07-0.17-0.19-0.32-0.34-0.43c0.52,0.12,0.91,0.57,0.94,1.11c0.03,0.6-0.26,1.17-0.77,1.49
			c-0.53,0.33-1.19,0.37-1.75,0.11c-0.56-0.22-1.02-0.66-1.27-1.21c-0.43-1.13-0.09-2.4,0.84-3.17c0.81-0.69,1.83-1.1,2.9-1.17
			c0.96-0.04,1.92,0,2.87,0.13c0.87,0.09,1.74,0.1,2.61,0.05c1.72-0.07,3.41-0.44,5-1.11c1.53-0.6,2.88-1.6,3.9-2.89
			c0.98-1.3,1.41-2.94,1.2-4.56c-0.09-0.86-0.53-1.64-1.21-2.17c-0.68-0.53-1.54-0.76-2.4-0.64c-1.76,0.31-3.05,1.87-3.82,3.37
			L222.93,71.36L222.93,71.36z M198.58,63.07c0.3-1.28,0.02-2.63-0.76-3.68c-0.7-0.96-1.68-1.69-2.81-2.06
			c-1.12-0.4-2.34-0.44-3.48-0.1c-0.29,0.08-0.56,0.19-0.82,0.33c-0.27,0.12-0.52,0.27-0.75,0.45l-0.36,0.25l-0.29,0.28l-0.56,0.55
			c-1.44,1.59-2.2,3.69-2.1,5.83c0.09,2.02,0.71,3.99,1.81,5.69c1.04,1.64,2.37,3.08,3.92,4.25c0.75,0.58,1.55,1.11,2.38,1.57
			c0.77,0.39,1.51,0.85,2.2,1.37c0.61,0.48,1.05,1.13,1.27,1.87c0.2,0.64-0.02,1.35-0.56,1.75c-0.55,0.32-1.25,0.18-1.64-0.32
			c-0.3-0.49-0.14-1.13,0.35-1.43c0.01-0.01,0.03-0.02,0.04-0.02c0.17-0.09,0.35-0.13,0.54-0.12c-0.49-0.24-1.08-0.13-1.44,0.28
			c-0.4,0.45-0.52,1.08-0.31,1.65c0.22,0.58,0.72,1.02,1.32,1.16c0.58,0.17,1.21,0.1,1.74-0.18c1.03-0.63,1.54-1.85,1.27-3.03
			c-0.22-1.05-0.77-2-1.57-2.7c-0.73-0.62-1.52-1.17-2.35-1.65c-0.74-0.46-1.44-0.98-2.1-1.56c-1.32-1.11-2.43-2.43-3.28-3.93
			c-0.85-1.42-1.31-3.03-1.32-4.69c0.02-1.63,0.67-3.18,1.82-4.34c0.6-0.62,1.43-0.97,2.3-0.97c0.86,0,1.69,0.35,2.3,0.97
			c1.2,1.32,1.27,3.35,0.94,5L198.58,63.07L198.58,63.07z"/>
	</g>
</g>
</svg>
