<?xml version="1.0" encoding="utf-8"?>
<!-- Generator: Adobe Illustrator 27.1.1, SVG Export Plug-In . SVG Version: 6.00 Build 0)  -->
<svg version="1.1" id="Layer_1" xmlns="http://www.w3.org/2000/svg" xmlns:xlink="http://www.w3.org/1999/xlink" x="0px" y="0px"
	 viewBox="0 0 80 80" style="enable-background:new 0 0 80 80;" xml:space="preserve">
<style type="text/css">
	.st0{fill:#E21F26;}
</style>
<g>
	<g>
		<path class="st0" d="M22.58,40.24L22.58,40.24l0.01,0.01c1.72,0.76,3.63,1.19,5.63,1.19c4.46,0,8.43-2.1,10.99-5.36
			c0.31-0.39,0.6-0.8,0.86-1.23c0.25-0.41,0.48-0.83,0.69-1.27c0.2-0.42,0.39-0.84,0.56-1.28c0.55-1.49,0.85-3.11,0.85-4.79
			c0,0,0,0,0,0c0-1.43,0.31-2.79,0.86-4.01c1.53-3.39,4.94-5.74,8.89-5.74c5.39,0,9.76,4.37,9.76,9.75c0,0.57-0.05,1.13-0.15,1.68
			H47.61c0.14,0.65,0.43,1.24,0.82,1.75c0.8,1.04,2.07,1.71,3.49,1.71c1.42,0,2.68-0.67,3.49-1.71h5.65
			c-1.39,3.7-4.95,6.33-9.13,6.33c-3.95,0-7.36-2.36-8.89-5.74c-0.45,1.65-1.16,3.18-2.09,4.56c2.55,3.26,6.52,5.36,10.98,5.36
			c7.7,0,13.94-6.24,13.94-13.93c0-7.7-6.24-13.94-13.94-13.94c-4.46,0-8.43,2.1-10.98,5.36c-0.31,0.39-0.6,0.81-0.86,1.23
			c-0.83,1.33-1.44,2.82-1.78,4.4c-0.2,0.95-0.31,1.93-0.31,2.94c0,1.43-0.31,2.79-0.86,4.01c-1.53,3.38-4.94,5.74-8.89,5.74
			c-0.11,0-0.22-0.01-0.33-0.02v-3.91c0-2.26,0.51-3.93,1.52-5c1.01-1.07,2.41-1.61,4.18-1.61h0.28v-5.56
			c-1.59-0.07-2.84,0.28-3.78,1.05c-0.93,0.77-1.67,1.79-2.2,3.08v-3.92h-5.31v14.08c-2.48-1.77-4.11-4.66-4.11-7.95
			c0-5.39,4.37-9.75,9.75-9.75c3.96,0,7.36,2.36,8.89,5.74c0.44-1.65,1.16-3.18,2.09-4.56c-2.55-3.26-6.52-5.36-10.99-5.36
			c-7.7,0-13.93,6.24-13.93,13.94C14.29,33.19,17.7,38.07,22.58,40.24z"/>
		<path class="st0" d="M51.92,22.36c-1.99,0-3.67,1.32-4.22,3.13h8.44C55.59,23.68,53.91,22.36,51.92,22.36z"/>
	</g>
	<g>
		<g>
			<g>
				<path class="st0" d="M23.41,66.43c-6.72,0-12.19-5.47-12.19-12.19c0-6.72,5.47-12.19,12.19-12.19S35.6,47.52,35.6,54.24
					C35.6,60.97,30.13,66.43,23.41,66.43z M23.41,42.34c-6.57,0-11.91,5.34-11.91,11.91s5.34,11.91,11.91,11.91
					s11.91-5.34,11.91-11.91S29.98,42.34,23.41,42.34z"/>
			</g>
		</g>
		<g>
			<path class="st0" d="M23.46,63.59c-5.25,0-9.29-3.88-9.29-9.16c0-5.34,4.13-9.16,9.29-9.16c5.19,0,9.29,3.88,9.29,9.1
				C32.75,59.77,28.65,63.59,23.46,63.59z M27.59,54.43c0-2.3-1.74-4.35-4.16-4.35c-2.27,0-4.1,1.99-4.1,4.35
				c0,2.36,1.8,4.35,4.13,4.35C25.88,58.78,27.59,56.73,27.59,54.43z"/>
			<path class="st0" d="M44.61,63.07V53.5c0-2.33-0.81-3.42-2.7-3.42c-2.08,0-2.95,1.15-2.95,3.48v9.51H33.8V45.82h4.81v1.83h0.06
				c1.09-1.77,2.61-2.42,4.69-2.42c3.11,0,6.4,1.74,6.4,6.83v11H44.61z"/>
			<path class="st0" d="M55.73,56.01c0.28,1.96,1.93,3.26,4.04,3.26c1.4,0,2.3-0.53,3.14-1.62h5.28c-1.65,3.76-4.78,5.96-8.42,5.96
				c-4.97,0-9.13-4.01-9.13-9.13c0-4.97,3.98-9.26,9.04-9.26c5.16,0,9.1,4.07,9.1,9.41c0,0.5-0.03,0.9-0.12,1.37H55.73z
				 M63.62,52.53c-0.4-1.77-1.96-2.95-3.94-2.95c-1.86,0-3.48,1.12-3.88,2.95H63.62z"/>
		</g>
	</g>
</g>
</svg>
