<?xml version="1.0" encoding="utf-8"?>
<!-- Generator: Adobe Illustrator 27.1.1, SVG Export Plug-In . SVG Version: 6.00 Build 0)  -->
<svg version="1.1" id="Layer_1" xmlns="http://www.w3.org/2000/svg" xmlns:xlink="http://www.w3.org/1999/xlink" x="0px" y="0px"
	 viewBox="0 0 720 720" style="enable-background:new 0 0 720 720;" xml:space="preserve">
<style type="text/css">
	.st0{fill:#E21F26;}
	.st1{fill:none;stroke:#E21F26;stroke-miterlimit:10;}
	.st2{font-family:'ITCAvantGardeStd-Bold';}
	.st3{font-size:110.0093px;}
</style>
<g>
	<g>
		<path class="st0" d="M298.05,351.91v0.02h0.05c6.1,2.7,12.84,4.21,19.94,4.21c15.8,0,29.87-7.43,38.91-18.98
			c1.09-1.4,2.11-2.85,3.04-4.37c0.9-1.44,1.7-2.95,2.44-4.48c0.72-1.48,1.39-2.99,1.97-4.55c1.94-5.29,3-11.01,3-16.97
			c0,0,0-0.01,0-0.01c0-5.07,1.09-9.88,3.05-14.2c5.42-11.99,17.49-20.33,31.49-20.33c19.09,0,34.55,15.46,34.55,34.55
			c0,2.03-0.18,4.02-0.52,5.95H386.7c0.5,2.3,1.51,4.39,2.9,6.19c2.85,3.69,7.32,6.06,12.34,6.06c5.03,0,9.5-2.37,12.35-6.06h20
			c-4.91,13.09-17.54,22.41-32.35,22.41c-14,0-26.07-8.34-31.49-20.33c-1.59,5.83-4.11,11.27-7.4,16.15
			c9.03,11.56,23.09,18.99,38.89,18.99c27.26,0,49.36-22.1,49.36-49.35c0-27.25-22.09-49.35-49.36-49.35
			c-15.8,0-29.87,7.43-38.89,18.99c-1.1,1.4-2.12,2.85-3.06,4.36c-2.93,4.72-5.09,9.97-6.29,15.58c-0.72,3.36-1.1,6.85-1.1,10.43
			c0,5.07-1.09,9.88-3.05,14.22c-5.42,11.99-17.48,20.33-31.5,20.33c-0.4,0-0.78-0.05-1.18-0.06v-13.86c0-8.01,1.8-13.91,5.39-17.7
			c3.59-3.8,8.52-5.7,14.8-5.7h0.99v-19.69c-5.62-0.25-10.07,0.99-13.37,3.72c-3.3,2.72-5.9,6.35-7.8,10.89v-13.88h-18.81v49.88
			c-8.8-6.26-14.55-16.52-14.55-28.14c0-19.08,15.46-34.55,34.55-34.55c14.01,0,26.08,8.34,31.5,20.33
			c1.58-5.84,4.1-11.27,7.41-16.16c-9.04-11.55-23.1-18.98-38.91-18.98c-27.25,0-49.35,22.1-49.35,49.35
			C268.69,326.93,280.76,344.24,298.05,351.91z"/>
		<path class="st0" d="M401.95,288.59c-7.04,0-13.01,4.67-14.95,11.09h29.9C414.96,293.25,409,288.59,401.95,288.59z"/>
	</g>
	<g>
		<g>
			<circle class="st1" cx="301" cy="401.51" r="42.67"/>
		</g>
		<text transform="matrix(1 0 0 1 264.5342 432.7496)" class="st0 st2 st3">one</text>
	</g>
</g>
</svg>
